<svg width="51" height="50" viewBox="0 0 51 50" fill="none" xmlns="http://www.w3.org/2000/svg">
<ellipse cx="25.7998" cy="24.9995" rx="25.1044" ry="25" fill="#1D29FF"/>
<g clip-path="url(#clip0_1_995)">
<path d="M32.181 21.74C32.1912 21.8822 32.1912 22.0243 32.1912 22.1664C32.1912 26.5014 28.8779 31.4964 22.8223 31.4964C20.9566 31.4964 19.2235 30.9583 17.7657 30.0243C18.0308 30.0547 18.2856 30.0649 18.5609 30.0649C20.1002 30.0649 21.5173 29.5472 22.6489 28.6639C21.2013 28.6334 19.9881 27.6893 19.5701 26.3898C19.774 26.4202 19.9779 26.4405 20.192 26.4405C20.4877 26.4405 20.7833 26.3999 21.0586 26.3289C19.5498 26.0243 18.4181 24.7045 18.4181 23.1106V23.07C18.8565 23.3137 19.3663 23.4659 19.9065 23.4862C19.0196 22.8974 18.4385 21.8923 18.4385 20.7552C18.4385 20.1461 18.6016 19.5877 18.8871 19.1004C20.508 21.0903 22.9446 22.3897 25.6767 22.5319C25.6258 22.2882 25.5952 22.0345 25.5952 21.7807C25.5952 19.9735 27.0632 18.5015 28.888 18.5015C29.8361 18.5015 30.6925 18.8974 31.294 19.537C32.0382 19.3949 32.7518 19.1207 33.3839 18.7451C33.1392 19.5066 32.6193 20.1462 31.9363 20.5522C32.5989 20.4812 33.2412 20.2984 33.8325 20.0446C33.384 20.6943 32.8232 21.273 32.181 21.74Z" fill="white"/>
</g>
<defs>
<clipPath id="clip0_1_995">
<rect width="16.0668" height="16" fill="white" transform="translate(17.7657 16.9995)"/>
</clipPath>
</defs>
</svg>
