<svg width="52" height="50" viewBox="0 0 52 50" fill="none" xmlns="http://www.w3.org/2000/svg">
<ellipse cx="26.0498" cy="24.9995" rx="25.1044" ry="25" fill="#1D29FF"/>
<path d="M22.1703 30.9992H19.2557V21.6523H22.1703V30.9992ZM20.7115 20.3773C19.7795 20.3773 19.0235 19.6086 19.0235 18.6804C19.0235 18.2346 19.2013 17.8071 19.5179 17.4918C19.8344 17.1766 20.2638 16.9995 20.7115 16.9995C21.1591 16.9995 21.5885 17.1766 21.905 17.4918C22.2216 17.8071 22.3994 18.2346 22.3994 18.6804C22.3994 19.6086 21.6431 20.3773 20.7115 20.3773ZM33.0788 30.9992H30.1705V26.4492C30.1705 25.3648 30.1485 23.9742 28.6551 23.9742C27.1398 23.9742 26.9075 25.1523 26.9075 26.3711V30.9992H23.9961V21.6523H26.7914V22.9273H26.8322C27.2214 22.1929 28.1719 21.4179 29.59 21.4179C32.5397 21.4179 33.082 23.3523 33.082 25.8648V30.9992H33.0788Z" fill="white"/>
</svg>
