<svg width="17" height="17" viewBox="0 0 17 17" fill="none" xmlns="http://www.w3.org/2000/svg">
<path d="M13.0585 9.41024C12.9796 9.33152 12.8859 9.26908 12.7827 9.22647C12.6796 9.18386 12.569 9.16193 12.4573 9.16193C12.3456 9.16193 12.235 9.18386 12.1318 9.22647C12.0286 9.26908 11.9349 9.33152 11.856 9.41024L10.5004 10.7602C9.87193 10.5739 8.69917 10.1504 7.95588 9.41024C7.21259 8.67005 6.78737 7.50216 6.60027 6.8763L7.95588 5.52633C8.03492 5.44775 8.09763 5.35442 8.14042 5.25167C8.18321 5.14893 8.20523 5.0388 8.20523 4.92757C8.20523 4.81634 8.18321 4.70621 8.14042 4.60346C8.09763 4.50072 8.03492 4.40739 7.95588 4.32881L4.5541 0.941185C4.47519 0.862468 4.38147 0.80002 4.2783 0.757411C4.17513 0.714803 4.06453 0.692871 3.95284 0.692871C3.84115 0.692871 3.73055 0.714803 3.62738 0.757411C3.52421 0.80002 3.43049 0.862468 3.35158 0.941185L1.04518 3.23799C0.722007 3.55982 0.540011 4.0019 0.546815 4.4533C0.566375 5.6593 0.886993 9.84809 4.20202 13.1493C7.51705 16.4506 11.7233 16.769 12.9352 16.7893H12.959C13.4081 16.7893 13.8324 16.6132 14.1539 16.293L16.4603 13.9962C16.5394 13.9177 16.6021 13.8243 16.6449 13.7216C16.6876 13.6188 16.7097 13.5087 16.7097 13.3975C16.7097 13.2862 16.6876 13.1761 16.6449 13.0734C16.6021 12.9706 16.5394 12.8773 16.4603 12.7987L13.0585 9.41024ZM12.9505 15.0947C11.8892 15.0769 8.25779 14.7932 5.40455 11.951C2.54196 9.10027 2.26471 5.47128 2.2477 4.43552L3.95284 2.73747L6.15209 4.92757L5.05246 6.02262C4.95251 6.12209 4.87901 6.24479 4.83862 6.37965C4.79824 6.5145 4.79223 6.65725 4.82114 6.795C4.84155 6.89239 5.34076 9.2019 6.7525 10.6078C8.16424 12.0136 10.4834 12.5108 10.5812 12.5311C10.7194 12.5607 10.8629 12.5552 10.9985 12.5151C11.134 12.475 11.2572 12.4016 11.3568 12.3016L12.4573 11.2065L14.6565 13.3966L12.9505 15.0947Z" fill="white"/>
</svg>
