<svg width="17" height="22" viewBox="0 0 17 22" fill="none" xmlns="http://www.w3.org/2000/svg">
<path fill-rule="evenodd" clip-rule="evenodd" d="M8.28353 4.79395C6.28001 4.79395 4.65585 6.46325 4.65585 8.52246C4.65585 10.5817 6.28001 12.251 8.28353 12.251C10.287 12.251 11.9112 10.5817 11.9112 8.52246C11.9112 6.46325 10.287 4.79395 8.28353 4.79395ZM6.72881 8.52246C6.72881 7.63994 7.42491 6.92452 8.28353 6.92452C9.14214 6.92452 9.83824 7.63994 9.83824 8.52246C9.83824 9.40494 9.14214 10.1204 8.28353 10.1204C7.42491 10.1204 6.72881 9.40494 6.72881 8.52246Z" fill="white"/>
<path fill-rule="evenodd" clip-rule="evenodd" d="M8.29143 0C3.71198 0 -0.000396729 3.81557 -0.000396729 8.52232C-0.000396729 10.0905 0.529306 11.663 1.2496 13.0907C1.97454 14.5278 2.9291 15.8896 3.86366 17.056C4.80076 18.2256 5.73495 19.2197 6.43375 19.9208C6.78376 20.272 7.07636 20.5514 7.28283 20.7441C7.38617 20.8405 7.46794 20.9153 7.52485 20.9668C7.55325 20.9925 7.57543 21.0124 7.59087 21.0263C7.59574 21.0305 7.59989 21.0342 7.60341 21.0374L7.60911 21.0424L7.61647 21.0489C7.61668 21.0492 7.61689 21.0494 8.29143 20.2405L7.61689 21.0494L8.29143 21.6436L8.96597 21.0494L8.29143 20.2405C8.96597 21.0494 8.96617 21.0492 8.96638 21.0489L8.97374 21.0424L8.98048 21.0365C8.98369 21.0336 8.98763 21.0301 8.99198 21.0263C9.00743 21.0124 9.0296 20.9925 9.05801 20.9668C9.11491 20.9153 9.19668 20.8405 9.30002 20.7441C9.50649 20.5514 9.79909 20.272 10.1491 19.9208C10.8479 19.2197 11.7821 18.2256 12.7192 17.056C13.6537 15.8896 14.6083 14.5278 15.3333 13.0907C16.0535 11.663 16.5832 10.0905 16.5832 8.52232C16.5832 3.81557 12.8709 0 8.29143 0ZM8.70104 18.3963C8.55231 18.5455 8.41487 18.6806 8.29143 18.8003C8.16798 18.6806 8.03054 18.5455 7.88181 18.3963C7.22023 17.7325 6.34057 16.7958 5.46384 15.7016C4.58457 14.6043 3.7253 13.3695 3.08986 12.11C2.44977 10.8412 2.07256 9.61733 2.07256 8.52232C2.07256 4.99226 4.85684 2.13058 8.29143 2.13058C11.726 2.13058 14.5103 4.99226 14.5103 8.52232C14.5103 9.61733 14.1331 10.8412 13.493 12.11C12.8575 13.3695 11.9983 14.6043 11.119 15.7016C10.2423 16.7958 9.36263 17.7325 8.70104 18.3963Z" fill="white"/>
</svg>
