<svg width="91" height="90" viewBox="0 0 91 90" fill="none" xmlns="http://www.w3.org/2000/svg">
<ellipse cx="45.4969" cy="45" rx="45.1579" ry="45" fill="#FA6E05"/>
<path d="M35.8755 43.8505L28.3774 39.2843L45.5003 28.8569L62.6231 39.2843L61.6801 39.8585L61.4882 39.9754V40.2002V47.8661H59.0106V42.1962V41.4843L58.4026 41.8545L55.125 43.8505L54.933 43.9674V44.1921V55.1539L45.5003 60.8981L36.0675 55.1539V44.1921V43.9674L35.8755 43.8505ZM52.4554 46.188V45.4761L51.8474 45.8464L45.5003 49.7117L39.1531 45.8464L38.5451 45.4761V46.188V53.5468V53.7715L38.737 53.8884L45.2922 57.8803L45.5003 58.007L45.7083 57.8803L52.2635 53.8884L52.4554 53.7715V53.5468V46.188ZM33.6858 38.9426L33.1248 39.2843L33.6858 39.6259L45.2922 46.694L45.5003 46.8207L45.7083 46.694L57.3147 39.6259L57.8757 39.2843L57.3147 38.9426L45.7083 31.8747L45.5003 31.748L45.2922 31.8747L33.6858 38.9426Z" fill="white" stroke="#FA6E05" stroke-width="0.8"/>
</svg>
