<svg width="90" height="90" viewBox="0 0 90 90" fill="none" xmlns="http://www.w3.org/2000/svg">
<circle cx="45" cy="45" r="45" fill="#FA6E05"/>
<path d="M40.1038 61.3306H49.9022C58.0676 61.3306 61.3337 58.0645 61.3337 49.8992V40.1008C61.3337 31.9354 58.0676 28.6693 49.9022 28.6693H40.1038C31.9385 28.6693 28.6724 31.9354 28.6724 40.1008V49.8992C28.6724 58.0645 31.9385 61.3306 40.1038 61.3306Z" stroke="white" stroke-width="1.5" stroke-linecap="round" stroke-linejoin="round"/>
<path d="M40.1038 41.7338C41.9077 41.7338 43.37 40.2715 43.37 38.4677C43.37 36.6638 41.9077 35.2015 40.1038 35.2015C38.3 35.2015 36.8377 36.6638 36.8377 38.4677C36.8377 40.2715 38.3 41.7338 40.1038 41.7338Z" stroke="white" stroke-width="1.5" stroke-linecap="round" stroke-linejoin="round"/>
<path d="M29.7668 56.3497L37.8178 50.9443C39.1079 50.0788 40.9696 50.1767 42.1291 51.1729L42.668 51.6465C43.9418 52.7407 45.9994 52.7407 47.2732 51.6465L54.0668 45.8165C55.3405 44.7223 57.3982 44.7223 58.672 45.8165L61.3339 48.1028" stroke="white" stroke-width="1.5" stroke-linecap="round" stroke-linejoin="round"/>
</svg>
