<svg width="90" height="90" viewBox="0 0 90 90" fill="none" xmlns="http://www.w3.org/2000/svg">
<circle cx="45" cy="45" r="45" fill="#FA6E05"/>
<path d="M59.4825 29.6802L59.4825 29.6802L59.4864 29.6811C59.711 29.729 59.9176 29.8387 60.0832 29.9977C60.2481 30.1561 60.3657 30.3572 60.4229 30.5785L60.423 30.5792C60.4757 30.7985 61.0756 33.2963 61.0296 36.3755C60.9833 39.485 60.2798 43.1036 57.7851 45.5985C57.785 45.5987 57.7848 45.5988 57.7847 45.599L52.543 50.8243L52.4082 50.9587L52.4274 51.1481C52.6213 53.054 52.7003 57.4944 49.6508 60.6244C49.42 60.8528 49.1084 60.9809 48.7836 60.9809C48.458 60.9809 48.1457 60.8522 47.9147 60.6228C47.9146 60.6226 47.9144 60.6225 47.9142 60.6223L29.4623 42.1377C29.4622 42.1376 29.462 42.1374 29.4619 42.1373C29.2325 41.9063 29.1037 41.594 29.1037 41.2684C29.1037 40.9427 29.2326 40.6301 29.4623 40.3991L29.4629 40.3985C32.4587 37.3715 36.9733 37.4626 38.9343 37.6733L39.1261 37.6939L39.2616 37.5566C40.9784 35.8182 42.7114 34.0743 44.4607 32.3249C45.7502 31.1849 47.2518 30.3105 48.8797 29.7515C50.5114 29.1913 52.2378 28.9592 53.9595 29.0685L53.972 29.0693L53.9845 29.0693C55.834 29.0712 57.6777 29.276 59.4825 29.6802ZM55.998 43.8628L55.9988 43.862C57.6399 42.2209 58.271 39.8625 58.4559 37.6726C58.6416 35.474 58.383 33.3794 58.1844 32.1959L58.1372 31.9148L57.8561 31.8676C56.5817 31.6537 55.292 31.5426 53.9998 31.5355C51.193 31.3425 48.4162 32.2134 46.2223 33.9752L46.2053 33.9888L46.1899 34.0042C44.466 35.7282 43.032 37.1826 42.0289 38.2061C41.5274 38.7179 41.1335 39.1219 40.865 39.3981C40.7307 39.5362 40.6278 39.6423 40.5584 39.714L40.4797 39.7953L40.4597 39.8159L40.4547 39.8211L40.4534 39.8225L40.4531 39.8228L40.453 39.8229L40.7407 40.1008L40.4528 39.8228L40.4444 39.8321C40.3107 39.9796 40.1433 40.0925 39.9565 40.1612C39.7727 40.2288 39.5756 40.2517 39.3813 40.2279C37.0942 39.8079 34.733 40.1042 32.6205 41.0765L32.0993 41.3164L32.5046 41.7224L48.2963 57.5468L48.7019 57.9533L48.9426 57.4319C49.9035 55.3504 50.2216 53.0295 49.8562 50.7662L49.855 50.7588L49.8535 50.7515C49.8138 50.5534 49.8234 50.3486 49.8815 50.1551C49.9394 49.962 50.0438 49.7861 50.1855 49.6427C50.1858 49.6424 50.1861 49.642 50.1864 49.6417L55.998 43.8628Z" fill="white" stroke="#FA6E05" stroke-width="0.8"/>
<path d="M37.8846 56.4109C35.8634 58.1077 33.3514 59.1127 30.7176 59.2784C30.7249 59.1177 30.7366 58.9163 30.7552 58.6833C30.8053 58.0577 30.9052 57.2095 31.1042 56.3141C31.3036 55.4165 31.5994 54.4862 32.0345 53.6885C32.4185 52.9845 32.9004 52.403 33.5025 52.0288L37.8846 56.4109Z" fill="white" stroke="#FA6E05" stroke-width="0.8"/>
<path d="M53.9605 38.9577C53.9605 40.5406 52.6773 41.8238 51.0943 41.8238C49.5114 41.8238 48.2282 40.5406 48.2282 38.9577C48.2282 37.3747 49.5114 36.0915 51.0943 36.0915C52.6773 36.0915 53.9605 37.3747 53.9605 38.9577Z" fill="white" stroke="#FA6E05" stroke-width="0.8"/>
</svg>
