<svg width="90" height="90" viewBox="0 0 90 90" fill="none" xmlns="http://www.w3.org/2000/svg">
<circle cx="45" cy="45" r="45" fill="#FA6E05"/>
<g clip-path="url(#clip0_0_142)">
<path d="M35.6046 52.3487C35.6046 51.8051 35.8206 51.2838 36.2049 50.8994C36.5893 50.515 37.1106 50.2991 37.6542 50.2991C38.1978 50.2991 38.7191 50.515 39.1035 50.8994C39.4879 51.2838 39.7038 51.8051 39.7038 52.3487V54.7983C39.7038 55.3419 39.4879 55.8632 39.1035 56.2476C38.7191 56.6319 38.1978 56.8479 37.6542 56.8479C37.1106 56.8479 36.5893 56.6319 36.2049 56.2476C35.8206 55.8632 35.6046 55.3419 35.6046 54.7983V52.3487ZM50.3022 42.5503C50.3022 42.0067 50.5182 41.4854 50.9025 41.101C51.2869 40.7166 51.8082 40.5007 52.3518 40.5007C52.8954 40.5007 53.4167 40.7166 53.8011 41.101C54.1855 41.4854 54.4014 42.0067 54.4014 42.5503V54.7983C54.4014 55.3419 54.1855 55.8632 53.8011 56.2476C53.4167 56.6319 52.8954 56.8479 52.3518 56.8479C51.8082 56.8479 51.2869 56.6319 50.9025 56.2476C50.5182 55.8632 50.3022 55.3419 50.3022 54.7983V42.5503ZM42.9534 47.4495C42.9534 46.9059 43.1694 46.3846 43.5537 46.0002C43.9381 45.6158 44.4594 45.3999 45.003 45.3999C45.5466 45.3999 46.0679 45.6158 46.4523 46.0002C46.8367 46.3846 47.0526 46.9059 47.0526 47.4495V54.7983C47.0526 55.3419 46.8367 55.8632 46.4523 56.2476C46.0679 56.6319 45.5466 56.8479 45.003 56.8479C44.4594 56.8479 43.9381 56.6319 43.5537 56.2476C43.1694 55.8632 42.9534 55.3419 42.9534 54.7983V47.4495Z" fill="white" stroke="#FA6E05" stroke-width="0.8"/>
<path d="M33.5716 29.0692H35.6212V30.7188H33.5716C32.8158 30.7188 32.091 31.019 31.5566 31.5534C31.0222 32.0878 30.722 32.8126 30.722 33.5684V59.2892C30.722 60.0449 31.0222 60.7697 31.5566 61.3041L31.8394 61.0213L31.5566 61.3041C32.091 61.8385 32.8158 62.1387 33.5716 62.1387H58.0675C58.8233 62.1387 59.5481 61.8385 60.0825 61.3041C60.6169 60.7697 60.9171 60.0449 60.9171 59.2892V33.5684C60.9171 32.8126 60.6169 32.0878 60.0825 31.5534C59.5481 31.019 58.8233 30.7188 58.0675 30.7188H56.0179V29.0692H58.0675C59.2608 29.0692 60.4052 29.5432 61.2489 30.387L61.5318 30.1041L61.249 30.387C62.0927 31.2307 62.5667 32.3751 62.5667 33.5684V59.2892C62.5667 60.4824 62.0927 61.6268 61.2489 62.4706C60.4052 63.3143 59.2608 63.7883 58.0675 63.7883H33.5716C32.3783 63.7883 31.2339 63.3143 30.3902 62.4706C29.5464 61.6268 29.0724 60.4824 29.0724 59.2892V33.5684C29.0724 32.3751 29.5464 31.2307 30.3902 30.387C31.2339 29.5432 32.3783 29.0692 33.5716 29.0692Z" fill="white" stroke="#FA6E05" stroke-width="0.8"/>
<path d="M50.6429 27.9286C50.3381 27.6239 49.9249 27.4527 49.4939 27.4527H42.1452C41.7142 27.4527 41.301 27.6239 40.9963 27.9286C40.6915 28.2333 40.5204 28.6465 40.5204 29.0775V31.5271C40.5204 31.958 40.6915 32.3713 40.9963 32.676C41.301 32.9807 41.7142 33.1519 42.1452 33.1519H49.4939C49.9249 33.1519 50.3381 32.9807 50.6429 32.676C50.9476 32.3713 51.1187 31.958 51.1187 31.5271V29.0775C51.1187 28.6465 50.9476 28.2333 50.6429 27.9286ZM39.8298 26.7621C40.4439 26.1481 41.2767 25.8031 42.1452 25.8031H49.4939C50.3624 25.8031 51.1952 26.1481 51.8093 26.7621C52.4234 27.3762 52.7683 28.209 52.7683 29.0775V31.5271C52.7683 32.3955 52.4234 33.2283 51.8093 33.8424C51.1952 34.4565 50.3624 34.8015 49.4939 34.8015H42.1452C41.2767 34.8015 40.4439 34.4565 39.8298 33.8424C39.2157 33.2283 38.8708 32.3955 38.8708 31.5271V29.0775C38.8708 28.209 39.2157 27.3762 39.8298 26.7621Z" fill="white" stroke="#FA6E05" stroke-width="0.8"/>
</g>
<defs>
<clipPath id="clip0_0_142">
<rect width="39.1936" height="39.1936" fill="white" transform="translate(25.4062 25.4031)"/>
</clipPath>
</defs>
</svg>
