<svg width="111" height="111" viewBox="0 0 111 111" fill="none" xmlns="http://www.w3.org/2000/svg">
<circle cx="55.5" cy="55.5" r="55.5" fill="#1D29FF"/>
<path d="M36.6552 69.1856C37.0995 69.4009 37.5981 69.5216 38.125 69.5216H71.875C72.4019 69.5216 72.9005 69.4009 73.3448 69.1856L60.0504 56.6732L55.7152 60.2434C55.2998 60.5855 54.7002 60.5855 54.2848 60.2434L49.9496 56.6732L36.6552 69.1856ZM35.072 67.5871C35.0824 67.5765 35.0931 67.5661 35.104 67.5558L48.1987 55.2313L35.1598 44.4934C35.1314 44.47 35.1044 44.4455 35.0789 44.42C34.8681 44.8606 34.75 45.354 34.75 45.875V66.1466C34.75 66.6619 34.8655 67.1502 35.072 67.5871ZM74.928 67.5871C75.1345 67.1502 75.25 66.6619 75.25 66.1466V45.875C75.25 45.354 75.1319 44.8606 74.9211 44.42C74.8956 44.4455 74.8686 44.47 74.8402 44.4934L61.8013 55.2313L74.896 67.5558C74.907 67.5661 74.9176 67.5765 74.928 67.5871ZM73.325 42.8265C72.8857 42.6172 72.394 42.5 71.875 42.5H38.125C37.606 42.5 37.1143 42.6172 36.675 42.8265L55 57.9176L73.325 42.8265ZM38.125 40.25H71.875C74.9816 40.25 77.5 42.7684 77.5 45.875V66.1466C77.5 69.2532 74.9816 71.7716 71.875 71.7716H38.125C35.0184 71.7716 32.5 69.2532 32.5 66.1466V45.875C32.5 42.7684 35.0184 40.25 38.125 40.25Z" fill="white"/>
</svg>
