<svg width="16" height="16" viewBox="0 0 16 16" fill="none" xmlns="http://www.w3.org/2000/svg">
<path d="M13.5923 7.57338L4.59374 2.0741C4.51795 2.02778 4.43118 2.00248 4.34237 2.00082C4.25356 1.99916 4.16591 2.02118 4.08843 2.06463C4.01096 2.10808 3.94646 2.17139 3.90156 2.24803C3.85667 2.32468 3.83301 2.41191 3.83301 2.50073V13.4993C3.83301 13.5881 3.85667 13.6754 3.90156 13.752C3.94646 13.8287 4.01096 13.892 4.08843 13.9354C4.16591 13.9789 4.25356 14.0009 4.34237 13.9992C4.43118 13.9976 4.51795 13.9723 4.59374 13.9259L13.5923 8.42666C13.6654 8.38199 13.7257 8.3193 13.7676 8.2446C13.8095 8.16989 13.8315 8.08567 13.8315 8.00002C13.8315 7.91437 13.8095 7.83015 13.7676 7.75545C13.7257 7.68074 13.6654 7.61805 13.5923 7.57338Z" stroke="black" stroke-linecap="round" stroke-linejoin="round"/>
</svg>
