<svg width="24" height="24" viewBox="0 0 24 24" fill="none" xmlns="http://www.w3.org/2000/svg">
<path d="M8.25 15C10.9424 15 13.125 12.8174 13.125 10.125C13.125 7.43261 10.9424 5.25 8.25 5.25C5.55761 5.25 3.375 7.43261 3.375 10.125C3.375 12.8174 5.55761 15 8.25 15Z" stroke="#474747" stroke-width="1.5" stroke-miterlimit="10"/>
<path d="M14.5703 5.43149C15.2408 5.24257 15.9441 5.19953 16.6326 5.30528C17.3212 5.41102 17.9791 5.66309 18.562 6.0445C19.1449 6.42592 19.6393 6.92782 20.012 7.51641C20.3846 8.105 20.6268 8.76661 20.7221 9.45667C20.8175 10.1467 20.764 10.8492 20.565 11.5168C20.366 12.1844 20.0263 12.8017 19.5687 13.3269C19.1111 13.8522 18.5463 14.2733 17.9123 14.5619C17.2782 14.8505 16.5897 14.9998 15.8931 14.9999" stroke="#474747" stroke-width="1.5" stroke-linecap="round" stroke-linejoin="round"/>
<path d="M1.5 18.5059C2.26138 17.4229 3.27215 16.539 4.44698 15.9288C5.62182 15.3186 6.92623 15.0001 8.25008 15C9.57393 14.9999 10.8784 15.3184 12.0532 15.9285C13.2281 16.5386 14.239 17.4225 15.0004 18.5054" stroke="#474747" stroke-width="1.5" stroke-linecap="round" stroke-linejoin="round"/>
<path d="M15.8926 15C17.2166 14.999 18.5213 15.3171 19.6962 15.9273C20.8712 16.5375 21.8819 17.4218 22.6426 18.5054" stroke="#474747" stroke-width="1.5" stroke-linecap="round" stroke-linejoin="round"/>
</svg>
