<svg width="173" height="222" viewBox="0 0 173 222" fill="none" xmlns="http://www.w3.org/2000/svg">
<g clip-path="url(#clip0_1_1070)">
<path d="M37.927 69.6397C40.0343 52.5198 49.6441 32.4244 64.16 21.0348C67.8887 18.0722 72.065 15.845 76.4856 14.4616C64.6553 13.1456 44.4484 24.9202 34.4623 42.6131C23.6598 61.7485 22.5852 84.0936 35.3492 103.758C41.8585 113.717 54.2212 137.622 54.2212 137.622C54.1462 135.353 50.6129 120.348 45.608 111.065C40.6031 101.782 35.8109 86.7659 37.927 69.6397Z" fill="#ACE662"/>
<path d="M147.753 68.005C147.706 59.5656 145.981 51.293 142.696 43.7404C139.411 36.1877 134.64 29.529 128.703 24.2096C127.426 23.0567 126.076 22.001 124.66 21.05C121.033 18.7016 118.044 18.7197 116.391 19.0319C117.817 20.1249 119.142 21.3607 120.348 22.7235C123.859 26.6641 127.364 32.6876 129.304 41.8848C133.283 60.7434 127.953 82.3983 123.665 92.8977C119.376 103.397 100.064 128.948 93.4684 149.305C93.4684 149.305 102.001 139.001 103.332 148.293C107.077 138.193 115.86 128.932 123.291 119.569C130.722 110.205 148.116 96.3356 147.753 68.005Z" fill="#FD717F"/>
<path d="M160.976 80.9629C165.208 58.1008 152.207 27.3297 128.698 24.2114C134.635 29.5308 139.406 36.1895 142.691 43.7421C145.976 51.2948 147.7 59.5674 147.748 68.0068C148.108 96.3529 130.709 110.205 123.278 119.609C115.846 129.013 107.064 138.233 103.319 148.333C103.319 148.333 107.123 142.082 107.272 148.13C107.272 148.13 118.779 133.411 129.408 125.275C140.037 117.139 156.694 104.211 160.968 81.0017" fill="#ACE662"/>
<path d="M129.306 41.8868C127.367 32.6819 123.852 26.6725 120.35 22.7255C119.144 21.3627 117.819 20.1269 116.393 19.0339C114.714 17.7496 112.91 16.6621 111.008 15.7892C109.249 14.9836 107.338 14.5974 105.403 14.6565C106.337 15.75 107.122 17.5001 107.693 20.378C107.975 21.7775 108.184 23.1952 108.32 24.6247C109.259 34.3385 109.212 60.9061 104.927 81.94C103.488 89.0004 86.2922 136.184 84.1693 147.702C84.1693 147.702 91.5053 139.903 93.5388 149.337C100.066 128.95 119.414 103.406 123.666 92.8997C127.919 82.3931 133.285 60.7454 129.306 41.8868Z" fill="#FDD71F"/>
<path d="M74.0038 119.137C74.0391 106.107 72.6194 96.6268 76.0666 73.5898C79.5138 50.5528 89.4215 24.6367 91.9707 19.6344C92.3366 18.9005 92.7139 18.2578 93.1222 17.6456C94.1626 15.8465 95.6322 14.3722 97.3717 13.3827C95.6617 12.5444 92.5536 11.7548 88.0911 13.1797C87.2355 13.4495 86.3955 13.779 85.5765 14.1661C84.6158 14.6115 83.6844 15.1307 82.7896 15.7194C73.5812 21.6461 59.3082 37.8509 54.8666 60.9697C49.9741 86.5581 54.1776 98.2725 57.7025 114.05C61.2274 129.828 64.2028 137.094 63.872 142.124C63.872 142.124 69.7176 136.035 74.4529 145.506C74.5714 139.649 73.99 132.173 74.0038 119.137Z" fill="#FD717F"/>
<path opacity="0.4" d="M88.0458 20.0913C82.8341 33.0699 72.027 66.0019 70.5548 84.5103C69.0826 103.019 54.1837 95.9935 55.5774 67.6867C56.2338 55.6218 59.9644 43.8765 66.3599 33.74C72.0187 24.6483 78.1848 19.3671 80.7309 17.6035C86.3562 13.7317 90.8437 13.1359 88.0458 20.0913Z" fill="#FDC0C9"/>
<path opacity="0.4" d="M87.6589 19.8107C82.9651 29.8808 72.9902 55.541 71.0186 70.2002C69.0469 84.8595 57.5483 78.5456 59.8697 56.0889C60.913 46.5226 64.3721 37.363 69.8696 29.6098C74.764 22.6579 79.8701 18.7701 81.9623 17.5125C86.5882 14.699 90.1773 14.4467 87.6589 19.8107Z" fill="#FDC0C9"/>
<path opacity="0.5" d="M110.953 22.9022C111.471 37.0629 110.391 72.146 105.283 90.2914C100.176 108.437 117.229 106.793 125.903 79.3515C130.109 66.0323 130.484 51.6644 128.272 41.6772C125.953 31.0788 122.275 26.4178 120.398 23.8735C116.267 18.2486 110.685 15.2789 110.953 22.9022Z" fill="#FFE789"/>
<path opacity="0.5" d="M111.95 23.9998C112.981 35.2025 113.077 62.7522 109.788 77.3956C106.498 92.039 121.568 89.4696 127.232 67.2763C129.602 57.7833 129.455 47.8508 126.809 38.6185C124.498 30.324 120.878 24.9071 119.28 22.9686C115.778 18.6905 111.396 17.999 111.95 23.9998Z" fill="#FFE789"/>
<path d="M57.7165 114.01C54.21 98.2521 49.9849 86.5333 54.8806 60.9293C59.3175 37.8338 73.5904 21.6291 82.8036 15.6791C83.6984 15.0904 84.6298 14.5712 85.5905 14.1257C86.4095 13.7387 87.2495 13.4092 88.1052 13.1394C84.2191 12.81 80.2867 13.2444 76.4994 14.4215C72.0736 15.816 67.8944 18.0564 64.166 21.0335C49.6564 32.392 40.0418 52.5107 37.9329 69.6384C35.824 86.766 40.5891 101.769 45.5996 111.061C50.6101 120.353 54.1378 135.348 54.2272 137.62C54.2272 137.62 58.4526 132.706 63.9004 142.087C64.2168 137.054 61.2605 129.768 57.7165 114.01Z" fill="#FDD71F"/>
<path d="M104.897 81.9161C109.183 60.8822 109.228 34.3224 108.29 24.6008C108.155 23.1713 107.945 21.7536 107.663 20.3542C107.128 17.4834 106.343 15.7333 105.409 14.6399C104.496 13.6218 103.285 12.9706 101.965 12.7888C100.43 12.4417 98.8145 12.6488 97.3665 13.3784C95.6171 14.3759 94.1415 15.8638 93.1019 17.6787C92.7151 18.2952 92.3347 18.9535 91.9503 19.6675C89.4011 24.6697 79.5151 50.5902 76.0463 73.6229C72.5776 96.6555 74.0188 106.14 73.9835 119.171C73.9482 132.202 74.5511 139.682 74.4405 145.501C74.4405 145.501 80.2755 137.155 84.1103 147.713C86.2626 136.16 103.459 88.9765 104.897 81.9161Z" fill="#ACE662"/>
<g style="mix-blend-mode:screen" opacity="0.5">
<path d="M77.1644 79.9971C76.4722 86.6913 76.7872 93.3144 79.2238 99.1948C81.7875 105.367 87.6779 106.275 92.2012 101.437C98.5292 94.7023 101.09 85.5421 102.652 76.5194C104.417 65.8254 105.517 55.0396 105.946 44.2343C106.227 38.273 106.375 32.3089 106.463 26.3488C106.529 22.105 106.314 15.4295 101.554 14.4677C94.5434 13.0512 91.9745 24.5605 90.1768 29.4642C86.9664 38.4473 84.2334 47.6049 81.9914 56.8915C80.236 63.9687 78.0378 72.047 77.1644 79.9971Z" fill="#ACE662"/>
</g>
<g style="mix-blend-mode:screen" opacity="0.5">
<path d="M81.1775 70.2019C80.6283 75.6083 80.9119 80.9568 82.9431 85.7132C85.0806 90.7173 89.9811 91.4651 93.6929 87.5702C98.8929 82.1584 100.972 74.775 102.262 67.4907C103.675 58.8606 104.541 50.1558 104.853 41.4373C105.085 36.6372 105.166 31.8067 105.219 26.9704C105.258 23.5533 105.052 18.1558 101.116 17.3606C95.317 16.1889 93.2408 25.4631 91.7753 29.4323C89.1593 36.6599 86.9368 44.0333 85.1194 51.514C83.6431 57.2581 81.8319 63.7666 81.1775 70.2019Z" fill="#ACE662"/>
</g>
<path d="M161.161 80.9987C156.834 104.504 139.736 117.577 129.524 125.393C119.036 133.421 107.536 148.069 107.424 148.216L107.113 148.606L107.104 148.103C107.066 146.601 106.798 145.755 106.325 145.66C105.465 145.486 103.973 147.608 103.484 148.397L103.224 148.83L103.154 148.331C102.856 146.13 102.08 144.883 100.919 144.648C98.0514 144.069 93.6474 149.383 93.6061 149.439L93.3692 149.722L93.2938 149.36C92.738 146.703 91.6919 145.207 90.208 144.907C87.5557 144.371 84.3066 147.754 84.2708 147.819L84.0729 148.022L83.9785 147.752C82.8479 144.656 81.4479 142.919 79.8063 142.587C77.111 142.043 74.6145 145.577 74.6002 145.575L74.4302 145.823L74.2984 145.554C72.7977 142.553 71.0315 140.855 69.0602 140.457C66.286 139.896 64.0234 142.21 63.9955 142.236L63.8341 142.406L63.7184 142.205C61.796 138.892 59.8273 137.016 57.8703 136.62C57.2476 136.491 56.6003 136.528 55.9838 136.727C55.3673 136.926 54.8002 137.282 54.3311 137.763L54.1562 137.962L54.0396 137.729C53.9158 137.494 41.6297 113.725 35.1994 103.855C23.0963 85.2696 22.7911 62.9204 34.3146 42.517C38.992 34.2126 46.2296 26.6759 54.6983 21.2298C62.6188 16.1657 70.5353 13.6131 76.4778 14.2645C80.2639 13.0952 84.1925 12.6605 88.0764 12.9809C90.364 12.1992 92.7745 12.0105 95.1073 12.4305C95.884 12.5852 96.6396 12.8327 97.3602 13.1684C98.8257 12.4508 100.452 12.2525 101.998 12.603C103.327 12.7863 104.55 13.4333 105.481 14.4458C107.418 14.398 109.33 14.7842 111.094 15.5799C112.983 16.4465 114.777 17.5237 116.448 18.7942C119.389 18.4037 122.331 19.1325 124.76 20.8534C126.172 21.7979 127.52 22.8474 128.792 23.9946C129.416 24.1206 130.067 24.1875 130.69 24.3135C152.912 28.8035 165.307 58.4503 161.167 80.9676" fill="#84B83A"/>
<path d="M160.808 80.9353C164.912 58.5964 152.609 29.1943 130.602 24.7478C129.972 24.6203 129.326 24.49 128.676 24.4231L128.626 24.413L128.583 24.4043C127.308 23.2581 125.961 22.2062 124.552 21.2553C122.181 19.5525 119.296 18.8321 116.413 19.2231L116.341 19.2086L116.277 19.1955C114.619 17.9248 112.838 16.8474 110.961 15.9808C109.222 15.193 107.337 14.8121 105.427 14.8626L105.348 14.8467L105.295 14.7793C104.401 13.789 103.217 13.1575 101.928 12.9844C100.424 12.6388 98.8386 12.8379 97.417 13.5512L97.3343 13.591L97.2554 13.5751C96.5396 13.2331 95.7865 12.9834 95.0113 12.8308C92.7319 12.4181 90.3761 12.6013 88.1404 13.3652L88.0759 13.3521C84.2094 13.0335 80.2983 13.4749 76.5331 14.655L76.4686 14.642C70.6295 13.9954 62.7425 16.5135 54.9008 21.5936C46.4607 26.9727 39.2668 34.4778 34.6196 42.7075C23.1683 63.0125 23.5044 85.1741 35.5109 103.611C41.6164 112.987 53.0199 134.897 54.264 137.289C54.7701 136.816 55.3674 136.473 56.009 136.286C56.6506 136.099 57.3191 136.073 57.9618 136.21C59.9833 136.619 61.9767 138.484 63.9356 141.763C64.6464 141.085 65.4825 140.579 66.3843 140.281C67.2861 139.983 68.2315 139.9 69.1532 140.039C71.1747 140.447 72.9768 142.152 74.4957 145.101C75.1323 144.284 77.3786 141.685 79.8947 142.193C81.6008 142.538 83.0557 144.262 84.2157 147.323C84.9821 146.565 87.7946 144.007 90.282 144.51C91.8447 144.826 92.953 146.31 93.566 148.906C94.5405 147.786 98.3102 143.717 100.991 144.258C102.231 144.509 103.057 145.694 103.436 147.79C104.009 146.92 105.38 145.064 106.405 145.271C107.014 145.394 107.353 146.15 107.426 147.586C109.302 145.227 119.716 132.394 129.3 125.065C139.467 117.289 156.487 104.272 160.789 80.9232" fill="#84B83A"/>
<path d="M27.7478 59.4065C24.1591 74.1267 26.1739 89.6237 35.3552 103.758C41.8645 113.716 54.2273 137.621 54.2273 137.621C54.1522 135.352 50.6189 120.348 45.614 111.065C40.6091 101.782 35.8169 86.7656 37.933 69.6394C38.27 66.9643 38.7611 64.3089 39.4036 61.6888C37.86 63.182 36.011 64.2564 34.0193 64.8177C30.9962 65.5155 28.8763 63.2454 27.985 60.3672" fill="#7E9938"/>
<path d="M141.788 81.487C140.555 82.0582 139.237 82.3655 137.91 82.3915C136.583 82.4175 135.272 82.1616 134.054 81.6385C132.835 81.1154 131.733 80.3354 130.809 79.3431C129.886 78.3509 129.16 77.1659 128.672 75.8562C127.535 81.6831 125.872 87.3942 123.706 92.9073C119.41 103.405 100.062 128.949 93.4664 149.306C93.4664 149.306 101.999 139.002 103.33 148.294C107.075 138.193 115.858 128.933 123.289 119.57C129.895 111.211 144.336 99.386 147.233 76.9972C145.776 78.9419 143.905 80.4843 141.788 81.487Z" fill="#D67174"/>
<path d="M150.035 83.5906C148.667 81.8944 147.677 79.8786 147.14 77.6902C144.035 99.6331 129.833 111.353 123.285 119.57C115.854 128.934 107.071 138.194 103.326 148.294C103.326 148.294 107.13 142.043 107.279 148.091C107.279 148.091 118.786 133.371 129.415 125.235C139.857 117.247 156.116 104.627 160.731 82.1973" fill="#7E9938"/>
<path d="M121.005 81.301C118.985 82.03 116.833 82.1335 114.798 81.5995C112.764 81.0654 110.931 79.9158 109.514 78.2845C108.16 76.5541 107.144 74.5428 106.525 72.3653C106.072 75.6179 105.529 78.8285 104.9 81.9165C103.462 88.9769 86.2656 136.16 84.1427 147.679C84.1427 147.679 91.4787 139.879 93.5122 149.313C100.072 128.949 119.42 103.406 123.673 92.8989C125.806 87.4723 127.451 81.8528 128.584 76.1194C126.461 78.4614 123.861 80.2385 121.005 81.301Z" fill="#CE8C2F"/>
<path d="M74.0061 119.137C74.0414 106.106 72.6217 96.6266 76.0689 73.5896C76.4561 71.0667 76.9085 68.5165 77.423 65.9547L77.0962 66.2764C74.1646 69.0527 70.5591 71.6201 66.616 72.1078C62.3171 72.6205 58.3075 70.2109 55.9601 66.4569C55.3423 65.4629 54.8342 64.3927 54.4456 63.267C50.2282 87.2632 54.2714 98.7755 57.7056 114.01C61.2495 129.768 64.2059 137.054 63.8751 142.084C63.8751 142.084 69.7207 135.995 74.4559 145.466C74.5737 139.649 73.9923 132.173 74.0061 119.137Z" fill="#D67174"/>
<path d="M57.7148 114.012C54.2083 98.2537 49.9832 86.5349 54.8789 60.931C53.1619 62.7151 51.2193 64.2277 49.1129 65.4206C46.5407 66.7993 43.5074 67.0346 41.676 64.4107C40.7359 62.9899 40.1435 61.3304 39.9512 59.5789C39.0231 62.8865 38.336 66.259 37.8962 69.6652C35.7801 86.7914 40.5524 101.795 45.5629 111.088C50.5734 120.38 54.1361 135.35 54.2255 137.622C54.2255 137.622 58.4509 132.708 63.8987 142.089C64.2151 137.055 61.2588 129.769 57.7148 114.012Z" fill="#CE8C2F"/>
<path d="M106.77 70.5243C102.737 74.1684 97.8136 76.4615 92.4271 76.0113C85.7529 75.4706 80.7168 70.8098 77.659 64.8281C77.0598 67.7687 76.5141 70.7038 76.0725 73.6035C72.611 96.6376 74.045 106.12 74.0097 119.151C73.9745 132.182 74.5774 139.663 74.4667 145.481C74.4667 145.481 80.3017 137.136 84.1365 147.694C86.2594 136.175 103.456 88.9916 104.894 81.9312C105.645 78.2458 106.265 74.3966 106.77 70.5243Z" fill="#7E9938"/>
<path d="M45.6045 111.061C42.5404 105.297 40.2921 99.054 38.9311 92.5307C38.991 93.189 39.0509 93.8474 39.0965 94.5028C39.2613 96.588 39.2223 98.7208 38.2721 100.637C38.1527 100.881 37.964 101.08 37.7344 101.202C37.5048 101.325 37.2467 101.365 36.9991 101.317C35.1157 100.743 33.4273 99.6285 32.1109 98.0917C33.0911 100.048 34.176 101.94 35.3601 103.757C41.8694 113.715 54.2321 137.62 54.2321 137.62C54.1427 135.349 50.6094 120.344 45.6045 111.061Z" fill="#7E9938"/>
<path d="M124.011 116.193C121.53 117.162 118.323 117.774 116.518 115.31C114.829 113.013 115.096 110.022 115.786 107.035C108.272 119.298 97.951 135.485 93.4707 149.306C93.4707 149.306 102.004 139.002 103.335 148.294C107.079 138.194 115.862 128.934 123.293 119.57C124.569 117.962 126.14 116.22 127.862 114.289C126.623 115.03 125.336 115.666 124.011 116.193Z" fill="#D67174"/>
<path d="M143.634 113.089C142.004 114.23 140.349 115.282 138.67 116.246C136.247 117.592 133.76 118.791 131.221 119.839C129.408 120.603 127.933 120.152 127.745 117.884C127.645 116.623 127.744 115.346 128.037 114.106C126.25 116.104 124.621 117.907 123.296 119.611C115.865 128.974 107.082 138.235 103.338 148.335C103.338 148.335 107.142 142.084 107.29 148.132C107.29 148.132 118.797 133.412 129.426 125.276C134.424 121.602 139.173 117.542 143.634 113.13" fill="#7E9938"/>
<path d="M110.013 114.155C108.182 115.594 105.681 117.1 103.377 116.36C100.308 115.376 98.9831 111.732 98.53 108.571C98.2796 106.657 98.1903 104.716 98.2633 102.773C92.6955 119.331 85.4696 140.474 84.1436 147.678C84.1436 147.678 91.4796 139.879 93.5131 149.313C97.5203 136.971 106.167 122.74 113.328 111.108C112.297 112.213 111.188 113.232 110.013 114.155Z" fill="#CE8C2F"/>
<path d="M74.0115 119.136C74.0293 111.393 73.5378 104.904 73.8589 96.0749C73.2756 97.7564 72.5756 99.3918 71.765 100.967C70.5186 103.422 68.6421 106.257 65.9366 106.898C62.5228 107.719 60.0302 104.897 58.0542 102.398C56.6884 100.676 55.2245 98.8127 53.9658 96.8215C54.9563 102.62 56.4001 108.025 57.7397 114.015C61.2837 129.772 64.24 137.058 63.9092 142.089C63.9092 142.089 69.7548 136 74.49 145.471C74.5792 139.648 73.9978 132.172 74.0115 119.136Z" fill="#D67174"/>
<path d="M57.7144 114.011C56.641 109.206 55.4988 104.775 54.5563 100.206C54.2045 100.987 53.721 101.695 53.131 102.293C50.7188 104.681 47.7393 103.627 45.3536 101.965C43.0975 100.315 41.1713 98.2035 39.6797 95.7458C41.0442 101.119 43.0316 106.267 45.5958 111.07C50.6023 120.345 54.1356 135.349 54.225 137.621C54.225 137.621 58.4505 132.707 63.8982 142.088C64.2147 137.055 61.2584 129.769 57.7144 114.011Z" fill="#CE8C2F"/>
<path d="M98.4407 102.223C95.5567 105.388 92.0072 108.67 87.9591 109.71C83.7621 110.784 80.1072 109.125 77.3964 105.726C75.98 103.974 74.7626 102.044 73.7688 99.9762C73.6766 106.913 74.0291 112.582 74.0143 119.139C73.9647 132.167 74.5819 139.651 74.4713 145.469C74.4713 145.469 80.3063 137.124 84.1411 147.681C85.4757 140.398 92.8412 118.863 98.4407 102.223Z" fill="#7E9938"/>
<path d="M91.2975 24.5106C86.008 35.0501 81.8955 60.4731 91.9623 63.0079C102.029 65.5428 106.738 46.9371 107.046 32.9353C107.353 18.9334 98.2652 10.6427 91.2975 24.5106Z" fill="#D8FB9A"/>
<path opacity="0.5" d="M78.4973 20.6678C69.3052 27.9065 60.6202 46.1369 68.165 52.1851C75.7098 58.2333 80.1428 43.0697 84.3858 32.3914C88.6288 21.7132 88.6311 12.6904 78.4973 20.6678Z" fill="#FDC0C9"/>
<path d="M122.167 28.7457C128.468 38.4845 131.262 58.6547 119.908 62.29C110.702 65.2364 113.104 50.8095 111.64 39.4952C109.702 24.466 115.215 17.9945 122.167 28.7457Z" fill="#FFE789"/>
<path opacity="0.5" d="M127.592 30.3041C131.252 37.2879 133.922 51.1403 133.7 57.8729C133.478 64.6055 141.684 71.7649 143.768 60.4C145.853 49.0351 138.049 35.4301 134.174 31.8844C130.299 28.3387 126.27 27.8156 127.592 30.3041Z" fill="#FDC0C9"/>
<path d="M75.8136 20.0755C69.9805 24.9313 62.1517 36.4683 59.5883 42.6391C57.025 48.8098 47.4072 52.0204 50.3269 40.8405C53.2465 29.6606 65.1708 20.4778 69.7898 18.8342C74.4087 17.1905 77.9322 18.3225 75.8136 20.0755Z" fill="#FFE789"/>
<path d="M154.821 58.1568C156.195 51.4145 151.158 36.6075 142.497 32.8541C133.835 29.1006 141.664 36.9429 144.68 43.5705C147.34 49.4153 148.774 51.9023 149.373 55.5535C150.596 63.0708 152.836 67.8615 154.814 58.1554" fill="#D8FB9A"/>
<path d="M58.8834 23.228C52.6623 28.999 45.0102 40.4748 42.9545 43.8239C40.8989 47.1729 35.6752 40.0993 44.1941 31.0362C52.713 21.9732 63.9977 18.4936 58.8834 23.228Z" fill="#D8FB9A"/>
<path d="M97.0958 31.3645C96.5709 33.9404 95.0218 35.7924 93.6455 35.5143C92.2692 35.2362 91.5674 32.9294 92.0922 30.3536C92.617 27.7777 94.1351 25.9679 95.5688 26.2576C97.0025 26.5473 97.619 28.7964 97.0958 31.3645Z" fill="white"/>
<path d="M93.272 40.3722C93.046 41.4817 92.2963 42.2673 91.6081 42.1282C90.92 41.9892 90.5442 40.9762 90.7703 39.8667C90.9963 38.7572 91.7388 37.9702 92.427 38.1092C93.1152 38.2482 93.4981 39.2627 93.272 40.3722Z" fill="white"/>
<path d="M124.455 34.3646C124.927 36.8834 124.203 39.2655 122.784 39.6008C121.365 39.9361 119.896 38.1691 119.423 35.6178C118.95 33.0666 119.675 30.7169 121.102 30.3831C122.528 30.0493 123.997 31.8162 124.455 34.3646Z" fill="white"/>
<path d="M124.231 44.1665C124.432 45.2655 124.029 46.2907 123.337 46.4659C122.644 46.641 121.915 45.896 121.707 44.7956C121.498 43.6952 121.917 42.665 122.609 42.4899C123.302 42.3147 124.032 43.052 124.231 44.1665Z" fill="white"/>
<path d="M58.1735 184.392C58.1735 184.392 57.6891 193.18 57.3874 196.932C57.0857 200.684 55.928 203.326 58.8532 204.757C61.7783 206.188 72.4572 210.115 81.2174 209.025C83.2714 208.761 83.9711 208.66 84.7184 205.798C85.4658 202.936 87.6925 192.666 88.9425 189.938C88.9425 189.938 71.4732 191.756 58.1735 184.392Z" fill="#B3752E"/>
<path d="M70.1325 208.528C66.2316 207.752 62.4288 206.542 58.7845 204.918C56.3199 203.717 56.6066 201.651 56.9952 199.047C57.0897 198.364 57.1803 197.663 57.2444 196.909C57.5485 193.181 58.0259 184.465 58.0361 184.378L58.0547 184.067L58.3026 184.205C62.2802 186.336 66.5368 187.841 70.9457 188.675C76.8654 189.835 82.9208 190.19 88.9712 189.732L89.2841 189.698L89.146 190.009C88.1881 192.11 86.6555 198.57 85.6507 202.842C85.3899 204.122 85.1048 205.155 84.9283 205.838C84.1509 208.848 83.3086 208.952 81.2579 209.2C77.5209 209.574 73.7711 209.348 70.1325 208.528ZM58.3471 184.683C58.2531 186.28 57.8461 193.589 57.5693 196.926C57.5044 197.72 57.4115 198.396 57.317 199.08C56.9563 201.73 56.72 203.475 58.9392 204.562C62.558 206.177 66.3351 207.379 70.2099 208.148C73.8084 208.954 77.5155 209.177 81.2103 208.811C83.2252 208.556 83.8366 208.486 84.5459 205.737C84.6819 205.07 84.963 204.02 85.2668 202.748C86.2368 198.647 87.6839 192.533 88.6485 190.143C82.667 190.557 76.6845 190.189 70.8324 189.047C66.4849 188.228 62.2826 186.765 58.3439 184.699L58.3471 184.683Z" fill="#68320E"/>
<g style="mix-blend-mode:screen" opacity="0.7">
<path d="M62.2982 188.819C63.9671 189.31 69.7448 190.954 70.6193 191.13C71.4939 191.307 69.561 192.661 69.4063 195.142C69.2516 197.623 70.8044 199.27 72.7941 199.212C74.7838 199.153 75.4114 197.648 75.7461 195.713C76.0808 193.777 75.0883 191.944 77.3033 192.392C79.5618 192.796 81.8519 193.007 84.1528 193.025C85.1552 192.977 84.2469 201.025 82.5781 203.208C80.9092 205.391 76.3678 205.629 70.6391 204.221C64.9103 202.813 59.0636 201.325 59.1851 199.483C59.3729 196.29 59.1092 195.13 60.5971 194.421C62.085 193.712 61.9061 191.22 61.6935 190.175C61.4809 189.13 61.3981 188.548 62.2982 188.819Z" fill="#CC8352"/>
</g>
<g style="mix-blend-mode:multiply" opacity="0.5">
<path d="M62.6102 187.558C61.781 188.368 60.8623 189.03 60.0163 189.813C59.9431 189.879 60.0317 189.994 60.1088 189.945C61.0556 189.297 61.9236 188.522 62.6908 187.639C62.6964 187.627 62.6983 187.613 62.6962 187.6C62.6941 187.587 62.6881 187.575 62.6791 187.566C62.6701 187.557 62.6586 187.551 62.6462 187.55C62.6338 187.548 62.6212 187.551 62.6102 187.558Z" fill="#68320E"/>
<path d="M63.2474 188.032C62.3322 189.093 61.2852 190.013 60.1382 190.765C60.1281 190.771 60.1191 190.78 60.1119 190.79C60.1047 190.8 60.0994 190.811 60.0963 190.823C60.0931 190.835 60.0922 190.848 60.0935 190.86C60.0949 190.873 60.0985 190.884 60.1041 190.895C60.1098 190.906 60.1174 190.915 60.1265 190.923C60.1356 190.93 60.1461 190.935 60.1572 190.938C60.1684 190.941 60.1801 190.942 60.1916 190.94C60.2031 190.938 60.2143 190.934 60.2244 190.928C61.4355 190.237 62.5002 189.275 63.3438 188.108C63.3939 188.046 63.2975 187.97 63.2474 188.032Z" fill="#68320E"/>
<path d="M62.3492 191.875C62.0435 191.459 61.8039 190.991 61.6397 190.488C61.6508 190.433 61.5394 190.467 61.5514 190.518C61.6738 191.057 61.9124 191.553 62.2482 191.968C62.2961 192.026 62.4026 191.942 62.3492 191.875Z" fill="#68320E"/>
<path d="M63.3716 191.567C62.9933 191.146 62.7099 190.636 62.5418 190.075C62.5361 190.058 62.525 190.045 62.5106 190.038C62.4962 190.03 62.4796 190.029 62.4638 190.033C62.4481 190.038 62.4343 190.049 62.4252 190.064C62.4161 190.079 62.4123 190.096 62.4145 190.114C62.492 190.753 62.8012 191.326 63.2755 191.709C63.3321 191.761 63.4035 191.63 63.3716 191.567Z" fill="#68320E"/>
<path d="M64.3597 191.392C63.4711 192.457 62.2941 192.849 61.1084 193.32C61.0987 193.322 61.0894 193.326 61.081 193.331C61.0725 193.337 61.0652 193.344 61.0592 193.353C61.0473 193.37 61.0421 193.392 61.0448 193.412C61.0475 193.433 61.0578 193.452 61.0735 193.464C61.0892 193.476 61.109 193.481 61.1285 193.478C61.7693 193.39 62.3912 193.164 62.9572 192.815C63.5233 192.466 64.0219 192 64.4235 191.445C64.4545 191.403 64.3891 191.358 64.3597 191.392Z" fill="#68320E"/>
<path d="M64.8241 192.109C63.9048 193.267 62.7437 194.175 61.4417 194.754C61.3558 194.809 61.3974 194.971 61.5232 194.94C62.9015 194.437 64.1018 193.464 64.9381 192.173C64.9747 192.14 64.867 192.045 64.8241 192.109Z" fill="#68320E"/>
<path d="M66.1392 192.673C65.2259 191.716 64.6247 190.464 64.4202 189.095C64.4313 189.041 64.3342 189.077 64.3391 189.127C64.521 190.432 64.9606 192.048 66.0422 192.783C66.1012 192.86 66.2229 192.739 66.1392 192.673Z" fill="#68320E"/>
<path d="M67.4744 192.395C66.6314 191.665 65.9487 190.745 65.4717 189.696C65.4639 189.684 65.4527 189.675 65.4398 189.671C65.4269 189.666 65.4129 189.666 65.3997 189.671C65.3865 189.675 65.3747 189.684 65.3661 189.696C65.3575 189.707 65.3524 189.722 65.3515 189.736C65.7563 190.862 66.4423 191.839 67.3361 192.561C67.4325 192.637 67.5677 192.486 67.4744 192.395Z" fill="#68320E"/>
<path d="M68.7065 191.351C68.3923 192.039 67.9394 192.646 67.3818 193.127C66.8769 193.591 66.2794 193.922 65.7969 194.423C65.7309 194.49 65.8098 194.579 65.8854 194.538C66.5335 194.176 67.1308 193.714 67.6574 193.167C68.1797 192.71 68.5649 192.098 68.7615 191.411C68.7644 191.402 68.7651 191.393 68.7634 191.385C68.7617 191.376 68.7578 191.368 68.752 191.362C68.7463 191.356 68.7389 191.351 68.7309 191.349C68.7228 191.348 68.7144 191.348 68.7065 191.351Z" fill="#68320E"/>
<path d="M69.7562 191.74C69.7592 191.726 69.7567 191.711 69.7494 191.699C69.742 191.687 69.7304 191.678 69.7171 191.676C69.7038 191.673 69.6899 191.676 69.6784 191.684C69.6669 191.693 69.6588 191.705 69.6559 191.72C69.4755 193.008 68.2054 194.004 67.2716 194.704C67.2631 194.709 67.2557 194.717 67.2498 194.726C67.2438 194.734 67.2395 194.744 67.237 194.754C67.2346 194.765 67.234 194.776 67.2354 194.786C67.2368 194.796 67.2401 194.806 67.2451 194.815C67.2502 194.824 67.2568 194.832 67.2647 194.838C67.2726 194.844 67.2816 194.849 67.2912 194.851C67.3008 194.853 67.3108 194.854 67.3206 194.852C67.3304 194.85 67.3398 194.846 67.3483 194.84C68.299 194.313 69.8004 193.025 69.7562 191.74Z" fill="#68320E"/>
<path d="M66.5237 195.602C65.7651 195.117 65.1351 194.435 64.6894 193.616C64.6824 193.606 64.6725 193.599 64.6614 193.597C64.6503 193.594 64.6385 193.595 64.6279 193.601C64.6174 193.606 64.6087 193.615 64.6032 193.626C64.5978 193.637 64.5959 193.65 64.5979 193.662C64.9381 194.606 65.5964 195.369 66.4452 195.804C66.4574 195.809 66.4705 195.812 66.4837 195.811C66.497 195.811 66.5101 195.808 66.5223 195.802C66.5346 195.796 66.5458 195.788 66.5552 195.778C66.5646 195.767 66.5721 195.755 66.5773 195.742C66.5824 195.729 66.5852 195.715 66.5853 195.7C66.5853 195.686 66.5828 195.672 66.5779 195.659C66.5729 195.646 66.5656 195.634 66.5563 195.625C66.547 195.615 66.5359 195.607 66.5237 195.602Z" fill="#68320E"/>
<path d="M65.3453 196.538C64.6259 195.966 64.0624 195.198 63.7096 194.309C63.7222 194.247 63.5877 194.285 63.6006 194.368C63.891 195.332 64.4789 196.151 65.2691 196.693C65.3751 196.795 65.4576 196.609 65.3453 196.538Z" fill="#68320E"/>
<path d="M61.4532 195.532C60.8185 194.724 60.3755 193.76 60.1606 192.718C60.1717 192.664 60.0603 192.698 60.0746 192.701C60.1576 193.814 60.6058 194.846 61.3395 195.614C61.3513 195.622 61.3653 195.627 61.3797 195.626C61.3941 195.626 61.4082 195.621 61.4203 195.613C61.4324 195.604 61.442 195.592 61.4478 195.577C61.4537 195.563 61.4555 195.547 61.4532 195.532Z" fill="#68320E"/>
<path d="M60.6153 196.107C59.7995 195.3 59.2354 194.241 58.9959 193.066C58.99 193.053 58.9801 193.043 58.9679 193.037C58.9556 193.032 58.9419 193.031 58.9288 193.035C58.9158 193.039 58.9042 193.047 58.8961 193.059C58.8881 193.071 58.8839 193.085 58.8845 193.1C59.0711 194.321 59.6338 195.427 60.4833 196.242C60.5678 196.34 60.6911 196.211 60.6153 196.107Z" fill="#68320E"/>
<path d="M58.7872 194.604C58.489 194.786 58.1948 194.985 57.9237 195.181C57.9158 195.22 57.9016 195.29 57.9637 195.278C58.3133 195.179 58.6335 194.978 58.8876 194.697C58.8995 194.682 58.9057 194.663 58.9047 194.644C58.9037 194.625 58.8956 194.607 58.8823 194.595C58.869 194.583 58.8515 194.577 58.8337 194.578C58.8158 194.58 58.7991 194.589 58.7872 194.604Z" fill="#68320E"/>
<path d="M59.6795 195.523C59.2287 195.881 58.7264 196.154 58.1947 196.33C58.1517 196.321 58.1742 196.431 58.1758 196.423C58.7431 196.326 59.2756 196.048 59.7035 195.625C59.7135 195.629 59.7242 195.629 59.7346 195.626C59.7449 195.623 59.7545 195.618 59.7622 195.61C59.77 195.602 59.7757 195.592 59.7787 195.581C59.7818 195.57 59.782 195.558 59.7794 195.547C59.7768 195.536 59.7716 195.527 59.7641 195.519C59.7566 195.511 59.7473 195.506 59.7371 195.503C59.7268 195.501 59.7161 195.501 59.7059 195.505C59.6958 195.508 59.6867 195.515 59.6795 195.523Z" fill="#68320E"/>
<path d="M62.3389 195.436C61.7035 196.147 60.9426 196.713 60.1039 197.101C60.014 197.139 60.066 197.287 60.1631 197.25C61.0579 196.924 61.8509 196.322 62.4409 195.521C62.4854 195.449 62.3818 195.372 62.3389 195.436Z" fill="#68320E"/>
<path d="M62.9302 196.371C63.043 196.733 62.0477 197.259 61.8425 197.387C61.3719 197.7 60.8697 197.951 60.3466 198.135C60.2527 198.156 60.304 198.344 60.3764 198.319C60.8325 198.241 63.3963 197.087 62.9302 196.371Z" fill="#68320E"/>
<path d="M60.3658 199.035C59.7481 198.404 59.2788 197.624 58.9944 196.755C59.0055 196.701 58.8725 196.73 58.8869 196.733C59.0489 197.69 59.5433 198.535 60.2711 199.097C60.3342 199.19 60.4137 199.093 60.3658 199.035Z" fill="#68320E"/>
<path d="M59.6883 199.797C59.041 199.172 58.4715 198.46 57.9931 197.677C57.9931 197.677 57.8855 197.656 57.9103 197.717C58.2633 198.615 58.8427 199.384 59.585 199.938C59.6631 199.994 59.7505 199.858 59.6883 199.797Z" fill="#68320E"/>
<path d="M60.8848 199.489C60.293 199.763 59.7161 200.076 59.1575 200.425C59.148 200.436 59.142 200.45 59.1401 200.464C59.1383 200.479 59.1407 200.494 59.1471 200.507C59.1536 200.52 59.1636 200.53 59.1759 200.536C59.1882 200.542 59.2022 200.544 59.2158 200.541C59.8306 200.293 60.425 199.986 60.9916 199.624C61.0059 199.554 60.9682 199.409 60.8848 199.489Z" fill="#68320E"/>
<path d="M61.9467 199.606C61.4451 200.228 60.8135 200.713 60.1071 201.02C60.1071 201.02 60.0865 201.121 60.0913 201.097C60.4819 201.011 60.8553 200.844 61.1898 200.603C61.5243 200.363 61.8133 200.055 62.04 199.698C62.1187 199.641 61.9936 199.559 61.9467 199.606Z" fill="#68320E"/>
<path d="M63.3421 199.396C63.0431 198.996 62.5021 198.612 62.4377 198.05C62.4503 197.988 62.3397 197.982 62.3445 198.031C62.312 198.63 62.865 199.138 63.2515 199.475C63.2622 199.479 63.274 199.48 63.2855 199.478C63.297 199.476 63.3079 199.471 63.3171 199.463C63.3263 199.455 63.3335 199.444 63.3379 199.433C63.3423 199.421 63.3437 199.408 63.3421 199.396Z" fill="#68320E"/>
<path d="M64.3792 198.999C63.968 198.597 63.5825 198.165 63.2249 197.707C63.1827 197.658 63.1175 197.686 63.1446 197.772C63.4278 198.312 63.8081 198.784 64.264 199.161C64.3493 199.219 64.4541 199.07 64.3792 198.999Z" fill="#68320E"/>
<path d="M67.3233 195.643C66.6156 196.259 65.8987 197.141 64.9634 197.299C64.9482 197.296 64.9322 197.299 64.9191 197.309C64.906 197.318 64.8967 197.333 64.8934 197.349C64.89 197.366 64.8928 197.383 64.9012 197.397C64.9096 197.411 64.9229 197.42 64.9381 197.423C65.8911 197.398 66.7289 196.436 67.3944 195.771C67.489 195.709 67.3949 195.585 67.3233 195.643Z" fill="#68320E"/>
<path d="M68.0825 196.32C67.4881 197.068 66.746 197.664 65.9137 198.063C65.8541 198.099 65.8853 198.202 65.9649 198.178C66.8612 197.863 67.6485 197.249 68.21 196.426C68.2648 196.34 68.1429 196.243 68.0825 196.32Z" fill="#68320E"/>
<path d="M65.0772 198.889C64.5691 199.351 64.0275 199.769 63.4578 200.137C63.395 200.189 63.4262 200.292 63.5248 200.247C64.1179 199.907 64.6619 199.472 65.1378 198.958C65.1775 198.909 65.1154 198.848 65.0772 198.889Z" fill="#68320E"/>
<path d="M65.3027 199.24C64.7985 200.012 64.0801 200.595 63.2557 200.902C63.1483 200.953 63.2082 201.135 63.3013 201.081C64.1834 200.796 64.9379 200.154 65.4038 199.293C65.4268 199.217 65.3416 199.159 65.3027 199.24Z" fill="#68320E"/>
<path d="M70.5092 191.91C70.0206 191.335 69.5888 190.706 69.2204 190.034C69.2299 189.987 69.113 190.012 69.129 190.08C69.4055 190.823 69.8446 191.479 70.4099 191.995C70.4729 192.088 70.577 191.98 70.5092 191.91Z" fill="#68320E"/>
<path d="M71.4392 191.734C71.0709 191.418 70.7882 191.002 70.6185 190.526C70.628 190.48 70.511 190.504 70.5397 190.51C70.6761 191.033 70.968 191.489 71.3716 191.809C71.4291 191.894 71.4958 191.786 71.4392 191.734Z" fill="#68320E"/>
<path d="M69.4439 195.278C69.061 195.033 68.782 194.64 68.6616 194.175C68.6726 194.121 68.5684 194.156 68.5749 194.198C68.5974 194.461 68.6837 194.71 68.8252 194.921C68.9666 195.133 69.1583 195.299 69.3812 195.403C69.4505 195.465 69.5076 195.332 69.4439 195.278Z" fill="#68320E"/>
<path d="M70.2292 194.874C69.8131 194.579 69.4799 194.169 69.2629 193.685C69.2584 193.673 69.2497 193.664 69.2387 193.66C69.2277 193.655 69.2154 193.656 69.2044 193.661C69.1934 193.666 69.1847 193.676 69.1802 193.688C69.1757 193.7 69.1757 193.713 69.1802 193.725C69.3613 194.254 69.7001 194.7 70.145 194.994C70.2303 195.052 70.3001 194.929 70.2292 194.874Z" fill="#68320E"/>
<path d="M68.4208 199.412C67.9214 199.171 67.4848 198.806 67.1459 198.347C67.1538 198.308 67.0599 198.329 67.0775 198.389C67.3843 198.913 67.8407 199.314 68.3812 199.533C68.4186 199.533 68.4877 199.45 68.4208 199.412Z" fill="#68320E"/>
<path d="M69.2866 198.89C69.0154 198.751 68.7751 198.552 68.5802 198.308C68.3852 198.063 68.2396 197.776 68.1521 197.466C68.1462 197.453 68.1363 197.443 68.1241 197.437C68.1119 197.432 68.0981 197.431 68.085 197.435C68.072 197.439 68.0605 197.447 68.0524 197.459C68.0443 197.471 68.0402 197.485 68.0407 197.5C68.0997 197.848 68.2375 198.172 68.4421 198.444C68.6467 198.716 68.9119 198.928 69.2144 199.062C69.3116 199.097 69.3878 198.943 69.2866 198.89Z" fill="#68320E"/>
<path d="M66.3118 201.295C65.8526 201.054 65.4925 200.644 65.2946 200.137C65.2715 200.067 65.18 200.113 65.1904 200.172C65.267 200.453 65.4039 200.708 65.5903 200.918C65.7766 201.128 66.0074 201.287 66.2642 201.383C66.3136 201.433 66.3581 201.361 66.3118 201.295Z" fill="#68320E"/>
<path d="M65.9892 201.789C65.4048 201.578 64.9181 201.144 64.6194 200.567C64.593 200.513 64.5262 200.548 64.5351 200.614C64.6361 200.951 64.819 201.251 65.0653 201.482C65.3116 201.713 65.6126 201.869 65.9377 201.932C66.0077 201.954 66.0561 201.826 65.9892 201.789Z" fill="#68320E"/>
<path d="M69.9169 198.623C69.522 199.339 68.9162 199.898 68.1993 200.206C68.0991 200.259 68.1519 200.439 68.2505 200.394C68.6329 200.248 68.9858 200.019 69.2874 199.723C69.589 199.427 69.8328 199.069 70.0037 198.672C70.0069 198.66 70.0062 198.648 70.0018 198.636C69.9975 198.625 69.9897 198.616 69.9797 198.61C69.9696 198.604 69.958 198.602 69.9466 198.605C69.9353 198.607 69.9248 198.613 69.9169 198.623Z" fill="#68320E"/>
<path d="M70.6996 199.033C70.3781 199.768 69.8369 200.371 69.1652 200.743C69.0984 200.778 69.1336 200.898 69.2147 200.866C69.5797 200.706 69.911 200.464 70.1859 200.157C70.4608 199.85 70.673 199.485 70.8079 199.087C70.8151 199.072 70.8162 199.054 70.8111 199.038C70.806 199.021 70.7951 199.008 70.7807 199.001C70.7664 198.994 70.7498 198.993 70.7345 198.999C70.7193 199.005 70.7068 199.017 70.6996 199.033Z" fill="#68320E"/>
<path d="M71.0032 194.666C71.0159 194.604 70.9315 194.579 70.9173 194.649C70.655 195.306 70.1846 195.848 69.5919 196.174C69.5235 196.217 69.5619 196.322 69.6517 196.283C69.9668 196.127 70.25 195.902 70.4828 195.624C70.7157 195.345 70.893 195.019 71.0032 194.666Z" fill="#68320E"/>
<path d="M71.935 195.024C71.9333 195.013 71.9287 195.004 71.9216 194.996C71.9145 194.988 71.9054 194.983 71.8954 194.981C71.8853 194.979 71.8749 194.98 71.8653 194.984C71.8558 194.989 71.8476 194.996 71.8418 195.005C71.4662 195.75 70.9234 196.385 70.2647 196.852C70.1915 196.918 70.2856 197.042 70.3643 196.985C70.9757 196.511 71.7929 195.868 71.935 195.024Z" fill="#68320E"/>
<path d="M66.9322 201.106C66.5938 201.674 66.1202 202.137 65.5628 202.445C65.5031 202.481 65.5343 202.584 65.6195 202.569C65.928 202.45 66.2119 202.264 66.4528 202.022C66.6936 201.779 66.886 201.487 67.0174 201.163C67.0563 201.082 66.975 201.042 66.9322 201.106Z" fill="#68320E"/>
<path d="M67.6761 201.739C67.2063 202.264 66.6581 202.7 66.056 203.028C65.9788 203.077 66.018 203.214 66.1079 203.176C66.7507 202.888 67.3193 202.43 67.759 201.845C67.8122 201.767 67.7333 201.678 67.6761 201.739Z" fill="#68320E"/>
<path d="M71.1474 200.746C70.9905 200.586 70.8545 200.404 70.7429 200.204C70.7429 200.204 70.6569 200.187 70.6729 200.254C70.7605 200.484 70.9108 200.677 71.1045 200.81L71.1474 200.746Z" fill="#68320E"/>
<path d="M70.8174 201.294C70.524 201.147 70.2746 200.919 70.0946 200.631C70.0571 200.558 69.9728 200.606 70 200.692C70.1459 201.032 70.4118 201.291 70.7404 201.415C70.8232 201.448 70.8915 201.333 70.8174 201.294Z" fill="#68320E"/>
<path d="M72.4436 191.227C72.0008 191.797 71.4774 192.288 70.8937 192.683C70.8181 192.724 70.8605 192.846 70.9472 192.823C71.5935 192.491 72.1398 191.963 72.5169 191.307C72.5654 191.252 72.492 191.172 72.4436 191.227Z" fill="#68320E"/>
<path d="M73.3516 191.71C72.8271 192.324 72.1905 192.815 71.4841 193.15C71.3911 193.204 71.4383 193.375 71.5369 193.33C72.31 193.063 72.978 192.51 73.4209 191.772C73.4249 191.767 73.4279 191.761 73.4298 191.755C73.4318 191.749 73.4325 191.742 73.4321 191.736C73.4317 191.729 73.4301 191.723 73.4274 191.717C73.4247 191.712 73.421 191.707 73.4164 191.703C73.4119 191.698 73.4066 191.695 73.4009 191.694C73.3952 191.692 73.3891 191.691 73.3831 191.692C73.3771 191.692 73.3712 191.694 73.3658 191.697C73.3604 191.7 73.3556 191.705 73.3516 191.71Z" fill="#68320E"/>
<path d="M72.3466 200.478C72.1417 200.752 71.9582 201.03 71.7533 201.303C71.5483 201.577 71.2312 201.852 70.9745 202.124C70.9668 202.136 70.963 202.151 70.9634 202.166C70.9638 202.18 70.9685 202.194 70.9769 202.206C70.9852 202.217 70.9968 202.226 71.0099 202.23C71.0231 202.234 71.0372 202.233 71.0502 202.228C71.641 201.81 72.1165 201.226 72.4231 200.542C72.4501 200.483 72.3792 200.428 72.3466 200.478Z" fill="#68320E"/>
<path d="M73.1473 200.57C72.8062 201.164 72.3605 201.684 71.8363 202.098C71.7575 202.155 71.8341 202.291 71.92 202.236C72.4929 201.844 72.9503 201.281 73.2341 200.619C73.2372 200.607 73.2366 200.595 73.2322 200.584C73.2278 200.572 73.22 200.563 73.21 200.557C73.2 200.551 73.1884 200.55 73.177 200.552C73.1656 200.554 73.1552 200.56 73.1473 200.57Z" fill="#68320E"/>
<path d="M72.7612 198.277C72.2083 198.06 71.7482 197.642 71.4582 197.093C71.4526 197.083 71.444 197.075 71.4338 197.071C71.4236 197.067 71.4123 197.066 71.4016 197.07C71.3908 197.073 71.3813 197.08 71.3743 197.089C71.3673 197.099 71.3633 197.11 71.3628 197.122C71.4791 197.435 71.6628 197.712 71.8993 197.931C72.1358 198.15 72.4185 198.305 72.7247 198.383C72.7804 198.402 72.8153 198.304 72.7612 198.277Z" fill="#68320E"/>
<path d="M73.544 198.024C73.0312 197.501 72.2099 197.246 71.9396 196.448C71.937 196.431 71.9284 196.417 71.9156 196.407C71.9028 196.398 71.8869 196.395 71.8714 196.398C71.8559 196.401 71.842 196.411 71.8329 196.425C71.8237 196.439 71.82 196.456 71.8226 196.473C71.8939 197.295 72.8804 197.801 73.4526 198.143C73.5196 198.181 73.6006 198.076 73.544 198.024Z" fill="#68320E"/>
</g>
<g style="mix-blend-mode:multiply" opacity="0.5">
<path d="M86.8641 195.974C86.4265 195.564 86.0699 195.064 85.8138 194.501C85.8217 194.463 85.7207 194.483 85.7327 194.534C85.9686 195.199 86.3346 195.799 86.8064 196.293C86.8285 196.185 86.8435 196.075 86.8641 195.974Z" fill="#68320E"/>
<path d="M86.5911 197.413C85.9658 196.753 85.48 195.956 85.1647 195.072C85.1616 195.054 85.1516 195.037 85.137 195.027C85.1223 195.016 85.1042 195.012 85.0866 195.016C85.069 195.02 85.0533 195.032 85.043 195.048C85.0327 195.064 85.0287 195.083 85.0318 195.102C85.2981 196.118 85.8128 197.03 86.5232 197.746L86.5911 197.413Z" fill="#68320E"/>
<path d="M83.72 195.266C84.8684 194.592 85.8029 193.555 86.3917 192.3C86.4027 192.246 86.4849 192.319 86.4705 192.316C85.9245 193.53 85.0293 194.957 83.7854 195.384C83.6892 195.454 83.6388 195.298 83.72 195.266Z" fill="#68320E"/>
<path d="M82.5267 194.636C83.5468 194.161 84.4681 193.46 85.2292 192.581C85.2435 192.511 85.3654 192.609 85.3288 192.642C84.6272 193.61 83.6996 194.364 82.6456 194.822C82.5008 194.873 82.4177 194.695 82.5267 194.636Z" fill="#68320E"/>
<path d="M81.692 193.319C81.7947 194.062 82.055 194.764 82.4532 195.372C82.8052 195.952 83.2741 196.434 83.6102 197.019C83.6549 197.093 83.5817 197.159 83.4949 197.109C82.9827 196.585 82.5451 195.982 82.1951 195.319C81.8125 194.745 81.6072 194.052 81.6068 193.334C81.6078 193.324 81.612 193.314 81.6189 193.306C81.6259 193.298 81.635 193.292 81.6449 193.291C81.6548 193.289 81.6649 193.291 81.6735 193.296C81.682 193.301 81.6886 193.309 81.692 193.319Z" fill="#68320E"/>
<path d="M80.535 193.409C80.5407 193.4 80.5489 193.392 80.5585 193.388C80.568 193.384 80.5785 193.382 80.5885 193.384C80.5985 193.386 80.6077 193.392 80.6147 193.399C80.6218 193.407 80.6265 193.417 80.6282 193.428C80.4247 194.72 81.3654 196 82.0603 196.949C82.074 196.964 82.0811 196.985 82.0802 197.007C82.0792 197.029 82.0703 197.049 82.0553 197.065C82.0404 197.08 82.0206 197.088 82.0004 197.088C81.9801 197.088 81.9611 197.079 81.9474 197.063C81.1922 196.264 80.1355 194.637 80.535 193.409Z" fill="#68320E"/>
<path d="M82.5192 197.974C83.3971 197.7 84.2061 197.2 84.8755 196.519C84.8835 196.509 84.8948 196.503 84.907 196.501C84.9191 196.5 84.9311 196.504 84.9403 196.512C84.9495 196.521 84.9552 196.533 84.956 196.546C84.9569 196.559 84.9528 196.572 84.9448 196.582C84.3491 197.406 83.4937 197.969 82.5489 198.158C82.5277 198.159 82.5069 198.152 82.4904 198.139C82.4739 198.125 82.4629 198.105 82.4592 198.082C82.4556 198.06 82.4597 198.037 82.4707 198.017C82.4817 197.997 82.4989 197.982 82.5192 197.974Z" fill="#68320E"/>
<path d="M83.3623 199.178C84.2199 198.837 84.9859 198.262 85.5829 197.51C85.5971 197.44 85.7119 197.536 85.6722 197.584C85.1165 198.436 84.3169 199.071 83.4016 199.387C83.2815 199.428 83.2477 199.227 83.3623 199.178Z" fill="#68320E"/>
<path d="M84.4836 202.456C84.8891 202.15 85.5175 201.922 85.7356 201.4C85.7498 201.331 85.8557 201.36 85.8359 201.421C85.7142 202.018 85.0119 202.353 84.5475 202.582C84.5331 202.584 84.5186 202.581 84.5059 202.575C84.4932 202.568 84.4827 202.557 84.4759 202.543C84.4691 202.53 84.4662 202.514 84.4675 202.499C84.4689 202.483 84.4745 202.468 84.4836 202.456Z" fill="#68320E"/>
<path d="M83.6017 201.803C84.1127 201.525 84.6075 201.212 85.0831 200.866C85.134 200.836 85.1905 200.888 85.1405 200.951C84.7108 201.392 84.2087 201.743 83.6616 201.985C83.563 202.029 83.5031 201.848 83.6017 201.803Z" fill="#68320E"/>
<path d="M81.7395 197.805C82.2535 198.579 82.685 199.611 83.528 200.016C83.5997 200.03 83.5728 200.162 83.5027 200.14C82.5954 199.868 82.061 198.718 81.6139 197.909C81.5723 197.819 81.6876 197.73 81.7395 197.805Z" fill="#68320E"/>
<path d="M80.8168 198.259C81.1734 199.132 81.7142 199.899 82.3976 200.501C82.4549 200.512 82.3691 200.64 82.3252 200.599C81.5544 200.058 80.9717 199.261 80.6616 198.324C80.679 198.239 80.784 198.163 80.8168 198.259Z" fill="#68320E"/>
<path d="M82.9974 201.518C83.3414 202.092 83.7303 202.632 84.1601 203.134C84.1722 203.147 84.1788 203.165 84.1785 203.184C84.1782 203.203 84.1709 203.221 84.1582 203.235C84.1519 203.241 84.1446 203.247 84.1365 203.25C84.1284 203.254 84.1197 203.256 84.1111 203.256C84.0935 203.256 84.0768 203.249 84.0647 203.236C83.5986 202.751 83.2098 202.188 82.9131 201.565C82.8653 201.507 82.9408 201.466 82.9974 201.518Z" fill="#68320E"/>
<path d="M82.6662 201.788C82.9199 202.67 83.4442 203.424 84.1552 203.931C84.2445 204.006 84.1078 204.164 84.0615 204.098C83.2937 203.592 82.7523 202.774 82.5548 201.822C82.5491 201.74 82.6533 201.705 82.6662 201.788Z" fill="#68320E"/>
<path d="M79.7478 193.364C80.3842 192.955 80.9815 192.477 81.5302 191.939C81.5396 191.892 81.6305 191.959 81.5979 192.009C81.1169 192.654 80.5 193.167 79.8014 193.504C79.7298 193.562 79.6675 193.429 79.7478 193.364Z" fill="#68320E"/>
<path d="M78.896 192.959C79.3461 192.754 79.742 192.427 80.0439 192.011C80.055 191.957 80.1442 192.031 80.1227 192.027C79.839 192.495 79.4252 192.856 78.9431 193.057C78.8731 193.107 78.8292 192.993 78.896 192.959Z" fill="#68320E"/>
<path d="M79.8102 196.892C80.2472 196.756 80.6276 196.453 80.8787 196.041C80.8897 195.987 80.9646 196.059 80.9646 196.059C80.8665 196.305 80.7112 196.522 80.5139 196.687C80.3166 196.853 80.0843 196.962 79.8398 197.003C79.7555 197.05 79.7347 196.933 79.8102 196.892Z" fill="#68320E"/>
<path d="M79.1722 196.294C79.6552 196.119 80.0923 195.816 80.4412 195.411C80.4507 195.365 80.5272 195.429 80.5033 195.472C80.1693 195.932 79.7111 196.269 79.1955 196.436C79.1072 196.467 79.0823 196.332 79.1722 196.294Z" fill="#68320E"/>
<path d="M79.6006 201.138C80.1574 201.032 80.6875 200.788 81.1484 200.425C81.1563 200.386 81.2415 200.444 81.2034 200.484C80.7601 200.906 80.2073 201.168 79.6263 201.232C79.6145 201.236 79.602 201.235 79.5913 201.229C79.5806 201.223 79.5727 201.213 79.5693 201.2C79.5659 201.188 79.5673 201.174 79.5732 201.163C79.5791 201.151 79.5889 201.142 79.6006 201.138Z" fill="#68320E"/>
<path d="M78.9152 200.412C79.226 200.35 79.5237 200.221 79.7896 200.031C80.0555 199.842 80.2838 199.596 80.46 199.31C80.4628 199.3 80.4677 199.292 80.4742 199.284C80.4807 199.277 80.4887 199.272 80.4974 199.268C80.5062 199.265 80.5156 199.263 80.5247 199.265C80.5339 199.266 80.5425 199.269 80.55 199.275C80.5576 199.28 80.5637 199.288 80.568 199.296C80.5722 199.305 80.5745 199.315 80.5745 199.325C80.5746 199.335 80.5725 199.345 80.5684 199.354C80.5642 199.363 80.5582 199.371 80.5508 199.377C80.3976 199.693 80.1757 199.967 79.9046 200.175C79.6335 200.382 79.3214 200.516 78.9958 200.565C78.847 200.6 78.8069 200.43 78.9152 200.412Z" fill="#68320E"/>
<path d="M81.0924 203.532C81.5951 203.335 82.0764 203.206 82.3964 202.697C82.4106 202.627 82.5182 202.721 82.4967 202.717C82.3424 202.967 82.1373 203.177 81.8977 203.331C81.658 203.484 81.3902 203.577 81.1155 203.601C81.1115 203.612 81.1047 203.621 81.096 203.627C81.0873 203.633 81.0771 203.637 81.0667 203.637C81.0564 203.637 81.0464 203.633 81.038 203.627C81.0296 203.621 81.0233 203.612 81.0198 203.602C81.0163 203.591 81.0159 203.58 81.0185 203.569C81.0212 203.558 81.0268 203.548 81.0347 203.541C81.0425 203.533 81.0522 203.528 81.0625 203.527C81.0728 203.525 81.0832 203.527 81.0924 203.532Z" fill="#68320E"/>
<path d="M81.2466 204.058C81.8662 204.01 82.4558 203.722 82.9041 203.245C82.9136 203.199 82.9972 203.264 82.9734 203.308C82.7792 203.606 82.5174 203.846 82.2141 204.004C81.9108 204.163 81.5767 204.234 81.2453 204.211C81.1848 204.215 81.1687 204.074 81.2466 204.058Z" fill="#68320E"/>
<path d="M78.3799 199.981C78.5565 200.775 78.9796 201.473 79.5805 201.96C79.6698 202.035 79.5777 202.194 79.4797 202.126C79.1561 201.882 78.8836 201.569 78.6783 201.206C78.4729 200.842 78.339 200.436 78.2845 200.01C78.2772 199.936 78.3711 199.915 78.3799 199.981Z" fill="#68320E"/>
<path d="M77.5179 200.177C77.6139 200.965 77.9596 201.685 78.4973 202.217C78.5618 202.23 78.4657 202.372 78.4147 202.329C78.1034 202.078 77.8482 201.756 77.6664 201.385C77.4847 201.013 77.3805 200.602 77.3611 200.178C77.3881 200.119 77.5106 200.103 77.5179 200.177Z" fill="#68320E"/>
<path d="M78.4815 195.895C78.4941 195.833 78.5761 195.833 78.5675 195.912C78.5231 196.606 79.0421 197.244 79.412 197.698C79.4599 197.756 79.3804 197.853 79.3198 197.785C79.0644 197.553 78.858 197.266 78.7137 196.941C78.5694 196.615 78.4904 196.259 78.4815 195.895Z" fill="#68320E"/>
<path d="M77.4774 195.992C77.4832 195.983 77.4914 195.976 77.5009 195.971C77.5105 195.967 77.5209 195.966 77.5309 195.968C77.541 195.97 77.5501 195.975 77.5572 195.983C77.5642 195.99 77.5689 196 77.5706 196.011C77.7168 196.821 78.0546 197.571 78.5518 198.189C78.6004 198.279 78.5138 198.375 78.4262 198.292C77.9772 197.677 77.364 196.842 77.4774 195.992Z" fill="#68320E"/>
<path d="M80.5535 203.157C80.7136 203.79 81.034 204.358 81.4798 204.798C81.5292 204.848 81.4498 204.945 81.3916 204.901C81.1228 204.709 80.8972 204.456 80.73 204.159C80.5628 203.862 80.4578 203.528 80.4222 203.179C80.4201 203.16 80.4249 203.141 80.4357 203.126C80.4465 203.111 80.4624 203.1 80.4798 203.097C80.4972 203.094 80.5147 203.099 80.5286 203.11C80.5424 203.121 80.5513 203.138 80.5535 203.157Z" fill="#68320E"/>
<path d="M79.6551 203.581C79.9478 204.2 80.3389 204.757 80.8114 205.228C80.8736 205.289 80.7735 205.414 80.7185 205.355C80.1824 204.908 79.7684 204.315 79.5175 203.634C79.5245 203.562 79.6136 203.491 79.6551 203.581Z" fill="#68320E"/>
<path d="M76.5948 201.702C76.7937 201.592 76.978 201.452 77.142 201.288C77.1531 201.233 77.2352 201.306 77.197 201.347C77.0494 201.547 76.8498 201.696 76.6252 201.773C76.5837 201.756 76.5479 201.749 76.5948 201.702Z" fill="#68320E"/>
<path d="M76.7623 202.31C77.0714 202.24 77.3605 202.083 77.6005 201.857C77.6121 201.849 77.6261 201.844 77.6401 201.846C77.654 201.847 77.6669 201.853 77.6764 201.864C77.6859 201.875 77.6915 201.889 77.692 201.904C77.6926 201.919 77.6881 201.934 77.6794 201.946C77.4388 202.231 77.1087 202.41 76.7569 202.446C76.7004 202.467 76.6684 202.331 76.7623 202.31Z" fill="#68320E"/>
<path d="M78.0769 192.204C78.3359 192.876 78.6961 193.495 79.1436 194.035C79.1986 194.095 79.1104 194.198 79.0522 194.154C78.5338 193.672 78.1588 193.035 77.9712 192.32C77.9591 192.197 78.045 192.141 78.0769 192.204Z" fill="#68320E"/>
<path d="M77.0721 192.435C77.3994 193.167 77.8676 193.812 78.4469 194.329C78.5218 194.4 78.4456 194.554 78.3548 194.488C77.6823 194.031 77.1957 193.321 76.9863 192.491C76.979 192.416 77.053 192.383 77.0721 192.435Z" fill="#68320E"/>
<path d="M75.4977 195.029C76.0923 194.96 76.6554 194.682 77.0986 194.237C77.1113 194.175 77.2061 194.259 77.1767 194.294C76.973 194.56 76.7173 194.775 76.4288 194.922C76.1403 195.07 75.8266 195.146 75.5114 195.145C75.4509 195.149 75.438 195.065 75.4977 195.029Z" fill="#68320E"/>
<path d="M74.8285 194.57C75.4769 194.208 76.3981 194.192 76.8254 193.487C76.8381 193.425 76.9473 193.511 76.9258 193.507C76.6243 194.254 75.5347 194.51 74.8749 194.708C74.7953 194.732 74.7601 194.612 74.8285 194.57Z" fill="#68320E"/>
</g>
<path d="M57.0402 199.841C56.7545 202.085 56.7562 203.725 58.8599 204.756C61.7985 206.158 72.4639 210.114 81.2241 209.025C83.2781 208.761 83.9778 208.66 84.7251 205.798C84.7568 205.643 84.7931 205.464 84.8342 205.263C83.195 205.982 79.5064 206.795 70.8018 205.158C61.7156 203.451 58.2012 200.956 57.0402 199.841Z" fill="#8A4D1C"/>
<path d="M70.1299 208.529C66.229 207.754 62.4262 206.544 58.7819 204.92C56.5428 203.821 56.5752 202.05 56.8393 199.802L56.9152 199.429L57.1712 199.675C58.203 200.691 61.669 203.241 70.8658 204.954C79.1101 206.507 82.9925 205.877 84.7971 205.079L85.1178 204.934L85.0435 205.298C85.0198 205.415 84.9977 205.523 84.9755 205.632L84.9281 205.865C84.142 208.881 83.2997 208.985 81.2561 209.235C77.5174 209.598 73.7673 209.36 70.1299 208.529ZM57.1362 200.249C56.9106 202.199 56.9917 203.669 58.8985 204.604C62.5172 206.219 66.2943 207.421 70.1692 208.19C73.7676 208.996 77.4747 209.22 81.1696 208.854C83.1845 208.598 83.7959 208.528 84.5052 205.779L84.54 205.609C82.5664 206.357 78.6106 206.834 70.7271 205.378C62.1458 203.685 58.4906 201.331 57.1362 200.249Z" fill="#68320E"/>
<g style="mix-blend-mode:multiply" opacity="0.7">
<path d="M58.1735 184.392C58.1735 184.392 57.6891 193.18 57.3874 196.932C57.0857 200.684 55.928 203.326 58.8532 204.757C61.7783 206.188 72.4572 210.115 81.2174 209.025C83.2714 208.761 83.9711 208.66 84.7184 205.798C85.4658 202.936 87.6925 192.666 88.9425 189.938C88.9425 189.938 71.4732 191.756 58.1735 184.392ZM85.2324 199.173C84.9193 200.16 84.6724 201.152 84.3992 202.163C84.126 203.174 83.859 204.009 83.5259 204.911C83.3077 205.66 82.932 206.351 82.4285 206.927C81.2781 208.068 79.5627 208.392 78.0755 208.511C74.217 208.739 70.3734 208.235 66.7203 207.025C65.7086 206.715 64.6992 206.358 63.7018 205.979C62.0477 205.463 60.4809 204.686 59.0514 203.674C57.9895 202.805 57.8466 201.492 57.9496 200.107C58.2016 196.709 58.1554 194.041 58.7788 194.022C59.9087 194.008 60.5117 192.587 60.6232 191.527C60.7629 190.182 60.3445 188.902 60.3329 187.567C60.3324 187.542 60.337 187.517 60.3466 187.494C60.3561 187.471 60.3702 187.45 60.3879 187.434C60.4057 187.417 60.4265 187.405 60.4489 187.398C60.4713 187.391 60.4947 187.39 60.5174 187.394C61.0407 187.5 61.5843 187.908 62.1149 188.088C63.7624 188.647 65.4497 189.231 67.148 189.687C68.8463 190.143 70.5993 190.441 72.3039 190.866C72.4401 190.893 72.426 191.036 72.3561 191.159C71.4528 192.475 70.8665 194.004 70.6517 195.605C70.6108 196.038 70.6707 196.472 70.826 196.868C70.9813 197.263 71.2272 197.607 71.5413 197.869C71.8047 198.106 72.1179 198.273 72.456 198.355C72.7941 198.437 73.148 198.433 73.4897 198.343C74.6483 197.859 75.2475 196.089 75.4329 194.923C75.5387 193.781 75.522 192.634 75.3832 191.504C75.1607 191.314 76.3219 191.476 76.8611 191.577C78.0703 191.774 79.2913 191.897 80.518 191.944C82.195 191.992 83.8698 192.161 85.5577 192.082C85.5786 192.066 85.6027 192.057 85.6276 192.055C85.6525 192.053 85.6772 192.059 85.6992 192.07C85.7211 192.082 85.7395 192.1 85.7525 192.123C85.7655 192.145 85.7725 192.171 85.7728 192.198C85.6936 193.539 84.7131 195.385 85.831 196.418C85.8489 196.436 85.862 196.459 85.8692 196.485C85.8764 196.51 85.8773 196.537 85.8719 196.564C85.8666 196.59 85.855 196.615 85.8385 196.636C85.8219 196.656 85.8008 196.672 85.7772 196.682C85.6944 197.531 85.5113 198.368 85.2324 199.173Z" fill="#8A4D1C"/>
</g>
<path d="M59.1332 183.162C61.9452 184.013 67.7038 186.226 73.5963 187.417C78.3334 188.389 83.183 188.726 88.0353 188.42C91.3123 188.161 89.881 191.047 87.631 191.174C82.5907 191.564 77.5465 191.221 72.6354 190.155C67.8625 189.174 63.2097 187.674 58.7476 185.677C56.4631 184.545 56.6007 182.367 59.1332 183.162Z" fill="#8A4D1C"/>
<path d="M73.6161 190.566L72.591 190.359C64.5772 188.554 60.1878 186.617 58.6674 185.874C57.3143 185.188 56.7761 184.167 56.9838 183.514C57.1914 182.861 57.8289 182.699 58.7608 182.888L59.1694 182.97C59.9222 183.195 60.8718 183.516 61.9688 183.883C65.78 185.236 69.667 186.35 73.611 187.221C78.3334 188.194 83.1692 188.528 88.0071 188.215C88.3643 188.18 88.7227 188.193 89.0741 188.253C90.092 188.459 90.1416 189.131 90.1149 189.408C90.0374 190.265 88.9871 191.281 87.6121 191.326L87.3254 191.341C82.725 191.693 78.1202 191.433 73.6161 190.566ZM58.6865 183.252C57.9697 183.107 57.442 183.243 57.3287 183.616C57.2154 183.989 57.6946 184.934 58.8261 185.534C60.3322 186.275 64.6961 188.19 72.6724 189.996C77.4678 191.041 82.3924 191.386 87.3154 191.024L87.602 191.009C88.7342 190.947 89.6892 190.106 89.7535 189.424C89.7973 188.916 89.2954 188.742 88.9943 188.681C88.6751 188.623 88.3486 188.611 88.0236 188.647C83.1538 188.957 78.2866 188.62 73.5328 187.641C69.587 186.751 65.6988 185.617 61.8874 184.246C60.7904 183.879 59.8408 183.558 59.088 183.333L58.6865 183.252Z" fill="#68320E"/>
<path d="M58.8857 184.55C59.1646 168.345 56.8352 149.117 56.807 148.925L57.7065 148.76C57.7259 148.957 60.0992 168.227 59.7925 184.531L58.8857 184.55Z" fill="#B3752E"/>
<path d="M58.6925 184.747L58.7305 184.561C59.0658 168.262 56.6824 149.153 56.6599 148.97L56.6317 148.779L57.8878 148.548L57.916 148.739C57.9402 148.914 60.3124 168.078 60.0029 184.543L59.9649 184.729L58.6925 184.747ZM57.0016 149.088C57.2492 151.133 59.3224 168.944 59.0566 184.352L59.6036 184.341C59.8725 168.845 57.7865 151.024 57.5374 148.986L57.0016 149.088Z" fill="#68320E"/>
<path d="M88.6035 189.366C92.1188 178.619 96.2423 168.094 100.95 157.852L100.157 157.425C95.4687 167.834 91.3042 178.491 87.6814 189.35L88.6035 189.366Z" fill="#B3752E"/>
<path d="M87.4319 189.536L87.4825 189.288C91.1113 178.423 95.2773 167.759 99.9624 157.34L100.051 157.164L101.161 157.76L101.081 157.93C96.3751 168.164 92.2531 178.681 88.7392 189.421L88.7107 189.56L87.4319 189.536ZM100.219 157.691C95.6167 167.95 91.5149 178.447 87.9313 189.136L88.4664 189.148C91.9591 178.501 96.0456 168.071 100.703 157.918L100.219 157.691Z" fill="#68320E"/>
<path d="M68.1185 187.968C73.2726 173.661 82.0123 156.848 82.102 156.664L81.3099 156.229C81.2249 156.39 72.4304 173.289 67.2693 187.668L68.1185 187.968Z" fill="#B3752E"/>
<path d="M68.2257 188.206L67.0418 187.789L67.0813 187.595C72.1306 173.509 80.7582 156.842 81.125 156.141L81.2116 155.973L81.3757 156.046L82.336 156.571L82.2391 156.754C82.1589 156.891 73.4033 173.71 68.2636 188.02L68.2257 188.206ZM67.5184 187.538L68.0187 187.72C72.9166 174.12 80.9002 158.6 81.8546 156.773L81.3844 156.516C80.4047 158.395 72.3584 174.112 67.5184 187.538Z" fill="#68320E"/>
<path d="M82.9506 189.825C82.8823 174.665 80.1824 155.79 80.1383 155.603L81.0275 155.452C81.0588 155.628 83.7859 174.589 83.8503 189.805L82.9506 189.825Z" fill="#B3752E"/>
<path d="M82.764 190.023L82.8019 189.837C82.7312 174.652 80.029 155.825 79.9889 155.656L79.9552 155.455L81.201 155.238L81.2323 155.414C81.2596 155.573 83.9978 174.48 84.0615 189.809L84.0666 190.004L82.764 190.023ZM80.3753 155.774C80.7001 157.843 83.0753 175.271 83.1782 189.639L83.7181 189.627C83.655 175.283 81.1999 157.662 80.9309 155.685L80.3753 155.774Z" fill="#68320E"/>
<path d="M67.455 187.665C67.499 172.503 64.9593 153.758 64.9368 153.575L65.8315 153.433C65.8541 153.615 68.4026 172.427 68.3587 187.662L67.455 187.665Z" fill="#B3752E"/>
<path d="M67.2769 187.861L67.3132 187.683C67.3542 172.609 64.82 153.8 64.7974 153.618L64.7709 153.419L66.0207 153.219L66.0504 153.402C66.073 153.585 68.6174 172.307 68.5784 187.664L68.5835 187.859L67.2769 187.861ZM65.1249 153.732C65.3923 155.79 67.6362 173.24 67.6179 187.47L68.1649 187.459C68.1773 173.002 65.9248 155.631 65.6574 153.646L65.1249 153.732Z" fill="#68320E"/>
<path d="M59.2872 184.779C63.2168 170.071 65.1417 152.381 65.178 152.203L66.062 152.333C66.0257 152.511 64.0953 170.265 60.1396 185.064L59.2872 184.779Z" fill="#B3752E"/>
<path d="M60.2784 185.284L59.0707 184.911L59.1086 184.725C63.02 170.07 64.9599 152.342 64.9915 152.187L65.0326 151.986L66.2798 152.165L66.2435 152.343C66.1594 153.086 64.2008 170.575 60.321 185.075L60.2784 185.284ZM59.5217 184.639L60.034 184.799C63.7045 170.959 65.64 154.499 65.8695 152.494L65.3462 152.388C65.1144 154.442 63.22 170.7 59.5217 184.639Z" fill="#68320E"/>
<path d="M83.7944 189.856C90.675 168.943 100.597 158.451 100.675 158.289L99.8828 157.854C99.7979 158.015 90.9103 166.543 82.8825 189.753L83.7944 189.856Z" fill="#B3752E"/>
<path d="M82.6298 189.931L82.6789 189.691C89.6617 169.484 97.3944 160.214 99.6132 157.859L99.7189 157.743L99.8054 157.575L99.9473 157.685L100.909 158.202L100.812 158.384C100.76 158.452 100.705 158.516 100.646 158.577C98.2361 161.321 89.8913 171.801 83.9277 189.935L83.8961 190.09L82.6298 189.931ZM99.9153 158.098C97.7371 160.437 90.1101 169.591 83.162 189.554L83.6947 189.613C89.6521 171.583 97.9587 161.144 100.415 158.32L99.9153 158.098Z" fill="#68320E"/>
<g style="mix-blend-mode:multiply" opacity="0.6">
<path d="M100.153 157.426C100.121 157.581 100.009 157.728 99.94 157.884L99.8827 157.872C98.225 159.677 96.7073 161.624 95.3457 163.693C97.3384 161.898 93.0343 167.967 91.2652 171.229C90.4616 172.682 87.6774 178.728 87.0324 180.245C86.108 182.401 85.8963 181.938 86.3975 180.577C85.543 182.61 84.6712 184.801 83.8108 187.155C83.7799 185.622 83.6931 184.07 83.6422 182.525C83.5911 186.109 83.2323 183.694 83.2081 183.447C82.9048 178.781 82.6145 174.271 82.2632 170.428C82.0794 168.436 82.0535 166.548 81.7209 164.591C81.5617 163.614 81.3327 162.21 81.2086 160.731C81.1924 160.518 81.3598 159.623 81.7722 161.152C81.6255 159.967 81.479 158.928 81.3822 158.084L82.1015 156.679L81.3094 156.244C81.3094 156.244 81.2856 156.36 81.172 156.515C81.089 155.86 81.0295 155.493 81.0271 155.468L80.1379 155.619C80.1379 155.619 80.2659 156.493 80.4512 157.928C80.0185 158.77 79.4612 159.893 78.7992 161.238C79.1503 160.687 80.2393 159.445 79.2771 161.383C77.6838 164.551 75.9276 168.445 74.4691 171.721C73.2422 174.446 71.9492 177.165 70.8864 179.964C69.7595 182.967 70.1416 180.249 70.4137 179.61C69.6942 181.346 68.9587 183.088 68.3251 184.842C68.2993 183.028 68.2352 181.181 68.1552 179.339C68.1618 179.526 67.9888 182.537 67.7394 179.255C67.6485 178.09 67.2323 171.963 67.1939 171.309C67.0037 168.177 66.0502 160.035 65.9996 159.185C65.9218 157.772 66.1072 157.155 66.4687 158.714C66.2023 156.358 65.9816 154.657 65.8817 153.902C65.9957 152.94 66.0602 152.403 66.0594 152.371L65.1753 152.241C65.1753 152.241 65.1228 152.755 65.0165 153.606L64.9377 153.59C64.9377 153.59 64.9482 153.722 64.9764 153.913C63.8176 163.629 62.101 173.278 59.8364 182.804C59.9558 166.906 57.7725 148.976 57.73 148.782L56.8305 148.947C56.8586 149.139 59.2087 168.339 58.9091 184.572L59.3812 184.562C59.3639 184.647 59.3496 184.717 59.3322 184.802L60.1966 185.066C62.4781 175.985 64.2224 166.775 65.4189 157.492C66.1442 163.714 67.4411 176.287 67.4552 187.171C67.4188 187.349 67.3338 187.51 67.2672 187.69L68.1165 187.991L68.2243 187.682L68.3533 187.708C68.377 187.591 68.3522 187.457 68.3528 187.344C72.228 176.713 77.9845 164.87 80.6487 159.56C81.4473 165.86 82.8752 178.67 82.9427 189.621C82.9266 189.683 82.9139 189.745 82.9047 189.808L82.9693 189.821C82.9632 189.838 82.9595 189.857 82.9582 189.875L83.4232 189.864L83.7888 189.938L83.7983 189.891L83.8484 189.901C83.8579 189.855 83.8674 189.808 83.8785 189.754C88.8586 174.725 95.3932 165.108 98.665 160.882C95.552 167.991 90.3793 180.962 87.7088 189.454L88.6237 189.469C92.139 178.721 96.2624 168.196 100.97 157.955L100.153 157.426Z" fill="#8A4D1C"/>
</g>
<path d="M89.1502 188.476C87.5874 189.186 83.4453 190.247 74.2174 188.504C64.2551 186.628 59.3886 184.102 57.6847 183.087C57.5235 183.131 57.3814 183.237 57.2863 183.385C57.1912 183.534 57.1499 183.713 57.1707 183.888C58.6972 185.004 63.3457 187.648 74.1927 189.541C84.2806 191.313 88.4488 190.16 89.9868 189.388C89.9742 188.973 89.7372 188.635 89.1502 188.476Z" fill="#B3752E"/>
<path d="M71.7223 189.277C62.4464 187.403 58.3612 184.961 57.0253 184.045L56.9536 184.031L56.971 183.945C56.9475 183.725 57.0004 183.501 57.1194 183.315C57.2385 183.129 57.4154 182.995 57.6168 182.937L57.698 182.905L57.7696 182.919C59.8266 184.143 64.7462 186.518 74.241 188.307C83.3614 190.029 87.4718 189.05 89.1157 188.308L89.1666 188.278L89.2311 188.291C89.8548 188.417 90.1922 188.848 90.158 189.383L90.1343 189.499L90.0269 189.55C88.3687 190.362 84.1622 191.483 74.1316 189.723C73.2866 189.585 72.4822 189.43 71.7223 189.277ZM57.3123 183.772C58.8069 184.825 63.4538 187.477 74.1932 189.348C83.9084 191.044 88.0967 190.049 89.7645 189.263C89.7283 189.108 89.6486 188.97 89.5361 188.868C89.4235 188.766 89.2834 188.704 89.1346 188.691C87.4214 189.444 83.2234 190.413 74.1174 188.694C64.6744 186.908 59.7213 184.55 57.6102 183.299C57.5216 183.336 57.4452 183.402 57.3918 183.486C57.3383 183.571 57.3105 183.671 57.3123 183.772Z" fill="#68320E"/>
<path d="M59.962 190.834C60.1966 189.023 59.4366 187.222 58.849 185.601C58.8357 185.564 58.8118 185.533 58.7807 185.512C58.7496 185.492 58.7129 185.482 58.6758 185.485C58.6387 185.489 58.6032 185.504 58.5742 185.53C58.5453 185.556 58.5244 185.591 58.5146 185.63C58.3912 186.121 58.2214 186.598 58.0079 187.054C57.3281 187.945 56.7386 188.909 56.2502 189.931C55.8459 191.109 56.2385 192.772 57.4406 193.136C58.8068 193.573 59.7881 192.164 59.962 190.834Z" fill="#B3752E"/>
<path d="M57.5599 193.393L57.3878 193.358C57.1256 193.275 56.8842 193.132 56.6791 192.941C56.474 192.749 56.3097 192.512 56.1966 192.245C56.0347 191.886 55.9416 191.493 55.9226 191.09C55.9035 190.687 55.9589 190.281 56.0855 189.896C56.3726 189.176 56.7611 188.505 57.2371 187.908C57.4572 187.597 57.6788 187.278 57.8718 186.953C58.0771 186.517 58.2403 186.06 58.3587 185.59C58.3686 185.541 58.3873 185.495 58.4138 185.453C58.4403 185.412 58.474 185.377 58.513 185.349C58.552 185.322 58.5954 185.303 58.6407 185.293C58.6861 185.284 58.7324 185.284 58.7771 185.294C58.8353 185.308 58.8891 185.337 58.9339 185.379C58.9787 185.42 59.0133 185.473 59.0346 185.532L59.2017 185.994C59.7502 187.478 60.377 189.164 60.159 190.857C60.1138 191.281 59.9895 191.695 59.7934 192.071C59.5973 192.448 59.3336 192.781 59.0181 193.05C58.8082 193.214 58.5696 193.329 58.3182 193.389C58.0668 193.448 57.8084 193.449 57.5599 193.393ZM58.6837 185.679C58.5732 186.167 58.4114 186.641 58.2017 187.093L58.1875 187.162C57.9857 187.493 57.7481 187.817 57.5265 188.136C57.0785 188.705 56.7121 189.342 56.4401 190.025C56.2227 190.702 56.2552 191.435 56.5307 192.07C56.6237 192.289 56.7588 192.483 56.9274 192.639C57.0961 192.796 57.2945 192.912 57.5099 192.979L57.6533 193.008C57.8537 193.05 58.0615 193.046 58.2631 192.997C58.4648 192.947 58.656 192.853 58.8241 192.72C59.3703 192.24 59.7248 191.554 59.8102 190.81C60.0116 189.236 59.4304 187.656 58.8723 186.146L58.6837 185.679Z" fill="#68320E"/>
<g style="mix-blend-mode:multiply" opacity="0.3">
<path d="M59.9686 190.834C60.2031 189.024 59.4432 187.222 58.8555 185.601C58.8422 185.564 58.8183 185.533 58.7872 185.513C58.7561 185.492 58.7194 185.482 58.6824 185.486C58.6453 185.489 58.6097 185.505 58.5808 185.531C58.5518 185.557 58.531 185.592 58.5211 185.63C58.4028 186.108 58.238 186.573 58.0296 187.017C58.402 186.874 58.7669 187.061 58.8904 187.628C59.1673 188.511 59.144 189.481 58.8245 190.369C58.7171 190.637 58.5573 190.879 58.3561 191.077C58.1549 191.275 57.9173 191.425 57.6598 191.516C57.4024 191.607 57.1313 191.638 56.8657 191.605C56.6 191.572 56.3461 191.476 56.1219 191.325C56.1522 191.741 56.2923 192.135 56.5259 192.461C56.7595 192.787 57.0769 193.032 57.4408 193.167C58.8134 193.574 59.7946 192.164 59.9686 190.834Z" fill="#8A4D1C"/>
</g>
<path d="M75.0156 195.646C75.2428 193.689 74.7079 191.698 74.4176 189.79C74.4126 189.752 74.3969 189.717 74.3724 189.689C74.348 189.662 74.3161 189.643 74.281 189.636C74.2459 189.629 74.2092 189.633 74.176 189.649C74.1427 189.665 74.1145 189.692 74.095 189.725L73.9941 189.89C72.9538 191.042 72.1781 192.437 71.7325 193.957C71.2744 195.326 71.3327 197.019 72.6166 197.787C72.8807 197.925 73.1804 197.973 73.4758 197.923C73.7713 197.873 74.0485 197.728 74.2708 197.507C74.7147 196.995 74.9789 196.335 75.0156 195.646Z" fill="#B3752E"/>
<path d="M72.912 198.122C72.773 198.095 72.6399 198.044 72.5176 197.97C71.0927 197.125 71.0994 195.26 71.5457 193.912C71.9984 192.382 72.7758 190.976 73.8151 189.807L73.8819 189.699C73.9215 189.631 73.9793 189.577 74.0473 189.544C74.1154 189.512 74.1905 189.502 74.2624 189.516C74.3343 189.531 74.3996 189.569 74.4495 189.625C74.4994 189.682 74.5315 189.754 74.5414 189.832C74.6081 190.274 74.6892 190.718 74.7703 191.163C75.117 192.652 75.2426 194.199 75.1427 195.746C75.0929 196.484 74.804 197.189 74.3264 197.738C74.1278 197.908 73.8982 198.031 73.6538 198.098C73.4095 198.164 73.1562 198.172 72.912 198.122ZM74.1029 190.042C73.0837 191.172 72.3239 192.539 71.8874 194.03C71.4927 195.234 71.4681 196.894 72.6995 197.627C72.9295 197.74 73.1875 197.777 73.4417 197.734C73.6958 197.69 73.9351 197.568 74.1299 197.383C74.5543 196.903 74.804 196.278 74.8312 195.626C74.9257 194.124 74.8037 192.622 74.4693 191.175C74.3898 190.722 74.3016 190.276 74.2364 189.827C74.2222 189.897 74.2127 189.943 74.1514 189.988L74.1029 190.042Z" fill="#68320E"/>
<g style="mix-blend-mode:multiply" opacity="0.3">
<path d="M75.0156 195.646C75.2428 193.689 74.7079 191.698 74.4176 189.79C74.4126 189.752 74.3969 189.717 74.3724 189.689C74.348 189.662 74.3161 189.643 74.281 189.636C74.2459 189.629 74.2092 189.633 74.176 189.649C74.1427 189.665 74.1145 189.692 74.095 189.725L73.9941 189.89C72.9538 191.042 72.1781 192.437 71.7325 193.957C71.2744 195.326 71.3327 197.019 72.6166 197.787C72.8807 197.925 73.1804 197.973 73.4758 197.923C73.7713 197.873 74.0485 197.728 74.2708 197.507C74.7147 196.995 74.9789 196.335 75.0156 195.646ZM74.0729 196.207C73.9189 196.295 73.7475 196.338 73.5758 196.332C73.4042 196.326 73.2386 196.271 73.0957 196.174C72.9527 196.076 72.8376 195.938 72.7619 195.775C72.6862 195.612 72.6526 195.429 72.6645 195.244C72.6724 194.002 72.9894 192.775 73.5828 191.689C73.6801 191.305 73.8552 190.945 74.0956 190.638C74.1129 190.616 74.1352 190.599 74.1601 190.59C74.1851 190.58 74.2117 190.578 74.2373 190.583C74.2629 190.588 74.2866 190.601 74.3057 190.619C74.3249 190.638 74.339 190.662 74.3465 190.688C74.4732 191.17 74.5395 191.67 74.5438 192.174C74.6339 192.742 74.6964 193.316 74.7311 193.892C74.7616 194.585 74.7921 195.827 74.0729 196.207Z" fill="#8A4D1C"/>
</g>
<path d="M90.4689 195.674C90.3635 194.73 90.0988 193.82 89.6877 192.988C89.2585 191.981 88.9745 190.905 88.8453 189.796C88.8438 189.762 88.8338 189.728 88.8163 189.7C88.7988 189.671 88.7744 189.648 88.7456 189.633C88.7168 189.618 88.6846 189.612 88.6523 189.615C88.62 189.618 88.5887 189.63 88.5616 189.65C87.371 190.549 86.8819 192.582 86.6086 193.997C86.3352 195.412 86.5605 196.944 87.9461 197.58C88.2222 197.718 88.5299 197.774 88.8378 197.742C89.1458 197.711 89.4431 197.592 89.6994 197.398C89.9557 197.205 90.162 196.943 90.2971 196.64C90.4323 196.337 90.4916 196.004 90.4689 195.674Z" fill="#B3752E"/>
<path d="M88.3328 197.867C88.1782 197.837 88.028 197.788 87.8851 197.72C86.6078 197.139 86.1081 195.746 86.4206 193.918C86.721 192.444 87.2107 190.37 88.4372 189.479C88.491 189.443 88.552 189.422 88.6144 189.418C88.6769 189.413 88.7388 189.426 88.7947 189.454C88.8505 189.482 88.8985 189.525 88.9342 189.579C88.9698 189.633 88.9921 189.696 88.999 189.762C89.1356 190.85 89.4238 191.905 89.8541 192.892L89.9876 193.225C90.347 193.979 90.5715 194.802 90.6497 195.653C90.6617 195.986 90.6029 196.32 90.4778 196.629C90.3527 196.938 90.1646 197.215 89.9278 197.438C89.7052 197.633 89.4462 197.773 89.17 197.847C88.8938 197.921 88.6077 197.928 88.3328 197.867ZM88.6733 189.785C87.5574 190.61 87.0667 192.579 86.8021 193.987C86.5618 195.167 86.6199 196.713 88.0326 197.362C88.2997 197.496 88.599 197.544 88.8957 197.501C89.1924 197.458 89.4745 197.325 89.7092 197.119C89.9063 196.932 90.0625 196.699 90.1657 196.44C90.269 196.181 90.3166 195.902 90.3049 195.624C90.2298 194.825 90.015 194.052 89.6716 193.347L89.5382 193.013C89.1001 191.995 88.8086 190.907 88.6733 189.785Z" fill="#68320E"/>
<g style="mix-blend-mode:multiply" opacity="0.3">
<path d="M90.4703 195.594C90.3043 195.847 90.0572 196.025 89.7791 196.093C88.9927 196.289 88.2118 195.396 88.0976 194.638C87.9834 193.88 87.8836 191.073 89.05 190.953C88.9602 190.561 88.8944 190.162 88.8531 189.758C88.8516 189.724 88.8416 189.69 88.8241 189.662C88.8066 189.633 88.7822 189.61 88.7534 189.595C88.7246 189.58 88.6924 189.574 88.6601 189.577C88.6278 189.58 88.5965 189.592 88.5694 189.612C87.3788 190.511 86.8898 192.544 86.6164 193.959C86.343 195.374 86.5683 196.906 87.9539 197.542C88.2306 197.681 88.5392 197.738 88.8481 197.705C89.1569 197.673 89.455 197.554 89.7118 197.359C89.9686 197.165 90.1749 196.902 90.3096 196.598C90.4443 196.294 90.5025 195.959 90.4783 195.628C90.4783 195.628 90.4671 195.61 90.4703 195.594Z" fill="#8A4D1C"/>
</g>
<path d="M58.7495 184.532C58.2121 184.423 57.4955 185.304 57.7772 185.862C58.2585 186.832 59.4349 184.646 58.7495 184.532Z" fill="#B3752E"/>
<path d="M58.0016 186.294C57.9176 186.274 57.8396 186.234 57.7737 186.176C57.7079 186.118 57.6561 186.043 57.6223 185.959C57.5531 185.8 57.5271 185.622 57.5474 185.444C57.5677 185.267 57.6334 185.098 57.7371 184.956C57.8309 184.795 57.9537 184.656 58.098 184.546C58.2422 184.436 58.4048 184.358 58.5759 184.318L58.9771 184.399L58.9644 184.461C59.0474 184.542 59.105 184.649 59.13 184.768C59.155 184.886 59.1462 185.012 59.1047 185.127C58.9932 185.638 58.4745 186.389 58.0016 186.294ZM58.738 184.73L58.695 184.721C58.5609 184.732 58.4303 184.779 58.3152 184.857C58.2002 184.935 58.1044 185.043 58.0367 185.17C57.97 185.25 57.9236 185.346 57.9025 185.45C57.8814 185.554 57.8862 185.66 57.9165 185.76C57.9277 185.793 57.9454 185.824 57.9685 185.849C57.9916 185.875 58.0195 185.895 58.0504 185.908C58.2511 185.948 58.6371 185.445 58.7344 185.004C58.7654 184.962 58.8096 184.745 58.738 184.73Z" fill="#68320E"/>
<path d="M74.6469 188.892C74.2787 188.575 73.1953 188.986 73.3476 189.703C73.4998 190.421 74.6554 189.838 74.7581 189.334C74.7815 189.255 74.7834 189.172 74.7637 189.093C74.744 189.015 74.7034 188.945 74.6469 188.892Z" fill="#B3752E"/>
<path d="M73.6062 190.226C73.4946 190.207 73.3921 190.152 73.312 190.068C73.232 189.984 73.1781 189.875 73.1575 189.755C73.1282 189.621 73.1327 189.48 73.1705 189.346C73.2083 189.211 73.2781 189.089 73.3729 188.991C73.5548 188.798 73.7867 188.67 74.0356 188.625C74.2845 188.58 74.5379 188.619 74.7597 188.738C74.8417 188.813 74.9013 188.913 74.9314 189.025C74.9614 189.137 74.9607 189.257 74.9293 189.37C74.8877 189.509 74.82 189.638 74.7306 189.75C74.6412 189.861 74.5319 189.952 74.4097 190.017C74.1704 190.186 73.8855 190.26 73.6062 190.226ZM74.3955 188.988C74.2541 188.963 74.1082 188.975 73.9694 189.021C73.8305 189.067 73.7025 189.147 73.5953 189.254C73.5501 189.309 73.5187 189.375 73.5043 189.446C73.4898 189.517 73.4929 189.59 73.5131 189.658C73.5191 189.705 73.5387 189.749 73.5693 189.782C73.5999 189.816 73.6399 189.838 73.6837 189.846C73.8749 189.86 74.0672 189.805 74.2302 189.69C74.381 189.604 74.5013 189.465 74.5711 189.298C74.5861 189.254 74.59 189.206 74.5822 189.161C74.5745 189.115 74.5554 189.073 74.5269 189.039C74.4869 189.013 74.4423 188.995 74.3955 188.988Z" fill="#68320E"/>
<path d="M89.3926 190.066C89.4014 189.895 89.3715 189.725 89.3054 189.571C89.2394 189.417 89.1392 189.283 89.0133 189.182C88.7807 189.006 88.4163 189.11 88.4202 189.603C88.4241 190.097 89.3374 190.96 89.3973 190.043C89.4089 189.803 89.3613 190.44 89.3926 190.066Z" fill="#B3752E"/>
<path d="M89.0255 190.658C88.8154 190.588 88.6294 190.455 88.4883 190.276C88.3471 190.096 88.2563 189.876 88.2259 189.64C88.2172 189.534 88.2322 189.426 88.2695 189.326C88.3069 189.225 88.3655 189.135 88.4407 189.062C88.5389 188.985 88.6558 188.942 88.7753 188.939C88.8948 188.935 89.0112 188.972 89.1084 189.043C89.2399 189.149 89.3487 189.283 89.4275 189.438C89.5064 189.593 89.5538 189.765 89.5665 189.944C89.5784 190.028 89.5758 190.116 89.5589 190.2L89.5194 190.394C89.4887 190.459 89.4465 190.516 89.3955 190.563C89.3444 190.61 89.2842 190.642 89.2198 190.659C89.1554 190.675 89.0888 190.675 89.0255 190.658ZM88.804 189.329C88.7815 189.323 88.758 189.323 88.735 189.328C88.7121 189.333 88.6903 189.344 88.6711 189.359C88.6448 189.398 88.6263 189.442 88.6168 189.489C88.6073 189.536 88.6069 189.584 88.6158 189.63C88.6461 189.777 88.7086 189.913 88.7983 190.027C88.888 190.14 89.0023 190.228 89.1317 190.284C89.1317 190.284 89.1411 190.237 89.1759 190.067C89.1804 189.931 89.1551 189.796 89.1021 189.675C89.0492 189.553 88.97 189.448 88.8709 189.367L88.804 189.329Z" fill="#68320E"/>
<path d="M54.2339 137.621C54.2339 137.621 82.5861 153.124 107.804 147.524C105.216 151.074 102.821 154.779 100.633 158.62C100.633 158.62 72.1811 161.225 56.8265 149.293" fill="#8A4D1C"/>
<path d="M54.0386 137.689L53.893 137.232L54.2978 137.443C62.8585 141.812 71.9262 145.001 81.2922 146.936C91.0484 148.907 99.9506 149.026 107.753 147.29L108.23 147.185L107.928 147.6C105.346 151.14 102.958 154.836 100.777 158.668L100.757 158.769L100.664 158.75C92.307 159.332 83.948 158.844 75.7628 157.298C67.8775 155.705 61.4581 153.034 56.7563 149.37L56.6918 149.357L56.706 149.287M57.0513 149.131C61.7125 152.738 68.0315 155.388 75.8594 156.97C83.981 158.503 92.2742 158.991 100.566 158.424C102.648 154.757 104.922 151.217 107.376 147.82C99.6328 149.487 90.8436 149.326 81.2379 147.386C71.9866 145.447 63.0238 142.304 54.5447 138.026" fill="#68320E"/>
<path d="M54.2339 137.621C54.2339 137.621 82.5861 153.124 107.804 147.524C105.216 151.074 102.821 154.779 100.633 158.62C100.633 158.62 72.1811 161.225 56.8265 149.293" fill="#8A4D1C"/>
<path d="M54.0386 137.689L53.893 137.232L54.2978 137.443C62.8585 141.812 71.9262 145.001 81.2922 146.936C91.0484 148.907 99.9506 149.026 107.753 147.29L108.23 147.185L107.928 147.6C105.346 151.14 102.958 154.836 100.777 158.668L100.757 158.769L100.664 158.75C92.307 159.332 83.948 158.844 75.7628 157.298C67.8775 155.705 61.4581 153.034 56.7563 149.37L56.6918 149.357L56.706 149.287M57.0513 149.131C61.7125 152.738 68.0315 155.388 75.8594 156.97C83.981 158.503 92.2742 158.991 100.566 158.424C102.648 154.757 104.922 151.217 107.376 147.82C99.6328 149.487 90.8436 149.326 81.2379 147.386C71.9866 145.447 63.0238 142.304 54.5447 138.026" fill="#68320E"/>
<g style="mix-blend-mode:multiply" opacity="0.4">
<path d="M56.8192 149.295C59.9789 151.667 63.4587 153.518 67.1485 154.791C64.9075 153.006 65.3311 150.854 65.3883 149.217C65.4826 146.813 65.3419 143.254 67.6894 143.858C68.4922 144.02 69.7395 144.272 71.0442 144.536C65.2568 142.737 59.632 140.425 54.2266 137.624" fill="#8A4D1C"/>
<path d="M107.783 147.525C101.531 148.821 95.1635 149.101 88.8957 148.354C89.9265 148.643 90.9461 148.913 91.6726 149.084C93.812 149.573 93.8983 150.285 93.333 151.924C92.7678 153.563 91.2693 157.84 88.8472 158.409C88.3222 158.541 87.79 158.63 87.2551 158.677C91.6939 158.979 96.1556 158.972 100.612 158.654C102.8 154.802 105.194 151.085 107.783 147.525Z" fill="#8A4D1C"/>
</g>
<g style="mix-blend-mode:multiply" opacity="0.4">
<path d="M56.8271 149.292C57.873 150.119 58.9641 150.879 60.0951 151.568C59.3735 149.132 59.1131 146.551 59.3288 143.973C59.6722 142.031 60.9701 141.486 62.4065 141.469C57.3503 139.324 54.2344 137.62 54.2344 137.62" fill="#8A4D1C"/>
<path d="M94.088 148.744C95.0612 148.876 96.0407 148.977 97.0027 149.091C97.9648 149.204 99.1638 149.107 99.9509 149.896C100.253 150.277 100.432 150.756 100.463 151.262C100.494 151.769 100.375 152.279 100.122 152.718C98.9704 155.335 97.0661 157.504 94.6997 158.893C98.3106 158.863 100.584 158.66 100.584 158.66C102.772 154.819 105.167 151.113 107.755 147.563C103.241 148.527 98.6537 148.923 94.088 148.744Z" fill="#8A4D1C"/>
</g>
<g style="mix-blend-mode:screen" opacity="0.7">
<path d="M57.7802 140.012C57.7802 140.012 82.6407 152.725 105.513 148.493C105.513 148.493 95.9775 151.995 80.3176 148.742C64.6577 145.489 57.7802 140.012 57.7802 140.012Z" fill="#8A4D1C"/>
</g>
<g style="mix-blend-mode:screen">
<path d="M79.1612 161.076L77.7745 163.963C77.5578 164.404 77.3364 164.868 77.0999 165.369C76.8633 165.871 76.6077 166.393 76.3561 166.932C75.8354 168.022 75.3061 169.191 74.7553 170.357C74.4942 170.942 74.2259 171.526 73.968 172.096C73.7101 172.666 73.4434 173.242 73.2118 173.793C72.7253 174.898 72.285 175.924 71.9017 176.816L71.0275 178.982L70.6975 179.796L70.9948 178.959C71.1772 178.431 71.4444 177.669 71.7846 176.768L72.3708 175.319C72.5803 174.804 72.8016 174.267 73.0277 173.707C73.2538 173.147 73.5245 172.588 73.7768 172.009C74.0291 171.43 74.2918 170.836 74.56 170.252C75.1109 169.087 75.6545 167.921 76.1808 166.84C76.4539 166.305 76.7095 165.783 76.9516 165.291C77.1937 164.799 77.4455 164.333 77.659 163.907C78.0948 163.05 78.4776 162.344 78.7428 161.848C79.008 161.352 79.1612 161.076 79.1612 161.076Z" fill="#CC8352"/>
</g>
<g style="mix-blend-mode:screen">
<path d="M81.4531 161.115L81.609 162.035C81.7062 162.62 81.842 163.455 81.9789 164.468C82.0633 164.97 82.1382 165.518 82.2004 166.129C82.2626 166.739 82.3471 167.313 82.4349 167.945C82.5226 168.577 82.5666 169.24 82.6408 169.901C82.7151 170.562 82.7846 171.247 82.8326 171.927C82.8806 172.607 82.9445 173.283 82.9941 173.955C83.0153 174.291 83.0453 174.62 83.0681 174.947C83.0909 175.275 83.0993 175.6 83.1237 175.92C83.1509 176.556 83.1813 177.176 83.2109 177.763C83.2404 178.351 83.2691 178.906 83.2747 179.392C83.2818 180.419 83.2934 181.278 83.2927 181.867C83.292 182.457 83.2942 182.813 83.2942 182.813C83.2942 182.813 83.2817 182.471 83.2466 181.874C83.2114 181.277 83.1839 180.424 83.1401 179.429C83.125 178.917 83.0804 178.367 83.0405 177.793C83.0007 177.22 82.9647 176.591 82.9215 175.96C82.8971 175.64 82.8815 175.314 82.8659 174.987C82.8503 174.661 82.806 174.329 82.7832 174.001C82.7249 173.335 82.6697 172.654 82.6073 171.97C82.545 171.287 82.4867 170.621 82.4212 169.954C82.3557 169.286 82.2957 168.628 82.2311 167.993C82.0843 166.735 81.9885 165.52 81.854 164.532C81.7927 164.027 81.7363 163.571 81.6935 163.158C81.6507 162.746 81.5896 162.386 81.5533 162.088L81.4531 161.115Z" fill="#CC8352"/>
</g>
<path d="M67.908 195.882C67.4662 195.963 67.1119 196.457 66.7827 196.754C66.5926 196.917 66.4081 197.09 66.2053 197.243C65.9468 197.4 65.6712 197.521 65.3857 197.602C65.3652 197.613 65.348 197.63 65.3364 197.651C65.3248 197.672 65.3195 197.697 65.3211 197.721C65.3227 197.745 65.3312 197.768 65.3453 197.786C65.3595 197.804 65.3787 197.817 65.4004 197.823C65.9053 197.852 66.4093 197.688 66.8234 197.36C67.3225 197.09 67.7455 196.677 68.0438 196.168C68.1288 196.008 68.0625 195.857 67.908 195.882Z" fill="#FDD9B1"/>
<path d="M69.2781 191.966C69.3287 191.717 69.0162 191.493 68.8262 191.729C68.4639 192.189 68.229 192.755 67.8523 193.212C67.4756 193.669 66.9284 194.084 66.5039 194.556C66.4909 194.571 66.4824 194.591 66.4796 194.611C66.4767 194.632 66.4797 194.652 66.4881 194.671C66.4965 194.689 66.5098 194.704 66.5265 194.713C66.5431 194.723 66.5622 194.727 66.5814 194.725C67.1556 194.529 67.6761 194.174 68.0895 193.697C68.6505 193.273 69.069 192.663 69.2781 191.966Z" fill="#FDD9B1"/>
<path d="M66.7907 192.662C66.7413 192.517 66.6524 192.392 66.5353 192.303C66.3703 192.139 66.2168 191.963 66.0759 191.774C65.8226 191.422 65.6131 191.035 65.4523 190.622C65.4107 190.533 65.2666 190.545 65.2788 190.668C65.3356 191.15 65.4708 191.615 65.6782 192.041C65.8627 192.418 66.1652 192.948 66.5952 192.962C66.6266 192.957 66.6567 192.945 66.6839 192.926C66.711 192.908 66.7345 192.884 66.7529 192.856C66.7713 192.828 66.7841 192.796 66.7906 192.763C66.7971 192.729 66.7971 192.695 66.7907 192.662Z" fill="#FDD9B1"/>
<path d="M64.0219 192.1C63.8753 192.24 63.7375 192.391 63.6094 192.55C63.4229 192.736 63.2148 192.895 62.9906 193.023C62.5682 193.301 62.141 193.53 61.6803 193.776C61.5713 193.835 61.6361 193.993 61.7674 193.971C62.2549 193.838 62.7279 193.643 63.1767 193.392C63.588 193.168 64.1568 192.83 64.293 192.309C64.2962 192.272 64.2906 192.236 64.2768 192.203C64.2631 192.17 64.2415 192.142 64.2143 192.121C64.1871 192.1 64.1551 192.087 64.1214 192.083C64.0877 192.08 64.0535 192.086 64.0219 192.1Z" fill="#FDD9B1"/>
<path d="M65.684 195.762C65.4864 195.503 65.2608 195.271 65.0117 195.069C64.7567 194.771 64.5221 194.454 64.3096 194.119C64.221 194.005 64.0228 194.062 64.0757 194.242C64.2121 194.618 64.3901 194.974 64.606 195.302C64.7971 195.668 65.0945 195.955 65.4544 196.12C65.4935 196.119 65.5322 196.108 65.567 196.087C65.6018 196.067 65.6317 196.038 65.6543 196.003C65.6769 195.968 65.6914 195.927 65.6965 195.886C65.7017 195.844 65.6974 195.801 65.684 195.762Z" fill="#FDD9B1"/>
<path d="M63.2088 195.53C63.2047 195.492 63.1929 195.455 63.1742 195.423C63.1555 195.39 63.1304 195.363 63.1006 195.342C63.0707 195.321 63.0369 195.308 63.0014 195.303C62.9659 195.298 62.9295 195.301 62.8948 195.313C62.7313 195.403 62.591 195.536 62.4877 195.699C62.2765 195.964 62.0422 196.206 61.7881 196.422C61.3427 196.827 60.8623 197.185 60.3541 197.49C60.2522 197.55 60.313 197.691 60.43 197.666C61.0054 197.497 61.559 197.245 62.0755 196.916C62.5306 196.661 63.2113 196.104 63.2088 195.53Z" fill="#FDD9B1"/>
<path d="M63.9122 198.962C63.7407 198.726 63.5275 198.529 63.2842 198.383C63.0882 198.182 62.9052 197.967 62.7365 197.739C62.6831 197.672 62.5789 197.707 62.5767 197.828C62.6392 198.148 62.7635 198.448 62.9417 198.709C63.0976 199.004 63.3573 199.216 63.6643 199.3C63.7048 199.311 63.7479 199.31 63.7882 199.295C63.8286 199.28 63.8643 199.253 63.8909 199.217C63.9175 199.18 63.9337 199.137 63.9375 199.092C63.9413 199.046 63.9324 199.001 63.9122 198.962Z" fill="#FDD9B1"/>
<path d="M68.6059 198.921C68.5466 198.699 68.3102 198.652 68.1334 198.567C67.902 198.448 67.7029 198.27 67.5533 198.046C67.5437 198.025 67.5267 198.009 67.5057 198.002C67.4848 197.995 67.4618 197.997 67.4418 198.008C67.4218 198.019 67.4063 198.038 67.3989 198.06C67.3915 198.083 67.3927 198.108 67.4022 198.129C67.4634 198.412 67.5972 198.668 67.7884 198.869C67.9606 199.05 68.2968 199.303 68.5417 199.127C68.571 199.103 68.5931 199.071 68.6046 199.034C68.6161 198.997 68.6166 198.958 68.6059 198.921Z" fill="#FDD9B1"/>
<path d="M79.0953 194.247C79.0212 194.133 78.9267 194.037 78.8171 193.964C78.6796 193.839 78.5532 193.699 78.4393 193.549C78.2097 193.284 78.0215 192.963 77.795 192.683C77.7376 192.599 77.6087 192.646 77.6439 192.766C77.7594 193.152 77.9173 193.52 78.1143 193.863C78.2914 194.165 78.5904 194.565 78.9573 194.558C78.9892 194.554 79.0199 194.542 79.0464 194.521C79.0729 194.501 79.0941 194.474 79.1081 194.442C79.1221 194.411 79.1282 194.376 79.126 194.342C79.1237 194.307 79.1132 194.275 79.0953 194.247Z" fill="#FDD9B1"/>
<path d="M82.6941 196.601C81.9616 195.838 81.4663 194.849 81.2724 193.761C81.2563 193.621 81.0524 193.596 81.0359 193.714C80.9359 194.35 81.0263 194.997 81.2939 195.561C81.5616 196.125 81.9925 196.576 82.524 196.85C82.5526 196.853 82.5817 196.848 82.6083 196.835C82.6349 196.822 82.6581 196.802 82.6755 196.777C82.6928 196.752 82.7037 196.722 82.707 196.691C82.7102 196.66 82.7058 196.629 82.6941 196.601Z" fill="#FDD9B1"/>
<path d="M79.021 197.594C78.8155 197.372 78.641 197.119 78.5026 196.843C78.3886 196.528 78.3181 196.195 78.2935 195.856C78.3002 195.823 78.2946 195.789 78.2778 195.761C78.2611 195.733 78.2346 195.714 78.2042 195.708C78.1738 195.702 78.142 195.709 78.1157 195.728C78.0895 195.747 78.071 195.776 78.0643 195.809C77.9369 196.207 77.9393 196.635 78.071 197.022C78.2027 197.409 78.4557 197.731 78.7875 197.935C78.8274 197.943 78.869 197.938 78.9073 197.922C78.9457 197.905 78.9792 197.877 79.0038 197.842C79.0284 197.806 79.0431 197.763 79.0462 197.719C79.0493 197.675 79.0405 197.632 79.021 197.594Z" fill="#FDD9B1"/>
<path d="M66.9276 201.903C66.6977 202.199 66.4145 202.442 66.0961 202.616C66.0837 202.623 66.0735 202.634 66.0671 202.648C66.0606 202.661 66.0582 202.676 66.0602 202.691C66.0621 202.706 66.0684 202.719 66.078 202.729C66.0876 202.74 66.1002 202.747 66.1138 202.749C66.3061 202.709 66.4881 202.62 66.6444 202.49C66.8008 202.36 66.9269 202.192 67.0121 202.001C67.0836 201.943 66.992 201.844 66.9276 201.903Z" fill="#FDD9B1"/>
<path d="M64.7652 197.241C64.8221 196.961 64.4612 196.719 64.3137 196.527C64.1662 196.336 63.8721 196.058 63.7173 195.793C63.7078 195.772 63.6907 195.756 63.6698 195.748C63.6489 195.741 63.6259 195.743 63.6059 195.754C63.5858 195.765 63.5704 195.784 63.563 195.807C63.5555 195.83 63.5567 195.854 63.5662 195.875C63.614 196.252 63.7337 196.612 63.9179 196.932C64.0774 197.174 64.3279 197.556 64.6405 197.45C64.6777 197.431 64.7094 197.402 64.7316 197.364C64.7538 197.327 64.7655 197.284 64.7652 197.241Z" fill="#FDD9B1"/>
<path d="M67.603 200.165C67.4176 199.932 67.211 199.72 66.9861 199.531C66.7486 199.306 66.4833 199.107 66.2489 198.866C66.1644 198.768 66.015 198.915 66.082 199.026C66.3821 199.603 66.7805 200.467 67.4992 200.491C67.5296 200.482 67.5576 200.464 67.5807 200.441C67.6037 200.417 67.6212 200.388 67.6315 200.355C67.6417 200.323 67.6445 200.289 67.6395 200.256C67.6346 200.222 67.622 200.191 67.603 200.165Z" fill="#FDD9B1"/>
<path d="M62.5772 199.2C62.3428 198.886 62.0424 198.64 61.7873 198.354C61.7124 198.282 61.6099 198.382 61.6355 198.477C61.6836 198.689 61.7792 198.884 61.914 199.044C62.0488 199.205 62.2188 199.327 62.4096 199.4C62.4852 199.432 62.6299 199.308 62.5772 199.2Z" fill="#FDD9B1"/>
<path d="M77.5065 197.496C77.2228 197.12 77.0173 196.683 76.903 196.211C76.908 196.186 76.9038 196.16 76.8912 196.14C76.8787 196.119 76.8588 196.105 76.836 196.1C76.8132 196.096 76.7893 196.101 76.7696 196.115C76.7499 196.129 76.7361 196.151 76.731 196.176C76.6881 196.396 76.6859 196.622 76.7246 196.841C76.7633 197.06 76.8421 197.266 76.9565 197.449C77.0757 197.689 77.2108 197.919 77.361 198.137C77.4712 198.35 77.6294 198.529 77.8217 198.658C77.8459 198.671 77.8732 198.677 77.9007 198.675C77.9283 198.673 77.955 198.663 77.9782 198.647C78.0015 198.63 78.0203 198.607 78.0327 198.58C78.0452 198.553 78.0508 198.523 78.0491 198.494C78.0367 198.152 77.6883 197.775 77.5065 197.496Z" fill="#FDD9B1"/>
<path d="M77.6524 194.813C77.1318 195.127 76.5923 195.402 76.0379 195.634C76.027 195.641 76.0183 195.651 76.013 195.664C76.0077 195.676 76.006 195.69 76.0084 195.703C76.0107 195.716 76.0168 195.727 76.0259 195.736C76.0349 195.745 76.0465 195.75 76.0588 195.752C76.6374 195.731 77.4681 195.608 77.8254 195.026C77.9208 194.924 77.7892 194.728 77.6524 194.813Z" fill="#FDD9B1"/>
<path d="M80.0641 198.419C79.8691 198.592 79.654 198.736 79.4248 198.848C79.1995 198.917 78.9855 199.027 78.7918 199.172C78.7754 199.192 78.7634 199.216 78.7566 199.241C78.7498 199.267 78.7484 199.293 78.7525 199.319C78.7566 199.344 78.7661 199.369 78.7802 199.39C78.7944 199.41 78.8129 199.427 78.8343 199.439C78.965 199.481 79.1042 199.488 79.24 199.459C79.3758 199.43 79.5041 199.366 79.614 199.274C79.8874 199.129 80.1082 198.888 80.2378 198.592C80.279 198.463 80.169 198.344 80.0641 198.419Z" fill="#FDD9B1"/>
<path d="M79.121 202.265C78.9486 201.939 78.715 201.658 78.5626 201.344C78.3664 200.97 78.2176 200.568 78.12 200.148C78.0975 200.039 77.9409 200.112 77.9481 200.186C77.9496 200.624 78.0438 201.052 78.2236 201.438C78.4035 201.825 78.6642 202.159 78.9859 202.416C79.0799 202.467 79.1458 202.327 79.121 202.265Z" fill="#FDD9B1"/>
<path d="M80.5792 199.826C80.4239 200.018 80.2552 200.197 80.0746 200.362C79.8755 200.526 79.6456 200.64 79.4025 200.694C79.3087 200.716 79.277 200.871 79.3646 200.881C79.6427 200.913 79.9254 200.832 80.157 200.653C80.4176 200.494 80.6301 200.255 80.7664 199.968C80.7733 199.942 80.7726 199.914 80.7644 199.889C80.7563 199.863 80.741 199.841 80.7207 199.826C80.7004 199.81 80.676 199.802 80.6507 199.802C80.6255 199.802 80.6005 199.81 80.5792 199.826Z" fill="#FDD9B1"/>
<path d="M82.4291 199.801C82.0422 199.173 81.4853 198.722 81.3123 197.96C81.3297 197.874 81.157 197.88 81.1452 197.974C81.116 198.389 81.201 198.799 81.3896 199.155C81.5458 199.56 81.8336 199.888 82.2011 200.078C82.2342 200.109 82.2781 200.125 82.3229 200.121C82.3678 200.117 82.41 200.094 82.4402 200.058C82.4704 200.021 82.4862 199.973 82.4842 199.925C82.4821 199.877 82.4623 199.832 82.4291 199.801Z" fill="#FDD9B1"/>
<path d="M80.0566 194.587C79.8673 194.638 79.7036 194.855 79.5431 194.984C79.3612 195.132 79.1632 195.255 78.9538 195.35C78.9344 195.356 78.9177 195.371 78.9073 195.39C78.8968 195.409 78.8933 195.431 78.8975 195.453C78.9016 195.474 78.9131 195.492 78.9297 195.504C78.9462 195.517 78.9666 195.521 78.9867 195.518C79.227 195.517 79.4649 195.448 79.6764 195.318C79.9157 195.203 80.1124 195.003 80.232 194.752C80.2362 194.726 80.2344 194.701 80.2268 194.677C80.2191 194.653 80.2059 194.632 80.1884 194.615C80.1708 194.599 80.1496 194.588 80.1265 194.583C80.1034 194.578 80.0794 194.579 80.0566 194.587Z" fill="#FDD9B1"/>
<path d="M76.8959 198.151C76.5518 198.315 76.1879 198.421 75.8171 198.466C75.6365 198.511 75.5764 198.805 75.7444 198.823C75.9736 198.855 76.2082 198.827 76.429 198.743C76.6498 198.658 76.8506 198.519 77.0147 198.337C77.1562 198.228 76.9865 198.073 76.8959 198.151Z" fill="#FDD9B1"/>
<path d="M70.2172 199.425L69.5851 199.855C69.3537 200.002 69.1087 200.106 68.8901 200.264C68.8669 200.277 68.8484 200.298 68.8379 200.324C68.8273 200.35 68.8254 200.378 68.8325 200.405C68.8395 200.431 68.8551 200.454 68.8765 200.469C68.8978 200.484 68.9236 200.49 68.9493 200.486C69.225 200.448 69.4917 200.346 69.7311 200.188C69.9706 200.03 70.1772 199.82 70.3368 199.571C70.3482 199.552 70.3536 199.53 70.3523 199.507C70.351 199.485 70.343 199.464 70.3294 199.448C70.3159 199.431 70.2977 199.42 70.2774 199.416C70.2572 199.412 70.236 199.415 70.2172 199.425Z" fill="#FDD9B1"/>
<path d="M66.0725 193.661C65.9453 193.463 65.7899 193.287 65.6118 193.14C65.5319 193.061 65.457 192.975 65.3878 192.885C65.3104 192.789 65.2164 192.737 65.1447 192.65C65.0729 192.563 65.0515 192.631 65.0445 192.702C65.0279 192.821 65.0421 192.942 65.0856 193.05C65.1349 193.156 65.198 193.253 65.273 193.338C65.447 193.566 65.6626 193.752 65.9073 193.887C65.9339 193.892 65.9616 193.889 65.9873 193.879C66.0131 193.868 66.0358 193.85 66.0529 193.827C66.0701 193.803 66.081 193.775 66.0845 193.746C66.0879 193.717 66.0838 193.688 66.0725 193.661Z" fill="#FDD9B1"/>
<path d="M59.5938 184.509C63.8946 186.611 68.483 188.004 73.2087 188.641C70.7355 188.575 68.2959 188.123 65.9664 187.299C58.6971 184.917 59.5938 184.509 59.5938 184.509Z" fill="#FDD9B1"/>
<path d="M75.2053 189.083C75.2053 189.083 83.4798 190.634 88.1397 189.192C88.1397 189.192 82.9005 191.389 75.2053 189.083Z" fill="#FDD9B1"/>
<path d="M74.2156 189.005C74.0899 188.992 73.9622 189.019 73.8488 189.084C73.7152 189.154 73.538 189.328 73.5637 189.495C73.5638 189.522 73.5698 189.548 73.5815 189.571C73.5931 189.594 73.6099 189.614 73.6304 189.629C73.6509 189.643 73.6746 189.652 73.6993 189.654C73.724 189.657 73.7491 189.652 73.7724 189.642C73.8782 189.599 73.9234 189.487 74.0013 189.398C74.0756 189.304 74.1581 189.217 74.2476 189.14C74.258 189.13 74.2656 189.118 74.2697 189.104C74.2739 189.09 74.2743 189.075 74.271 189.06C74.2676 189.046 74.2607 189.034 74.2509 189.024C74.2411 189.014 74.2289 189.007 74.2156 189.005Z" fill="#FDD9B1"/>
<path d="M58.7375 184.706C58.604 184.699 58.4715 184.747 58.3668 184.841C58.3144 184.879 58.3447 184.949 58.4171 184.924C58.4601 184.896 58.5074 184.877 58.5564 184.869C58.6055 184.861 58.6552 184.864 58.7027 184.876C58.7236 184.88 58.7455 184.876 58.7636 184.863C58.7816 184.85 58.7943 184.829 58.7989 184.807C58.8035 184.784 58.7997 184.761 58.7882 184.742C58.7766 184.723 58.7584 184.71 58.7375 184.706Z" fill="#FDD9B1"/>
<path d="M88.8711 189.295C88.7508 189.19 88.6413 189.434 88.7918 189.465C88.8408 189.486 88.8849 189.518 88.9215 189.559C88.958 189.599 88.9863 189.648 89.0046 189.701L89.0476 189.71C89.061 189.628 89.0513 189.545 89.0199 189.471C88.9884 189.397 88.9366 189.336 88.8711 189.295Z" fill="#FDD9B1"/>
<g style="mix-blend-mode:screen" opacity="0.7">
<path d="M58.085 187.58C58.0833 187.57 58.0786 187.56 58.0716 187.552C58.0645 187.544 58.0554 187.539 58.0454 187.537C58.0353 187.535 58.0249 187.536 58.0153 187.541C58.0058 187.545 57.9976 187.552 57.9918 187.562C57.3535 188.644 55.5683 190.303 56.4107 191.661C56.4233 191.679 56.4409 191.692 56.4611 191.698C56.4813 191.705 56.5031 191.704 56.5235 191.697C56.5438 191.69 56.5617 191.676 56.5747 191.657C56.5877 191.638 56.5952 191.616 56.596 191.593C56.5844 190.776 56.8354 189.971 57.3067 189.313C57.7027 188.816 57.9714 188.217 58.085 187.58Z" fill="#CC8352"/>
</g>
<g style="mix-blend-mode:screen" opacity="0.7">
<path d="M74.2194 191.114C74.2131 191.1 74.2026 191.088 74.1894 191.082C74.1763 191.075 74.1613 191.073 74.1468 191.077C74.1324 191.08 74.1193 191.089 74.1097 191.101C74.1 191.114 74.0944 191.129 74.0937 191.145C74.2685 192.667 74.711 194.889 73.6352 196.141C73.6225 196.203 73.613 196.25 73.7038 196.244C75.5519 195.777 74.5466 192.327 74.2194 191.114Z" fill="#CC8352"/>
</g>
<g style="mix-blend-mode:screen" opacity="0.7">
<path d="M88.7555 191.033C88.7539 191.02 88.7486 191.009 88.7405 191C88.7324 190.99 88.7217 190.984 88.71 190.982C88.6983 190.979 88.6861 190.981 88.675 190.986C88.6639 190.992 88.6545 191 88.648 191.011C88.6196 191.741 88.7514 192.463 89.0326 193.117C89.3476 194.032 89.5563 194.988 89.654 195.965C89.6382 196.042 89.7633 196.124 89.8332 196.001C90.7221 194.605 89.1405 192.331 88.7555 191.033Z" fill="#CC8352"/>
</g>
</g>
<defs>
<clipPath id="clip0_1_1070">
<rect width="135.274" height="198.373" fill="white" transform="matrix(0.980192 0.198049 -0.199641 0.979869 39.6016 -0.000244141)"/>
</clipPath>
</defs>
</svg>
