<svg width="140" height="171" viewBox="0 0 140 171" fill="none" xmlns="http://www.w3.org/2000/svg">
<path d="M98.2556 128.364H97.0469V142.96H98.2556V128.364Z" fill="#13384D"/>
<path d="M71.6618 128.364H70.4531V142.96H71.6618V128.364Z" fill="#13384D"/>
<path d="M29.7649 30.9643C35.1896 -1.75243 84.1844 0.463166 84.1844 0.463166C84.1844 0.463166 133.231 -1.75243 138.656 30.9643C148.762 83.1127 98.2385 128.382 98.2385 128.382H70.1563C70.1563 128.382 19.6325 83.1127 29.7649 30.9643Z" fill="#F57005"/>
<path d="M41.5302 30.9643C45.7801 -1.75243 84.202 0.463166 84.202 0.463166C84.202 0.463166 122.641 -1.75243 126.882 30.9643C134.804 83.1127 95.2155 128.382 95.2155 128.382H73.1972C73.1972 128.382 33.6178 83.1127 41.5302 30.9643Z" fill="#FFD738"/>
<path d="M53.4028 30.9643C56.4693 -1.75243 84.206 0.463166 84.206 0.463166C84.206 0.463166 111.951 -1.75243 115.018 30.9643C120.736 83.1127 92.1616 128.382 92.1616 128.382H76.2677C76.2677 128.382 47.6931 83.1127 53.4028 30.9643Z" fill="#F57005"/>
<path d="M71.3849 30.9643C72.5856 1.97185 82.2688 0.411452 84.4542 0.437315C86.6397 0.463178 96.3315 1.97185 97.5236 30.9643C100.029 83.1127 87.4948 128.382 87.4948 128.382H81.4482C81.4482 128.382 68.8799 83.1127 71.3849 30.9643Z" fill="#FFD738"/>
<path d="M63.461 144.011C63.4598 144.366 63.5289 144.718 63.6643 145.047C63.7996 145.375 63.9986 145.674 64.2498 145.925C64.501 146.176 64.7994 146.376 65.128 146.512C65.4566 146.648 65.8089 146.718 66.1647 146.718H102.246C102.965 146.718 103.655 146.433 104.164 145.926C104.672 145.418 104.958 144.729 104.958 144.011C104.956 143.295 104.669 142.609 104.16 142.103C103.652 141.597 102.964 141.313 102.246 141.313H66.1733C65.8175 141.312 65.465 141.381 65.136 141.516C64.8069 141.651 64.5079 141.85 64.2559 142.1C64.0039 142.351 63.804 142.649 63.6676 142.977C63.5312 143.305 63.4609 143.656 63.461 144.011Z" fill="#1E4560"/>
<path d="M102.252 146.736H98.9609V170.805H102.252V146.736Z" fill="#13384D"/>
<path d="M98.963 146.736H95.6719V170.805H98.963V146.736Z" fill="#1E4560"/>
<path d="M95.6737 146.736H92.3826V170.805H95.6737V146.736Z" fill="#13384D"/>
<path d="M92.377 146.736H89.0859V170.805H92.377V146.736Z" fill="#1E4560"/>
<path d="M89.0723 146.736H85.7812V170.805H89.0723V146.736Z" fill="#13384D"/>
<path d="M85.7833 146.736H82.4922V170.805H85.7833V146.736Z" fill="#1E4560"/>
<path d="M82.502 146.736H79.2109V170.805H82.502V146.736Z" fill="#13384D"/>
<path d="M79.1973 146.736H75.9062V170.805H79.1973V146.736Z" fill="#1E4560"/>
<path d="M75.9005 146.736H72.6094V170.805H75.9005V146.736Z" fill="#13384D"/>
<path d="M72.6114 146.736H69.3203V170.805H72.6114V146.736Z" fill="#1E4560"/>
<path d="M69.3223 146.736H66.0312V170.805H69.3223V146.736Z" fill="#13384D"/>
<path d="M98.2589 128.364H70.4531V130.175H98.2589V128.364Z" fill="#13384D"/>
<path d="M0.39844 102.794C0.39705 99.9651 1.08544 97.1778 2.40421 94.6732C3.72297 92.1685 5.63251 90.0217 7.96809 88.4179C10.3037 86.8142 12.9952 85.8016 15.8103 85.4676C18.6255 85.1336 21.4798 85.4882 24.1271 86.5008C26.4114 82.6542 29.7962 79.5774 33.8464 77.6658C37.8966 75.7543 42.4272 75.0955 46.8555 75.774C51.2839 76.4525 55.4077 78.4374 58.6969 81.4735C61.9861 84.5095 64.2902 88.458 65.3131 92.8114C65.7796 92.7683 66.2547 92.7424 66.7298 92.7424C70.2073 92.991 73.4621 94.542 75.8421 97.0847C78.2221 99.6273 79.5512 102.974 79.5633 106.453C79.5753 109.933 78.2693 113.288 75.9069 115.847C73.5446 118.406 70.3005 119.98 66.8248 120.252H16.8107V120.2C12.3686 119.93 8.19718 117.979 5.14732 114.744C2.09746 111.51 0.399006 107.236 0.39844 102.794Z" fill="white"/>
</svg>
