<svg width="195" height="281" viewBox="0 0 195 281" fill="none" xmlns="http://www.w3.org/2000/svg">
<path d="M80.9833 223.609L64.2033 216.185L47.4342 208.757C47.4342 208.757 38.1958 218.296 38.5998 232.098C38.5998 232.098 39.3379 228.504 42.0597 227.797C42.5763 227.668 43.1135 227.643 43.6399 227.724C47.6744 228.272 37.129 241.759 43.9716 261.713C63.3894 253.384 66.3288 236.532 69.4395 239.148C69.8553 239.481 70.1973 239.896 70.4438 240.368C71.7462 242.858 69.6195 245.801 69.6195 245.801C80.0954 236.847 80.9833 223.609 80.9833 223.609Z" fill="#C0272D"/>
<path d="M75.5164 221.181L64.2078 216.182L52.9025 211.175C52.9025 211.175 46.6722 217.608 46.9516 226.909C46.9516 226.909 47.4363 224.489 49.2762 224.008C49.6245 223.922 49.9863 223.906 50.3408 223.961C53.059 224.33 45.9503 233.424 50.5643 246.881C63.6562 241.261 65.6377 229.902 67.737 231.662C68.0164 231.891 68.248 232.172 68.4183 232.49C69.2948 234.166 67.828 236.157 67.828 236.157C74.9029 230.138 75.5164 221.181 75.5164 221.181Z" fill="#F6921E"/>
<path d="M69.8692 218.69L64.1957 216.213L58.5299 213.74C56.5993 215.907 55.5379 218.709 55.549 221.609C55.61 221.291 55.7482 220.992 55.9515 220.74C56.1547 220.487 56.4169 220.288 56.7151 220.16C56.889 220.112 57.0712 220.103 57.2491 220.133C58.6098 220.313 55.0592 224.862 57.3662 231.591C63.9084 228.779 64.9013 223.105 65.9547 223.987C66.0911 224.1 66.2047 224.238 66.2895 224.393C66.3959 224.7 66.4249 225.029 66.3738 225.35C66.3227 225.67 66.1931 225.974 65.9964 226.233C68.1794 224.284 69.5595 221.596 69.8692 218.69Z" fill="#FBED21"/>
<path d="M63.348 140.749C63.348 140.749 50.0149 131.211 19.6915 200.402C19.6915 200.402 31.2127 186.434 50.5296 194.866C50.5447 194.873 55.9257 174.381 63.348 140.749Z" fill="#C0272D"/>
<path d="M120.499 165.7C120.499 165.7 136.551 169.034 106.244 238.187C106.244 238.187 108.7 220.263 89.3835 211.83C89.391 211.833 100.838 193.989 120.499 165.7Z" fill="#C0272D"/>
<path d="M150.57 67.4644L133.639 59.9746L116.711 52.4774C116.711 52.4774 96.7179 59.3065 77.2613 103.107C57.8047 146.907 50.5442 194.872 50.5442 194.872L69.8937 203.435L89.2398 212.006C89.2398 212.006 120.002 174.444 139.47 130.64C158.937 86.8355 150.57 67.4644 150.57 67.4644Z" fill="#FAAF3B"/>
<path d="M53.1031 195.976L47.4376 208.728L50.023 209.872L55.6885 197.121L53.1031 195.976Z" fill="#B2B2B2"/>
<path d="M55.6734 197.122L50.0079 209.874L52.5857 211.014L58.2513 198.263L55.6734 197.122Z" fill="#E5E5E5"/>
<path d="M58.2593 198.257L52.5938 211.008L55.1717 212.149L60.8372 199.397L58.2593 198.257Z" fill="#B2B2B2"/>
<path d="M60.8653 199.437L55.1954 212.187L57.7728 213.328L63.4428 200.579L60.8653 199.437Z" fill="#E5E5E5"/>
<path d="M63.4133 200.594L57.7501 213.346L60.3282 214.487L65.9914 201.734L63.4133 200.594Z" fill="#B2B2B2"/>
<path d="M66.026 201.729L60.3516 214.477L62.9287 215.619L68.6031 202.872L66.026 201.729Z" fill="#E5E5E5"/>
<path d="M68.5852 202.871L62.9219 215.624L65.5 216.764L71.1633 204.012L68.5852 202.871Z" fill="#B2B2B2"/>
<path d="M71.17 203.999L65.5001 216.748L68.0776 217.89L73.7475 205.141L71.17 203.999Z" fill="#E5E5E5"/>
<path d="M73.7359 205.117L68.0704 217.869L70.6483 219.01L76.3138 206.258L73.7359 205.117Z" fill="#B2B2B2"/>
<path d="M76.3296 206.257L70.6641 219.008L73.242 220.149L78.9075 207.397L76.3296 206.257Z" fill="#E5E5E5"/>
<path d="M78.8999 207.413L73.2344 220.165L75.8199 221.309L81.4854 208.558L78.8999 207.413Z" fill="#B2B2B2"/>
<path d="M81.4781 208.551L75.8126 221.302L78.3905 222.443L84.056 209.692L81.4781 208.551Z" fill="#E5E5E5"/>
<path d="M84.0685 209.705L78.3985 222.454L80.976 223.596L86.6459 210.847L84.0685 209.705Z" fill="#B2B2B2"/>
<path d="M112.465 52.8053L150.858 21.3044L153.22 70.8475L112.465 52.8053Z" fill="#C0272D"/>
<path d="M154.098 73.2196C153.9 73.6604 153.535 74.0051 153.083 74.1781C152.631 74.3512 152.129 74.3385 151.686 74.1429L111.03 56.1436C110.81 56.0477 110.612 55.9095 110.446 55.7367C110.28 55.5639 110.151 55.3601 110.064 55.1371C109.978 54.914 109.937 54.676 109.943 54.437C109.95 54.1979 110.003 53.9625 110.101 53.7443C110.197 53.5252 110.336 53.3272 110.509 53.1619C110.682 52.9965 110.886 52.867 111.11 52.7808C111.333 52.6947 111.572 52.6536 111.811 52.6599C112.051 52.6662 112.287 52.7198 112.505 52.8176L153.169 70.8203C153.61 71.0173 153.954 71.3799 154.128 71.8292C154.302 72.2786 154.291 72.7783 154.098 73.2196Z" fill="#F6921E"/>
<path d="M152.634 22.1005C152.482 22.4418 152.233 22.7309 151.918 22.9313C151.602 23.1317 151.234 23.2345 150.86 23.2267C150.486 23.219 150.123 23.1011 149.816 22.8878C149.509 22.6745 149.272 22.3754 149.135 22.0281C148.998 21.6808 148.967 21.3007 149.046 20.9358C149.124 20.5709 149.309 20.2374 149.578 19.9772C149.846 19.717 150.185 19.5418 150.553 19.4735C150.921 19.4053 151.3 19.4471 151.644 19.5937C151.875 19.6922 152.084 19.8354 152.259 20.0152C152.434 20.1949 152.572 20.4075 152.664 20.6407C152.756 20.8739 152.801 21.123 152.796 21.3736C152.79 21.6242 152.735 21.8713 152.634 22.1005Z" fill="#F6921E"/>
<path d="M109.928 113.496C112.472 114.617 115.292 114.961 118.032 114.483C120.771 114.005 123.308 112.727 125.32 110.812C127.332 108.896 128.73 106.427 129.338 103.719C129.945 101.01 129.734 98.1827 128.732 95.5936C127.73 93.0045 125.981 90.77 123.707 89.1724C121.432 87.5749 118.735 86.686 115.954 86.6182C113.174 86.5503 110.436 87.3064 108.086 88.7911C105.736 90.2757 103.88 92.4222 102.752 94.9593C102.003 96.6466 101.595 98.4646 101.55 100.31C101.505 102.154 101.825 103.99 102.492 105.711C103.158 107.433 104.158 109.006 105.434 110.342C106.71 111.678 108.237 112.749 109.928 113.496Z" fill="#F1F1F1"/>
<path d="M108.669 116.333C111.774 117.708 115.218 118.133 118.565 117.555C121.912 116.976 125.012 115.42 127.473 113.084C129.934 110.747 131.646 107.734 132.391 104.426C133.137 101.119 132.883 97.6647 131.661 94.5012C130.44 91.3377 128.306 88.6066 125.529 86.6535C122.753 84.7003 119.458 83.6128 116.062 83.5283C112.666 83.4439 109.322 84.3664 106.451 86.1791C103.58 87.9918 101.313 90.6134 99.9351 93.7123C99.0203 95.77 98.5206 97.9873 98.4644 100.238C98.4082 102.488 98.7967 104.728 99.6077 106.828C100.419 108.929 101.636 110.849 103.191 112.48C104.746 114.111 106.607 115.42 108.669 116.333ZM120.452 89.8155C122.599 90.7702 124.414 92.3382 125.668 94.3216C126.922 96.3049 127.559 98.6147 127.498 100.959C127.438 103.304 126.683 105.578 125.328 107.494C123.974 109.411 122.081 110.884 119.888 111.727C117.696 112.57 115.302 112.747 113.009 112.233C110.716 111.72 108.627 110.54 107.006 108.842C105.384 107.144 104.303 105.006 103.899 102.695C103.495 100.385 103.786 98.007 104.735 95.8615C106.017 92.9803 108.392 90.725 111.34 89.5913C114.287 88.4575 117.565 88.5382 120.452 89.8155Z" fill="#C0272D"/>
<path d="M95.8668 145.654C97.095 146.199 98.4576 146.369 99.7822 146.141C101.107 145.913 102.334 145.298 103.308 144.373C104.282 143.449 104.96 142.257 105.255 140.949C105.551 139.64 105.451 138.273 104.968 137.021C104.485 135.769 103.64 134.689 102.542 133.916C101.443 133.143 100.139 132.713 98.7956 132.679C97.4519 132.646 96.1285 133.011 94.9928 133.729C93.8571 134.447 92.9603 135.484 92.4156 136.711C91.6883 138.354 91.6431 140.218 92.29 141.894C92.9369 143.57 94.223 144.923 95.8668 145.654Z" fill="#F1F1F1"/>
<path d="M95.2581 147.028C96.7576 147.694 98.421 147.9 100.038 147.622C101.655 147.343 103.153 146.592 104.342 145.464C105.532 144.335 106.359 142.88 106.72 141.283C107.08 139.685 106.958 138.017 106.368 136.488C105.778 134.96 104.748 133.641 103.407 132.697C102.065 131.753 100.474 131.228 98.8335 131.187C97.1931 131.147 95.5774 131.592 94.1909 132.468C92.8044 133.344 91.7093 134.611 91.0442 136.108C90.6019 137.101 90.36 138.172 90.3324 139.258C90.3048 140.345 90.492 141.426 90.8834 142.44C91.2747 143.454 91.8625 144.381 92.6132 145.169C93.3638 145.956 94.2626 146.588 95.2581 147.028ZM100.943 134.241C101.992 134.699 102.88 135.457 103.496 136.42C104.111 137.383 104.426 138.506 104.4 139.648C104.375 140.79 104.009 141.898 103.351 142.833C102.693 143.767 101.771 144.484 100.703 144.895C99.6348 145.305 98.4687 145.389 97.3528 145.136C96.2368 144.883 95.2212 144.305 94.4352 143.475C93.6492 142.645 93.1281 141.601 92.9382 140.474C92.7483 139.348 92.8981 138.191 93.3686 137.15C93.9906 135.763 95.1363 134.678 96.5562 134.13C97.9761 133.582 99.5553 133.617 100.95 134.226L100.943 134.241Z" fill="#C0272D"/>
<path d="M83.4293 174.025C84.6575 174.57 86.0201 174.739 87.3447 174.511C88.6692 174.283 89.8963 173.668 90.8705 172.744C91.8448 171.82 92.5225 170.628 92.8179 169.319C93.1133 168.011 93.0131 166.644 92.5301 165.392C92.047 164.14 91.2027 163.059 90.1041 162.286C89.0055 161.514 87.7018 161.083 86.3581 161.05C85.0144 161.017 83.691 161.382 82.5553 162.1C81.4196 162.817 80.5228 163.855 79.9781 165.081C79.2508 166.724 79.2056 168.588 79.8525 170.265C80.4994 171.941 81.7855 173.293 83.4293 174.025Z" fill="#F1F1F1"/>
<path d="M82.8206 175.39C84.3201 176.055 85.9835 176.262 87.6006 175.983C89.2176 175.705 90.7155 174.954 91.9049 173.826C93.0942 172.697 93.9215 171.242 94.2821 169.645C94.6427 168.047 94.5204 166.378 93.9307 164.85C93.341 163.322 92.3103 162.002 90.9691 161.059C89.6279 160.115 88.0364 159.59 86.396 159.549C84.7556 159.508 83.1399 159.954 81.7534 160.83C80.3669 161.706 79.2718 162.973 78.6067 164.47C78.1644 165.463 77.9225 166.533 77.8949 167.62C77.8673 168.706 78.0545 169.788 78.4459 170.802C78.8372 171.816 79.425 172.743 80.1757 173.531C80.9263 174.318 81.8251 174.95 82.8206 175.39ZM88.5059 162.603C89.5543 163.06 90.4427 163.819 91.0583 164.782C91.6738 165.744 91.9887 166.868 91.9629 168.01C91.9372 169.152 91.5719 170.26 90.9135 171.194C90.2551 172.128 89.3334 172.846 88.2654 173.256C87.1973 173.667 86.0312 173.751 84.9153 173.498C83.7993 173.245 82.7837 172.667 81.9977 171.837C81.2117 171.007 80.6906 169.962 80.5007 168.836C80.3108 167.71 80.4606 166.553 80.9312 165.512C81.5531 164.125 82.6988 163.04 84.1187 162.492C85.5386 161.944 87.1178 161.979 88.5125 162.588L88.5059 162.603Z" fill="#C0272D"/>
<g style="mix-blend-mode:multiply" opacity="0.3">
<path d="M120.506 165.696C120.506 165.696 136.57 169.038 106.284 238.178C106.284 238.178 108.731 220.253 89.3983 211.81C89.4058 211.813 100.85 193.975 120.506 165.696Z" fill="#C0272D"/>
<path d="M150.562 67.4651L133.614 59.9653L133.516 59.9224L70.5306 203.692L89.2492 211.983C89.2492 211.983 120.014 174.433 139.473 130.635C158.931 86.8363 150.562 67.4651 150.562 67.4651Z" fill="#FAAF3B"/>
<path d="M70.5235 203.713L64.9236 216.493L65.4985 216.744L71.1665 203.994L70.5235 203.713Z" fill="#B2B2B2"/>
<path d="M71.1674 203.986L65.5001 216.734L68.0802 217.877L73.7475 205.13L71.1674 203.986Z" fill="#E5E5E5"/>
<path d="M73.7411 205.102L68.0782 217.852L70.6587 218.994L76.3216 206.244L73.7411 205.102Z" fill="#B2B2B2"/>
<path d="M76.327 206.252L70.6641 219.002L73.2446 220.144L78.9075 207.395L76.327 206.252Z" fill="#E5E5E5"/>
<path d="M78.9051 207.408L73.2422 220.157L75.8303 221.303L81.4932 208.553L78.9051 207.408Z" fill="#B2B2B2"/>
<path d="M81.4754 208.546L75.8126 221.295L78.3931 222.438L84.056 209.688L81.4754 208.546Z" fill="#E5E5E5"/>
<path d="M84.058 209.691L78.3907 222.439L80.9708 223.582L86.6381 210.835L84.058 209.691Z" fill="#B2B2B2"/>
<path d="M132.738 61.7569L153.231 70.8334L150.841 21.2905L150.249 21.7775L132.738 61.7569Z" fill="#C0272D"/>
<path d="M153.17 70.8137L132.727 61.7612L131.268 65.0901L151.689 74.1327C152.132 74.3261 152.633 74.3362 153.083 74.1607C153.533 73.9853 153.895 73.6388 154.088 73.1974C154.281 72.7559 154.291 72.2558 154.115 71.8069C153.938 71.358 153.59 70.9972 153.148 70.8038L153.17 70.8137Z" fill="#F6921E"/>
<path d="M151.657 19.5845C151.521 19.5277 151.379 19.4867 151.233 19.4623L149.764 22.8163C149.873 22.903 149.992 22.9762 150.119 23.0342C150.349 23.1535 150.602 23.2244 150.861 23.2424C151.12 23.2604 151.38 23.2252 151.625 23.1389C151.87 23.0527 152.094 22.9172 152.284 22.7408C152.474 22.5645 152.626 22.3511 152.73 22.1138C152.834 21.8765 152.888 21.6204 152.888 21.3614C152.889 21.1024 152.836 20.8459 152.734 20.6078C152.631 20.3698 152.48 20.1553 152.291 19.9776C152.102 19.7998 151.878 19.6627 151.634 19.5746L151.657 19.5845Z" fill="#F6921E"/>
<path d="M121.325 87.8205L110.066 113.524C113.467 114.913 117.276 114.92 120.68 113.545C124.083 112.17 126.812 109.522 128.282 106.165C129.752 102.808 129.848 99.01 128.549 95.581C127.249 92.1519 124.658 89.3641 121.328 87.813L121.325 87.8205Z" fill="#F1F1F1"/>
<path d="M122.586 84.9863L120.473 89.8104C123.281 91.1256 125.464 93.4819 126.558 96.3774C127.651 99.2728 127.569 102.479 126.328 105.312C125.087 108.145 122.785 110.381 119.914 111.545C117.042 112.709 113.827 112.707 110.954 111.541L108.838 116.373C113.012 118.196 117.74 118.291 121.981 116.637C126.222 114.983 129.628 111.716 131.451 107.554C133.274 103.392 133.365 98.676 131.702 94.4437C130.04 90.2114 126.76 86.8095 122.586 84.9863Z" fill="#C0272D"/>
<path d="M101.398 133.252L95.9606 145.666C97.5987 146.315 99.4247 146.304 101.053 145.636C102.682 144.968 103.987 143.695 104.692 142.085C105.397 140.475 105.448 138.655 104.833 137.007C104.219 135.359 102.988 134.013 101.398 133.252Z" fill="#F1F1F1"/>
<path d="M101.992 131.883L100.969 134.22C102.206 134.926 103.139 136.063 103.587 137.413C104.035 138.762 103.968 140.229 103.398 141.531C102.827 142.833 101.795 143.878 100.498 144.465C99.2011 145.052 97.7319 145.14 96.3728 144.712L95.3525 147.042C97.3543 147.842 99.5888 147.834 101.583 147.02C103.577 146.206 105.175 144.649 106.038 142.679C106.901 140.71 106.961 138.481 106.206 136.466C105.451 134.451 103.94 132.808 101.992 131.883Z" fill="#C0272D"/>
<path d="M88.9688 161.622L83.5309 174.037C85.169 174.685 86.995 174.674 88.6238 174.006C90.2526 173.338 91.5571 172.065 92.2622 170.455C92.9673 168.845 93.0181 167.025 92.4037 165.377C91.7893 163.729 90.5578 162.383 88.9688 161.622Z" fill="#F1F1F1"/>
<path d="M89.5626 160.251L88.539 162.588C89.7764 163.294 90.7089 164.431 91.1573 165.78C91.6057 167.13 91.5383 168.597 90.968 169.898C90.3978 171.2 89.365 172.245 88.0682 172.833C86.7714 173.42 85.3022 173.508 83.9431 173.08L82.9228 175.409C84.9246 176.21 87.1591 176.202 89.1534 175.388C91.1477 174.573 92.7454 173.017 93.6082 171.047C94.4709 169.077 94.5312 166.849 93.7761 164.834C93.021 162.819 91.5099 161.175 89.5626 160.251Z" fill="#C0272D"/>
</g>
</svg>
