<svg width="1464" height="346" viewBox="0 0 1464 346" fill="none" xmlns="http://www.w3.org/2000/svg">
<rect x="96.2266" y="74.9148" width="1295.71" height="173.162" fill="#B3E8FF"/>
<path d="M195.598 79.736C195.603 75.4109 194.364 71.1497 191.989 67.32C189.613 63.4904 186.172 60.2074 181.962 57.7543C177.752 55.3013 172.9 53.7519 167.824 53.2398C162.749 52.7277 157.602 53.2683 152.828 54.815C148.723 48.9149 142.621 44.1919 135.311 41.2559C128.001 38.3198 119.818 37.3056 111.82 38.3443C103.822 39.3829 96.3753 42.4267 90.4422 47.0825C84.5091 51.7383 80.3619 57.7923 78.5363 64.4626C77.6901 64.3895 76.8401 64.3538 75.9896 64.3557C69.4795 64.4422 63.2693 66.6859 58.6932 70.6047C54.117 74.5236 51.54 79.8048 51.5158 85.3139C51.4916 90.823 54.0221 96.1203 58.5638 100.068C63.1054 104.015 69.2958 106.298 75.8049 106.425H166.067V106.343C174.064 105.913 181.566 102.923 187.051 97.9807C192.536 93.0388 195.592 86.5155 195.598 79.736Z" fill="#B3E8FF"/>
<path d="M174.215 134.842C174.22 130.517 172.981 126.255 170.606 122.426C168.23 118.596 164.789 115.313 160.579 112.86C156.369 110.407 151.517 108.858 146.441 108.345C141.366 107.833 136.219 108.374 131.446 109.921C127.34 104.021 121.238 99.2976 113.928 96.3616C106.618 93.4255 98.4353 92.4113 90.4371 93.45C82.4389 94.4886 74.9925 97.5324 69.0594 102.188C63.1263 106.844 58.9791 112.898 57.1535 119.568C56.3073 119.495 55.4573 119.46 54.6067 119.461C48.0967 119.548 41.8865 121.792 37.3104 125.71C32.7342 129.629 30.1572 134.911 30.133 140.42C30.1088 145.929 32.6393 151.226 37.181 155.173C41.7226 159.121 47.913 161.404 54.4221 161.531H144.685V161.449C152.681 161.018 160.183 158.028 165.668 153.086C171.153 148.145 174.209 141.621 174.215 134.842Z" fill="#B3E8FF"/>
<path d="M145.051 187.48C145.056 183.155 143.817 178.894 141.442 175.064C139.066 171.235 135.625 167.952 131.415 165.498C127.205 163.045 122.353 161.496 117.277 160.984C112.202 160.472 107.055 161.012 102.282 162.559C98.1759 156.659 92.074 151.936 84.7639 149C77.4538 146.064 69.2712 145.05 61.2731 146.088C53.2749 147.127 45.8284 150.171 39.8953 154.827C33.9622 159.482 29.8151 165.536 27.9894 172.207C27.1433 172.134 26.2932 172.098 25.4427 172.1C18.9326 172.186 12.7225 174.43 8.14629 178.349C3.57011 182.268 0.993107 187.549 0.968922 193.058C0.944737 198.567 3.47525 203.864 8.0169 207.812C12.5585 211.759 18.7489 214.042 25.258 214.169H115.521V214.087C123.517 213.657 131.019 210.667 136.504 205.725C141.989 200.783 145.045 194.26 145.051 187.48Z" fill="#B3E8FF"/>
<path d="M229.614 154.581C229.619 150.256 228.38 145.995 226.005 142.165C223.629 138.336 220.188 135.053 215.978 132.6C211.768 130.147 206.916 128.597 201.84 128.085C196.764 127.573 191.618 128.114 186.844 129.66C182.739 123.76 176.637 119.037 169.327 116.101C162.017 113.165 153.834 112.151 145.836 113.19C137.838 114.228 130.391 117.272 124.458 121.928C118.525 126.584 114.378 132.638 112.552 139.308C111.706 139.235 110.856 139.199 110.005 139.201C103.495 139.288 97.2852 141.531 92.709 145.45C88.1329 149.369 85.5559 154.65 85.5317 160.159C85.5075 165.668 88.038 170.966 92.5796 174.913C97.1213 178.861 103.312 181.143 109.821 181.271H200.083V181.189C208.079 180.758 215.582 177.768 221.067 172.826C226.552 167.884 229.607 161.361 229.614 154.581Z" fill="#B3E8FF"/>
<path d="M234.48 128.262C234.486 123.937 233.247 119.676 230.871 115.846C228.496 112.016 225.055 108.733 220.845 106.28C216.635 103.827 211.783 102.278 206.707 101.766C201.631 101.254 196.485 101.794 191.711 103.341C187.606 97.4408 181.504 92.7178 174.194 89.7817C166.883 86.8457 158.701 85.8315 150.703 86.8702C142.705 87.9088 135.258 90.9526 129.325 95.6084C123.392 100.264 119.245 106.318 117.419 112.989C116.573 112.915 115.723 112.88 114.872 112.882C108.362 112.968 102.152 115.212 97.576 119.131C92.9998 123.049 90.4228 128.331 90.3986 133.84C90.3744 139.349 92.9049 144.646 97.4466 148.594C101.988 152.541 108.179 154.824 114.688 154.951H204.95V154.869C212.946 154.438 220.449 151.449 225.934 146.507C231.419 141.565 234.474 135.041 234.48 128.262Z" fill="#B3E8FF"/>
<path d="M353.066 132.374C353.072 128.049 351.833 123.788 349.457 119.958C347.082 116.129 343.641 112.846 339.431 110.393C335.221 107.94 330.369 106.39 325.293 105.878C320.217 105.366 315.071 105.907 310.297 107.453C306.192 101.553 300.09 96.8303 292.779 93.8943C285.469 90.9582 277.287 89.9441 269.289 90.9827C261.29 92.0214 253.844 95.0651 247.911 99.7209C241.978 104.377 237.831 110.431 236.005 117.101C235.159 117.028 234.309 116.992 233.458 116.994C226.948 117.081 220.738 119.324 216.162 123.243C211.586 127.162 209.009 132.443 208.985 137.952C208.96 143.461 211.491 148.759 216.033 152.706C220.574 156.654 226.765 158.936 233.274 159.064H323.536V158.982C331.532 158.551 339.035 155.561 344.52 150.619C350.004 145.677 353.06 139.154 353.066 132.374Z" fill="#B3E8FF"/>
<path d="M459.988 138.954C459.994 134.629 458.755 130.368 456.379 126.538C454.004 122.709 450.562 119.426 446.353 116.973C442.143 114.52 437.29 112.97 432.215 112.458C427.139 111.946 421.993 112.487 417.219 114.033C413.113 108.133 407.011 103.41 399.701 100.474C392.391 97.5381 384.209 96.5239 376.211 97.5625C368.212 98.6012 360.766 101.645 354.833 106.301C348.9 110.957 344.753 117.011 342.927 123.681C342.081 123.608 341.231 123.572 340.38 123.574C333.87 123.66 327.66 125.904 323.084 129.823C318.508 133.742 315.931 139.023 315.906 144.532C315.882 150.041 318.413 155.339 322.954 159.286C327.496 163.234 333.686 165.516 340.195 165.644H430.458V165.561C438.454 165.131 445.957 162.141 451.441 157.199C456.926 152.257 459.982 145.734 459.988 138.954Z" fill="#B3E8FF"/>
<path d="M575.66 139.777C575.665 135.452 574.427 131.19 572.051 127.361C569.676 123.531 566.234 120.248 562.024 117.795C557.814 115.342 552.962 113.793 547.887 113.281C542.811 112.768 537.664 113.309 532.891 114.856C528.785 108.956 522.683 104.233 515.373 101.297C508.063 98.3606 499.881 97.3464 491.882 98.3851C483.884 99.4237 476.438 102.467 470.505 107.123C464.572 111.779 460.424 117.833 458.599 124.503C457.753 124.43 456.903 124.395 456.052 124.396C449.542 124.483 443.332 126.727 438.756 130.646C434.179 134.564 431.602 139.846 431.578 145.355C431.554 150.864 434.085 156.161 438.626 160.109C443.168 164.056 449.358 166.339 455.867 166.466H546.13V166.384C554.126 165.953 561.628 162.963 567.113 158.022C572.598 153.08 575.654 146.556 575.66 139.777Z" fill="#B3E8FF"/>
<path d="M767.145 139.777C767.15 135.452 765.911 131.19 763.536 127.361C761.16 123.531 757.719 120.248 753.509 117.795C749.299 115.342 744.447 113.793 739.371 113.281C734.295 112.768 729.149 113.309 724.375 114.856C720.27 108.956 714.168 104.233 706.858 101.297C699.548 98.3606 691.365 97.3464 683.367 98.3851C675.369 99.4237 667.922 102.467 661.989 107.123C656.056 111.779 651.909 117.833 650.083 124.503C649.237 124.43 648.387 124.395 647.536 124.396C641.026 124.483 634.816 126.727 630.24 130.646C625.664 134.564 623.087 139.846 623.063 145.355C623.038 150.864 625.569 156.161 630.111 160.109C634.652 164.056 640.843 166.339 647.352 166.466H737.614V166.384C745.61 165.953 753.113 162.963 758.598 158.022C764.083 153.08 767.139 146.556 767.145 139.777Z" fill="#B3E8FF"/>
<path d="M954.746 139.777C954.751 135.452 953.513 131.19 951.137 127.361C948.761 123.531 945.32 120.248 941.11 117.795C936.9 115.342 932.048 113.793 926.973 113.281C921.897 112.768 916.75 113.309 911.977 114.856C907.871 108.956 901.769 104.233 894.459 101.297C887.149 98.3606 878.967 97.3464 870.968 98.3851C862.97 99.4237 855.524 102.467 849.591 107.123C843.658 111.779 839.51 117.833 837.685 124.503C836.839 124.43 835.989 124.395 835.138 124.396C828.628 124.483 822.418 126.727 817.842 130.646C813.265 134.564 810.688 139.846 810.664 145.355C810.64 150.864 813.171 156.161 817.712 160.109C822.254 164.056 828.444 166.339 834.953 166.466H925.216V166.384C933.212 165.953 940.714 162.963 946.199 158.022C951.684 153.08 954.74 146.556 954.746 139.777Z" fill="#B3E8FF"/>
<path d="M1137.49 139.777C1137.49 135.452 1136.25 131.19 1133.88 127.361C1131.5 123.531 1128.06 120.248 1123.85 117.795C1119.64 115.342 1114.79 113.793 1109.71 113.281C1104.64 112.768 1099.49 113.309 1094.72 114.856C1090.61 108.956 1084.51 104.233 1077.2 101.297C1069.89 98.3606 1061.71 97.3464 1053.71 98.3851C1045.71 99.4237 1038.27 102.467 1032.33 107.123C1026.4 111.779 1022.25 117.833 1020.43 124.503C1019.58 124.43 1018.73 124.395 1017.88 124.396C1011.37 124.483 1005.16 126.727 1000.58 130.646C996.008 134.564 993.431 139.846 993.406 145.355C993.382 150.864 995.913 156.161 1000.45 160.109C1005 164.056 1011.19 166.339 1017.7 166.466H1107.96V166.384C1115.95 165.953 1123.46 162.963 1128.94 158.022C1134.43 153.08 1137.48 146.556 1137.49 139.777Z" fill="#B3E8FF"/>
<path d="M1287.18 139.777C1287.19 135.452 1285.95 131.19 1283.57 127.361C1281.2 123.531 1277.76 120.248 1273.55 117.795C1269.34 115.342 1264.49 113.793 1259.41 113.281C1254.33 112.768 1249.19 113.309 1244.41 114.856C1240.31 108.956 1234.21 104.233 1226.9 101.297C1219.59 98.3606 1211.4 97.3464 1203.41 98.3851C1195.41 99.4237 1187.96 102.467 1182.03 107.123C1176.1 111.779 1171.95 117.833 1170.12 124.503C1169.28 124.43 1168.43 124.395 1167.58 124.396C1161.07 124.483 1154.86 126.727 1150.28 130.646C1145.7 134.564 1143.13 139.846 1143.1 145.355C1143.08 150.864 1145.61 156.161 1150.15 160.109C1154.69 164.056 1160.88 166.339 1167.39 166.466H1257.65V166.384C1265.65 165.953 1273.15 162.963 1278.64 158.022C1284.12 153.08 1287.18 146.556 1287.18 139.777Z" fill="#B3E8FF"/>
<path d="M454.16 145.534C454.165 141.209 452.927 136.948 450.551 133.118C448.176 129.288 444.734 126.005 440.524 123.552C436.314 121.099 431.462 119.55 426.387 119.038C421.311 118.526 416.164 119.066 411.391 120.613C407.285 114.713 401.183 109.99 393.873 107.054C386.563 104.118 378.381 103.104 370.382 104.142C362.384 105.181 354.938 108.225 349.005 112.881C343.072 117.536 338.924 123.59 337.099 130.261C336.253 130.188 335.403 130.152 334.552 130.154C328.042 130.24 321.832 132.484 317.256 136.403C312.679 140.322 310.102 145.603 310.078 151.112C310.054 156.621 312.585 161.918 317.126 165.866C321.668 169.813 327.858 172.096 334.367 172.223H424.63V172.141C432.626 171.711 440.128 168.721 445.613 163.779C451.098 158.837 454.154 152.314 454.16 145.534Z" fill="#B3E8FF"/>
<path d="M561.082 152.114C561.087 147.789 559.849 143.528 557.473 139.698C555.097 135.868 551.656 132.585 547.446 130.132C543.236 127.679 538.384 126.13 533.309 125.618C528.233 125.106 523.086 125.646 518.313 127.193C514.207 121.293 508.105 116.57 500.795 113.634C493.485 110.698 485.302 109.684 477.304 110.722C469.306 111.761 461.86 114.805 455.927 119.46C449.993 124.116 445.846 130.17 444.021 136.841C443.175 136.767 442.324 136.732 441.474 136.734C434.964 136.82 428.754 139.064 424.178 142.983C419.601 146.901 417.024 152.183 417 157.692C416.976 163.201 419.507 168.498 424.048 172.446C428.59 176.393 434.78 178.676 441.289 178.803H531.552V178.721C539.548 178.291 547.05 175.301 552.535 170.359C558.02 165.417 561.076 158.893 561.082 152.114Z" fill="#B3E8FF"/>
<path d="M676.746 152.936C676.751 148.611 675.513 144.35 673.137 140.52C670.761 136.691 667.32 133.408 663.11 130.955C658.9 128.501 654.048 126.952 648.973 126.44C643.897 125.928 638.75 126.469 633.977 128.015C629.871 122.115 623.769 117.392 616.459 114.456C609.149 111.52 600.967 110.506 592.968 111.544C584.97 112.583 577.524 115.627 571.591 120.283C565.658 124.939 561.51 130.993 559.685 137.663C558.839 137.59 557.989 137.554 557.138 137.556C550.628 137.642 544.418 139.886 539.842 143.805C535.265 147.724 532.688 153.005 532.664 158.514C532.64 164.023 535.171 169.32 539.712 173.268C544.254 177.215 550.444 179.498 556.953 179.626H647.216V179.543C655.212 179.113 662.714 176.123 668.199 171.181C673.684 166.239 676.74 159.716 676.746 152.936Z" fill="#B3E8FF"/>
<path d="M868.238 152.936C868.244 148.611 867.005 144.35 864.629 140.52C862.254 136.691 858.812 133.408 854.603 130.955C850.393 128.501 845.54 126.952 840.465 126.44C835.389 125.928 830.243 126.469 825.469 128.015C821.363 122.115 815.261 117.392 807.951 114.456C800.641 111.52 792.459 110.506 784.461 111.544C776.462 112.583 769.016 115.627 763.083 120.283C757.15 124.939 753.003 130.993 751.177 137.663C750.331 137.59 749.481 137.554 748.63 137.556C742.12 137.642 735.91 139.886 731.334 143.805C726.758 147.724 724.181 153.005 724.156 158.514C724.132 164.023 726.663 169.32 731.204 173.268C735.746 177.215 741.936 179.498 748.445 179.626H838.708V179.543C846.704 179.113 854.207 176.123 859.691 171.181C865.176 166.239 868.232 159.716 868.238 152.936Z" fill="#B3E8FF"/>
<path d="M1055.84 152.936C1055.84 148.611 1054.61 144.35 1052.23 140.52C1049.86 136.691 1046.41 133.408 1042.2 130.955C1037.99 128.501 1033.14 126.952 1028.07 126.44C1022.99 125.928 1017.84 126.469 1013.07 128.015C1008.96 122.115 1002.86 117.392 995.553 114.456C988.243 111.52 980.06 110.506 972.062 111.544C964.064 112.583 956.617 115.627 950.684 120.283C944.751 124.939 940.604 130.993 938.778 137.663C937.932 137.59 937.082 137.554 936.232 137.556C929.722 137.642 923.511 139.886 918.935 143.805C914.359 147.724 911.782 153.005 911.758 158.514C911.734 164.023 914.264 169.32 918.806 173.268C923.347 177.215 929.538 179.498 936.047 179.626H1026.31V179.543C1034.31 179.113 1041.81 176.123 1047.29 171.181C1052.78 166.239 1055.83 159.716 1055.84 152.936Z" fill="#B3E8FF"/>
<path d="M1238.58 152.936C1238.59 148.611 1237.35 144.35 1234.97 140.52C1232.6 136.691 1229.16 133.408 1224.95 130.955C1220.74 128.501 1215.88 126.952 1210.81 126.44C1205.73 125.928 1200.59 126.469 1195.81 128.015C1191.71 122.115 1185.61 117.392 1178.3 114.456C1170.99 111.52 1162.8 110.506 1154.8 111.544C1146.81 112.583 1139.36 115.627 1133.43 120.283C1127.49 124.939 1123.35 130.993 1121.52 137.663C1120.67 137.59 1119.82 137.554 1118.97 137.556C1112.46 137.642 1106.25 139.886 1101.68 143.805C1097.1 147.724 1094.52 153.005 1094.5 158.514C1094.48 164.023 1097.01 169.32 1101.55 173.268C1106.09 177.215 1112.28 179.498 1118.79 179.626H1209.05V179.543C1217.05 179.113 1224.55 176.123 1230.04 171.181C1235.52 166.239 1238.58 159.716 1238.58 152.936Z" fill="#B3E8FF"/>
<path d="M1388.28 152.936C1388.28 148.611 1387.04 144.35 1384.67 140.52C1382.29 136.691 1378.85 133.408 1374.64 130.955C1370.43 128.501 1365.58 126.952 1360.5 126.44C1355.43 125.928 1350.28 126.469 1345.51 128.015C1341.4 122.115 1335.3 117.392 1327.99 114.456C1320.68 111.52 1312.5 110.506 1304.5 111.544C1296.5 112.583 1289.05 115.627 1283.12 120.283C1277.19 124.939 1273.04 130.993 1271.22 137.663C1270.37 137.59 1269.52 137.554 1268.67 137.556C1262.16 137.642 1255.95 139.886 1251.37 143.805C1246.8 147.724 1244.22 153.005 1244.2 158.514C1244.17 164.023 1246.7 169.32 1251.24 173.268C1255.79 177.215 1261.98 179.498 1268.48 179.626H1358.75V179.543C1366.74 179.113 1374.25 176.123 1379.73 171.181C1385.22 166.239 1388.27 159.716 1388.28 152.936Z" fill="#B3E8FF"/>
<path d="M298.637 127.44C298.642 123.115 297.403 118.854 295.028 115.024C292.652 111.194 289.211 107.911 285.001 105.458C280.791 103.005 275.939 101.456 270.863 100.944C265.788 100.432 260.641 100.972 255.868 102.519C251.762 96.6188 245.66 91.8958 238.35 88.9597C231.04 86.0237 222.857 85.0095 214.859 86.0481C206.861 87.0868 199.414 90.1306 193.481 94.7864C187.548 99.4422 183.401 105.496 181.575 112.166C180.729 112.093 179.879 112.058 179.029 112.06C172.519 112.146 166.308 114.39 161.732 118.309C157.156 122.227 154.579 127.509 154.555 133.018C154.531 138.527 157.061 143.824 161.603 147.772C166.144 151.719 172.335 154.002 178.844 154.129H269.107V154.047C277.103 153.616 284.605 150.627 290.09 145.685C295.575 140.743 298.631 134.219 298.637 127.44Z" fill="#B3E8FF"/>
<path d="M405.559 134.019C405.564 129.694 404.325 125.433 401.95 121.603C399.574 117.774 396.133 114.491 391.923 112.038C387.713 109.584 382.861 108.035 377.785 107.523C372.71 107.011 367.563 107.552 362.789 109.098C358.684 103.198 352.582 98.4751 345.272 95.5391C337.962 92.603 329.779 91.5888 321.781 92.6275C313.783 93.6661 306.336 96.7099 300.403 101.366C294.47 106.022 290.323 112.076 288.497 118.746C287.651 118.673 286.801 118.637 285.95 118.639C279.44 118.725 273.23 120.969 268.654 124.888C264.078 128.807 261.501 134.088 261.477 139.597C261.453 145.106 263.983 150.404 268.525 154.351C273.066 158.298 279.257 160.581 285.766 160.709H376.028V160.626C384.024 160.196 391.527 157.206 397.012 152.264C402.497 147.322 405.553 140.799 405.559 134.019Z" fill="#B3E8FF"/>
<path d="M521.223 134.842C521.228 130.517 519.989 126.255 517.614 122.426C515.238 118.596 511.797 115.313 507.587 112.86C503.377 110.407 498.525 108.858 493.449 108.345C488.374 107.833 483.227 108.374 478.453 109.921C474.348 104.021 468.246 99.2976 460.936 96.3616C453.626 93.4255 445.443 92.4113 437.445 93.45C429.447 94.4886 422 97.5324 416.067 102.188C410.134 106.844 405.987 112.898 404.161 119.568C403.315 119.495 402.465 119.46 401.615 119.461C395.105 119.548 388.894 121.792 384.318 125.71C379.742 129.629 377.165 134.911 377.141 140.42C377.117 145.929 379.647 151.226 384.189 155.173C388.73 159.121 394.921 161.404 401.43 161.531H491.692V161.449C499.689 161.018 507.191 158.028 512.676 153.086C518.161 148.145 521.217 141.621 521.223 134.842Z" fill="#B3E8FF"/>
<path d="M712.715 134.842C712.72 130.517 711.481 126.255 709.106 122.426C706.73 118.596 703.289 115.313 699.079 112.86C694.869 110.407 690.017 108.858 684.941 108.345C679.866 107.833 674.719 108.374 669.946 109.921C665.84 104.021 659.738 99.2976 652.428 96.3616C645.118 93.4255 636.935 92.4113 628.937 93.45C620.939 94.4886 613.492 97.5324 607.559 102.188C601.626 106.844 597.479 112.898 595.653 119.568C594.807 119.495 593.957 119.46 593.107 119.461C586.597 119.548 580.387 121.792 575.81 125.71C571.234 129.629 568.657 134.911 568.633 140.42C568.609 145.929 571.139 151.226 575.681 155.173C580.223 159.121 586.413 161.404 592.922 161.531H683.185V161.449C691.181 161.018 698.683 158.028 704.168 153.086C709.653 148.145 712.709 141.621 712.715 134.842Z" fill="#B3E8FF"/>
<path d="M900.316 134.842C900.322 130.517 899.083 126.255 896.707 122.426C894.332 118.596 890.891 115.313 886.681 112.86C882.471 110.407 877.619 108.858 872.543 108.345C867.467 107.833 862.321 108.374 857.547 109.921C853.442 104.021 847.34 99.2976 840.029 96.3616C832.719 93.4255 824.537 92.4113 816.539 93.45C808.54 94.4886 801.094 97.5324 795.161 102.188C789.228 106.844 785.081 112.898 783.255 119.568C782.409 119.495 781.559 119.46 780.708 119.461C774.198 119.548 767.988 121.792 763.412 125.71C758.836 129.629 756.259 134.911 756.235 140.42C756.21 145.929 758.741 151.226 763.283 155.173C767.824 159.121 774.015 161.404 780.524 161.531H870.786V161.449C878.782 161.018 886.285 158.028 891.77 153.086C897.254 148.145 900.31 141.621 900.316 134.842Z" fill="#B3E8FF"/>
<path d="M1083.05 134.842C1083.06 130.517 1081.82 126.255 1079.44 122.426C1077.07 118.596 1073.62 115.313 1069.42 112.86C1065.21 110.407 1060.35 108.858 1055.28 108.345C1050.2 107.833 1045.06 108.374 1040.28 109.921C1036.18 104.021 1030.07 99.2976 1022.76 96.3616C1015.45 93.4255 1007.27 92.4113 999.273 93.45C991.275 94.4886 983.828 97.5324 977.895 102.188C971.962 106.844 967.815 112.898 965.989 119.568C965.143 119.495 964.293 119.46 963.443 119.461C956.933 119.548 950.722 121.792 946.146 125.71C941.57 129.629 938.993 134.911 938.969 140.42C938.945 145.929 941.475 151.226 946.017 155.173C950.559 159.121 956.749 161.404 963.258 161.531H1053.52V161.449C1061.52 161.018 1069.02 158.028 1074.5 153.086C1079.99 148.145 1083.04 141.621 1083.05 134.842Z" fill="#B3E8FF"/>
<path d="M1232.75 134.842C1232.75 130.517 1231.51 126.255 1229.14 122.426C1226.76 118.596 1223.32 115.313 1219.11 112.86C1214.9 110.407 1210.05 108.858 1204.97 108.345C1199.9 107.833 1194.75 108.374 1189.98 109.921C1185.87 104.021 1179.77 99.2976 1172.46 96.3616C1165.15 93.4255 1156.97 92.4113 1148.97 93.45C1140.97 94.4886 1133.52 97.5324 1127.59 102.188C1121.66 106.844 1117.51 112.898 1115.68 119.568C1114.84 119.495 1113.99 119.46 1113.14 119.461C1106.63 119.548 1100.42 121.792 1095.84 125.71C1091.27 129.629 1088.69 134.911 1088.66 140.42C1088.64 145.929 1091.17 151.226 1095.71 155.173C1100.25 159.121 1106.44 161.404 1112.95 161.531H1203.22V161.449C1211.21 161.018 1218.71 158.028 1224.2 153.086C1229.68 148.145 1232.74 141.621 1232.75 134.842Z" fill="#B3E8FF"/>
<path d="M229.614 203.107C229.619 198.782 228.38 194.521 226.005 190.691C223.629 186.862 220.188 183.579 215.978 181.126C211.768 178.673 206.916 177.123 201.84 176.611C196.764 176.099 191.618 176.64 186.844 178.186C182.739 172.286 176.637 167.563 169.327 164.627C162.017 161.691 153.834 160.677 145.836 161.716C137.838 162.754 130.391 165.798 124.458 170.454C118.525 175.11 114.378 181.164 112.552 187.834C111.706 187.761 110.856 187.725 110.005 187.727C103.495 187.814 97.2852 190.057 92.709 193.976C88.1329 197.895 85.5559 203.176 85.5317 208.685C85.5075 214.194 88.038 219.492 92.5796 223.439C97.1213 227.387 103.312 229.669 109.821 229.797H200.083V229.714C208.079 229.284 215.582 226.294 221.067 221.352C226.552 216.41 229.607 209.887 229.614 203.107Z" fill="#B3E8FF"/>
<path d="M328.762 189.125C328.767 184.8 327.528 180.539 325.153 176.709C322.777 172.88 319.336 169.597 315.126 167.144C310.916 164.691 306.064 163.141 300.988 162.629C295.913 162.117 290.766 162.658 285.993 164.204C281.887 158.304 275.785 153.581 268.475 150.645C261.165 147.709 252.982 146.695 244.984 147.734C236.986 148.772 229.539 151.816 223.606 156.472C217.673 161.128 213.526 167.182 211.7 173.852C210.854 173.779 210.004 173.743 209.154 173.745C202.644 173.832 196.433 176.075 191.857 179.994C187.281 183.913 184.704 189.194 184.68 194.703C184.656 200.212 187.186 205.51 191.728 209.457C196.269 213.405 202.46 215.687 208.969 215.815H299.232V215.733C307.228 215.302 314.73 212.312 320.215 207.37C325.7 202.428 328.756 195.905 328.762 189.125Z" fill="#B3E8FF"/>
<path d="M435.691 195.705C435.697 191.38 434.458 187.118 432.082 183.289C429.707 179.459 426.266 176.176 422.056 173.723C417.846 171.27 412.994 169.721 407.918 169.209C402.842 168.696 397.696 169.237 392.922 170.784C388.817 164.884 382.715 160.161 375.404 157.225C368.094 154.289 359.912 153.274 351.914 154.313C343.915 155.352 336.469 158.395 330.536 163.051C324.603 167.707 320.456 173.761 318.63 180.431C317.784 180.358 316.934 180.323 316.083 180.324C309.573 180.411 303.363 182.655 298.787 186.573C294.211 190.492 291.634 195.774 291.61 201.283C291.585 206.792 294.116 212.089 298.658 216.037C303.199 219.984 309.39 222.267 315.899 222.394H406.161V222.312C414.157 221.881 421.66 218.891 427.145 213.949C432.629 209.008 435.685 202.484 435.691 195.705Z" fill="#B3E8FF"/>
<path d="M551.355 196.527C551.361 192.202 550.122 187.941 547.746 184.111C545.371 180.282 541.93 176.999 537.72 174.546C533.51 172.093 528.658 170.543 523.582 170.031C518.506 169.519 513.36 170.06 508.586 171.606C504.481 165.706 498.379 160.983 491.069 158.047C483.758 155.111 475.576 154.097 467.578 155.136C459.58 156.174 452.133 159.218 446.2 163.874C440.267 168.53 436.12 174.584 434.294 181.254C433.448 181.181 432.598 181.145 431.747 181.147C425.237 181.233 419.027 183.477 414.451 187.396C409.875 191.315 407.298 196.596 407.274 202.105C407.249 207.614 409.78 212.912 414.322 216.859C418.863 220.807 425.054 223.089 431.563 223.217H521.825V223.134C529.821 222.704 537.324 219.714 542.809 214.772C548.294 209.83 551.349 203.307 551.355 196.527Z" fill="#B3E8FF"/>
<path d="M742.848 196.527C742.853 192.202 741.614 187.941 739.239 184.111C736.863 180.282 733.422 176.999 729.212 174.546C725.002 172.093 720.15 170.543 715.074 170.031C709.999 169.519 704.852 170.06 700.078 171.606C695.973 165.706 689.871 160.983 682.561 158.047C675.251 155.111 667.068 154.097 659.07 155.136C651.072 156.174 643.625 159.218 637.692 163.874C631.759 168.53 627.612 174.584 625.786 181.254C624.94 181.181 624.09 181.145 623.24 181.147C616.73 181.233 610.519 183.477 605.943 187.396C601.367 191.315 598.79 196.596 598.766 202.105C598.742 207.614 601.272 212.912 605.814 216.859C610.355 220.807 616.546 223.089 623.055 223.217H713.317V223.134C721.314 222.704 728.816 219.714 734.301 214.772C739.786 209.83 742.842 203.307 742.848 196.527Z" fill="#B3E8FF"/>
<path d="M930.449 196.527C930.454 192.202 929.216 187.941 926.84 184.111C924.465 180.282 921.023 176.999 916.813 174.546C912.604 172.093 907.751 170.543 902.676 170.031C897.6 169.519 892.454 170.06 887.68 171.606C883.574 165.706 877.472 160.983 870.162 158.047C862.852 155.111 854.67 154.097 846.671 155.136C838.673 156.174 831.227 159.218 825.294 163.874C819.361 168.53 815.213 174.584 813.388 181.254C812.542 181.181 811.692 181.145 810.841 181.147C804.331 181.233 798.121 183.477 793.545 187.396C788.969 191.315 786.392 196.596 786.367 202.105C786.343 207.614 788.874 212.912 793.415 216.859C797.957 220.807 804.147 223.089 810.656 223.217H900.919V223.134C908.915 222.704 916.418 219.714 921.902 214.772C927.387 209.83 930.443 203.307 930.449 196.527Z" fill="#B3E8FF"/>
<path d="M1113.19 196.527C1113.2 192.202 1111.96 187.941 1109.58 184.111C1107.21 180.282 1103.77 176.999 1099.56 174.546C1095.35 172.093 1090.49 170.543 1085.42 170.031C1080.34 169.519 1075.2 170.06 1070.42 171.606C1066.32 165.706 1060.21 160.983 1052.9 158.047C1045.59 155.111 1037.41 154.097 1029.41 155.136C1021.42 156.174 1013.97 159.218 1008.04 163.874C1002.1 168.53 997.956 174.584 996.13 181.254C995.284 181.181 994.434 181.145 993.583 181.147C987.073 181.233 980.863 183.477 976.287 187.396C971.711 191.315 969.134 196.596 969.11 202.105C969.085 207.614 971.616 212.912 976.158 216.859C980.699 220.807 986.89 223.089 993.399 223.217H1083.66V223.134C1091.66 222.704 1099.16 219.714 1104.64 214.772C1110.13 209.83 1113.19 203.307 1113.19 196.527Z" fill="#B3E8FF"/>
<path d="M1262.88 196.527C1262.88 192.202 1261.65 187.941 1259.27 184.111C1256.89 180.282 1253.45 176.999 1249.24 174.546C1245.03 172.093 1240.18 170.543 1235.11 170.031C1230.03 169.519 1224.88 170.06 1220.11 171.606C1216 165.706 1209.9 160.983 1202.59 158.047C1195.28 155.111 1187.1 154.097 1179.1 155.136C1171.1 156.174 1163.66 159.218 1157.72 163.874C1151.79 168.53 1147.64 174.584 1145.82 181.254C1144.97 181.181 1144.12 181.145 1143.27 181.147C1136.76 181.233 1130.55 183.477 1125.97 187.396C1121.4 191.315 1118.82 196.596 1118.8 202.105C1118.77 207.614 1121.3 212.912 1125.85 216.859C1130.39 220.807 1136.58 223.089 1143.09 223.217H1233.35V223.134C1241.34 222.704 1248.85 219.714 1254.33 214.772C1259.82 209.83 1262.87 203.307 1262.88 196.527Z" fill="#B3E8FF"/>
<path d="M398.746 187.48C398.751 183.155 397.513 178.894 395.137 175.064C392.761 171.235 389.32 167.952 385.11 165.498C380.9 163.045 376.048 161.496 370.973 160.984C365.897 160.472 360.75 161.012 355.977 162.559C351.871 156.659 345.769 151.936 338.459 149C331.149 146.064 322.967 145.05 314.968 146.088C306.97 147.127 299.524 150.171 293.591 154.827C287.658 159.482 283.51 165.536 281.685 172.207C280.839 172.134 279.989 172.098 279.138 172.1C272.628 172.186 266.418 174.43 261.842 178.349C257.265 182.268 254.688 187.549 254.664 193.058C254.64 198.567 257.171 203.864 261.712 207.812C266.254 211.759 272.444 214.042 278.953 214.169H369.216V214.087C377.212 213.657 384.714 210.667 390.199 205.725C395.684 200.783 398.74 194.26 398.746 187.48Z" fill="#B3E8FF"/>
<path d="M505.676 194.06C505.681 189.735 504.443 185.474 502.067 181.644C499.691 177.814 496.25 174.531 492.04 172.078C487.83 169.625 482.978 168.076 477.903 167.564C472.827 167.052 467.68 167.592 462.907 169.139C458.801 163.239 452.699 158.516 445.389 155.58C438.079 152.644 429.896 151.63 421.898 152.668C413.9 153.707 406.454 156.751 400.521 161.406C394.587 166.062 390.44 172.116 388.615 178.787C387.768 178.713 386.918 178.678 386.068 178.68C379.558 178.766 373.348 181.01 368.771 184.929C364.195 188.848 361.618 194.129 361.594 199.638C361.57 205.147 364.1 210.444 368.642 214.392C373.184 218.339 379.374 220.622 385.883 220.749H476.146V220.667C484.142 220.237 491.644 217.247 497.129 212.305C502.614 207.363 505.67 200.839 505.676 194.06Z" fill="#B3E8FF"/>
<path d="M621.348 194.883C621.353 190.558 620.114 186.296 617.739 182.467C615.363 178.637 611.922 175.354 607.712 172.901C603.502 170.448 598.65 168.899 593.574 168.387C588.499 167.874 583.352 168.415 578.578 169.962C574.473 164.062 568.371 159.339 561.061 156.403C553.751 153.467 545.568 152.452 537.57 153.491C529.572 154.53 522.125 157.573 516.192 162.229C510.259 166.885 506.112 172.939 504.286 179.609C503.44 179.536 502.59 179.501 501.74 179.502C495.23 179.589 489.019 181.833 484.443 185.751C479.867 189.67 477.29 194.952 477.266 200.461C477.242 205.97 479.772 211.267 484.314 215.215C488.855 219.162 495.046 221.445 501.555 221.572H591.817V221.49C599.814 221.059 607.316 218.069 612.801 213.127C618.286 208.186 621.342 201.662 621.348 194.883Z" fill="#B3E8FF"/>
<path d="M812.84 194.883C812.845 190.558 811.606 186.296 809.231 182.467C806.855 178.637 803.414 175.354 799.204 172.901C794.994 170.448 790.142 168.899 785.066 168.387C779.991 167.874 774.844 168.415 770.071 169.962C765.965 164.062 759.863 159.339 752.553 156.403C745.243 153.467 737.06 152.452 729.062 153.491C721.064 154.53 713.617 157.573 707.684 162.229C701.751 166.885 697.604 172.939 695.778 179.609C694.932 179.536 694.082 179.501 693.232 179.502C686.722 179.589 680.512 181.833 675.935 185.751C671.359 189.67 668.782 194.952 668.758 200.461C668.734 205.97 671.264 211.267 675.806 215.215C680.348 219.162 686.538 221.445 693.047 221.572H783.31V221.49C791.306 221.059 798.808 218.069 804.293 213.127C809.778 208.186 812.834 201.662 812.84 194.883Z" fill="#B3E8FF"/>
<path d="M1000.43 194.883C1000.44 190.558 999.2 186.296 996.825 182.467C994.449 178.637 991.008 175.354 986.798 172.901C982.588 170.448 977.736 168.899 972.66 168.387C967.585 167.874 962.438 168.415 957.664 169.962C953.559 164.062 947.457 159.339 940.147 156.403C932.837 153.467 924.654 152.452 916.656 153.491C908.658 154.53 901.211 157.573 895.278 162.229C889.345 166.885 885.198 172.939 883.372 179.609C882.526 179.536 881.676 179.501 880.825 179.502C874.315 179.589 868.105 181.833 863.529 185.751C858.953 189.67 856.376 194.952 856.352 200.461C856.328 205.97 858.858 211.267 863.4 215.215C867.941 219.162 874.132 221.445 880.641 221.572H970.903V221.49C978.899 221.059 986.402 218.069 991.887 213.127C997.372 208.186 1000.43 201.662 1000.43 194.883Z" fill="#B3E8FF"/>
<path d="M1183.18 194.883C1183.18 190.558 1181.94 186.296 1179.57 182.467C1177.19 178.637 1173.75 175.354 1169.54 172.901C1165.33 170.448 1160.48 168.899 1155.4 168.387C1150.33 167.874 1145.18 168.415 1140.41 169.962C1136.3 164.062 1130.2 159.339 1122.89 156.403C1115.58 153.467 1107.4 152.452 1099.4 153.491C1091.4 154.53 1083.95 157.573 1078.02 162.229C1072.09 166.885 1067.94 172.939 1066.11 179.609C1065.27 179.536 1064.42 179.501 1063.57 179.502C1057.06 179.589 1050.85 181.833 1046.27 185.751C1041.7 189.67 1039.12 194.952 1039.09 200.461C1039.07 205.97 1041.6 211.267 1046.14 215.215C1050.68 219.162 1056.87 221.445 1063.38 221.572H1153.65V221.49C1161.64 221.059 1169.14 218.069 1174.63 213.127C1180.11 208.186 1183.17 201.662 1183.18 194.883Z" fill="#B3E8FF"/>
<path d="M1332.86 194.883C1332.87 190.558 1331.63 186.296 1329.25 182.467C1326.88 178.637 1323.44 175.354 1319.23 172.901C1315.02 170.448 1310.17 168.899 1305.09 168.387C1300.01 167.874 1294.87 168.415 1290.09 169.962C1285.99 164.062 1279.89 159.339 1272.58 156.403C1265.27 153.467 1257.08 152.452 1249.09 153.491C1241.09 154.53 1233.64 157.573 1227.71 162.229C1221.77 166.885 1217.63 172.939 1215.8 179.609C1214.96 179.536 1214.11 179.501 1213.26 179.502C1206.75 179.589 1200.53 181.833 1195.96 185.751C1191.38 189.67 1188.81 194.952 1188.78 200.461C1188.76 205.97 1191.29 211.267 1195.83 215.215C1200.37 219.162 1206.56 221.445 1213.07 221.572H1303.33V221.49C1311.33 221.059 1318.83 218.069 1324.32 213.127C1329.8 208.186 1332.86 201.662 1332.86 194.883Z" fill="#B3E8FF"/>
<path d="M358.895 233.539C358.9 229.214 357.661 224.952 355.286 221.123C352.91 217.293 349.469 214.01 345.259 211.557C341.049 209.104 336.197 207.555 331.121 207.043C326.045 206.53 320.899 207.071 316.125 208.618C312.02 202.718 305.918 197.995 298.608 195.059C291.298 192.123 283.115 191.108 275.117 192.147C267.119 193.186 259.672 196.229 253.739 200.885C247.806 205.541 243.659 211.595 241.833 218.265C240.987 218.192 240.137 218.157 239.286 218.158C232.776 218.245 226.566 220.489 221.99 224.407C217.414 228.326 214.837 233.608 214.813 239.117C214.788 244.626 217.319 249.923 221.861 253.871C226.402 257.818 232.593 260.101 239.102 260.228H329.364V260.146C337.36 259.715 344.863 256.725 350.348 251.783C355.833 246.842 358.889 240.318 358.895 233.539Z" fill="#B3E8FF"/>
<path d="M465.824 240.119C465.829 235.793 464.591 231.532 462.215 227.703C459.84 223.873 456.398 220.59 452.188 218.137C447.979 215.684 443.126 214.134 438.051 213.622C432.975 213.11 427.829 213.651 423.055 215.198C418.949 209.298 412.847 204.574 405.537 201.638C398.227 198.702 390.045 197.688 382.046 198.727C374.048 199.766 366.602 202.809 360.669 207.465C354.736 212.121 350.588 218.175 348.763 224.845C347.917 224.772 347.067 224.736 346.216 224.738C339.706 224.825 333.496 227.068 328.92 230.987C324.344 234.906 321.767 240.187 321.742 245.696C321.718 251.206 324.249 256.503 328.79 260.45C333.332 264.398 339.522 266.68 346.031 266.808H436.294V266.726C444.29 266.295 451.793 263.305 457.277 258.363C462.762 253.421 465.818 246.898 465.824 240.119Z" fill="#B3E8FF"/>
<path d="M657.309 240.119C657.314 235.793 656.075 231.532 653.7 227.703C651.324 223.873 647.883 220.59 643.673 218.137C639.463 215.684 634.611 214.134 629.535 213.622C624.46 213.11 619.313 213.651 614.539 215.198C610.434 209.298 604.332 204.574 597.022 201.638C589.712 198.702 581.529 197.688 573.531 198.727C565.533 199.766 558.086 202.809 552.153 207.465C546.22 212.121 542.073 218.175 540.247 224.845C539.401 224.772 538.551 224.736 537.7 224.738C531.19 224.825 524.98 227.068 520.404 230.987C515.828 234.906 513.251 240.187 513.227 245.696C513.203 251.206 515.733 256.503 520.275 260.45C524.816 264.398 531.007 266.68 537.516 266.808H627.778V266.726C635.774 266.295 643.277 263.305 648.762 258.363C654.247 253.421 657.303 246.898 657.309 240.119Z" fill="#B3E8FF"/>
<path d="M844.91 240.119C844.915 235.793 843.677 231.532 841.301 227.703C838.926 223.873 835.484 220.59 831.274 218.137C827.064 215.684 822.212 214.134 817.137 213.622C812.061 213.11 806.914 213.651 802.141 215.198C798.035 209.298 791.933 204.574 784.623 201.638C777.313 198.702 769.131 197.688 761.132 198.727C753.134 199.766 745.688 202.809 739.755 207.465C733.822 212.121 729.674 218.175 727.849 224.845C727.003 224.772 726.153 224.736 725.302 224.738C718.792 224.825 712.582 227.068 708.006 230.987C703.429 234.906 700.852 240.187 700.828 245.696C700.804 251.206 703.335 256.503 707.876 260.45C712.418 264.398 718.608 266.68 725.117 266.808H815.38V266.726C823.376 266.295 830.878 263.305 836.363 258.363C841.848 253.421 844.904 246.898 844.91 240.119Z" fill="#B3E8FF"/>
<path d="M1027.65 240.119C1027.66 235.793 1026.42 231.532 1024.04 227.703C1021.67 223.873 1018.23 220.59 1014.02 218.137C1009.81 215.684 1004.95 214.134 999.879 213.622C994.803 213.11 989.657 213.651 984.883 215.198C980.777 209.298 974.676 204.574 967.365 201.638C960.055 198.702 951.873 197.688 943.875 198.727C935.876 199.766 928.43 202.809 922.497 207.465C916.564 212.121 912.417 218.175 910.591 224.845C909.745 224.772 908.895 224.736 908.044 224.738C901.534 224.825 895.324 227.068 890.748 230.987C886.172 234.906 883.595 240.187 883.57 245.696C883.546 251.206 886.077 256.503 890.618 260.45C895.16 264.398 901.35 266.68 907.86 266.808H998.122V266.726C1006.12 266.295 1013.62 263.305 1019.11 258.363C1024.59 253.421 1027.65 246.898 1027.65 240.119Z" fill="#B3E8FF"/>
<path d="M1177.35 240.119C1177.35 235.793 1176.11 231.532 1173.74 227.703C1171.36 223.873 1167.92 220.59 1163.71 218.137C1159.5 215.684 1154.65 214.134 1149.57 213.622C1144.5 213.11 1139.35 213.651 1134.58 215.198C1130.47 209.298 1124.37 204.574 1117.06 201.638C1109.75 198.702 1101.57 197.688 1093.57 198.727C1085.57 199.766 1078.13 202.809 1072.19 207.465C1066.26 212.121 1062.11 218.175 1060.29 224.845C1059.44 224.772 1058.59 224.736 1057.74 224.738C1051.23 224.825 1045.02 227.068 1040.44 230.987C1035.87 234.906 1033.29 240.187 1033.27 245.696C1033.24 251.206 1035.77 256.503 1040.31 260.45C1044.86 264.398 1051.05 266.68 1057.55 266.808H1147.82V266.726C1155.81 266.295 1163.32 263.305 1168.8 258.363C1174.29 253.421 1177.34 246.898 1177.35 240.119Z" fill="#B3E8FF"/>
<path d="M581.488 240.941C581.494 236.616 580.255 232.355 577.879 228.525C575.504 224.696 572.062 221.413 567.853 218.96C563.643 216.507 558.79 214.957 553.715 214.445C548.639 213.933 543.493 214.474 538.719 216.02C534.613 210.12 528.511 205.397 521.201 202.461C513.891 199.525 505.709 198.511 497.711 199.55C489.712 200.588 482.266 203.632 476.333 208.288C470.4 212.944 466.253 218.998 464.427 225.668C463.581 225.595 462.731 225.559 461.88 225.561C455.37 225.648 449.16 227.891 444.584 231.81C440.008 235.729 437.431 241.01 437.406 246.519C437.382 252.028 439.913 257.326 444.454 261.273C448.996 265.221 455.186 267.503 461.695 267.631H551.958V267.548C559.954 267.118 567.457 264.128 572.941 259.186C578.426 254.244 581.482 247.721 581.488 240.941Z" fill="#B3E8FF"/>
<path d="M772.98 240.941C772.986 236.616 771.747 232.355 769.371 228.525C766.996 224.696 763.555 221.413 759.345 218.96C755.135 216.507 750.283 214.957 745.207 214.445C740.131 213.933 734.985 214.474 730.211 216.02C726.106 210.12 720.004 205.397 712.694 202.461C705.383 199.525 697.201 198.511 689.203 199.55C681.205 200.588 673.758 203.632 667.825 208.288C661.892 212.944 657.745 218.998 655.919 225.668C655.073 225.595 654.223 225.559 653.372 225.561C646.862 225.648 640.652 227.891 636.076 231.81C631.5 235.729 628.923 241.01 628.899 246.519C628.874 252.028 631.405 257.326 635.947 261.273C640.488 265.221 646.679 267.503 653.188 267.631H743.45V267.548C751.446 267.118 758.949 264.128 764.434 259.186C769.919 254.244 772.974 247.721 772.98 240.941Z" fill="#B3E8FF"/>
<path d="M960.582 240.941C960.587 236.616 959.349 232.355 956.973 228.525C954.597 224.696 951.156 221.413 946.946 218.96C942.736 216.507 937.884 214.957 932.809 214.445C927.733 213.933 922.586 214.474 917.813 216.02C913.707 210.12 907.605 205.397 900.295 202.461C892.985 199.525 884.802 198.511 876.804 199.55C868.806 200.588 861.36 203.632 855.427 208.288C849.493 212.944 845.346 218.998 843.521 225.668C842.675 225.595 841.824 225.559 840.974 225.561C834.464 225.648 828.254 227.891 823.678 231.81C819.101 235.729 816.524 241.01 816.5 246.519C816.476 252.028 819.007 257.326 823.548 261.273C828.09 265.221 834.28 267.503 840.789 267.631H931.052V267.548C939.048 267.118 946.55 264.128 952.035 259.186C957.52 254.244 960.576 247.721 960.582 240.941Z" fill="#B3E8FF"/>
<path d="M1143.32 240.941C1143.33 236.616 1142.09 232.355 1139.72 228.525C1137.34 224.696 1133.9 221.413 1129.69 218.96C1125.48 216.507 1120.63 214.957 1115.55 214.445C1110.48 213.933 1105.33 214.474 1100.56 216.02C1096.45 210.12 1090.35 205.397 1083.04 202.461C1075.73 199.525 1067.54 198.511 1059.55 199.55C1051.55 200.588 1044.1 203.632 1038.17 208.288C1032.24 212.944 1028.09 218.998 1026.26 225.668C1025.42 225.595 1024.57 225.559 1023.72 225.561C1017.21 225.648 1011 227.891 1006.42 231.81C1001.84 235.729 999.267 241.01 999.242 246.519C999.218 252.028 1001.75 257.326 1006.29 261.273C1010.83 265.221 1017.02 267.503 1023.53 267.631H1113.79V267.548C1121.79 267.118 1129.29 264.128 1134.78 259.186C1140.26 254.244 1143.32 247.721 1143.32 240.941Z" fill="#B3E8FF"/>
<path d="M1293.01 240.941C1293.02 236.616 1291.78 232.355 1289.4 228.525C1287.03 224.696 1283.59 221.413 1279.38 218.96C1275.17 216.507 1270.31 214.957 1265.24 214.445C1260.16 213.933 1255.02 214.474 1250.24 216.02C1246.14 210.12 1240.03 205.397 1232.72 202.461C1225.41 199.525 1217.23 198.511 1209.23 199.55C1201.24 200.588 1193.79 203.632 1187.86 208.288C1181.92 212.944 1177.78 218.998 1175.95 225.668C1175.1 225.595 1174.25 225.559 1173.4 225.561C1166.89 225.648 1160.68 227.891 1156.11 231.81C1151.53 235.729 1148.95 241.01 1148.93 246.519C1148.91 252.028 1151.44 257.326 1155.98 261.273C1160.52 265.221 1166.71 267.503 1173.22 267.631H1263.48V267.548C1271.48 267.118 1278.98 264.128 1284.46 259.186C1289.95 254.244 1293.01 247.721 1293.01 240.941Z" fill="#B3E8FF"/>
<path d="M205.316 240.119C205.322 235.793 204.083 231.532 201.707 227.703C199.332 223.873 195.891 220.59 191.681 218.137C187.471 215.684 182.619 214.134 177.543 213.622C172.467 213.11 167.321 213.651 162.547 215.198C158.442 209.298 152.34 204.574 145.029 201.638C137.719 198.702 129.537 197.688 121.539 198.727C113.54 199.766 106.094 202.809 100.161 207.465C94.2279 212.121 90.0807 218.175 88.255 224.845C87.4089 224.772 86.5588 224.736 85.7083 224.738C79.1983 224.825 72.9881 227.068 68.4119 230.987C63.8357 234.906 61.2587 240.187 61.2345 245.696C61.2104 251.206 63.7409 256.503 68.2825 260.45C72.8242 264.398 79.0145 266.68 85.5236 266.808H175.786V266.726C183.782 266.295 191.285 263.305 196.77 258.363C202.254 253.421 205.31 246.898 205.316 240.119Z" fill="#B3E8FF"/>
<path d="M162.543 233.539C162.548 229.214 161.31 224.952 158.934 221.123C156.558 217.293 153.117 214.01 148.907 211.557C144.697 209.104 139.845 207.555 134.77 207.043C129.694 206.53 124.547 207.071 119.774 208.618C115.668 202.718 109.566 197.995 102.256 195.059C94.946 192.123 86.7634 191.108 78.7652 192.147C70.7671 193.186 63.3206 196.229 57.3875 200.885C51.4544 205.541 47.3072 211.595 45.4816 218.265C44.6355 218.192 43.7854 218.157 42.9349 218.158C36.4248 218.245 30.2147 220.489 25.6385 224.407C21.0623 228.326 18.4853 233.608 18.4611 239.117C18.4369 244.626 20.9674 249.923 25.5091 253.871C30.0507 257.818 36.2411 260.101 42.7502 260.228H133.013V260.146C141.009 259.715 148.511 256.725 153.996 251.783C159.481 246.842 162.537 240.318 162.543 233.539Z" fill="#B3E8FF"/>
<path d="M209.207 262.326C209.212 258 207.974 253.739 205.598 249.91C203.222 246.08 199.781 242.797 195.571 240.344C191.361 237.891 186.509 236.341 181.434 235.829C176.358 235.317 171.211 235.858 166.438 237.405C162.332 231.505 156.23 226.781 148.92 223.845C141.61 220.909 133.427 219.895 125.429 220.934C117.431 221.973 109.985 225.016 104.052 229.672C98.1185 234.328 93.9713 240.382 92.1456 247.052C91.2995 246.979 90.4495 246.943 89.5989 246.945C83.0889 247.032 76.8787 249.276 72.3025 253.194C67.7264 257.113 65.1494 262.394 65.1252 267.903C65.101 273.413 67.6315 278.71 72.1731 282.657C76.7148 286.605 82.9051 288.888 89.4142 289.015H179.677V288.933C187.673 288.502 195.175 285.512 200.66 280.57C206.145 275.628 209.201 269.105 209.207 262.326Z" fill="#B3E8FF"/>
<path d="M162.313 278.87C163.566 283.064 166.005 286.936 169.422 290.153C172.838 293.371 177.128 295.836 181.922 297.337C186.716 298.839 191.869 299.33 196.938 298.77C202.006 298.21 206.837 296.614 211.014 294.121C216.709 298.985 223.997 302.293 231.936 303.616C239.875 304.94 248.101 304.22 255.552 301.548C263.002 298.876 269.334 294.376 273.731 288.628C278.128 282.88 280.387 276.148 280.217 269.303C281.059 269.198 281.893 269.055 282.717 268.877C289.001 267.437 294.368 263.97 297.664 259.219C300.96 254.468 301.922 248.812 300.344 243.467C298.765 238.123 294.772 233.515 289.222 230.634C283.672 227.754 277.008 226.83 270.662 228.062L183.175 246.854L183.199 246.933C175.574 249.015 169.171 253.475 165.292 259.407C161.413 265.339 160.348 272.298 162.313 278.87Z" fill="#B3E8FF"/>
<path d="M251.735 275.58C252.988 279.774 255.427 283.646 258.843 286.863C262.26 290.081 266.55 292.546 271.344 294.047C276.137 295.549 281.291 296.04 286.359 295.48C291.428 294.92 296.259 293.324 300.436 290.831C306.131 295.695 313.419 299.002 321.358 300.326C329.297 301.65 337.523 300.93 344.973 298.258C352.424 295.586 358.756 291.086 363.153 285.338C367.55 279.59 369.809 272.858 369.639 266.013C370.48 265.908 371.315 265.765 372.139 265.587C378.423 264.147 383.79 260.68 387.086 255.929C390.382 251.178 391.344 245.522 389.766 240.177C388.187 234.833 384.194 230.225 378.644 227.344C373.094 224.464 366.43 223.54 360.084 224.772L272.597 243.564L272.62 243.643C264.995 245.725 258.593 250.185 254.714 256.117C250.835 262.049 249.77 269.008 251.735 275.58Z" fill="#B3E8FF"/>
<path d="M337.274 284.628C338.527 288.821 340.966 292.693 344.383 295.91C347.799 299.128 352.089 301.593 356.883 303.095C361.676 304.596 366.83 305.087 371.898 304.527C376.967 303.967 381.798 302.371 385.975 299.878C391.67 304.742 398.958 308.05 406.897 309.374C414.836 310.697 423.062 309.977 430.512 307.305C437.963 304.633 444.295 300.133 448.692 294.385C453.089 288.637 455.348 281.906 455.178 275.06C456.019 274.955 456.854 274.813 457.678 274.634C463.962 273.194 469.329 269.727 472.625 264.976C475.921 260.225 476.883 254.569 475.305 249.225C473.726 243.88 469.733 239.272 464.183 236.392C458.633 233.511 451.969 232.587 445.623 233.819L358.136 252.611L358.16 252.69C350.534 254.772 344.132 259.232 340.253 265.164C336.374 271.096 335.309 278.055 337.274 284.628Z" fill="#B3E8FF"/>
<path d="M429.618 287.096C430.87 291.289 433.31 295.161 436.726 298.378C440.142 301.596 444.433 304.061 449.226 305.563C454.02 307.064 459.174 307.555 464.242 306.995C469.311 306.435 474.142 304.839 478.319 302.346C484.014 307.21 491.302 310.518 499.241 311.842C507.18 313.165 515.406 312.445 522.856 309.773C530.306 307.101 536.639 302.601 541.036 296.853C545.433 291.105 547.692 284.374 547.522 277.528C548.363 277.423 549.198 277.281 550.021 277.102C556.306 275.662 561.673 272.195 564.969 267.444C568.265 262.693 569.227 257.037 567.648 251.693C566.07 246.348 562.077 241.74 556.527 238.86C550.977 235.979 544.313 235.055 537.967 236.287L450.479 255.079L450.503 255.158C442.878 257.24 436.476 261.7 432.597 267.632C428.717 273.564 427.652 280.523 429.618 287.096Z" fill="#B3E8FF"/>
<path d="M528.766 298.61C530.019 302.803 532.459 306.676 535.875 309.893C539.291 313.11 543.581 315.576 548.375 317.077C553.169 318.578 558.322 319.07 563.391 318.509C568.459 317.949 573.29 316.354 577.467 313.861C583.162 318.725 590.45 322.032 598.389 323.356C606.328 324.68 614.554 323.959 622.005 321.287C629.455 318.616 635.787 314.115 640.184 308.367C644.581 302.619 646.84 295.888 646.67 289.043C647.512 288.937 648.346 288.795 649.17 288.616C655.455 287.177 660.821 283.709 664.117 278.958C667.413 274.207 668.375 268.552 666.797 263.207C665.218 257.862 661.225 253.255 655.675 250.374C650.125 247.493 643.462 246.57 637.116 247.801L549.628 266.593L549.652 266.673C542.027 268.755 535.624 273.215 531.745 279.147C527.866 285.079 526.801 292.038 528.766 298.61Z" fill="#B3E8FF"/>
<path d="M636.657 280.516C637.91 284.709 640.349 288.581 643.765 291.799C647.182 295.016 651.472 297.482 656.265 298.983C661.059 300.484 666.213 300.976 671.281 300.415C676.35 299.855 681.181 298.259 685.358 295.766C691.053 300.63 698.341 303.938 706.28 305.262C714.219 306.586 722.445 305.865 729.895 303.193C737.346 300.521 743.678 296.021 748.075 290.273C752.472 284.525 754.731 277.794 754.561 270.948C755.402 270.843 756.237 270.701 757.06 270.522C763.345 269.083 768.712 265.615 772.008 260.864C775.304 256.113 776.266 250.457 774.687 245.113C773.109 239.768 769.116 235.16 763.566 232.28C758.016 229.399 751.352 228.475 745.006 229.707L657.518 248.499L657.542 248.579C649.917 250.661 643.515 255.121 639.636 261.052C635.756 266.984 634.691 273.943 636.657 280.516Z" fill="#B3E8FF"/>
<path d="M714.423 305.19C715.675 309.383 718.115 313.256 721.531 316.473C724.947 319.69 729.237 322.156 734.031 323.657C738.825 325.158 743.978 325.65 749.047 325.09C754.115 324.529 758.947 322.934 763.124 320.441C768.819 325.305 776.106 328.612 784.046 329.936C791.985 331.26 800.211 330.539 807.661 327.867C815.111 325.196 821.444 320.695 825.84 314.947C830.237 309.199 832.497 302.468 832.327 295.623C833.168 295.517 834.002 295.375 834.826 295.196C841.111 293.757 846.478 290.289 849.774 285.538C853.07 280.787 854.032 275.132 852.453 269.787C850.875 264.442 846.881 259.835 841.332 256.954C835.782 254.073 829.118 253.15 822.772 254.381L735.284 273.173L735.308 273.253C727.683 275.335 721.281 279.795 717.401 285.727C713.522 291.659 712.457 298.618 714.423 305.19Z" fill="#B3E8FF"/>
<path d="M817.462 284.628C818.714 288.821 821.154 292.693 824.57 295.91C827.986 299.128 832.276 301.593 837.07 303.095C841.864 304.596 847.017 305.087 852.086 304.527C857.154 303.967 861.986 302.371 866.163 299.878C871.858 304.742 879.146 308.05 887.085 309.374C895.024 310.697 903.25 309.977 910.7 307.305C918.15 304.633 924.483 300.133 928.88 294.385C933.276 288.637 935.536 281.906 935.366 275.06C936.207 274.955 937.041 274.813 937.865 274.634C944.15 273.194 949.517 269.727 952.813 264.976C956.109 260.225 957.071 254.569 955.492 249.225C953.914 243.88 949.92 239.272 944.371 236.392C938.821 233.511 932.157 232.587 925.811 233.819L838.323 252.611L838.347 252.69C830.722 254.772 824.32 259.232 820.44 265.164C816.561 271.096 815.496 278.055 817.462 284.628Z" fill="#B3E8FF"/>
<path d="M890.352 293.675C891.605 297.869 894.044 301.741 897.461 304.958C900.877 308.176 905.167 310.641 909.961 312.142C914.755 313.644 919.908 314.135 924.977 313.575C930.045 313.015 934.876 311.419 939.053 308.926C944.748 313.79 952.036 317.097 959.975 318.421C967.914 319.745 976.14 319.025 983.591 316.353C991.041 313.681 997.373 309.18 1001.77 303.433C1006.17 297.685 1008.43 290.953 1008.26 284.108C1009.1 284.003 1009.93 283.86 1010.76 283.681C1017.04 282.242 1022.41 278.775 1025.7 274.024C1029 269.273 1029.96 263.617 1028.38 258.272C1026.8 252.928 1022.81 248.32 1017.26 245.439C1011.71 242.559 1005.05 241.635 998.701 242.867L911.214 261.659L911.238 261.738C903.613 263.82 897.21 268.28 893.331 274.212C889.452 280.144 888.387 287.103 890.352 293.675Z" fill="#B3E8FF"/>
<path d="M997.282 292.853C998.535 297.046 1000.97 300.918 1004.39 304.136C1007.81 307.353 1012.1 309.818 1016.89 311.32C1021.68 312.821 1026.84 313.312 1031.91 312.752C1036.97 312.192 1041.81 310.596 1045.98 308.103C1051.68 312.967 1058.97 316.275 1066.9 317.599C1074.84 318.922 1083.07 318.202 1090.52 315.53C1097.97 312.858 1104.3 308.358 1108.7 302.61C1113.1 296.862 1115.36 290.131 1115.19 283.285C1116.03 283.18 1116.86 283.038 1117.69 282.859C1123.97 281.42 1129.34 277.952 1132.63 273.201C1135.93 268.45 1136.89 262.794 1135.31 257.45C1133.73 252.105 1129.74 247.497 1124.19 244.617C1118.64 241.736 1111.98 240.812 1105.63 242.044L1018.14 260.836L1018.17 260.916C1010.54 262.998 1004.14 267.457 1000.26 273.389C996.381 279.321 995.316 286.28 997.282 292.853Z" fill="#B3E8FF"/>
<path d="M1051.71 292.853C1052.96 297.046 1055.4 300.918 1058.82 304.136C1062.24 307.353 1066.53 309.818 1071.32 311.32C1076.11 312.821 1081.27 313.312 1086.34 312.752C1091.4 312.192 1096.24 310.596 1100.41 308.103C1106.11 312.967 1113.4 316.275 1121.33 317.599C1129.27 318.922 1137.5 318.202 1144.95 315.53C1152.4 312.858 1158.73 308.358 1163.13 302.61C1167.53 296.862 1169.79 290.131 1169.62 283.285C1170.46 283.18 1171.29 283.038 1172.12 282.859C1178.4 281.42 1183.77 277.952 1187.06 273.201C1190.36 268.45 1191.32 262.794 1189.74 257.45C1188.16 252.105 1184.17 247.497 1178.62 244.617C1173.07 241.736 1166.41 240.812 1160.06 242.044L1072.57 260.836L1072.6 260.916C1064.97 262.998 1058.57 267.457 1054.69 273.389C1050.81 279.321 1049.75 286.28 1051.71 292.853Z" fill="#B3E8FF"/>
<path d="M1129.48 294.497C1130.73 298.691 1133.17 302.563 1136.59 305.78C1140 308.998 1144.29 311.463 1149.09 312.964C1153.88 314.466 1159.03 314.957 1164.1 314.397C1169.17 313.837 1174 312.241 1178.18 309.748C1183.87 314.612 1191.16 317.919 1199.1 319.243C1207.04 320.567 1215.27 319.847 1222.72 317.175C1230.17 314.503 1236.5 310.002 1240.9 304.255C1245.29 298.507 1247.55 291.775 1247.38 284.93C1248.22 284.825 1249.06 284.682 1249.88 284.504C1256.17 283.064 1261.53 279.597 1264.83 274.846C1268.12 270.095 1269.09 264.439 1267.51 259.094C1265.93 253.75 1261.94 249.142 1256.39 246.261C1250.84 243.381 1244.17 242.457 1237.83 243.689L1150.34 262.481L1150.36 262.56C1142.74 264.642 1136.34 269.102 1132.46 275.034C1128.58 280.966 1127.51 287.925 1129.48 294.497Z" fill="#B3E8FF"/>
<path d="M1242.24 294.497C1243.49 298.691 1245.93 302.563 1249.34 305.78C1252.76 308.998 1257.05 311.463 1261.84 312.964C1266.64 314.466 1271.79 314.957 1276.86 314.397C1281.93 313.837 1286.76 312.241 1290.94 309.748C1296.63 314.612 1303.92 317.919 1311.86 319.243C1319.8 320.567 1328.02 319.847 1335.47 317.175C1342.92 314.503 1349.26 310.002 1353.65 304.255C1358.05 298.507 1360.31 291.775 1360.14 284.93C1360.98 284.825 1361.81 284.682 1362.64 284.504C1368.92 283.064 1374.29 279.597 1377.59 274.846C1380.88 270.095 1381.84 264.439 1380.27 259.094C1378.69 253.75 1374.69 249.142 1369.14 246.261C1363.59 243.381 1356.93 242.457 1350.58 243.689L1263.1 262.481L1263.12 262.56C1255.5 264.642 1249.09 269.102 1245.21 275.034C1241.33 280.966 1240.27 287.925 1242.24 294.497Z" fill="#B3E8FF"/>
<path d="M1311.25 303.545C1312.5 307.738 1314.94 311.61 1318.36 314.828C1321.78 318.045 1326.07 320.511 1330.86 322.012C1335.65 323.513 1340.81 324.005 1345.88 323.444C1350.94 322.884 1355.77 321.288 1359.95 318.795C1365.65 323.659 1372.93 326.967 1380.87 328.291C1388.81 329.615 1397.04 328.894 1404.49 326.222C1411.94 323.55 1418.27 319.05 1422.67 313.302C1427.07 307.554 1429.32 300.823 1429.15 293.977C1430 293.872 1430.83 293.73 1431.65 293.551C1437.94 292.112 1443.31 288.644 1446.6 283.893C1449.9 279.142 1450.86 273.487 1449.28 268.142C1447.7 262.797 1443.71 258.189 1438.16 255.309C1432.61 252.428 1425.95 251.504 1419.6 252.736L1332.11 271.528L1332.14 271.608C1324.51 273.69 1318.11 278.15 1314.23 284.082C1310.35 290.013 1309.29 296.972 1311.25 303.545Z" fill="#B3E8FF"/>
<path d="M281.129 237.651C281.134 233.326 279.896 229.065 277.52 225.235C275.144 221.406 271.703 218.123 267.493 215.67C263.283 213.217 258.431 211.667 253.355 211.155C248.28 210.643 243.133 211.184 238.36 212.73C234.254 206.83 228.152 202.107 220.842 199.171C213.532 196.235 205.349 195.221 197.351 196.26C189.353 197.298 181.907 200.342 175.973 204.998C170.04 209.654 165.893 215.708 164.068 222.378C163.221 222.305 162.371 222.269 161.521 222.271C155.011 222.358 148.801 224.601 144.224 228.52C139.648 232.439 137.071 237.72 137.047 243.229C137.023 248.738 139.553 254.036 144.095 257.983C148.637 261.931 154.827 264.213 161.336 264.341H251.599V264.258C259.595 263.828 267.097 260.838 272.582 255.896C278.067 250.954 281.123 244.431 281.129 237.651Z" fill="#B3E8FF"/>
<path d="M315.16 79.736C315.165 75.4109 313.927 71.1497 311.551 67.32C309.176 63.4904 305.734 60.2074 301.524 57.7543C297.314 55.3013 292.462 53.7519 287.387 53.2398C282.311 52.7277 277.164 53.2683 272.391 54.815C268.285 48.9149 262.183 44.1919 254.873 41.2559C247.563 38.3198 239.381 37.3056 231.382 38.3443C223.384 39.3829 215.938 42.4267 210.005 47.0825C204.072 51.7383 199.924 57.7923 198.099 64.4626C197.253 64.3895 196.403 64.3538 195.552 64.3557C189.042 64.4422 182.832 66.6859 178.256 70.6047C173.679 74.5236 171.102 79.8048 171.078 85.3139C171.054 90.823 173.585 96.1203 178.126 100.068C182.668 104.015 188.858 106.298 195.367 106.425H285.63V106.343C293.626 105.913 301.128 102.923 306.613 97.9807C312.098 93.0388 315.154 86.5155 315.16 79.736Z" fill="#B3E8FF"/>
<path d="M386.113 66.5761C386.119 62.251 384.88 57.9897 382.504 54.1601C380.129 50.3305 376.687 47.0475 372.478 44.5944C368.268 42.1414 363.415 40.592 358.34 40.0799C353.264 39.5678 348.118 40.1084 343.344 41.6551C339.238 35.755 333.136 31.032 325.826 28.0959C318.516 25.1599 310.334 24.1457 302.336 25.1844C294.337 26.223 286.891 29.2668 280.958 33.9226C275.025 38.5784 270.878 44.6324 269.052 51.3027C268.206 51.2296 267.356 51.1939 266.505 51.1958C259.995 51.2823 253.785 53.526 249.209 57.4448C244.633 61.3636 242.056 66.6449 242.031 72.154C242.007 77.6631 244.538 82.9604 249.079 86.9079C253.621 90.8553 259.811 93.138 266.32 93.2654H356.583V93.1832C364.579 92.7527 372.082 89.7628 377.566 84.8208C383.051 79.8789 386.107 73.3556 386.113 66.5761Z" fill="#B3E8FF"/>
<path d="M426.941 93.7177C426.947 89.3926 425.708 85.1313 423.332 81.3017C420.957 77.4721 417.516 74.1891 413.306 71.736C409.096 69.283 404.244 67.7336 399.168 67.2215C394.092 66.7094 388.946 67.25 384.172 68.7967C380.067 62.8966 373.965 58.1736 366.654 55.2375C359.344 52.3015 351.162 51.2873 343.164 52.326C335.165 53.3646 327.719 56.4084 321.786 61.0642C315.853 65.72 311.706 71.774 309.88 78.4443C309.034 78.3712 308.184 78.3355 307.333 78.3374C300.823 78.4239 294.613 80.6676 290.037 84.5864C285.461 88.5052 282.884 93.7865 282.86 99.2956C282.835 104.805 285.366 110.102 289.908 114.049C294.449 117.997 300.64 120.28 307.149 120.407H397.411V120.325C405.407 119.894 412.91 116.904 418.395 111.962C423.879 107.02 426.935 100.497 426.941 93.7177Z" fill="#B3E8FF"/>
<path d="M533.863 100.298C533.869 95.9727 532.63 91.7114 530.254 87.8818C527.879 84.0522 524.437 80.7692 520.228 78.3161C516.018 75.8631 511.165 74.3136 506.09 73.8015C501.014 73.2895 495.868 73.8301 491.094 75.3768C486.988 69.4767 480.886 64.7537 473.576 61.8176C466.266 58.8816 458.084 57.8674 450.086 58.906C442.087 59.9447 434.641 62.9885 428.708 67.6443C422.775 72.3001 418.628 78.3541 416.802 85.0244C415.956 84.9513 415.106 84.9156 414.255 84.9175C407.745 85.004 401.535 87.2477 396.959 91.1665C392.383 95.0853 389.806 100.367 389.781 105.876C389.757 111.385 392.288 116.682 396.829 120.63C401.371 124.577 407.561 126.86 414.07 126.987H504.333V126.905C512.329 126.474 519.832 123.484 525.316 118.543C530.801 113.601 533.857 107.077 533.863 100.298Z" fill="#B3E8FF"/>
<path d="M649.535 101.12C649.54 96.7952 648.302 92.5339 645.926 88.7043C643.551 84.8747 640.109 81.5917 635.899 79.1386C631.689 76.6856 626.837 75.1361 621.762 74.6241C616.686 74.112 611.539 74.6526 606.766 76.1993C602.66 70.2992 596.558 65.5762 589.248 62.6401C581.938 59.7041 573.756 58.6899 565.757 59.7286C557.759 60.7672 550.313 63.811 544.38 68.4668C538.447 73.1226 534.299 79.1766 532.474 85.8469C531.628 85.7738 530.778 85.7381 529.927 85.74C523.417 85.8265 517.207 88.0702 512.631 91.989C508.054 95.9078 505.477 101.189 505.453 106.698C505.429 112.207 507.96 117.505 512.501 121.452C517.043 125.4 523.233 127.682 529.742 127.81H620.005V127.727C628.001 127.297 635.503 124.307 640.988 119.365C646.473 114.423 649.529 107.9 649.535 101.12Z" fill="#B3E8FF"/>
<path d="M841.027 101.12C841.033 96.7952 839.794 92.5339 837.418 88.7043C835.043 84.8747 831.601 81.5917 827.392 79.1386C823.182 76.6856 818.33 75.1361 813.254 74.6241C808.178 74.112 803.032 74.6526 798.258 76.1993C794.152 70.2992 788.051 65.5762 780.74 62.6401C773.43 59.7041 765.248 58.6899 757.25 59.7286C749.251 60.7672 741.805 63.811 735.872 68.4668C729.939 73.1226 725.792 79.1766 723.966 85.8469C723.12 85.7738 722.27 85.7381 721.419 85.74C714.909 85.8265 708.699 88.0702 704.123 91.989C699.547 95.9078 696.97 101.189 696.945 106.698C696.921 112.207 699.452 117.505 703.993 121.452C708.535 125.4 714.725 127.682 721.235 127.81H811.497V127.727C819.493 127.297 826.996 124.307 832.481 119.365C837.965 114.423 841.021 107.9 841.027 101.12Z" fill="#B3E8FF"/>
<path d="M1028.62 101.12C1028.63 96.7952 1027.39 92.5339 1025.01 88.7043C1022.64 84.8747 1019.2 81.5917 1014.99 79.1386C1010.78 76.6856 1005.92 75.1361 1000.85 74.6241C995.772 74.112 990.625 74.6526 985.852 76.1993C981.746 70.2992 975.644 65.5762 968.334 62.6401C961.024 59.7041 952.842 58.6899 944.843 59.7286C936.845 60.7672 929.399 63.811 923.466 68.4668C917.533 73.1226 913.385 79.1766 911.56 85.8469C910.714 85.7738 909.864 85.7381 909.013 85.74C902.503 85.8265 896.293 88.0702 891.717 91.989C887.14 95.9078 884.563 101.189 884.539 106.698C884.515 112.207 887.046 117.505 891.587 121.452C896.129 125.4 902.319 127.682 908.828 127.81H999.091V127.727C1007.09 127.297 1014.59 124.307 1020.07 119.365C1025.56 114.423 1028.62 107.9 1028.62 101.12Z" fill="#B3E8FF"/>
<path d="M1211.37 101.12C1211.38 96.7952 1210.14 92.5339 1207.76 88.7043C1205.39 84.8747 1201.95 81.5917 1197.74 79.1386C1193.53 76.6856 1188.67 75.1361 1183.6 74.6241C1178.52 74.112 1173.38 74.6526 1168.6 76.1993C1164.5 70.2992 1158.39 65.5762 1151.08 62.6401C1143.77 59.7041 1135.59 58.6899 1127.59 59.7286C1119.6 60.7672 1112.15 63.811 1106.22 68.4668C1100.28 73.1226 1096.14 79.1766 1094.31 85.8469C1093.46 85.7738 1092.61 85.7381 1091.76 85.74C1085.25 85.8265 1079.04 88.0702 1074.47 91.989C1069.89 95.9078 1067.31 101.189 1067.29 106.698C1067.27 112.207 1069.8 117.505 1074.34 121.452C1078.88 125.4 1085.07 127.682 1091.58 127.81H1181.84V127.727C1189.84 127.297 1197.34 124.307 1202.82 119.365C1208.31 114.423 1211.37 107.9 1211.37 101.12Z" fill="#B3E8FF"/>
<path d="M1361.05 101.12C1361.06 96.7952 1359.82 92.5339 1357.44 88.7043C1355.07 84.8747 1351.62 81.5917 1347.42 79.1386C1343.21 76.6856 1338.35 75.1361 1333.28 74.6241C1328.2 74.112 1323.06 74.6526 1318.28 76.1993C1314.18 70.2992 1308.07 65.5762 1300.76 62.6401C1293.45 59.7041 1285.27 58.6899 1277.27 59.7286C1269.27 60.7672 1261.83 63.811 1255.9 68.4668C1249.96 73.1226 1245.82 79.1766 1243.99 85.8469C1243.14 85.7738 1242.29 85.7381 1241.44 85.74C1234.93 85.8265 1228.72 88.0702 1224.15 91.989C1219.57 95.9078 1216.99 101.189 1216.97 106.698C1216.94 112.207 1219.48 117.505 1224.02 121.452C1228.56 125.4 1234.75 127.682 1241.26 127.81H1331.52V127.727C1339.52 127.297 1347.02 124.307 1352.5 119.365C1357.99 114.423 1361.04 107.9 1361.05 101.12Z" fill="#B3E8FF"/>
<path d="M498.863 66.5761C498.869 62.251 497.63 57.9897 495.254 54.1601C492.879 50.3305 489.437 47.0475 485.228 44.5944C481.018 42.1414 476.165 40.592 471.09 40.0799C466.014 39.5678 460.868 40.1084 456.094 41.6551C451.988 35.755 445.886 31.032 438.576 28.0959C431.266 25.1599 423.084 24.1457 415.086 25.1844C407.087 26.223 399.641 29.2668 393.708 33.9226C387.775 38.5784 383.628 44.6324 381.802 51.3027C380.956 51.2296 380.106 51.1939 379.255 51.1958C372.745 51.2823 366.535 53.526 361.959 57.4448C357.383 61.3636 354.806 66.6449 354.781 72.154C354.757 77.6631 357.288 82.9604 361.829 86.9079C366.371 90.8553 372.561 93.138 379.07 93.2654H469.333V93.1832C477.329 92.7527 484.832 89.7628 490.316 84.8208C495.801 79.8789 498.857 73.3556 498.863 66.5761Z" fill="#B3E8FF"/>
<path d="M547.465 113.457C547.47 109.132 546.231 104.871 543.856 101.041C541.48 97.2118 538.039 93.9288 533.829 91.4758C529.619 89.0227 524.767 87.4733 519.691 86.9612C514.616 86.4491 509.469 86.9897 504.696 88.5364C500.59 82.6364 494.488 77.9133 487.178 74.9773C479.868 72.0412 471.685 71.0271 463.687 72.0657C455.689 73.1044 448.242 76.1481 442.309 80.804C436.376 85.4598 432.229 91.5138 430.403 98.1841C429.557 98.1109 428.707 98.0752 427.857 98.0772C421.347 98.1637 415.137 100.407 410.56 104.326C405.984 108.245 403.407 113.526 403.383 119.035C403.359 124.544 405.889 129.842 410.431 133.789C414.973 137.737 421.163 140.019 427.672 140.147H517.935V140.065C525.931 139.634 533.433 136.644 538.918 131.702C544.403 126.76 547.459 120.237 547.465 113.457Z" fill="#B3E8FF"/>
<path d="M598.988 66.5761C598.994 62.251 597.755 57.9897 595.379 54.1601C593.004 50.3305 589.562 47.0475 585.353 44.5944C581.143 42.1414 576.29 40.592 571.215 40.0799C566.139 39.5678 560.993 40.1084 556.219 41.6551C552.113 35.755 546.011 31.032 538.701 28.0959C531.391 25.1599 523.209 24.1457 515.211 25.1844C507.212 26.223 499.766 29.2668 493.833 33.9226C487.9 38.5784 483.753 44.6324 481.927 51.3027C481.081 51.2296 480.231 51.1939 479.38 51.1958C472.87 51.2823 466.66 53.526 462.084 57.4448C457.508 61.3636 454.931 66.6449 454.906 72.154C454.882 77.6631 457.413 82.9604 461.954 86.9079C466.496 90.8553 472.686 93.138 479.195 93.2654H569.458V93.1832C577.454 92.7527 584.957 89.7628 590.441 84.8208C595.926 79.8789 598.982 73.3556 598.988 66.5761Z" fill="#B3E8FF"/>
<path d="M650.504 113.457C650.509 109.132 649.271 104.871 646.895 101.041C644.519 97.2118 641.078 93.9288 636.868 91.4758C632.658 89.0227 627.806 87.4733 622.73 86.9612C617.655 86.4491 612.508 86.9897 607.735 88.5364C603.629 82.6364 597.527 77.9133 590.217 74.9773C582.907 72.0412 574.724 71.0271 566.726 72.0657C558.728 73.1044 551.282 76.1481 545.348 80.804C539.415 85.4598 535.268 91.5138 533.443 98.1841C532.596 98.1109 531.746 98.0752 530.896 98.0772C524.386 98.1637 518.176 100.407 513.599 104.326C509.023 108.245 506.446 113.526 506.422 119.035C506.398 124.544 508.928 129.842 513.47 133.789C518.012 137.737 524.202 140.019 530.711 140.147H620.974V140.065C628.97 139.634 636.472 136.644 641.957 131.702C647.442 126.76 650.498 120.237 650.504 113.457Z" fill="#B3E8FF"/>
<path d="M716.598 78.9133C716.603 74.5881 715.364 70.3269 712.989 66.4973C710.613 62.6676 707.172 59.3846 702.962 56.9316C698.752 54.4785 693.9 52.9291 688.824 52.417C683.749 51.9049 678.602 52.4456 673.828 53.9922C669.723 48.0922 663.621 43.3691 656.311 40.4331C649.001 37.4971 640.818 36.4829 632.82 37.5215C624.822 38.5602 617.375 41.604 611.442 46.2598C605.509 50.9156 601.362 56.9696 599.536 63.6399C598.69 63.5667 597.84 63.531 596.99 63.533C590.48 63.6195 584.269 65.8632 579.693 69.782C575.117 73.7008 572.54 78.9821 572.516 84.4911C572.492 90.0002 575.022 95.2975 579.564 99.245C584.105 103.192 590.296 105.475 596.805 105.603H687.067V105.52C695.064 105.09 702.566 102.1 708.051 97.158C713.536 92.216 716.592 85.6927 716.598 78.9133Z" fill="#B3E8FF"/>
<path d="M784.652 46.0146C784.658 41.6895 783.419 37.4282 781.043 33.5986C778.668 29.769 775.226 26.486 771.017 24.0329C766.807 21.5799 761.955 20.0304 756.879 19.5183C751.803 19.0062 746.657 19.5469 741.883 21.0936C737.777 15.1935 731.676 10.4705 724.365 7.53442C717.055 4.59838 708.873 3.58419 700.875 4.62285C692.876 5.6615 685.43 8.70528 679.497 13.3611C673.564 18.0169 669.417 24.0709 667.591 30.7412C666.745 30.6681 665.895 30.6324 665.044 30.6343C658.534 30.7208 652.324 32.9645 647.748 36.8833C643.172 40.8021 640.595 46.0834 640.57 51.5925C640.546 57.1015 643.077 62.3989 647.618 66.3463C652.16 70.2938 658.35 72.5765 664.86 72.7039H755.122V72.6217C763.118 72.1912 770.621 69.2012 776.106 64.2593C781.59 59.3174 784.646 52.7941 784.652 46.0146Z" fill="#B3E8FF"/>
<path d="M792.426 100.298C792.431 95.9727 791.192 91.7114 788.817 87.8818C786.441 84.0522 783 80.7692 778.79 78.3161C774.58 75.8631 769.728 74.3136 764.652 73.8015C759.577 73.2895 754.43 73.8301 749.657 75.3768C745.551 69.4767 739.449 64.7537 732.139 61.8176C724.829 58.8816 716.646 57.8674 708.648 58.906C700.65 59.9447 693.203 62.9885 687.27 67.6443C681.337 72.3001 677.19 78.3541 675.364 85.0244C674.518 84.9513 673.668 84.9156 672.818 84.9175C666.308 85.004 660.097 87.2477 655.521 91.1665C650.945 95.0853 648.368 100.367 648.344 105.876C648.32 111.385 650.85 116.682 655.392 120.63C659.934 124.577 666.124 126.86 672.633 126.987H762.896V126.905C770.892 126.474 778.394 123.484 783.879 118.543C789.364 113.601 792.42 107.077 792.426 100.298Z" fill="#B3E8FF"/>
<path d="M877.957 78.9133C877.962 74.5881 876.724 70.3269 874.348 66.4973C871.972 62.6676 868.531 59.3846 864.321 56.9316C860.111 54.4785 855.259 52.9291 850.184 52.417C845.108 51.9049 839.961 52.4456 835.188 53.9922C831.082 48.0922 824.98 43.3691 817.67 40.4331C810.36 37.4971 802.177 36.4829 794.179 37.5215C786.181 38.5602 778.735 41.604 772.802 46.2598C766.868 50.9156 762.721 56.9696 760.896 63.6399C760.05 63.5667 759.199 63.531 758.349 63.533C751.839 63.6195 745.629 65.8632 741.053 69.782C736.476 73.7008 733.899 78.9821 733.875 84.4911C733.851 90.0002 736.382 95.2975 740.923 99.245C745.465 103.192 751.655 105.475 758.164 105.603H848.427V105.52C856.423 105.09 863.925 102.1 869.41 97.158C874.895 92.216 877.951 85.6927 877.957 78.9133Z" fill="#B3E8FF"/>
<path d="M949.895 106.055C949.9 101.73 948.661 97.4685 946.286 93.6389C943.91 89.8092 940.469 86.5262 936.259 84.0732C932.049 81.6201 927.197 80.0707 922.121 79.5586C917.045 79.0465 911.899 79.5872 907.125 81.1338C903.02 75.2338 896.918 70.5107 889.608 67.5747C882.298 64.6387 874.115 63.6245 866.117 64.6631C858.119 65.7018 850.672 68.7456 844.739 73.4014C838.806 78.0572 834.659 84.1112 832.833 90.7815C831.987 90.7083 831.137 90.6727 830.286 90.6746C823.776 90.7611 817.566 93.0048 812.99 96.9236C808.414 100.842 805.837 106.124 805.813 111.633C805.788 117.142 808.319 122.439 812.861 126.387C817.402 130.334 823.593 132.617 830.102 132.744H920.364V132.662C928.36 132.231 935.863 129.242 941.348 124.3C946.833 119.358 949.889 112.834 949.895 106.055Z" fill="#B3E8FF"/>
<path d="M1010.16 78.9133C1010.17 74.5881 1008.93 70.3269 1006.55 66.4973C1004.18 62.6676 1000.73 59.3846 996.524 56.9316C992.314 54.4785 987.462 52.9291 982.387 52.417C977.311 51.9049 972.164 52.4456 967.391 53.9922C963.285 48.0922 957.183 43.3691 949.873 40.4331C942.563 37.4971 934.381 36.4829 926.382 37.5215C918.384 38.5602 910.938 41.604 905.005 46.2598C899.072 50.9156 894.924 56.9696 893.099 63.6399C892.253 63.5667 891.403 63.531 890.552 63.533C884.042 63.6195 877.832 65.8632 873.256 69.782C868.679 73.7008 866.102 78.9821 866.078 84.4911C866.054 90.0002 868.585 95.2975 873.126 99.245C877.668 103.192 883.858 105.475 890.367 105.603H980.63V105.52C988.626 105.09 996.128 102.1 1001.61 97.158C1007.1 92.216 1010.15 85.6927 1010.16 78.9133Z" fill="#B3E8FF"/>
<path d="M911.012 44.3693C911.017 40.0442 909.778 35.783 907.403 31.9533C905.027 28.1237 901.586 24.8407 897.376 22.3876C893.166 19.9346 888.314 18.3852 883.238 17.8731C878.163 17.361 873.016 17.9016 868.243 19.4483C864.137 13.5482 858.035 8.82519 850.725 5.88915C843.415 2.95311 835.232 1.93893 827.234 2.97758C819.236 4.01623 811.789 7.06001 805.856 11.7158C799.923 16.3716 795.776 22.4256 793.95 29.0959C793.104 29.0228 792.254 28.9871 791.404 28.989C784.894 29.0755 778.683 31.3192 774.107 35.238C769.531 39.1569 766.954 44.4381 766.93 49.9472C766.906 55.4563 769.436 60.7536 773.978 64.7011C778.519 68.6486 784.71 70.9312 791.219 71.0586H881.482V70.9764C889.478 70.5459 896.98 67.556 902.465 62.614C907.95 57.6721 911.006 51.1488 911.012 44.3693Z" fill="#B3E8FF"/>
<path d="M1059.81 36.2602C1059.82 32.6002 1058.78 28.9938 1056.77 25.7529C1054.76 22.512 1051.84 19.7342 1048.28 17.6599C1044.72 15.5856 1040.61 14.2773 1036.31 13.8481C1032.02 13.4189 1027.66 13.8818 1023.63 15.1966C1020.16 10.2083 1015 6.21514 1008.82 3.73287C1002.64 1.25061 995.719 0.393329 988.958 1.27177C982.196 2.15022 975.901 4.72403 970.885 8.66072C965.87 12.5974 962.365 17.7161 960.823 23.3556C960.107 23.2895 959.386 23.2565 958.665 23.2569C953.167 23.3382 947.925 25.239 944.064 28.5518C940.202 31.8645 938.028 36.3256 938.008 40.9785C937.988 45.6315 940.123 50.106 943.955 53.4428C947.787 56.7797 953.012 58.7132 958.51 58.829H1034.82V58.7632C1041.59 58.4035 1047.94 55.8765 1052.58 51.6963C1057.22 47.5161 1059.81 41.9965 1059.81 36.2602Z" fill="#B3E8FF"/>
<path d="M1071.47 94.656C1071.48 90.996 1070.43 87.3895 1068.42 84.1486C1066.41 80.9077 1063.5 78.13 1059.94 76.0557C1056.37 73.9814 1052.26 72.6731 1047.97 72.2439C1043.67 71.8146 1039.32 72.2775 1035.28 73.5924C1031.81 68.6041 1026.65 64.6109 1020.47 62.1286C1014.29 59.6464 1007.38 58.7891 1000.61 59.6675C993.852 60.546 987.557 63.1198 982.542 67.0565C977.526 70.9932 974.021 76.1119 972.479 81.7513C971.763 81.6852 971.042 81.6523 970.321 81.6526C964.823 81.734 959.582 83.6348 955.72 86.9475C951.859 90.2603 949.685 94.7213 949.664 99.3743C949.644 104.027 951.779 108.502 955.611 111.839C959.444 115.175 964.669 117.109 970.166 117.225H1046.48V117.159C1053.25 116.799 1059.6 114.272 1064.24 110.092C1068.88 105.912 1071.47 100.392 1071.47 94.656Z" fill="#B3E8FF"/>
<path d="M1114.24 65.0471C1114.25 61.3871 1113.21 57.7807 1111.2 54.5397C1109.19 51.2988 1106.27 48.5211 1102.71 46.4468C1099.15 44.3725 1095.04 43.0642 1090.74 42.635C1086.45 42.2058 1082.09 42.6686 1078.06 43.9835C1074.59 38.9952 1069.43 35.002 1063.25 32.5197C1057.07 30.0375 1050.15 29.1802 1043.39 30.0586C1036.63 30.9371 1030.33 33.5109 1025.32 37.4476C1020.3 41.3843 1016.79 46.503 1015.25 52.1425C1014.54 52.0763 1013.82 52.0434 1013.09 52.0438C1007.6 52.1251 1002.35 54.0259 998.493 57.3387C994.632 60.6514 992.458 65.1124 992.438 69.7654C992.417 74.4183 994.552 78.8928 998.385 82.2297C1002.22 85.5665 1007.44 87.5001 1012.94 87.6158H1089.25V87.55C1096.02 87.1903 1102.37 84.6634 1107.01 80.4832C1111.65 76.3029 1114.24 70.7834 1114.24 65.0471Z" fill="#B3E8FF"/>
<path d="M1158.96 110.283C1158.97 106.623 1157.92 103.016 1155.91 99.7756C1153.9 96.5347 1150.99 93.7569 1147.43 91.6826C1143.86 89.6084 1139.76 88.3 1135.46 87.8708C1131.17 87.4416 1126.81 87.9045 1122.77 89.2193C1119.3 84.231 1114.15 80.2378 1107.97 77.7556C1101.79 75.2733 1094.87 74.416 1088.11 75.2945C1081.34 76.1729 1075.05 78.7467 1070.03 82.6834C1065.02 86.6201 1061.51 91.7388 1059.97 97.3783C1059.25 97.3122 1058.53 97.2792 1057.81 97.2796C1052.32 97.3609 1047.07 99.2617 1043.21 102.574C1039.35 105.887 1037.18 110.348 1037.16 115.001C1037.14 119.654 1039.27 124.129 1043.1 127.466C1046.94 130.802 1052.16 132.736 1057.66 132.852H1133.97V132.786C1140.74 132.426 1147.09 129.899 1151.73 125.719C1156.37 121.539 1158.96 116.019 1158.96 110.283Z" fill="#B3E8FF"/>
<path d="M1254.21 79.0288C1254.22 75.3688 1253.17 71.7623 1251.16 68.5214C1249.15 65.2805 1246.24 62.5028 1242.68 60.4285C1239.11 58.3542 1235.01 57.0459 1230.71 56.6167C1226.42 56.1875 1222.06 56.6503 1218.02 57.9652C1214.55 52.9769 1209.4 48.9837 1203.22 46.5014C1197.04 44.0192 1190.12 43.1619 1183.36 44.0403C1176.59 44.9188 1170.3 47.4926 1165.28 51.4293C1160.27 55.366 1156.76 60.4847 1155.22 66.1241C1154.5 66.058 1153.78 66.0251 1153.06 66.0255C1147.57 66.1068 1142.32 68.0076 1138.46 71.3203C1134.6 74.6331 1132.43 79.0941 1132.41 83.7471C1132.39 88.4 1134.52 92.8745 1138.35 96.2114C1142.19 99.5482 1147.41 101.482 1152.91 101.598H1229.22V101.532C1235.99 101.172 1242.34 98.6451 1246.98 94.4649C1251.62 90.2846 1254.21 84.765 1254.21 79.0288Z" fill="#B3E8FF"/>
<path d="M1015.49 130.467C1015.49 126.807 1014.45 123.201 1012.44 119.96C1010.43 116.719 1007.52 113.941 1003.95 111.867C1000.39 109.792 996.28 108.484 991.985 108.055C987.689 107.626 983.334 108.089 979.298 109.403C975.827 104.415 970.669 100.422 964.489 97.9397C958.309 95.4574 951.391 94.6001 944.629 95.4786C937.868 96.357 931.573 98.9308 926.557 102.868C921.542 106.804 918.037 111.923 916.495 117.562C915.778 117.496 915.058 117.463 914.337 117.464C908.839 117.545 903.597 119.446 899.736 122.759C895.874 126.071 893.7 130.532 893.68 135.185C893.659 139.838 895.794 144.313 899.627 147.65C903.459 150.986 908.684 152.92 914.182 153.036H990.496V152.97C997.261 152.61 1003.61 150.083 1008.25 145.903C1012.9 141.723 1015.48 136.203 1015.49 130.467Z" fill="white" fill-opacity="0.25"/>
<path d="M1111.89 260.753C1111.9 257.093 1110.85 253.486 1108.84 250.246C1106.83 247.005 1103.92 244.227 1100.36 242.153C1096.79 240.078 1092.69 238.77 1088.39 238.341C1084.1 237.912 1079.74 238.374 1075.7 239.689C1072.23 234.701 1067.08 230.708 1060.9 228.226C1054.72 225.743 1047.8 224.886 1041.04 225.764C1034.27 226.643 1027.98 229.217 1022.96 233.153C1017.95 237.09 1014.44 242.209 1012.9 247.848C1012.18 247.782 1011.46 247.749 1010.74 247.75C1005.25 247.831 1000 249.732 996.142 253.044C992.28 256.357 990.106 260.818 990.086 265.471C990.066 270.124 992.201 274.599 996.033 277.935C999.866 281.272 1005.09 283.206 1010.59 283.322H1086.9V283.256C1093.67 282.896 1100.02 280.369 1104.66 276.189C1109.3 272.009 1111.89 266.489 1111.89 260.753Z" fill="white" fill-opacity="0.25"/>
<path d="M492.314 253.738C492.322 250.078 491.276 246.471 489.266 243.23C487.256 239.99 484.343 237.212 480.78 235.137C477.216 233.063 473.108 231.755 468.813 231.326C464.517 230.896 460.163 231.359 456.126 232.674C452.655 227.686 447.497 223.693 441.317 221.21C435.137 218.728 428.219 217.871 421.458 218.749C414.696 219.628 408.401 222.202 403.385 226.138C398.37 230.075 394.865 235.194 393.323 240.833C392.607 240.767 391.886 240.734 391.165 240.734C385.667 240.816 380.425 242.717 376.564 246.029C372.702 249.342 370.528 253.803 370.508 258.456C370.488 263.109 372.623 267.584 376.455 270.92C380.287 274.257 385.512 276.191 391.01 276.307H467.324V276.241C474.09 275.881 480.44 273.354 485.082 269.174C489.724 264.994 492.311 259.474 492.314 253.738Z" fill="white" fill-opacity="0.25"/>
<path d="M170.979 198.617C170.986 194.957 169.94 191.35 167.93 188.109C165.92 184.868 163.007 182.091 159.444 180.016C155.88 177.942 151.773 176.634 147.477 176.205C143.181 175.775 138.827 176.238 134.79 177.553C131.319 172.565 126.161 168.572 119.981 166.089C113.801 163.607 106.883 162.75 100.122 163.628C93.3599 164.507 87.0648 167.08 82.0495 171.017C77.0342 174.954 73.5292 180.073 71.9872 185.712C71.2706 185.646 70.5502 185.613 69.8293 185.613C64.3311 185.695 59.0894 187.595 55.2278 190.908C51.3663 194.221 49.1924 198.682 49.172 203.335C49.1517 207.988 51.2866 212.462 55.119 215.799C58.9515 219.136 64.1764 221.07 69.6738 221.185H145.988V221.12C152.754 220.76 159.104 218.233 163.746 214.053C168.388 209.873 170.975 204.353 170.979 198.617Z" fill="white" fill-opacity="0.25"/>
<path d="M840.76 178.572C840.767 174.913 839.721 171.306 837.711 168.065C835.701 164.824 832.789 162.046 829.225 159.972C825.661 157.898 821.554 156.59 817.258 156.16C812.962 155.731 808.608 156.194 804.571 157.509C801.101 152.521 795.942 148.527 789.762 146.045C783.582 143.563 776.665 142.706 769.903 143.584C763.141 144.462 756.846 147.036 751.831 150.973C746.815 154.91 743.31 160.028 741.768 165.668C741.052 165.602 740.331 165.569 739.611 165.569C734.112 165.65 728.871 167.551 725.009 170.864C721.148 174.177 718.974 178.638 718.953 183.291C718.933 187.944 721.068 192.418 724.9 195.755C728.733 199.092 733.958 201.025 739.455 201.141H815.769V201.075C822.535 200.716 828.885 198.189 833.527 194.009C838.17 189.828 840.756 184.309 840.76 178.572Z" fill="white" fill-opacity="0.25"/>
<path d="M708.213 94.3877C708.221 90.7277 707.174 87.1212 705.164 83.8803C703.155 80.6394 700.242 77.8617 696.678 75.7874C693.114 73.7131 689.007 72.4047 684.711 71.9755C680.416 71.5463 676.061 72.0092 672.024 73.3241C668.554 68.3358 663.395 64.3426 657.215 61.8603C651.035 59.3781 644.118 58.5208 637.356 59.3992C630.594 60.2777 624.299 62.8515 619.284 66.7882C614.269 70.7249 610.764 75.8436 609.222 81.483C608.505 81.4169 607.785 81.384 607.064 81.3843C601.565 81.4657 596.324 83.3665 592.462 86.6792C588.601 89.992 586.427 94.453 586.406 99.106C586.386 103.759 588.521 108.233 592.353 111.57C596.186 114.907 601.411 116.841 606.908 116.956H683.222V116.891C689.988 116.531 696.338 114.004 700.98 109.824C705.623 105.644 708.209 100.124 708.213 94.3877Z" fill="white" fill-opacity="0.25"/>
<path d="M388.885 107.416C388.892 103.756 387.846 100.15 385.836 96.9091C383.826 93.6682 380.914 90.8905 377.35 88.8162C373.786 86.7419 369.679 85.4336 365.383 85.0043C361.087 84.5751 356.733 85.038 352.696 86.3529C349.226 81.3646 344.067 77.3714 337.887 74.8891C331.707 72.4069 324.79 71.5496 318.028 72.428C311.266 73.3065 304.971 75.8803 299.956 79.817C294.94 83.7537 291.435 88.8724 289.893 94.5118C289.177 94.4457 288.456 94.4128 287.736 94.4131C282.237 94.4945 276.996 96.3953 273.134 99.708C269.273 103.021 267.099 107.482 267.078 112.135C267.058 116.788 269.193 121.262 273.025 124.599C276.858 127.936 282.083 129.869 287.58 129.985H363.894V129.919C370.66 129.56 377.01 127.033 381.652 122.853C386.295 118.672 388.881 113.153 388.885 107.416Z" fill="white" fill-opacity="0.25"/>
<path d="M1291.15 110.283C1291.16 106.623 1290.11 103.016 1288.1 99.7756C1286.09 96.5347 1283.18 93.7569 1279.62 91.6826C1276.05 89.6084 1271.94 88.3 1267.65 87.8708C1263.35 87.4416 1259 87.9045 1254.96 89.2193C1251.49 84.231 1246.33 80.2378 1240.15 77.7556C1233.97 75.2733 1227.06 74.416 1220.29 75.2945C1213.53 76.1729 1207.24 78.7467 1202.22 82.6834C1197.21 86.6201 1193.7 91.7388 1192.16 97.3783C1191.44 97.3122 1190.72 97.2792 1190 97.2796C1184.5 97.3609 1179.26 99.2617 1175.4 102.574C1171.54 105.887 1169.36 110.348 1169.34 115.001C1169.32 119.654 1171.46 124.129 1175.29 127.466C1179.12 130.802 1184.35 132.736 1189.85 132.852H1266.16V132.786C1272.93 132.426 1279.28 129.899 1283.92 125.719C1288.56 121.539 1291.15 116.019 1291.15 110.283Z" fill="#B3E8FF"/>
<path d="M1354.34 83.1413C1354.35 79.4813 1353.3 75.8749 1351.29 72.634C1349.28 69.3931 1346.37 66.6153 1342.8 64.541C1339.24 62.4668 1335.13 61.1584 1330.84 60.7292C1326.54 60.3 1322.19 60.7629 1318.15 62.0777C1314.68 57.0894 1309.52 53.0962 1303.34 50.614C1297.16 48.1317 1290.24 47.2744 1283.48 48.1529C1276.72 49.0313 1270.42 51.6051 1265.41 55.5418C1260.39 59.4785 1256.89 64.5972 1255.35 70.2367C1254.63 70.1706 1253.91 70.1376 1253.19 70.138C1247.69 70.2193 1242.45 72.1201 1238.59 75.4329C1234.73 78.7456 1232.55 83.2067 1232.53 87.8596C1232.51 92.5126 1234.65 96.9871 1238.48 100.324C1242.31 103.661 1247.54 105.594 1253.03 105.71H1329.35V105.644C1336.11 105.285 1342.46 102.758 1347.11 98.5774C1351.75 94.3972 1354.33 88.8776 1354.34 83.1413Z" fill="#B3E8FF"/>
<path d="M1410.71 107.816C1410.72 104.156 1409.67 100.549 1407.66 97.3083C1405.65 94.0674 1402.74 91.2896 1399.18 89.2154C1395.61 87.1411 1391.51 85.8327 1387.21 85.4035C1382.92 84.9743 1378.56 85.4372 1374.52 86.7521C1371.05 81.7638 1365.9 77.7706 1359.72 75.2883C1353.54 72.806 1346.62 71.9487 1339.86 72.8272C1333.09 73.7056 1326.8 76.2794 1321.78 80.2161C1316.77 84.1528 1313.26 89.2715 1311.72 94.911C1311 94.8449 1310.28 94.8119 1309.56 94.8123C1304.07 94.8937 1298.82 96.7945 1294.96 100.107C1291.1 103.42 1288.93 107.881 1288.91 112.534C1288.89 117.187 1291.02 121.661 1294.85 124.998C1298.69 128.335 1303.91 130.269 1309.41 130.384H1385.72V130.319C1392.49 129.959 1398.84 127.432 1403.48 123.252C1408.12 119.071 1410.71 113.552 1410.71 107.816Z" fill="#B3E8FF"/>
<path d="M1432.1 136.603C1432.1 132.943 1431.06 129.336 1429.05 126.095C1427.04 122.854 1424.12 120.076 1420.56 118.002C1417 115.928 1412.89 114.62 1408.59 114.19C1404.3 113.761 1399.94 114.224 1395.91 115.539C1392.44 110.551 1387.28 106.557 1381.1 104.075C1374.92 101.593 1368 100.736 1361.24 101.614C1354.48 102.493 1348.18 105.066 1343.17 109.003C1338.15 112.94 1334.65 118.058 1333.1 123.698C1332.39 123.632 1331.67 123.599 1330.95 123.599C1325.45 123.681 1320.21 125.581 1316.35 128.894C1312.48 132.207 1310.31 136.668 1310.29 141.321C1310.27 145.974 1312.4 150.448 1316.24 153.785C1320.07 157.122 1325.29 159.055 1330.79 159.171H1407.1V159.105C1413.87 158.746 1420.22 156.219 1424.86 152.039C1429.51 147.858 1432.09 142.339 1432.1 136.603Z" fill="#B3E8FF"/>
<path d="M1410.71 167.856C1410.72 164.196 1409.67 160.589 1407.66 157.349C1405.65 154.108 1402.74 151.33 1399.18 149.256C1395.61 147.181 1391.51 145.873 1387.21 145.444C1382.92 145.015 1378.56 145.477 1374.52 146.792C1371.05 141.804 1365.9 137.811 1359.72 135.329C1353.54 132.846 1346.62 131.989 1339.86 132.867C1333.09 133.746 1326.8 136.32 1321.78 140.256C1316.77 144.193 1313.26 149.312 1311.72 154.951C1311 154.885 1310.28 154.852 1309.56 154.853C1304.07 154.934 1298.82 156.835 1294.96 160.147C1291.1 163.46 1288.93 167.921 1288.91 172.574C1288.89 177.227 1291.02 181.702 1294.85 185.039C1298.69 188.375 1303.91 190.309 1309.41 190.425H1385.72V190.359C1392.49 189.999 1398.84 187.472 1403.48 183.292C1408.12 179.112 1410.71 173.592 1410.71 167.856Z" fill="#B3E8FF"/>
<path d="M1432.1 201.578C1432.1 197.918 1431.06 194.311 1429.05 191.07C1427.04 187.829 1424.12 185.052 1420.56 182.977C1417 180.903 1412.89 179.595 1408.59 179.165C1404.3 178.736 1399.94 179.199 1395.91 180.514C1392.44 175.526 1387.28 171.533 1381.1 169.05C1374.92 166.568 1368 165.711 1361.24 166.589C1354.48 167.468 1348.18 170.041 1343.17 173.978C1338.15 177.915 1334.65 183.033 1333.1 188.673C1332.39 188.607 1331.67 188.574 1330.95 188.574C1325.45 188.656 1320.21 190.556 1316.35 193.869C1312.48 197.182 1310.31 201.643 1310.29 206.296C1310.27 210.949 1312.4 215.423 1316.24 218.76C1320.07 222.097 1325.29 224.031 1330.79 224.146H1407.1V224.081C1413.87 223.721 1420.22 221.194 1424.86 217.014C1429.51 212.833 1432.09 207.314 1432.1 201.578Z" fill="#B3E8FF"/>
<path d="M1442.79 244.347C1442.8 240.687 1441.75 237.08 1439.74 233.839C1437.73 230.598 1434.82 227.821 1431.26 225.746C1427.69 223.672 1423.59 222.364 1419.29 221.935C1414.99 221.505 1410.64 221.968 1406.6 223.283C1403.13 218.295 1397.97 214.302 1391.79 211.819C1385.61 209.337 1378.7 208.48 1371.93 209.358C1365.17 210.237 1358.88 212.81 1353.86 216.747C1348.85 220.684 1345.34 225.803 1343.8 231.442C1343.08 231.376 1342.36 231.343 1341.64 231.343C1336.14 231.425 1330.9 233.325 1327.04 236.638C1323.18 239.951 1321 244.412 1320.98 249.065C1320.96 253.718 1323.1 258.192 1326.93 261.529C1330.76 264.866 1335.99 266.8 1341.49 266.915H1417.8V266.85C1424.57 266.49 1430.92 263.963 1435.56 259.783C1440.2 255.602 1442.79 250.083 1442.79 244.347Z" fill="#B3E8FF"/>
<path d="M1370.86 244.347C1370.87 240.687 1369.82 237.08 1367.81 233.839C1365.8 230.598 1362.89 227.821 1359.33 225.746C1355.76 223.672 1351.66 222.364 1347.36 221.935C1343.06 221.505 1338.71 221.968 1334.67 223.283C1331.2 218.295 1326.04 214.302 1319.86 211.819C1313.68 209.337 1306.77 208.48 1300 209.358C1293.24 210.237 1286.95 212.81 1281.93 216.747C1276.92 220.684 1273.41 225.803 1271.87 231.442C1271.15 231.376 1270.43 231.343 1269.71 231.343C1264.21 231.425 1258.97 233.325 1255.11 236.638C1251.25 239.951 1249.08 244.412 1249.05 249.065C1249.03 253.718 1251.17 258.192 1255 261.529C1258.83 264.866 1264.06 266.8 1269.56 266.915H1345.87V266.85C1352.64 266.49 1358.99 263.963 1363.63 259.783C1368.27 255.602 1370.86 250.083 1370.86 244.347Z" fill="#B3E8FF"/>
</svg>
