<svg width="62" height="63" viewBox="0 0 62 63" fill="none" xmlns="http://www.w3.org/2000/svg">
<path d="M45.8518 47.1628H45.4102V52.5246H45.8518V47.1628Z" fill="#13384D"/>
<path d="M36.0783 47.1628H35.6367V52.5246H36.0783V47.1628Z" fill="#13384D"/>
<path d="M20.691 11.3969C22.6993 -0.628707 40.6942 0.193031 40.6942 0.193031C40.6942 0.193031 58.7092 -0.618686 60.6974 11.3969C64.4129 30.5376 45.8557 47.1629 45.8557 47.1629H35.5327C35.5327 47.1629 16.9755 30.5576 20.691 11.3969Z" fill="#009995"/>
<path d="M25.0122 11.3969C26.5687 -0.628707 40.6874 0.193031 40.6874 0.193031C40.6874 0.193031 54.7961 -0.618686 56.3626 11.3969C59.2646 30.5376 44.7342 47.1629 44.7342 47.1629H36.6405C36.6405 47.1629 22.1101 30.5576 25.0122 11.3969Z" fill="#00B7B7"/>
<path d="M29.3752 11.3969C30.4999 -0.628707 40.6922 0.193031 40.6922 0.193031C40.6922 0.193031 50.8746 -0.618686 52.0093 11.3969C54.108 30.5376 43.6144 47.1629 43.6144 47.1629H37.7701C37.7701 47.1629 27.2764 30.5576 29.3752 11.3969Z" fill="#009995"/>
<path d="M35.9775 11.3966C36.4193 0.743937 39.9942 0.17272 40.7774 0.182741C41.5607 0.192763 45.1355 0.743937 45.5774 11.3966C46.0519 23.4326 44.8111 35.4749 41.8921 47.1626H39.6628C36.7438 35.4749 35.5029 23.4326 35.9775 11.3966Z" fill="#00B7B7"/>
<path d="M40.1889 0.182883H41.2835C45.547 0.137428 49.7723 0.987657 53.6851 2.67835C51.2048 4.33198 46.3446 5.45445 40.7613 5.45445C35.1781 5.45445 30.2074 4.31195 27.707 2.62825C31.5906 0.973777 35.7758 0.141118 39.9982 0.182883H40.1889Z" fill="#009995"/>
<path d="M33.0686 52.915C33.0686 53.1808 33.1744 53.4358 33.3627 53.6237C33.5511 53.8117 33.8065 53.9172 34.0728 53.9172H47.3279C47.5943 53.9172 47.8497 53.8117 48.038 53.6237C48.2263 53.4358 48.3321 53.1808 48.3321 52.915C48.3321 52.6492 48.2263 52.3943 48.038 52.2064C47.8497 52.0184 47.5943 51.9128 47.3279 51.9128H34.0628C33.7964 51.9128 33.541 52.0184 33.3527 52.2064C33.1644 52.3943 33.0586 52.6492 33.0586 52.915H33.0686Z" fill="#1E4560"/>
<path d="M47.3177 53.9075H46.1133V62.7469H47.3177V53.9075Z" fill="#13384D"/>
<path d="M46.1067 53.9075H44.9023V62.7469H46.1067V53.9075Z" fill="#1E4560"/>
<path d="M44.9136 53.9075H43.6992V62.7469H44.9136V53.9075Z" fill="#13384D"/>
<path d="M43.6927 53.9075H42.4883V62.7469H43.6927V53.9075Z" fill="#1E4560"/>
<path d="M42.4839 53.9075H41.2695V62.7469H42.4839V53.9075Z" fill="#13384D"/>
<path d="M41.2786 53.9075H40.0742V62.7469H41.2786V53.9075Z" fill="#1E4560"/>
<path d="M40.0699 53.9075H38.8555V62.7469H40.0699V53.9075Z" fill="#13384D"/>
<path d="M38.8489 53.9075H37.6445V62.7469H38.8489V53.9075Z" fill="#1E4560"/>
<path d="M37.638 53.9075H36.4336V62.7469H37.638V53.9075Z" fill="#13384D"/>
<path d="M36.4449 53.9075H35.2305V62.7469H36.4449V53.9075Z" fill="#1E4560"/>
<path d="M35.2161 53.9075H34.0117V62.7469H35.2161V53.9075Z" fill="#13384D"/>
<path d="M45.8492 47.1628H35.6367V47.8228H45.8492V47.1628Z" fill="#13384D"/>
<path d="M45.309 27.5031C45.3132 25.9168 44.9257 24.3534 44.1801 22.9484C43.4344 21.5433 42.3531 20.339 41.0298 19.4398C39.7065 18.5405 38.1811 17.9735 36.5859 17.7878C34.9906 17.602 33.3735 17.8032 31.8747 18.3739C30.5841 16.2171 28.6696 14.491 26.3774 13.4175C24.0852 12.3441 21.5203 11.9725 19.0125 12.3505C16.5047 12.7286 14.1688 13.8389 12.3052 15.5387C10.4417 17.2386 9.13577 19.4502 8.55546 21.889C8.29613 21.8639 8.04697 21.8488 7.75713 21.8488C5.72167 21.8924 3.78402 22.7197 2.35748 24.1543C0.930945 25.5888 0.128441 27.5169 0.121144 29.5275C0.113847 31.5381 0.902352 33.4719 2.31844 34.9165C3.73453 36.3611 5.66611 37.202 7.70121 37.2601H36.0291C38.5428 37.1054 40.9021 36.01 42.6264 34.1972C44.3506 32.3843 45.31 29.9903 45.309 27.5031Z" fill="white"/>
</svg>
