<svg width="62" height="63" viewBox="0 0 62 63" fill="none" xmlns="http://www.w3.org/2000/svg">
<path d="M45.9123 47.0735H45.4707V52.4353H45.9123V47.0735Z" fill="#333333"/>
<path d="M36.1389 47.0734H35.6973V52.4352H36.1389V47.0734Z" fill="#333333"/>
<path d="M20.7515 11.3075C22.7599 -0.718063 40.7548 0.103676 40.7548 0.103676C40.7548 0.103676 58.7697 -0.708041 60.758 11.3075C64.4734 30.4482 45.9162 47.0735 45.9162 47.0735H35.5933C35.5933 47.0735 17.0361 30.4682 20.7515 11.3075Z" fill="#990093"/>
<path d="M25.0727 11.3075C26.6292 -0.718063 40.7479 0.103676 40.7479 0.103676C40.7479 0.103676 54.8566 -0.708041 56.4231 11.3075C59.3252 30.4482 44.7948 47.0735 44.7948 47.0735H36.7011C36.7011 47.0735 22.1707 30.4682 25.0727 11.3075Z" fill="#E45EA6"/>
<path d="M29.4357 11.3075C30.5604 -0.718063 40.7528 0.103676 40.7528 0.103676C40.7528 0.103676 50.9351 -0.708041 52.0699 11.3075C54.1686 30.4482 43.6749 47.0735 43.6749 47.0735H37.8306C37.8306 47.0735 27.337 30.4682 29.4357 11.3075Z" fill="#990093"/>
<path d="M36.038 11.3072C36.4798 0.654581 40.0547 0.0833645 40.838 0.0933858C41.6212 0.103407 45.1961 0.654581 45.6379 11.3072C46.1125 23.3432 44.8716 35.3855 41.9526 47.0733H39.7233C36.8043 35.3855 35.5635 23.3432 36.038 11.3072Z" fill="#E45EA6"/>
<path d="M40.2495 0.0935279H41.344C45.6075 0.0480725 49.8329 0.898301 53.7456 2.58899C51.2653 4.24262 46.4051 5.36509 40.8219 5.36509C35.2387 5.36509 30.268 4.22259 27.7676 2.5389C31.6512 0.884421 35.8363 0.0517627 40.0587 0.0935279H40.2495Z" fill="#990093"/>
<path d="M33.1292 52.8257C33.1292 53.0915 33.235 53.3465 33.4233 53.5344C33.6116 53.7224 33.867 53.8279 34.1334 53.8279H47.3885C47.6548 53.8279 47.9102 53.7224 48.0986 53.5344C48.2869 53.3465 48.3927 53.0915 48.3927 52.8257C48.3927 52.5599 48.2869 52.305 48.0986 52.1171C47.9102 51.9291 47.6548 51.8235 47.3885 51.8235H34.1233C33.857 51.8235 33.6016 51.9291 33.4133 52.1171C33.225 52.305 33.1191 52.5599 33.1191 52.8257H33.1292Z" fill="#C20707"/>
<path d="M47.3782 53.8176H46.1738V62.657H47.3782V53.8176Z" fill="#333333"/>
<path d="M46.1673 53.8176H44.9629V62.657H46.1673V53.8176Z" fill="#C20707"/>
<path d="M44.9742 53.8176H43.7598V62.657H44.9742V53.8176Z" fill="#333333"/>
<path d="M43.7532 53.8176H42.5488V62.657H43.7532V53.8176Z" fill="#C20707"/>
<path d="M42.5445 53.8176H41.3301V62.657H42.5445V53.8176Z" fill="#333333"/>
<path d="M41.3392 53.8176H40.1348V62.657H41.3392V53.8176Z" fill="#C20707"/>
<path d="M40.1304 53.8176H38.916V62.657H40.1304V53.8176Z" fill="#333333"/>
<path d="M38.9095 53.8176H37.7051V62.657H38.9095V53.8176Z" fill="#C20707"/>
<path d="M37.6985 53.8176H36.4941V62.657H37.6985V53.8176Z" fill="#333333"/>
<path d="M36.5055 53.8176H35.291V62.657H36.5055V53.8176Z" fill="#C20707"/>
<path d="M35.2767 53.8176H34.0723V62.657H35.2767V53.8176Z" fill="#333333"/>
<path d="M45.9098 47.0734H35.6973V47.7334H45.9098V47.0734Z" fill="#333333"/>
<path d="M45.3706 27.4135C45.3748 25.8272 44.9872 24.2638 44.2416 22.8588C43.4959 21.4537 42.4146 20.2494 41.0913 19.3502C39.768 18.4509 38.2427 17.8839 36.6474 17.6982C35.0521 17.5124 33.435 17.7136 31.9363 18.2843C30.6457 16.1275 28.7311 14.4014 26.4389 13.3279C24.1468 12.2545 21.5818 11.8829 19.074 12.2609C16.5662 12.639 14.2303 13.7493 12.3667 15.4491C10.5032 17.149 9.19729 19.3606 8.61699 21.7994C8.35766 21.7743 8.10849 21.7592 7.81866 21.7592C5.7832 21.8028 3.84554 22.6301 2.41901 24.0647C0.992469 25.4992 0.189965 27.4273 0.182667 29.4379C0.17537 31.4485 0.963875 33.3823 2.37996 34.8269C3.79605 36.2715 5.72764 37.1124 7.76273 37.1705H36.0906C38.6043 37.0158 40.9636 35.9204 42.6879 34.1076C44.4122 32.2947 45.3716 29.9007 45.3706 27.4135Z" fill="white"/>
</svg>
