<svg width="60" height="60" viewBox="0 0 60 60" fill="none" xmlns="http://www.w3.org/2000/svg">
<circle cx="30" cy="30" r="30" fill="#FAFAFA"/>
<path d="M18.3715 29.774C20.8615 22.8938 28.0857 19.479 34.5072 22.1468C37.775 23.5045 40.3588 26.2728 41.6259 29.774C41.6785 29.9194 41.6785 30.0806 41.6259 30.2259C39.1359 37.1061 31.9117 40.521 25.4902 37.8531C22.2224 36.4955 19.6386 33.7272 18.3715 30.2259C18.3189 30.0806 18.3189 29.9194 18.3715 29.774ZM25.912 36.6877C31.662 39.0765 38.122 36.085 40.454 30C39.2775 26.9333 36.9769 24.5136 34.0854 23.3123C28.3354 20.9234 21.8754 23.915 19.5434 29.9999C20.7199 33.0667 23.0205 35.4864 25.912 36.6877ZM29.9987 35C27.4214 35 25.332 32.7614 25.332 30C25.332 27.2386 27.4214 25 29.9987 25C32.576 25 34.6654 27.2386 34.6654 30C34.6654 32.7614 32.576 35 29.9987 35ZM29.9987 33.75C31.9317 33.75 33.4987 32.071 33.4987 30C33.4987 27.9289 31.9317 26.25 29.9987 26.25C28.0657 26.25 26.4987 27.9289 26.4987 30C26.4987 32.071 28.0657 33.75 29.9987 33.75Z" fill="#1D29FF" stroke="#1D29FF" stroke-width="0.5"/>
</svg>
