<svg width="60" height="60" viewBox="0 0 60 60" fill="none" xmlns="http://www.w3.org/2000/svg">
<circle cx="30" cy="30" r="30" fill="#FAFAFA"/>
<path d="M24.2202 26.9537L21.6477 29.5262C20.5927 30.5812 20 32.0121 20 33.5041C20 34.996 20.5927 36.4269 21.6477 37.4819C22.7026 38.5369 24.1335 39.1295 25.6255 39.1295C27.1174 39.1295 28.5483 38.5369 29.6033 37.4819L33.0308 34.0525C33.667 33.4162 34.1412 32.6366 34.4138 31.7792C34.6863 30.9217 34.7492 30.0113 34.5971 29.1245C34.445 28.2377 34.0824 27.4003 33.5397 26.6826C32.997 25.965 32.2901 25.3879 31.4783 25L30.3795 26.0987C30.268 26.2105 30.171 26.3359 30.0908 26.4719C30.718 26.6522 31.2873 26.9931 31.7425 27.4609C32.1976 27.9286 32.5227 28.5071 32.6858 29.139C32.8488 29.771 32.8441 30.4345 32.6722 31.0641C32.5002 31.6937 32.1669 32.2675 31.7052 32.7287L28.2795 36.1562C27.5759 36.8599 26.6215 37.2552 25.6264 37.2552C24.6313 37.2552 23.6769 36.8599 22.9733 36.1562C22.2696 35.4526 21.8743 34.4982 21.8743 33.5031C21.8743 32.508 22.2696 31.5537 22.9733 30.85L24.4602 29.365C24.2504 28.5789 24.1693 27.7639 24.2202 26.9519V26.9537Z" fill="#1D29FF"/>
<path d="M27.8972 23.8252C27.2611 24.4614 26.7868 25.241 26.5143 26.0985C26.2417 26.956 26.1789 27.8664 26.3309 28.7532C26.483 29.64 26.8456 30.4774 27.3883 31.195C27.931 31.9127 28.6379 32.4897 29.4497 32.8777L30.9029 31.4227C30.2671 31.2521 29.6875 30.9173 29.2222 30.4518C28.7569 29.9863 28.4223 29.4065 28.252 28.7707C28.0818 28.1349 28.0818 27.4655 28.2523 26.8298C28.4227 26.194 28.7574 25.6143 29.2229 25.1489L32.6485 21.7214C33.3521 21.0178 34.3065 20.6225 35.3016 20.6225C36.2967 20.6225 37.2511 21.0178 37.9547 21.7214C38.6584 22.4251 39.0537 23.3794 39.0537 24.3745C39.0537 25.3697 38.6584 26.324 37.9547 27.0277L36.4679 28.5127C36.6779 29.3002 36.7585 30.1158 36.7079 30.9258L39.2804 28.3533C40.3353 27.2983 40.928 25.8674 40.928 24.3755C40.928 22.8835 40.3353 21.4526 39.2804 20.3977C38.2254 19.3427 36.7945 18.75 35.3026 18.75C33.8106 18.75 32.3797 19.3427 31.3247 20.3977L27.8972 23.8252Z" fill="#1D29FF"/>
</svg>
