<svg width="29" height="30" viewBox="0 0 29 30" fill="none" xmlns="http://www.w3.org/2000/svg">
<path d="M12.0833 22.3397C14.2281 22.3392 16.311 21.6212 18.0005 20.3L23.3124 25.6118L25.021 23.9033L19.7091 18.5914C21.031 16.9018 21.7495 14.8183 21.75 12.673C21.75 7.34306 17.4133 3.00635 12.0833 3.00635C6.75337 3.00635 2.41666 7.34306 2.41666 12.673C2.41666 18.003 6.75337 22.3397 12.0833 22.3397ZM12.0833 5.42301C16.0817 5.42301 19.3333 8.67464 19.3333 12.673C19.3333 16.6714 16.0817 19.923 12.0833 19.923C8.08495 19.923 4.83332 16.6714 4.83332 12.673C4.83332 8.67464 8.08495 5.42301 12.0833 5.42301Z" fill="white"/>
<path d="M13.7895 10.9646C14.2475 11.4237 14.5 12.0303 14.5 12.6732H16.9167C16.9177 12.0381 16.7929 11.4091 16.5494 10.8226C16.3059 10.236 15.9486 9.70359 15.4981 9.25599C13.6687 7.42899 10.4968 7.42899 8.66858 9.25599L10.3747 10.967C11.2931 10.0511 12.876 10.0535 13.7895 10.9646Z" fill="white"/>
</svg>
