<svg width="26" height="26" viewBox="0 0 26 26" fill="none" xmlns="http://www.w3.org/2000/svg">
<g clip-path="url(#clip0_0_454)">
<path d="M13.1244 14.1203C13.1044 14.1203 13.0744 14.1203 13.0544 14.1203C13.0244 14.1203 12.9844 14.1203 12.9544 14.1203C10.6844 14.0503 8.98438 12.2803 8.98438 10.1003C8.98438 7.88031 10.7944 6.07031 13.0144 6.07031C15.2344 6.07031 17.0444 7.88031 17.0444 10.1003C17.0344 12.2903 15.3244 14.0503 13.1544 14.1203C13.1344 14.1203 13.1344 14.1203 13.1244 14.1203ZM13.0044 7.56031C11.6044 7.56031 10.4744 8.70031 10.4744 10.0903C10.4744 11.4603 11.5444 12.5703 12.9044 12.6203C12.9344 12.6103 13.0344 12.6103 13.1344 12.6203C14.4744 12.5503 15.5244 11.4503 15.5344 10.0903C15.5344 8.70031 14.4044 7.56031 13.0044 7.56031Z" fill="white"/>
<path d="M13.0008 23.3402C10.3108 23.3402 7.74081 22.3402 5.75081 20.5202C5.57081 20.3602 5.49081 20.1202 5.51081 19.8902C5.64081 18.7002 6.38081 17.5902 7.61081 16.7702C10.5908 14.7902 15.4208 14.7902 18.3908 16.7702C19.6208 17.6002 20.3608 18.7002 20.4908 19.8902C20.5208 20.1302 20.4308 20.3602 20.2508 20.5202C18.2608 22.3402 15.6908 23.3402 13.0008 23.3402ZM7.08081 19.6902C8.74081 21.0802 10.8308 21.8402 13.0008 21.8402C15.1708 21.8402 17.2608 21.0802 18.9208 19.6902C18.7408 19.0802 18.2608 18.4902 17.5508 18.0102C15.0908 16.3702 10.9208 16.3702 8.44081 18.0102C7.73081 18.4902 7.26081 19.0802 7.08081 19.6902Z" fill="white"/>
<path d="M13 23.3398C7.07 23.3398 2.25 18.5198 2.25 12.5898C2.25 6.65984 7.07 1.83984 13 1.83984C18.93 1.83984 23.75 6.65984 23.75 12.5898C23.75 18.5198 18.93 23.3398 13 23.3398ZM13 3.33984C7.9 3.33984 3.75 7.48984 3.75 12.5898C3.75 17.6898 7.9 21.8398 13 21.8398C18.1 21.8398 22.25 17.6898 22.25 12.5898C22.25 7.48984 18.1 3.33984 13 3.33984Z" fill="white"/>
</g>
<defs>
<clipPath id="clip0_0_454">
<rect width="25" height="25" fill="white" transform="translate(0.296875 0.589844)"/>
</clipPath>
</defs>
</svg>
