<svg width="40" height="40" viewBox="0 0 40 40" fill="none" xmlns="http://www.w3.org/2000/svg">
<rect width="40" height="40" rx="2" fill="#F57105"/>
<path d="M11.1579 29C10.2804 29 9.53516 28.7047 8.92211 28.114C8.30737 27.5249 8 26.8088 8 25.9656V17.4694C8 16.6263 8.30737 15.9101 8.92211 15.3211C9.53432 14.7304 10.2796 14.435 11.1579 14.435C11.6775 14.435 12.1541 14.5463 12.5878 14.7688C13.0206 14.9913 13.3916 15.2847 13.7006 15.6488H15.5789V10H26.9474V15.6488H28.8421C29.7196 15.6488 30.4648 15.9441 31.0779 16.5348C31.6926 17.1239 32 17.84 32 18.6831V27.7863H13.7006C13.3916 28.1504 13.0206 28.4437 12.5878 28.6662C12.1541 28.8887 11.6775 29 11.1579 29ZM11.1579 27.7863C11.6775 27.7863 12.1234 27.6078 12.4956 27.251C12.8669 26.8933 13.0526 26.4649 13.0526 25.9656V17.4694C13.0526 16.9701 12.8669 16.5417 12.4956 16.184C12.1234 15.8272 11.6775 15.6488 11.1579 15.6488C10.6383 15.6488 10.1924 15.8272 9.82021 16.184C9.44884 16.5417 9.26316 16.9701 9.26316 17.4694V25.9656C9.26316 26.4649 9.44884 26.8933 9.82021 27.251C10.1924 27.6078 10.6383 27.7863 11.1579 27.7863ZM16.8421 15.6488H25.6842V11.2137H16.8421V15.6488ZM14.3158 26.5725H30.7368V18.6831C30.7368 18.1839 30.5512 17.7554 30.1798 17.3978C29.8076 17.0409 29.3617 16.8625 28.8421 16.8625H14.3158V26.5725ZM23.7895 21.1106C24.1474 21.1106 24.4476 20.9941 24.6901 20.7611C24.9326 20.528 25.0535 20.24 25.0526 19.8969C25.0526 19.553 24.9314 19.2649 24.6888 19.0327C24.4463 18.8005 24.1465 18.684 23.7895 18.6831C23.4316 18.6831 23.1318 18.7997 22.8901 19.0327C22.6484 19.2657 22.5272 19.5538 22.5263 19.8969C22.5263 20.2408 22.6476 20.5293 22.8901 20.7623C23.1326 20.9953 23.4324 21.1115 23.7895 21.1106ZM27.5789 21.1106C27.9368 21.1106 28.2371 20.9941 28.4796 20.7611C28.7221 20.528 28.8429 20.24 28.8421 19.8969C28.8421 19.553 28.7208 19.2649 28.4783 19.0327C28.2358 18.8005 27.936 18.684 27.5789 18.6831C27.2211 18.6831 26.9213 18.7997 26.6796 19.0327C26.4379 19.2657 26.3166 19.5538 26.3158 19.8969C26.3158 20.2408 26.4371 20.5293 26.6796 20.7623C26.9221 20.9953 27.2219 21.1115 27.5789 21.1106ZM23.7895 24.7519C24.1474 24.7519 24.4476 24.6354 24.6901 24.4023C24.9326 24.1693 25.0535 23.8812 25.0526 23.5381C25.0526 23.1942 24.9314 22.9062 24.6888 22.6739C24.4463 22.4417 24.1465 22.3252 23.7895 22.3244C23.4316 22.3244 23.1318 22.4409 22.8901 22.6739C22.6484 22.907 22.5272 23.1951 22.5263 23.5381C22.5263 23.882 22.6476 24.1705 22.8901 24.4035C23.1326 24.6366 23.4324 24.7527 23.7895 24.7519ZM27.5789 24.7519C27.9368 24.7519 28.2371 24.6354 28.4796 24.4023C28.7221 24.1693 28.8429 23.8812 28.8421 23.5381C28.8421 23.1942 28.7208 22.9062 28.4783 22.6739C28.2358 22.4417 27.936 22.3252 27.5789 22.3244C27.2211 22.3244 26.9213 22.4409 26.6796 22.6739C26.4379 22.907 26.3166 23.1951 26.3158 23.5381C26.3158 23.882 26.4371 24.1705 26.6796 24.4035C26.9221 24.6366 27.2219 24.7527 27.5789 24.7519ZM16.2105 24.7519H21.2632V18.6831H16.2105V24.7519Z" fill="white"/>
</svg>
