<svg width="40" height="40" viewBox="0 0 40 40" fill="none" xmlns="http://www.w3.org/2000/svg">
<g clip-path="url(#clip0_22_2773)">
<rect width="40" height="40" rx="2" fill="#F57105"/>
<path d="M14 16.429L20 21.179L26 16.429" stroke="white" stroke-width="1.5" stroke-linecap="round" stroke-linejoin="round"/>
<path d="M8 27.2857V13.7143C8 12.9944 8.25286 12.304 8.70294 11.795C9.15303 11.286 9.76348 11 10.4 11H29.6C30.2365 11 30.847 11.286 31.2971 11.795C31.7471 12.304 32 12.9944 32 13.7143V27.2857C32 28.0056 31.7471 28.696 31.2971 29.205C30.847 29.714 30.2365 30 29.6 30H10.4C9.76348 30 9.15303 29.714 8.70294 29.205C8.25286 28.696 8 28.0056 8 27.2857Z" stroke="white" stroke-width="1.5"/>
</g>
<defs>
<clipPath id="clip0_22_2773">
<rect width="40" height="40" fill="white"/>
</clipPath>
</defs>
</svg>
