<svg width="40" height="40" viewBox="0 0 40 40" fill="none" xmlns="http://www.w3.org/2000/svg">
<rect width="40" height="40" fill="white"/>
<g clip-path="url(#clip0_22_2736)">
<rect width="40" height="40" rx="2" fill="#F57105"/>
<path d="M29.1425 23.7038L24.322 21.5436C24.1035 21.45 23.8652 21.4123 23.6286 21.4341C23.392 21.4558 23.1645 21.5362 22.9668 21.6681C22.9467 21.6809 22.9276 21.6953 22.9097 21.7109L20.3902 23.8538C20.364 23.8681 20.3349 23.8761 20.3052 23.8771C20.2754 23.8782 20.2458 23.8723 20.2188 23.86C18.5993 23.0783 16.9217 21.4109 16.137 19.8139C16.1239 19.7872 16.1171 19.7579 16.1171 19.7282C16.1171 19.6985 16.1239 19.6692 16.137 19.6425L18.287 17.0914C18.3025 17.0725 18.3168 17.0527 18.3299 17.0322C18.4599 16.8337 18.5384 16.606 18.5584 16.3696C18.5783 16.1332 18.5391 15.8955 18.4442 15.678L16.2992 10.8656C16.1774 10.5815 15.9667 10.3446 15.6989 10.1904C15.431 10.0362 15.1203 9.97311 14.8135 10.0105C13.48 10.1858 12.2559 10.8407 11.3701 11.8527C10.4842 12.8647 9.99722 14.1647 10 15.5097C10 23.4998 16.5002 30 24.4903 30C25.8352 30.0026 27.1351 29.5155 28.1471 28.6297C29.1591 27.7439 29.814 26.52 29.9895 25.1865C30.0268 24.8812 29.9645 24.5719 29.8119 24.3047C29.6593 24.0376 29.4246 23.8268 29.1425 23.7038ZM24.4903 28.7755C17.1758 28.7755 11.2245 22.8242 11.2245 15.5097C11.2211 14.4626 11.5991 13.4501 12.2877 12.6614C12.9763 11.8727 13.9286 11.3616 14.9665 11.2238H14.99C15.0311 11.2246 15.071 11.2377 15.1045 11.2616C15.1381 11.2854 15.1636 11.3189 15.1778 11.3575L17.3309 16.1648C17.3432 16.1915 17.3495 16.2206 17.3495 16.25C17.3495 16.2794 17.3432 16.3085 17.3309 16.3352L15.1767 18.8924C15.1607 18.9107 15.146 18.9301 15.1329 18.9506C14.9981 19.1564 14.9187 19.3935 14.9024 19.6389C14.8861 19.8844 14.9335 20.1299 15.04 20.3517C15.9451 22.2048 17.8125 24.0579 19.6861 24.9631C19.9091 25.0689 20.1558 25.1152 20.4021 25.0973C20.6484 25.0794 20.8858 24.998 21.0912 24.861C21.1106 24.8478 21.13 24.8335 21.1484 24.8182L23.6668 22.6752C23.6917 22.6619 23.7192 22.654 23.7474 22.6523C23.7755 22.6505 23.8038 22.6549 23.8301 22.665L28.6517 24.8253C28.6911 24.8421 28.7242 24.8708 28.7464 24.9074C28.7685 24.9441 28.7786 24.9867 28.7752 25.0294C28.6381 26.0678 28.1275 27.0208 27.3389 27.7102C26.5504 28.3996 25.5378 28.7783 24.4903 28.7755Z" fill="white"/>
</g>
<defs>
<clipPath id="clip0_22_2736">
<rect width="40" height="40" fill="white"/>
</clipPath>
</defs>
</svg>
