<svg width="69" height="47" viewBox="0 0 69 47" fill="none" xmlns="http://www.w3.org/2000/svg">
<path d="M40.8764 39.4295C42.6632 42.2228 45.3048 44.3585 48.4043 45.5155C51.5038 46.6725 54.8936 46.7885 58.0643 45.8458C61.235 44.9032 64.0153 42.9529 65.9873 40.2882C67.9593 37.6234 69.0164 34.3881 68.9998 31.0686C68.9982 28.3197 68.2612 25.6216 66.8659 23.2563C65.4705 20.891 63.4681 18.9453 61.0677 17.6224C58.6673 16.2994 55.957 15.6479 53.2201 15.7358C50.4831 15.8237 47.8199 16.6478 45.5086 18.122C46.7102 14.5401 48.9484 10.7188 52.6358 6.8882C53.3413 6.15556 53.7279 5.17158 53.7107 4.15274C53.6935 3.1339 53.2739 2.16365 52.544 1.45543C51.8142 0.747211 50.834 0.359039 49.8191 0.376308C48.8042 0.393578 47.8377 0.814877 47.1322 1.54752C33.5016 15.7279 35.2719 31.1422 40.8764 39.4111V39.4295ZM4.18576 39.4295C5.97253 42.2228 8.61417 44.3585 11.7136 45.5155C14.8131 46.6725 18.2029 46.7885 21.3736 45.8458C24.5443 44.9032 27.3246 42.9529 29.2966 40.2882C31.2686 37.6234 32.3257 34.3881 32.3092 31.0686C32.3075 28.3197 31.5705 25.6216 30.1752 23.2563C28.7799 20.891 26.7774 18.9453 24.377 17.6224C21.9766 16.2994 19.2664 15.6479 16.5294 15.7358C13.7924 15.8237 11.1292 16.6478 8.81796 18.122C10.0196 14.5401 12.2577 10.7188 15.9451 6.8882C16.6506 6.15556 17.0373 5.17158 17.0201 4.15274C17.0029 3.1339 16.5832 2.16365 15.8534 1.45543C15.1236 0.747211 14.1434 0.359039 13.1285 0.376308C12.1135 0.393578 11.147 0.814877 10.4415 1.54752C-3.18906 15.7279 -1.41874 31.1422 4.18576 39.4111V39.4295Z" fill="#B6B6B6"/>
</svg>
