<svg width="69" height="47" viewBox="0 0 69 47" fill="none" xmlns="http://www.w3.org/2000/svg">
<path d="M28.1236 7.16882C26.3368 4.37554 23.6952 2.23988 20.5957 1.08283C17.4962 -0.0742121 14.1064 -0.190132 10.9357 0.752502C7.765 1.69514 4.98471 3.64539 3.01273 6.31015C1.04075 8.97491 -0.0163968 12.2102 0.0001923 15.5297C0.00183701 18.2787 0.738817 20.9767 2.13414 23.342C3.52947 25.7073 5.53193 27.653 7.93233 28.976C10.3327 30.2989 13.043 30.9504 15.7799 30.8625C18.5169 30.7746 21.1801 29.9505 23.4914 28.4763C22.2898 32.0582 20.0516 35.8796 16.3642 39.7101C15.6587 40.4428 15.2721 41.4267 15.2893 42.4456C15.3065 43.4644 15.7261 44.4347 16.456 45.1429C17.1858 45.8511 18.166 46.2393 19.1809 46.222C20.1958 46.2048 21.1623 45.7835 21.8678 45.0508C35.4984 30.8704 33.7281 15.4561 28.1236 7.18724V7.16882ZM64.8142 7.16882C63.0275 4.37554 60.3858 2.23988 57.2864 1.08283C54.1869 -0.0742121 50.7971 -0.190132 47.6264 0.752502C44.4557 1.69514 41.6754 3.64539 39.7034 6.31015C37.7314 8.97491 36.6743 12.2102 36.6908 15.5297C36.6925 18.2787 37.4295 20.9767 38.8248 23.342C40.2201 25.7073 42.2226 27.653 44.623 28.976C47.0234 30.2989 49.7336 30.9504 52.4706 30.8625C55.2076 30.7746 57.8708 29.9505 60.182 28.4763C58.9804 32.0582 56.7423 35.8796 53.0549 39.7101C52.3494 40.4428 51.9627 41.4267 51.9799 42.4456C51.9971 43.4644 52.4168 44.4347 53.1466 45.1429C53.8764 45.8511 54.8566 46.2393 55.8715 46.222C56.8865 46.2048 57.853 45.7835 58.5585 45.0508C72.1891 30.8704 70.4187 15.4561 64.8142 7.18724V7.16882Z" fill="#B6B6B6"/>
</svg>
