<svg width="52" height="53" viewBox="0 0 52 53" fill="none" xmlns="http://www.w3.org/2000/svg">
<g clip-path="url(#clip0_20_74)">
<path d="M0.241215 22.4678V22.4795L0.238281 22.4883L0.241215 22.4795V22.4678Z" fill="#FFFBF8"/>
<path d="M0.235173 22.5161V22.5308L0.232239 22.5337L0.235173 22.5308V22.5161Z" fill="#FFFBF8"/>
<path d="M0.271423 22.2475C0.271423 22.2023 0.286507 22.1571 0.292539 22.1118C0.292539 22.1571 0.277456 22.2023 0.271423 22.2475Z" fill="#FFFBF8"/>
<path d="M0.268451 22.2808C0.26699 22.3079 0.26699 22.3351 0.268451 22.3622C0.259402 22.335 0.265435 22.3079 0.268451 22.2808Z" fill="#FFFBF8"/>
<path d="M0.0935036 23.792C0.0935036 23.8222 0.0935036 23.8523 0.0935036 23.8825C0.0904874 23.8523 0.0935036 23.8222 0.0935036 23.792Z" fill="#FFFBF8"/>
<path d="M0.0663426 24.1173V24.0781C0.0663426 24.0932 0.0663426 24.1053 0.0663426 24.1204C0.0663426 24.2139 0.0512594 24.3164 0.0452271 24.422C0.0663404 24.3164 0.0663426 24.2139 0.0663426 24.1173Z" fill="#FFFBF8"/>
<path d="M17.512 11.3651C19.7331 8.96778 22.4734 7.11065 25.523 5.93591C26.4482 5.57567 27.3976 5.28135 28.3643 5.05518C27.3981 5.28172 26.4487 5.57499 25.523 5.93289C22.4739 7.10993 19.7339 8.96791 17.512 11.3651Z" fill="#FFFBF8"/>
<path d="M0.00598529 25.4927V25.4565C0.00439262 25.4405 0.00439262 25.4243 0.00598529 25.4083C0.00598529 25.3057 0.00598529 25.2062 0.00598529 25.1067C0.0074277 25.0815 0.0074277 25.0564 0.00598529 25.0312C0.00748703 25.0554 0.00748703 25.0795 0.00598529 25.1036C0.00598529 25.2122 0.00598529 25.3118 0.00598529 25.4053V25.4897C0.00598529 25.5711 0.00598529 25.6556 0.00598529 25.7401C0.0029691 25.6586 0.0029691 25.5742 0.00598529 25.4927Z" fill="#FFFBF8"/>
<path d="M0.30163 22.0576V22.0817V22.1119C0.30163 22.1571 0.286547 22.2023 0.280514 22.2476C0.279219 22.2556 0.279219 22.2637 0.280514 22.2717C0.280514 22.2989 0.280514 22.326 0.280514 22.3532V22.4225V22.4587V22.5251C0.280514 22.6095 0.259405 22.697 0.247341 22.7845L0.220196 23.0167V23.1072C0.220196 23.2037 0.199078 23.2972 0.187013 23.3907L0.168917 23.6049V23.6742V23.7587C0.168917 23.7889 0.168917 23.819 0.168917 23.8492C0.167425 23.8642 0.167425 23.8794 0.168917 23.8944C0.167431 23.9165 0.167431 23.9387 0.168917 23.9608C0.168917 23.9909 0.168917 24.0181 0.168917 24.0452V24.0845C0.168917 24.181 0.153833 24.2835 0.147801 24.3861V24.5339V24.6877V24.7058C0.147801 24.7058 0.147801 24.7269 0.147801 24.739V24.754V24.7721V24.9471C0.149243 24.9722 0.149243 24.9974 0.147801 25.0225C0.147801 25.1281 0.147801 25.2276 0.147801 25.3241C0.146208 25.3402 0.146208 25.3563 0.147801 25.3724V25.4086C0.147801 25.49 0.147801 25.5745 0.147801 25.6589V25.7253V26.2229C0.208114 31.1469 2.21537 35.8468 5.73078 39.2951C9.18612 42.7666 13.869 44.7385 18.7668 44.7846C19.5503 44.784 20.333 44.7347 21.1104 44.6368C21.4602 44.5916 21.8101 44.5433 22.157 44.48C19.5743 42.9168 17.3485 40.8288 15.6239 38.351C14.9948 37.4514 14.4362 36.5045 13.9529 35.5188C13.8443 35.2987 13.7418 35.0755 13.6513 34.8523C13.6415 34.8276 13.6304 34.8034 13.6181 34.7799C12.3952 32.0262 11.7652 29.046 11.7692 26.0329C11.7596 21.6258 13.1099 17.3231 15.636 13.7118C16.2149 12.8851 16.8498 12.099 17.5362 11.3591C19.7583 8.96307 22.4983 7.10615 25.5472 5.92998C26.4728 5.57208 27.4222 5.2788 28.3884 5.05226C30.007 4.67389 31.6638 4.48362 33.3259 4.48522C37.1839 4.47697 40.9726 5.50959 44.2928 7.47427L44.1993 7.38378L44.0757 7.26313L44.0364 7.22694L43.9249 7.12137L43.8042 7.00977L43.7831 6.98866L43.6443 6.86198L43.587 6.80467L43.5569 6.78054L43.3578 6.59957L43.1346 6.40653L43.0652 6.3462L42.9144 6.21651L42.8119 6.13206L42.7576 6.08682L42.7154 6.05364L42.6942 6.03856L42.5193 5.89378L42.3896 5.78822L41.9553 5.44738L41.8376 5.35388L41.7894 5.31769L41.7592 5.29658L41.7381 5.28149L41.6567 5.22117L41.6265 5.19704L41.5149 5.1156L41.4787 5.08846L41.4154 5.04322L41.3701 5.01305L41.2374 4.91653L41.2073 4.89542L40.8815 4.6692L40.7337 4.56967L40.6975 4.54555L40.4773 4.40076L40.4291 4.3706L40.2722 4.26805L40.034 4.11724C39.9525 4.06597 39.8711 4.01469 39.7866 3.96643L39.6539 3.885L39.5906 3.8488L39.5152 3.80356L39.4699 3.77641L39.292 3.67386L39.2467 3.64672L39.1834 3.61052L39.0175 3.51702C38.6495 3.3089 38.2725 3.11285 37.8925 2.91378H37.8683C37.7869 2.87156 37.7024 2.83234 37.615 2.79313L37.3948 2.68455H37.3767H37.3616C37.0962 2.56089 36.8549 2.4523 36.6196 2.35277H36.5985L36.4296 2.28038H36.4055H36.3874L36.2878 2.23815L36.1793 2.19593L36.128 2.17481L35.4825 1.92145L35.3679 1.88224L35.2503 1.837C34.9306 1.72238 34.6018 1.60776 34.27 1.5022H34.2459L34.0559 1.44188L33.8598 1.38155L33.7452 1.34536L33.332 1.22773H33.3139L33.2596 1.21265L33.1751 1.19153H33.157H33.1299C32.8584 1.11914 32.5779 1.05279 32.2974 0.98945L31.8028 0.877852C31.5223 0.817528 31.2448 0.760221 30.9612 0.708946L30.6596 0.654647L30.358 0.603377L30.2132 0.582262L30.0323 0.555117C29.7306 0.51289 29.429 0.476697 29.1274 0.443519C28.5453 0.383195 27.9571 0.343984 27.369 0.319854C27.0432 0.319854 26.7144 0.301758 26.3887 0.301758C25.8397 0.301758 25.2878 0.322869 24.7358 0.356047H24.5609C23.9576 0.398274 23.3544 0.461615 22.7512 0.546069L22.4284 0.59131L0.678654 22.3411L0.30163 22.0576Z" fill="#F57105"/>
<path d="M51.7609 29.9693V29.9271C51.7609 29.8909 51.7609 29.8547 51.7609 29.8185V29.7793C51.7609 29.731 51.7609 29.6828 51.7821 29.6345V29.6013V29.5712C51.7821 29.5561 51.7821 29.541 51.7821 29.5259L51.8002 29.3631L51.8183 29.2515C51.8183 29.1429 51.8424 29.0433 51.8544 28.9498C51.8544 28.8533 51.8756 28.7598 51.8846 28.6693C51.8937 28.5788 51.8846 28.5185 51.9057 28.4461V28.3768C51.9057 28.3255 51.9057 28.2742 51.9057 28.2229V28.1837C51.9057 28.1174 51.9057 28.054 51.9057 27.9877V27.9605C51.9057 27.864 51.9057 27.7645 51.9268 27.6589L51.9449 27.3573V27.2457C51.9449 27.1612 51.9449 27.0798 51.9449 26.9954C51.9449 26.9109 51.9449 26.7722 51.9449 26.6666V26.6032C51.9449 26.5248 51.9449 26.4464 51.9449 26.368V25.7828C51.8827 20.8593 49.8757 16.1601 46.362 12.7106C42.8594 9.23951 38.1244 7.29716 33.1933 7.30864C32.0564 7.30715 30.9218 7.4081 29.803 7.61026C32.3859 9.17454 34.6115 11.2636 36.3361 13.7422C38.8607 17.3542 40.2109 21.6565 40.2029 26.0633C40.2109 30.4702 38.8607 34.7725 36.3361 38.3845C33.8834 41.9112 30.4317 44.6234 26.4249 46.1723C23.9441 47.1327 21.3064 47.6237 18.6461 47.6201C14.7883 47.6273 10.9999 46.5947 7.67926 44.631L7.69435 44.6461V44.6612L7.74261 44.7064L7.79388 44.7577L7.92056 44.8814L8.1528 45.1046L8.31266 45.2524L8.59921 45.5118L8.78923 45.6807L8.83145 45.7169L9.01845 45.8767L9.05464 45.9099L9.20545 46.0336L9.22657 46.0486L9.24467 46.0667L9.38945 46.1874H9.40754L9.42564 46.2025L9.54026 46.296H9.55533C9.69408 46.4106 9.83886 46.5222 9.98364 46.6308L10.0802 46.7062L10.1857 46.7876L10.246 46.8298L10.2792 46.857L10.4542 46.9867L10.5115 47.0259L10.5989 47.0892L10.7286 47.1858L10.7769 47.2189L11.0996 47.4451L11.2444 47.5447L11.2806 47.5688L11.4012 47.6472L11.5279 47.7317L11.73 47.8614L11.9291 47.9911H12.095L12.3966 48.2716L12.5353 48.356L12.8068 48.5129L13.024 48.6365C13.407 48.8537 13.7961 49.0588 14.1852 49.2398L14.4446 49.3634L14.4808 49.3846L14.7251 49.4992C14.9694 49.6138 15.2197 49.7254 15.4641 49.831L15.648 49.9094L15.7054 49.9365L15.9527 50.0361C16.1518 50.1175 16.3689 50.202 16.5951 50.2864L16.8063 50.3648H16.8244C17.1561 50.4855 17.4849 50.5971 17.8016 50.6966L17.9946 50.7569H18.0127L18.3144 50.8444L18.3958 50.8685L18.7396 50.9681L18.9206 51.0163H18.9357C19.6505 51.2094 20.3805 51.3722 21.1013 51.4989H21.1164L21.418 51.5502L21.7196 51.5984H21.7498C21.8493 51.6165 21.9519 51.6316 22.0514 51.6437C23.2578 51.8101 24.4742 51.8938 25.692 51.894C26.9108 51.8939 28.1282 51.8102 29.3355 51.6437H29.3597L29.6613 51.6015H29.6824L51.4322 29.8517C51.4322 29.8517 51.7579 29.9814 51.7609 29.9693Z" fill="white"/>
</g>
<defs>
<clipPath id="clip0_20_74">
<rect width="51.8785" height="52.1802" fill="white"/>
</clipPath>
</defs>
</svg>
