<svg width="100" height="90" viewBox="0 0 100 90" fill="none" xmlns="http://www.w3.org/2000/svg">
<path d="M47.8477 0C37.4384 0 29 8.43838 29 18.8477C29 22.3288 29.6814 25.9242 31.6367 28.5156L47.8477 50L64.0586 28.5156C65.8346 26.1619 66.6953 22.0008 66.6953 18.8477C66.6953 8.43838 58.2569 0 47.8477 0ZM48 23C52.3798 23 49 16.6202 49 21C50 25.1523 42.6277 21.0602 47 22C51.5 22.9673 45.0838 21.6523 45 17.5C45.1312 24 44.5 22.5 48 23Z" fill="#1D29FF"/>
<g clip-path="url(#clip0_40_4440)">
<path d="M35.1161 17.7644V17.7698L35.1147 17.7739L35.1161 17.7698V17.7644Z" fill="#FFFBF8"/>
<path d="M35.1132 17.7876V17.7944L35.1118 17.7957L35.1132 17.7944V17.7876Z" fill="#FFFBF8"/>
<path d="M35.1309 17.659C35.1309 17.6373 35.1378 17.6157 35.1406 17.594C35.1406 17.6157 35.1336 17.6373 35.1309 17.659Z" fill="#FFFBF8"/>
<path d="M35.1292 17.6748C35.1285 17.6878 35.1285 17.7008 35.1292 17.7138C35.125 17.7008 35.1278 17.6878 35.1292 17.6748Z" fill="#FFFBF8"/>
<path d="M35.0451 18.3989C35.0451 18.4134 35.0451 18.4278 35.0451 18.4423C35.0437 18.4278 35.0451 18.4134 35.0451 18.3989Z" fill="#FFFBF8"/>
<path d="M35.0317 18.5547V18.5359C35.0317 18.5431 35.0317 18.5489 35.0317 18.5561C35.0317 18.6009 35.0248 18.65 35.022 18.7005C35.0317 18.65 35.0317 18.6009 35.0317 18.5547Z" fill="#FFFBF8"/>
<path d="M43.439 12.445C44.5093 11.2964 45.8298 10.4067 47.2994 9.84384C47.7452 9.67125 48.2028 9.53024 48.6686 9.42188C48.203 9.53041 47.7455 9.67092 47.2994 9.8424C45.8301 10.4063 44.5097 11.2965 43.439 12.445Z" fill="#FFFBF8"/>
<path d="M35.003 19.2136V19.1963C35.0023 19.1886 35.0023 19.1809 35.003 19.1732C35.003 19.1241 35.003 19.0764 35.003 19.0288C35.0037 19.0168 35.0037 19.0047 35.003 18.9927C35.0037 19.0042 35.0037 19.0158 35.003 19.0273C35.003 19.0793 35.003 19.127 35.003 19.1718V19.2122C35.003 19.2512 35.003 19.2916 35.003 19.3321C35.0016 19.2931 35.0016 19.2526 35.003 19.2136Z" fill="#FFFBF8"/>
<path d="M35.145 17.5679V17.5795V17.594C35.145 17.6156 35.1377 17.6373 35.1348 17.659C35.1342 17.6628 35.1342 17.6667 35.1348 17.6705C35.1348 17.6835 35.1348 17.6966 35.1348 17.7096V17.7428V17.7601V17.7919C35.1348 17.8324 35.1247 17.8743 35.1189 17.9162L35.1058 18.0275V18.0708C35.1058 18.1171 35.0956 18.1619 35.0898 18.2067L35.0811 18.3093V18.3425V18.383C35.0811 18.3974 35.0811 18.4119 35.0811 18.4263C35.0803 18.4335 35.0803 18.4408 35.0811 18.448C35.0803 18.4586 35.0803 18.4692 35.0811 18.4798C35.0811 18.4942 35.0811 18.5072 35.0811 18.5203V18.539C35.0811 18.5853 35.0738 18.6344 35.0709 18.6835V18.7544V18.8281V18.8367C35.0709 18.8367 35.0709 18.8468 35.0709 18.8526V18.8599V18.8685V18.9523C35.0716 18.9644 35.0716 18.9764 35.0709 18.9885C35.0709 19.039 35.0709 19.0867 35.0709 19.133C35.0701 19.1407 35.0701 19.1484 35.0709 19.1561V19.1734C35.0709 19.2124 35.0709 19.2529 35.0709 19.2934V19.3252V19.5636C35.1 21.9227 36.0672 24.1745 37.7613 25.8266C39.4264 27.4898 41.6831 28.4346 44.0433 28.4567C44.4208 28.4564 44.798 28.4327 45.1726 28.3859C45.3412 28.3642 45.5098 28.3411 45.677 28.3107C44.4324 27.5618 43.3598 26.5614 42.5287 25.3743C42.2256 24.9433 41.9564 24.4896 41.7235 24.0174C41.6712 23.9119 41.6218 23.8049 41.5782 23.698C41.5734 23.6862 41.5681 23.6746 41.5622 23.6633C40.9728 22.344 40.6693 20.9161 40.6712 19.4726C40.6666 17.3611 41.3173 15.2996 42.5346 13.5694C42.8135 13.1733 43.1195 12.7967 43.4502 12.4422C44.5211 11.2942 45.8415 10.4046 47.3107 9.84106C47.7568 9.66959 48.2143 9.52908 48.6799 9.42054C49.4599 9.23926 50.2583 9.1481 51.0593 9.14887C52.9184 9.14491 54.7442 9.63965 56.3441 10.5809L56.2991 10.5376L56.2395 10.4798L56.2206 10.4624L56.1668 10.4119L56.1087 10.3584L56.0985 10.3483L56.0316 10.2876L56.004 10.2601L55.9895 10.2486L55.8936 10.1619L55.786 10.0694L55.7526 10.0405L55.6799 9.97834L55.6305 9.93788L55.6043 9.91621L55.584 9.90031L55.5738 9.89308L55.4895 9.82372L55.427 9.77314L55.2177 9.60985L55.161 9.56505L55.1377 9.54771L55.1232 9.53759L55.113 9.53037L55.0738 9.50147L55.0593 9.4899L55.0055 9.45089L54.988 9.43788L54.9575 9.41621L54.9357 9.40176L54.8718 9.35551L54.8572 9.3454L54.7002 9.23701L54.629 9.18933L54.6116 9.17777L54.5055 9.1084L54.4822 9.09395L54.4066 9.04482L54.2918 8.97257C54.2526 8.948 54.2133 8.92343 54.1726 8.90031L54.1087 8.86129L54.0782 8.84395L54.0418 8.82227L54.02 8.80927L53.9343 8.76014L53.9125 8.74713L53.8819 8.72979L53.802 8.68499C53.6247 8.58528 53.443 8.49135 53.2598 8.39598H53.2482C53.209 8.37575 53.1683 8.35696 53.1261 8.33817L53.02 8.28615H53.0113H53.004C52.8761 8.2269 52.7598 8.17488 52.6465 8.12719H52.6363L52.5549 8.09251H52.5433H52.5345L52.4866 8.07227L52.4343 8.05205L52.4095 8.04193L52.0985 7.92054L52.0433 7.90176L51.9866 7.88008C51.8325 7.82517 51.6741 7.77025 51.5142 7.71967H51.5026L51.411 7.69077L51.3165 7.66187L51.2613 7.64453L51.0622 7.58817H51.0534L51.0273 7.58095L50.9866 7.57083H50.9779H50.9648C50.834 7.53615 50.6988 7.50436 50.5636 7.47401L50.3252 7.42054C50.1901 7.39164 50.0564 7.36419 49.9197 7.33962L49.7744 7.3136L49.629 7.28904L49.5593 7.27892L49.4721 7.26592C49.3267 7.24569 49.1814 7.22835 49.036 7.21245C48.7555 7.18355 48.4721 7.16476 48.1886 7.1532C48.0316 7.1532 47.8732 7.14453 47.7162 7.14453C47.4517 7.14453 47.1857 7.15465 46.9197 7.17054H46.8354C46.5447 7.19077 46.254 7.22112 45.9633 7.26158L45.8078 7.28326L35.3267 17.7038L35.145 17.5679Z" fill="#F57105"/>
<path d="M59.9434 21.3584V21.3382C59.9434 21.3209 59.9434 21.3035 59.9434 21.2862V21.2674C59.9434 21.2443 59.9434 21.2211 59.9536 21.198V21.1821V21.1677C59.9536 21.1604 59.9536 21.1532 59.9536 21.146L59.9623 21.068L59.971 21.0145C59.971 20.9625 59.9827 20.9148 59.9885 20.87C59.9885 20.8237 59.9986 20.7789 60.003 20.7356C60.0074 20.6922 60.003 20.6633 60.0132 20.6287V20.5954C60.0132 20.5709 60.0132 20.5463 60.0132 20.5217V20.5029C60.0132 20.4711 60.0132 20.4408 60.0132 20.409V20.396C60.0132 20.3498 60.0132 20.3021 60.0234 20.2515L60.0321 20.107V20.0535C60.0321 20.0131 60.0321 19.974 60.0321 19.9336C60.0321 19.8931 60.0321 19.8266 60.0321 19.7761V19.7457C60.0321 19.7081 60.0321 19.6706 60.0321 19.633V19.3526C60.0021 16.9937 59.0349 14.7423 57.3417 13.0896C55.6538 11.4266 53.3721 10.496 50.9957 10.5015C50.4479 10.5008 49.9011 10.5491 49.362 10.646C50.6067 11.3955 51.6792 12.3963 52.5103 13.5839C53.7269 15.3144 54.3775 17.3757 54.3736 19.487C54.3775 21.5984 53.7269 23.6597 52.5103 25.3902C51.3283 27.0799 49.665 28.3794 47.7341 29.1214C46.5386 29.5816 45.2675 29.8168 43.9856 29.8151C42.1265 29.8185 40.3009 29.3238 38.7007 28.383L38.708 28.3902V28.3974L38.7312 28.4191L38.7559 28.4437L38.817 28.5029L38.9289 28.6099L39.0059 28.6807L39.144 28.805L39.2356 28.8859L39.2559 28.9032L39.346 28.9798L39.3635 28.9957L39.4361 29.055L39.4463 29.0622L39.455 29.0709L39.5248 29.1287H39.5335L39.5423 29.1359L39.5975 29.1807H39.6048C39.6716 29.2356 39.7414 29.2891 39.8112 29.3411L39.8577 29.3772L39.9085 29.4162L39.9376 29.4365L39.9536 29.4495L40.0379 29.5116L40.0655 29.5304L40.1077 29.5607L40.1702 29.607L40.1934 29.6229L40.3489 29.7313L40.4187 29.7789L40.4361 29.7905L40.4943 29.8281L40.5553 29.8685L40.6527 29.9307L40.7486 29.9928H40.8286L40.9739 30.1272L41.0408 30.1677L41.1716 30.2428L41.2763 30.3021C41.4609 30.4061 41.6484 30.5044 41.8359 30.5911L41.9609 30.6503L41.9783 30.6604L42.096 30.7154C42.2138 30.7703 42.3344 30.8237 42.4521 30.8743L42.5408 30.9119L42.5684 30.9249L42.6876 30.9726C42.7835 31.0116 42.8882 31.0521 42.9972 31.0925L43.0989 31.1301H43.1077C43.2675 31.1879 43.426 31.2414 43.5786 31.2891L43.6716 31.318H43.6803L43.8257 31.3599L43.8649 31.3714L44.0306 31.4191L44.1178 31.4422H44.1251C44.4696 31.5347 44.8213 31.6128 45.1687 31.6735H45.176L45.3213 31.698L45.4667 31.7211H45.4812C45.5292 31.7298 45.5786 31.737 45.6266 31.7428C46.2079 31.8226 46.7941 31.8626 47.3809 31.8628C47.9683 31.8627 48.5549 31.8226 49.1367 31.7428H49.1484L49.2937 31.7226H49.3039L59.785 21.3021C59.785 21.3021 59.942 21.3642 59.9434 21.3584Z" fill="white"/>
</g>
<rect y="60" width="100" height="30" rx="15" fill="white"/>
<path d="M14.4798 80C14.3771 80 14.2931 79.9673 14.2278 79.902C14.1624 79.8367 14.1298 79.7527 14.1298 79.65V70.55C14.1298 70.4473 14.1624 70.3633 14.2278 70.298C14.2931 70.2327 14.3771 70.2 14.4798 70.2H20.8218C20.9244 70.2 21.0084 70.2327 21.0738 70.298C21.1391 70.3633 21.1718 70.4473 21.1718 70.55V71.67C21.1718 71.7633 21.1391 71.8427 21.0738 71.908C21.0084 71.9733 20.9244 72.006 20.8218 72.006H16.2858V74.204H20.5138C20.6164 74.204 20.7004 74.2367 20.7658 74.302C20.8311 74.3673 20.8638 74.4513 20.8638 74.554V75.59C20.8638 75.6833 20.8311 75.7627 20.7658 75.828C20.7004 75.8933 20.6164 75.926 20.5138 75.926H16.2858V78.194H20.9338C21.0364 78.194 21.1204 78.2267 21.1858 78.292C21.2511 78.3573 21.2838 78.4413 21.2838 78.544V79.65C21.2838 79.7527 21.2511 79.8367 21.1858 79.902C21.1204 79.9673 21.0364 80 20.9338 80H14.4798ZM23.2981 80C23.1954 80 23.1114 79.9673 23.0461 79.902C22.9808 79.8367 22.9481 79.7527 22.9481 79.65V70.55C22.9481 70.4473 22.9808 70.3633 23.0461 70.298C23.1114 70.2327 23.1954 70.2 23.2981 70.2H26.8121C27.7454 70.2 28.5248 70.3493 29.1501 70.648C29.7754 70.9373 30.2514 71.3667 30.5781 71.936C30.9141 72.496 31.0914 73.1913 31.1101 74.022C31.1194 74.4327 31.1241 74.792 31.1241 75.1C31.1241 75.408 31.1194 75.7627 31.1101 76.164C31.0821 77.032 30.9094 77.7507 30.5921 78.32C30.2748 78.8893 29.8081 79.314 29.1921 79.594C28.5761 79.8647 27.8061 80 26.8821 80H23.2981ZM25.1741 78.194H26.8121C27.2788 78.194 27.6614 78.124 27.9601 77.984C28.2588 77.844 28.4781 77.6247 28.6181 77.326C28.7674 77.018 28.8468 76.6213 28.8561 76.136C28.8654 75.8653 28.8701 75.6227 28.8701 75.408C28.8794 75.1933 28.8794 74.9787 28.8701 74.764C28.8701 74.5493 28.8654 74.3113 28.8561 74.05C28.8374 73.35 28.6554 72.8367 28.3101 72.51C27.9741 72.174 27.4514 72.006 26.7421 72.006H25.1741V78.194ZM36.8779 80.14C36.0566 80.14 35.3379 80.0047 34.7219 79.734C34.1059 79.454 33.6299 79.0293 33.2939 78.46C32.9579 77.8813 32.7899 77.1487 32.7899 76.262V70.55C32.7899 70.4473 32.8226 70.3633 32.8879 70.298C32.9532 70.2327 33.0372 70.2 33.1399 70.2H34.6659C34.7686 70.2 34.8526 70.2327 34.9179 70.298C34.9832 70.3633 35.0159 70.4473 35.0159 70.55V76.248C35.0159 76.9387 35.1792 77.452 35.5059 77.788C35.8326 78.124 36.2899 78.292 36.8779 78.292C37.4566 78.292 37.9092 78.124 38.2359 77.788C38.5626 77.452 38.7259 76.9387 38.7259 76.248V70.55C38.7259 70.4473 38.7586 70.3633 38.8239 70.298C38.8986 70.2327 38.9826 70.2 39.0759 70.2H40.6159C40.7092 70.2 40.7886 70.2327 40.8539 70.298C40.9192 70.3633 40.9519 70.4473 40.9519 70.55V76.262C40.9519 77.1487 40.7839 77.8813 40.4479 78.46C40.1119 79.0293 39.6406 79.454 39.0339 79.734C38.4272 80.0047 37.7086 80.14 36.8779 80.14ZM46.4644 80.14C45.5684 80.14 44.8171 80.0093 44.2104 79.748C43.6131 79.4867 43.1604 79.146 42.8524 78.726C42.5444 78.306 42.3811 77.858 42.3624 77.382C42.3624 77.3073 42.3904 77.242 42.4464 77.186C42.5024 77.1207 42.5724 77.088 42.6564 77.088H44.1544C44.2757 77.088 44.3691 77.116 44.4344 77.172C44.4997 77.2187 44.5604 77.2793 44.6164 77.354C44.6817 77.5127 44.7844 77.6667 44.9244 77.816C45.0737 77.9653 45.2744 78.0913 45.5264 78.194C45.7784 78.2873 46.0911 78.334 46.4644 78.334C47.0711 78.334 47.5237 78.236 47.8224 78.04C48.1304 77.844 48.2844 77.578 48.2844 77.242C48.2844 76.9993 48.2004 76.8033 48.0324 76.654C47.8737 76.5047 47.6171 76.3693 47.2624 76.248C46.9171 76.1267 46.4551 75.996 45.8764 75.856C45.1764 75.7067 44.5791 75.5153 44.0844 75.282C43.5991 75.0393 43.2304 74.7313 42.9784 74.358C42.7357 73.9753 42.6144 73.504 42.6144 72.944C42.6144 72.384 42.7684 71.8893 43.0764 71.46C43.3844 71.0213 43.8184 70.6807 44.3784 70.438C44.9384 70.186 45.6057 70.06 46.3804 70.06C47.0057 70.06 47.5564 70.144 48.0324 70.312C48.5177 70.48 48.9191 70.6993 49.2364 70.97C49.5631 71.2407 49.8104 71.53 49.9784 71.838C50.1464 72.146 50.2351 72.4447 50.2444 72.734C50.2444 72.8087 50.2164 72.8787 50.1604 72.944C50.1044 73 50.0344 73.028 49.9504 73.028H48.3824C48.2891 73.028 48.2051 73.0093 48.1304 72.972C48.0557 72.9347 47.9951 72.8693 47.9484 72.776C47.8924 72.5333 47.7244 72.3233 47.4444 72.146C47.1737 71.9593 46.8191 71.866 46.3804 71.866C45.9231 71.866 45.5591 71.95 45.2884 72.118C45.0271 72.286 44.8964 72.5427 44.8964 72.888C44.8964 73.112 44.9617 73.3033 45.0924 73.462C45.2324 73.6113 45.4611 73.7467 45.7784 73.868C46.1051 73.98 46.5344 74.106 47.0664 74.246C47.8877 74.414 48.5551 74.6147 49.0684 74.848C49.5817 75.0813 49.9597 75.3847 50.2024 75.758C50.4451 76.122 50.5664 76.584 50.5664 77.144C50.5664 77.7693 50.3891 78.306 50.0344 78.754C49.6891 79.202 49.2084 79.5473 48.5924 79.79C47.9857 80.0233 47.2764 80.14 46.4644 80.14ZM52.4192 80C52.3165 80 52.2325 79.9673 52.1672 79.902C52.1019 79.8367 52.0692 79.7527 52.0692 79.65V70.55C52.0692 70.4473 52.1019 70.3633 52.1672 70.298C52.2325 70.2327 52.3165 70.2 52.4192 70.2H56.2412C56.9972 70.2 57.6505 70.3167 58.2012 70.55C58.7612 70.7833 59.1952 71.138 59.5032 71.614C59.8205 72.0807 59.9792 72.664 59.9792 73.364C59.9792 74.0733 59.8205 74.6613 59.5032 75.128C59.1952 75.5853 58.7612 75.926 58.2012 76.15C57.6505 76.374 56.9972 76.486 56.2412 76.486H54.3652V79.65C54.3652 79.7527 54.3325 79.8367 54.2672 79.902C54.2019 79.9673 54.1179 80 54.0152 80H52.4192ZM54.3232 74.75H56.1712C56.6472 74.75 57.0159 74.6333 57.2772 74.4C57.5479 74.1667 57.6832 73.8167 57.6832 73.35C57.6832 72.9393 57.5619 72.6033 57.3192 72.342C57.0859 72.0807 56.7032 71.95 56.1712 71.95H54.3232V74.75ZM60.1905 80C60.1065 80 60.0365 79.972 59.9805 79.916C59.9245 79.8507 59.8965 79.7807 59.8965 79.706C59.8965 79.6593 59.9012 79.6173 59.9105 79.58L63.2425 70.578C63.2705 70.4753 63.3265 70.3867 63.4105 70.312C63.4945 70.2373 63.6112 70.2 63.7605 70.2H65.5525C65.7018 70.2 65.8185 70.2373 65.9025 70.312C65.9865 70.3867 66.0425 70.4753 66.0705 70.578L69.4025 79.58C69.4118 79.6173 69.4165 79.6593 69.4165 79.706C69.4165 79.7807 69.3885 79.8507 69.3325 79.916C69.2765 79.972 69.2065 80 69.1225 80H67.6665C67.5265 80 67.4238 79.9673 67.3585 79.902C67.2932 79.8367 67.2512 79.776 67.2325 79.72L66.6305 78.152H62.6825L62.0805 79.72C62.0618 79.776 62.0198 79.8367 61.9545 79.902C61.8892 79.9673 61.7865 80 61.6465 80H60.1905ZM63.2005 76.346H66.0985L64.6565 72.314L63.2005 76.346ZM74.3089 80.14C73.4315 80.14 72.6849 79.9953 72.0689 79.706C71.4622 79.4073 70.9909 78.978 70.6549 78.418C70.3189 77.8487 70.1322 77.158 70.0949 76.346C70.0855 75.9633 70.0809 75.5527 70.0809 75.114C70.0809 74.6753 70.0855 74.2553 70.0949 73.854C70.1322 73.0513 70.3189 72.37 70.6549 71.81C71.0002 71.2407 71.4809 70.8067 72.0969 70.508C72.7129 70.2093 73.4502 70.06 74.3089 70.06C74.9342 70.06 75.5035 70.1393 76.0169 70.298C76.5302 70.4567 76.9735 70.6853 77.3469 70.984C77.7202 71.2827 78.0095 71.6327 78.2149 72.034C78.4202 72.4353 78.5322 72.8833 78.5509 73.378C78.5509 73.462 78.5182 73.532 78.4529 73.588C78.3969 73.644 78.3269 73.672 78.2429 73.672H76.6469C76.5349 73.672 76.4462 73.644 76.3809 73.588C76.3155 73.532 76.2642 73.4387 76.2269 73.308C76.0869 72.7573 75.8535 72.3793 75.5269 72.174C75.2002 71.9687 74.7942 71.866 74.3089 71.866C73.7302 71.866 73.2729 72.0247 72.9369 72.342C72.6009 72.6593 72.4189 73.1867 72.3909 73.924C72.3629 74.6893 72.3629 75.4733 72.3909 76.276C72.4189 77.0133 72.6009 77.5407 72.9369 77.858C73.2729 78.1753 73.7302 78.334 74.3089 78.334C74.7942 78.334 75.2002 78.2313 75.5269 78.026C75.8629 77.8113 76.0962 77.4333 76.2269 76.892C76.2642 76.752 76.3155 76.6587 76.3809 76.612C76.4462 76.556 76.5349 76.528 76.6469 76.528H78.2429C78.3269 76.528 78.3969 76.556 78.4529 76.612C78.5182 76.668 78.5509 76.738 78.5509 76.822C78.5322 77.3167 78.4202 77.7647 78.2149 78.166C78.0095 78.5673 77.7202 78.9173 77.3469 79.216C76.9735 79.5147 76.5302 79.7433 76.0169 79.902C75.5035 80.0607 74.9342 80.14 74.3089 80.14ZM80.4739 80C80.3712 80 80.2872 79.9673 80.2219 79.902C80.1566 79.8367 80.1239 79.7527 80.1239 79.65V70.55C80.1239 70.4473 80.1566 70.3633 80.2219 70.298C80.2872 70.2327 80.3712 70.2 80.4739 70.2H86.8159C86.9186 70.2 87.0026 70.2327 87.0679 70.298C87.1332 70.3633 87.1659 70.4473 87.1659 70.55V71.67C87.1659 71.7633 87.1332 71.8427 87.0679 71.908C87.0026 71.9733 86.9186 72.006 86.8159 72.006H82.2799V74.204H86.5079C86.6106 74.204 86.6946 74.2367 86.7599 74.302C86.8252 74.3673 86.8579 74.4513 86.8579 74.554V75.59C86.8579 75.6833 86.8252 75.7627 86.7599 75.828C86.6946 75.8933 86.6106 75.926 86.5079 75.926H82.2799V78.194H86.9279C87.0306 78.194 87.1146 78.2267 87.1799 78.292C87.2452 78.3573 87.2779 78.4413 87.2779 78.544V79.65C87.2779 79.7527 87.2452 79.8367 87.1799 79.902C87.1146 79.9673 87.0306 80 86.9279 80H80.4739Z" fill="#1D29FF"/>
<defs>
<clipPath id="clip0_40_4440">
<rect width="25" height="25" fill="white" transform="translate(35 7)"/>
</clipPath>
</defs>
</svg>
