<svg width="24" height="25" viewBox="0 0 24 25" fill="none" xmlns="http://www.w3.org/2000/svg">
<path d="M19.5 20.25H4.5C4.10218 20.25 3.72064 20.092 3.43934 19.8107C3.15804 19.5294 3 19.1478 3 18.75V8.25C3 7.85218 3.15804 7.47064 3.43934 7.18934C3.72064 6.90804 4.10218 6.75 4.5 6.75H7.49945L8.99945 4.5H14.9995L16.4995 6.75H19.5C19.8978 6.75 20.2794 6.90804 20.5607 7.18934C20.842 7.47064 21 7.85218 21 8.25V18.75C21 19.1478 20.842 19.5294 20.5607 19.8107C20.2794 20.092 19.8978 20.25 19.5 20.25Z" stroke="#474747" stroke-width="1.5" stroke-linecap="round" stroke-linejoin="round"/>
<path d="M12 16.5C13.864 16.5 15.375 14.989 15.375 13.125C15.375 11.261 13.864 9.75 12 9.75C10.136 9.75 8.625 11.261 8.625 13.125C8.625 14.989 10.136 16.5 12 16.5Z" stroke="#474747" stroke-width="1.5" stroke-linecap="round" stroke-linejoin="round"/>
</svg>
