<svg width="24" height="25" viewBox="0 0 24 25" fill="none" xmlns="http://www.w3.org/2000/svg">
<path d="M20.25 7H3.75C3.33579 7 3 7.33579 3 7.75V19.75C3 20.1642 3.33579 20.5 3.75 20.5H20.25C20.6642 20.5 21 20.1642 21 19.75V7.75C21 7.33579 20.6642 7 20.25 7Z" stroke="#474747" stroke-width="1.5" stroke-linecap="round" stroke-linejoin="round"/>
<path d="M15.75 7V5.5C15.75 5.10218 15.592 4.72064 15.3107 4.43934C15.0294 4.15804 14.6478 4 14.25 4H9.75C9.35218 4 8.97064 4.15804 8.68934 4.43934C8.40804 4.72064 8.25 5.10218 8.25 5.5V7" stroke="#474747" stroke-width="1.5" stroke-linecap="round" stroke-linejoin="round"/>
<path d="M12 11.125V16.375" stroke="#474747" stroke-width="1.5" stroke-linecap="round" stroke-linejoin="round"/>
<path d="M14.625 13.75H9.375" stroke="#474747" stroke-width="1.5" stroke-linecap="round" stroke-linejoin="round"/>
</svg>
