<svg width="24" height="25" viewBox="0 0 24 25" fill="none" xmlns="http://www.w3.org/2000/svg">
<path d="M2.99902 5V18C2.99902 18.1164 3.02613 18.2313 3.0782 18.3354C3.13027 18.4396 3.20588 18.5301 3.29902 18.6C3.39217 18.6699 3.5003 18.7171 3.61486 18.7379C3.72942 18.7587 3.84725 18.7526 3.95902 18.72L20.459 13.9075C20.6148 13.8621 20.7517 13.7673 20.849 13.6375C20.9464 13.5077 20.999 13.3498 20.999 13.1875V9.8125C20.999 9.65022 20.9464 9.49232 20.849 9.3625C20.7517 9.23268 20.6148 9.13794 20.459 9.0925L3.95902 4.28C3.84725 4.2474 3.72942 4.24127 3.61486 4.2621C3.5003 4.28293 3.39217 4.33014 3.29902 4.4C3.20588 4.46986 3.13027 4.56045 3.0782 4.66459C3.02613 4.76873 2.99902 4.88357 2.99902 5V5Z" stroke="#474747" stroke-width="1.5" stroke-linecap="round" stroke-linejoin="round"/>
<path d="M17.25 14.8437V18.2501C17.25 18.449 17.171 18.6398 17.0303 18.7804C16.8897 18.9211 16.6989 19.0001 16.5 19.0001H13.5C13.3011 19.0001 13.1103 18.9211 12.9697 18.7804C12.829 18.6398 12.75 18.449 12.75 18.2501V6.84399" stroke="#474747" stroke-width="1.5" stroke-linecap="round" stroke-linejoin="round"/>
</svg>
