<svg width="24" height="25" viewBox="0 0 24 25" fill="none" xmlns="http://www.w3.org/2000/svg">
<path d="M21 17.1239V7.87622C21 7.74314 20.9646 7.61246 20.8974 7.49759C20.8302 7.38271 20.7337 7.28778 20.6177 7.22254L12.3677 2.58191C12.2554 2.51877 12.1288 2.4856 12 2.4856C11.8712 2.4856 11.7446 2.51877 11.6323 2.58191L3.3823 7.22254C3.26632 7.28778 3.16978 7.38271 3.10259 7.49759C3.03541 7.61246 3 7.74314 3 7.87622V17.1239C3 17.257 3.03541 17.3877 3.10259 17.5026C3.16978 17.6175 3.26632 17.7124 3.3823 17.7776L11.6323 22.4183C11.7446 22.4814 11.8712 22.5146 12 22.5146C12.1288 22.5146 12.2554 22.4814 12.3677 22.4183L20.6177 17.7776C20.7337 17.7124 20.8302 17.6175 20.8974 17.5026C20.9646 17.3877 21 17.257 21 17.1239Z" stroke="#474747" stroke-width="1.5" stroke-linecap="round" stroke-linejoin="round"/>
<path d="M16.5958 14.7979V9.92291L7.5 4.90625" stroke="#474747" stroke-width="1.5" stroke-linecap="round" stroke-linejoin="round"/>
<path d="M20.8962 7.4963L12.0886 12.5L3.10352 7.49536" stroke="#474747" stroke-width="1.5" stroke-linecap="round" stroke-linejoin="round"/>
<path d="M12.089 12.5L12.001 22.5145" stroke="#474747" stroke-width="1.5" stroke-linecap="round" stroke-linejoin="round"/>
</svg>
