<svg width="24" height="24" viewBox="0 0 24 24" fill="none" xmlns="http://www.w3.org/2000/svg">
<path d="M10.875 15C11.9105 15 12.75 14.1605 12.75 13.125C12.75 12.0895 11.9105 11.25 10.875 11.25C9.83947 11.25 9 12.0895 9 13.125C9 14.1605 9.83947 15 10.875 15Z" stroke="#474747" stroke-width="1.5" stroke-linecap="round" stroke-linejoin="round"/>
<path d="M3 21.0004L9.54862 14.4509" stroke="#474747" stroke-width="1.5" stroke-linecap="round" stroke-linejoin="round"/>
<path d="M3 21.0002L16.073 18.8214C16.2029 18.7998 16.3247 18.7444 16.4263 18.6607C16.5279 18.5771 16.6058 18.4682 16.652 18.345L18.75 12.7502L11.25 5.25024L5.65529 7.34826C5.53206 7.39448 5.42316 7.4723 5.33953 7.57393C5.2559 7.67555 5.20048 7.79739 5.17884 7.92721L3 21.0002Z" stroke="#474747" stroke-width="1.5" stroke-linecap="round" stroke-linejoin="round"/>
<path d="M18.75 12.7504L21.2197 10.2807C21.2893 10.2111 21.3446 10.1284 21.3822 10.0374C21.4199 9.94639 21.4393 9.84887 21.4393 9.75037C21.4393 9.65188 21.4199 9.55436 21.3822 9.46336C21.3446 9.37237 21.2893 9.28969 21.2197 9.22004L14.7803 2.7807C14.6397 2.64005 14.4489 2.56104 14.25 2.56104C14.0511 2.56104 13.8603 2.64005 13.7197 2.7807L11.25 5.25038" stroke="#474747" stroke-width="1.5" stroke-linecap="round" stroke-linejoin="round"/>
</svg>
