<svg width="16" height="17" viewBox="0 0 16 17" fill="none" xmlns="http://www.w3.org/2000/svg">
<path d="M8.27569 12.1708L11.4279 14.1679C11.8308 14.4232 12.3311 14.0435 12.2115 13.5732L11.3008 9.99052C11.2752 9.89073 11.2782 9.78573 11.3096 9.6876C11.3409 9.58946 11.3994 9.50218 11.4781 9.43577L14.3049 7.08306C14.6763 6.77392 14.4846 6.15751 14.0074 6.12654L10.3159 5.88696C10.2165 5.87986 10.1211 5.84465 10.0409 5.78545C9.96069 5.72625 9.89896 5.64548 9.86289 5.55255L8.48612 2.08549C8.44869 1.98685 8.38215 1.90194 8.29532 1.84201C8.2085 1.78209 8.1055 1.75 8 1.75C7.89451 1.75 7.79151 1.78209 7.70468 1.84201C7.61786 1.90194 7.55131 1.98685 7.51389 2.08549L6.13712 5.55255C6.10104 5.64548 6.03932 5.72625 5.95912 5.78545C5.87892 5.84465 5.78355 5.87986 5.68412 5.88696L1.99263 6.12654C1.51544 6.15751 1.32373 6.77392 1.69515 7.08306L4.52186 9.43577C4.60063 9.50218 4.65907 9.58946 4.69044 9.6876C4.72181 9.78573 4.72485 9.89073 4.6992 9.99052L3.85459 13.313C3.71111 13.8774 4.31143 14.333 4.79495 14.0267L7.72431 12.1708C7.8067 12.1183 7.90234 12.0905 8 12.0905C8.09767 12.0905 8.19331 12.1183 8.27569 12.1708Z" fill="#F57005"/>
</svg>
