<svg width="95" height="93" viewBox="0 0 95 93" fill="none" xmlns="http://www.w3.org/2000/svg">
<rect width="95" height="93" rx="5" fill="#F57105"/>
<g clip-path="url(#clip0_56_106)">
<path d="M27.8 39.2499V39.2505C27.7971 41.8909 28.3265 44.5048 29.3565 46.9361C30.3856 49.3652 31.8934 51.5621 33.7899 53.3958C34.4822 54.0317 35.0429 54.7975 35.4401 55.6495L35.4436 55.6571L35.4469 55.6647L38.015 61.6379C38.0151 61.638 38.0152 61.6382 38.0153 61.6384C38.1034 61.8425 38.2494 62.0163 38.4353 62.1383C38.6212 62.2604 38.8389 62.3253 39.0614 62.3249L27.8 39.2499ZM27.8 39.2499C27.7999 35.9968 28.6054 32.7943 30.1446 29.9284C31.6837 27.0625 33.9087 24.6223 36.6207 22.8258C39.3327 21.0293 42.4475 19.9323 45.6867 19.6329C48.926 19.3335 52.189 19.8409 55.1844 21.1098C58.1798 22.3787 60.8143 24.3697 62.8528 26.9049C64.8912 29.4402 66.2701 32.4407 66.8663 35.6387C67.4625 38.8367 67.2575 42.1326 66.2696 45.232C65.2817 48.3314 63.5415 51.138 61.2046 53.4011M27.8 39.2499L61.2046 53.4011M55.9375 62.3249C56.1596 62.3248 56.3768 62.2597 56.5623 62.1377C56.7479 62.0156 56.8936 61.8418 56.9816 61.6379L59.553 55.6684L55.9375 62.3249ZM55.9375 62.3249C55.9375 62.3249 55.9374 62.3249 55.9374 62.3249L55.9375 63.4249C55.9376 63.4249 55.9376 63.4249 55.9377 63.4249C56.2393 63.4249 56.5286 63.5448 56.7418 63.7581C56.9552 63.9714 57.075 64.2607 57.075 64.5624C57.075 64.8641 56.9552 65.1534 56.7418 65.3667C56.5285 65.5801 56.2392 65.6999 55.9375 65.6999V66.2499V66.7999C56.2392 66.7999 56.5285 66.9198 56.7418 67.1331C56.9552 67.3464 57.075 67.6357 57.075 67.9374C57.075 68.2391 56.9552 68.5284 56.7418 68.7417C56.5285 68.9551 56.2392 69.0749 55.9375 69.0749H55.5979L55.4458 69.3785L54.6898 70.8871L54.6895 70.8877C54.4551 71.3569 54.0946 71.7515 53.6486 72.0274C53.2025 72.3033 52.6885 72.4496 52.164 72.4499H42.8361C42.3116 72.4496 41.7975 72.3033 41.3514 72.0274C40.9054 71.7515 40.545 71.3569 40.3105 70.8877L40.3102 70.8871L39.5542 69.3785L39.4021 69.0749H39.0625C38.7608 69.0749 38.4715 68.9551 38.2582 68.7417C38.0449 68.5284 37.925 68.2391 37.925 67.9374C37.925 67.6357 38.0449 67.3464 38.2582 67.1331C38.4715 66.9198 38.7608 66.7999 39.0625 66.7999V66.2499V65.6999C38.7608 65.6999 38.4715 65.5801 38.2582 65.3667C38.0449 65.1534 37.925 64.8641 37.925 64.5624C37.925 64.2607 38.0449 63.9714 38.2582 63.7581C38.4715 63.5448 38.7608 63.4249 39.0625 63.4249V62.8749L39.0616 62.3249C39.0619 62.3249 39.0622 62.3249 39.0625 62.3249L39.0635 63.4249L55.9375 62.3249ZM61.2046 53.4011C60.4865 54.0945 59.9082 54.8411 59.5533 55.6677L61.2046 53.4011ZM35.3763 51.7685L35.3758 51.768C32.8826 49.3539 31.1671 46.2502 30.4491 42.8548C29.7311 39.4594 30.0434 35.9269 31.3459 32.7101C32.6485 29.4933 34.8819 26.7387 37.7599 24.7994C40.6379 22.8601 44.0294 21.8244 47.4998 21.8249L35.3763 51.7685ZM35.3763 51.7685C36.2309 52.5938 37.0257 53.5817 37.5346 54.7659L37.5349 54.7667M35.3763 51.7685L37.5349 54.7667M37.5349 54.7667L39.6713 59.7178L39.8146 60.0499M37.5349 54.7667L39.8146 60.0499M39.8146 60.0499H40.1763M39.8146 60.0499H40.1763M40.1763 60.0499H54.8305H55.1924M40.1763 60.0499H55.1924M55.1924 60.0499L55.3356 59.7175M55.1924 60.0499L55.3356 59.7175M55.3356 59.7175L57.4686 54.7664L57.4688 54.7659M55.3356 59.7175L57.4688 54.7659M57.4688 54.7659C57.9777 53.5817 58.7725 52.5938 59.6271 51.7685L59.6276 51.768M57.4688 54.7659L59.6276 51.768M59.6276 51.768C62.121 49.3536 63.8366 46.2496 64.5545 42.8539M59.6276 51.768L64.5545 42.8539M64.5545 42.8539C65.2723 39.4582 64.9598 35.9254 63.6568 32.7085M64.5545 42.8539L63.6568 32.7085M63.6568 32.7085C62.3539 29.4915 60.1199 26.737 57.2413 24.7979M63.6568 32.7085L57.2413 24.7979M57.2413 24.7979C54.3628 22.8589 50.9708 21.8237 47.5001 21.8249L57.2413 24.7979Z" fill="white" stroke="#F57105" stroke-width="1.1"/>
</g>
<defs>
<clipPath id="clip0_56_106">
<rect width="54" height="54" fill="white" transform="translate(20.5 19)"/>
</clipPath>
</defs>
</svg>
