<svg width="96" height="93" viewBox="0 0 96 93" fill="none" xmlns="http://www.w3.org/2000/svg">
<rect x="0.5" width="95" height="93" rx="5" fill="#F57105"/>
<path d="M53.0625 59.5001V56.9688C53.0625 53.9102 56.389 51.0172 58.5469 48.9532C61.5886 46.0454 63.1875 42.1388 63.1875 37.5626C63.1875 29.1251 56.466 22.3751 48 22.3751C46.004 22.3695 44.0266 22.7585 42.1814 23.5198C40.3363 24.2811 38.6598 25.3996 37.2484 26.811C35.837 28.2224 34.7185 29.8988 33.9572 31.744C33.196 33.5891 32.8069 35.5665 32.8125 37.5626C32.8125 41.9754 34.48 46.1467 37.4531 48.9532C39.5994 50.9792 42.9375 53.8786 42.9375 56.9688V59.5001M44.625 69.6251H51.375M42.9375 64.5626H53.0625M48 59.5001V46.0001" stroke="white" stroke-width="2" stroke-linecap="round" stroke-linejoin="round"/>
<path d="M52.0078 44.3125C52.0078 44.3125 49.7392 46 48 46C46.2608 46 43.9922 44.3125 43.9922 44.3125" stroke="white" stroke-width="2" stroke-linecap="round" stroke-linejoin="round"/>
</svg>
