<svg width="96" height="93" viewBox="0 0 96 93" fill="none" xmlns="http://www.w3.org/2000/svg">
<rect x="0.5" width="95" height="93" rx="5" fill="#F57105"/>
<path d="M29.1 39.25H66.9M29.1 52.75H66.9M27.75 46C27.75 48.6593 28.2738 51.2925 29.2914 53.7493C30.3091 56.2062 31.8007 58.4385 33.6811 60.3189C35.5615 62.1993 37.7938 63.6909 40.2507 64.7086C42.7075 65.7262 45.3407 66.25 48 66.25C50.6593 66.25 53.2925 65.7262 55.7493 64.7086C58.2062 63.6909 60.4385 62.1993 62.3189 60.3189C64.1993 58.4385 65.6909 56.2062 66.7086 53.7493C67.7262 51.2925 68.25 48.6593 68.25 46C68.25 40.6294 66.1165 35.4787 62.3189 31.6811C58.5213 27.8835 53.3706 25.75 48 25.75C42.6294 25.75 37.4787 27.8835 33.6811 31.6811C29.8835 35.4787 27.75 40.6294 27.75 46Z" stroke="white" stroke-width="1.5" stroke-linecap="round" stroke-linejoin="round"/>
<path d="M46.875 25.75C43.0845 31.8241 41.075 38.8402 41.075 46C41.075 53.1598 43.0845 60.1759 46.875 66.25M49.125 25.75C52.9155 31.8241 54.925 38.8402 54.925 46C54.925 53.1598 52.9155 60.1759 49.125 66.25" stroke="white" stroke-width="1.5" stroke-linecap="round" stroke-linejoin="round"/>
</svg>
