<svg width="95" height="93" viewBox="0 0 95 93" fill="none" xmlns="http://www.w3.org/2000/svg">
<rect width="95" height="93" rx="5" fill="#F57105"/>
<path d="M28.75 46C28.75 47.6165 28.9562 49.1866 29.3405 50.6862L29.485 51.25H30.067H36.475H37.3049L37.2212 50.4244C36.9229 47.4823 36.9229 44.5177 37.2212 41.5756L37.3049 40.75H36.475H30.067H29.4853L29.3406 41.3134C28.9473 42.8445 28.7488 44.4192 28.75 46ZM28.75 46H29.5M28.75 46C28.75 46.0002 28.75 46.0004 28.75 46.0006L29.5 46M29.5 46C29.4988 44.4821 29.6893 42.9702 30.067 41.5H35.7212C35.7237 41.4748 35.7263 41.4496 35.7288 41.4244L36.475 41.5V42.25H36.4054C36.1949 44.7456 36.1949 47.2544 36.4054 49.75H36.475V50.5L35.7288 50.5756C35.7263 50.5504 35.7237 50.5252 35.7212 50.5H30.067C29.698 49.06 29.5 47.5525 29.5 46ZM40.3319 40.75H41.002H53.998H54.6678L54.7432 41.4156C55.0884 44.4621 55.0884 47.5379 54.7432 50.5844L54.6678 51.25H53.998H41.002H40.3331L40.2569 50.5855C40.087 49.105 40 47.569 40 46.0004L40.3319 40.75ZM40.3319 40.75L40.2567 41.4159M40.3319 40.75L40.2567 41.4159M40.2567 41.4159C40.085 42.9379 39.9993 44.4684 40 46L40.2567 41.4159ZM31.2584 36.6243L30.6069 37.75H31.9075H37.186H37.7898L37.9187 37.1601C38.5055 34.4755 39.3493 32.0871 40.3739 30.1141L41.4118 28.1153L39.3827 29.0928C35.9806 30.7318 33.15 33.3559 31.2584 36.6243ZM65.6595 41.3136L65.5149 40.75H64.933H58.525H57.6951L57.7788 41.5756C58.0771 44.5177 58.0771 47.4823 57.7788 50.4244L57.6951 51.25H58.525H64.933H65.5149L65.6595 50.6864C66.4483 47.6119 66.4483 44.3881 65.6595 41.3136ZM63.0925 37.75H64.3931L63.7416 36.6243C61.85 33.3559 59.0194 30.7318 55.6173 29.0928L53.5852 28.1139L54.6264 30.1147C55.6528 32.087 56.4944 34.475 57.0813 37.1601L57.2102 37.75H57.814H63.0925ZM41.08 36.8177L40.8463 37.75H41.8075H53.1925H54.1457L53.9214 36.8235C53.4993 35.0798 52.8903 33.3867 52.1051 31.7735L52.1051 31.7735L52.1015 31.7661C51.3701 30.3045 50.5948 29.2047 49.8399 28.4586C49.1082 27.7353 48.2975 27.25 47.5 27.25C46.7015 27.25 45.8909 27.7351 45.1592 28.4587C44.4046 29.2048 43.6298 30.3047 42.8985 31.7661L42.898 31.7672C42.1614 33.2451 41.5478 34.9512 41.08 36.8177ZM31.9075 54.25H30.6069L31.2584 55.3757C33.15 58.6441 35.9806 61.2682 39.3827 62.9072L41.4148 63.8861L40.3736 61.8853C39.3472 59.913 38.5056 57.525 37.9187 54.8399L37.7898 54.25H37.186H31.9075ZM63.7416 55.3757L64.3931 54.25H63.0925H57.814H57.2102L57.0813 54.8399C56.4945 57.5245 55.6507 59.9129 54.6261 61.8859L53.5882 63.8847L55.6173 62.9072C59.0194 61.2682 61.85 58.6441 63.7416 55.3757ZM41.8075 54.25H40.8463L41.08 55.1823C41.5478 57.0488 42.1614 58.7549 42.898 60.2328L42.8985 60.2339C43.6299 61.6955 44.4052 62.7953 45.1601 63.5414C45.8918 64.2647 46.7025 64.75 47.5 64.75C48.2985 64.75 49.1091 64.2649 49.8408 63.5413C50.5954 62.7952 51.3702 61.6953 52.1015 60.2339L52.102 60.2328C52.8386 58.7549 53.4522 57.0488 53.92 55.1823L54.1537 54.25H53.1925H41.8075ZM47.5 67.75C35.4875 67.75 25.75 58.0125 25.75 46C25.75 33.9875 35.4875 24.25 47.5 24.25C59.5125 24.25 69.25 33.9875 69.25 46C69.25 58.0125 59.5125 67.75 47.5 67.75Z" fill="white" stroke="#F57105" stroke-width="1.5"/>
</svg>
