<svg width="95" height="93" viewBox="0 0 95 93" fill="none" xmlns="http://www.w3.org/2000/svg">
<rect width="95" height="93" rx="5" fill="#F57105"/>
<path d="M70 55.5143V41.9846C70 30.7098 65.5 26.2 54.25 26.2H40.75C29.5 26.2 25 30.7098 25 41.9846V55.5143C25 66.789 29.5 71.2989 40.75 71.2989H54.25C65.5 71.2989 70 66.789 70 55.5143Z" stroke="white" stroke-width="1.5" stroke-linecap="round" stroke-linejoin="round"/>
<path d="M26.1719 37.7227H68.8319" stroke="white" stroke-width="1.5" stroke-linecap="round" stroke-linejoin="round"/>
<path d="M39.6719 26.448V37.407" stroke="white" stroke-width="1.5" stroke-linecap="round" stroke-linejoin="round"/>
<path d="M55.3281 26.448V36.3923" stroke="white" stroke-width="1.5" stroke-linecap="round" stroke-linejoin="round"/>
<path d="M42.4375 54.2738V51.5679C42.4375 48.0953 44.89 46.6747 47.8825 48.411L50.2225 49.7639L52.5625 51.1169C55.555 52.8532 55.555 55.6945 52.5625 57.4308L50.2225 58.7837L47.8825 60.1367C44.89 61.873 42.4375 60.4524 42.4375 56.9798V54.2738V54.2738Z" stroke="white" stroke-width="1.5" stroke-miterlimit="10" stroke-linecap="round" stroke-linejoin="round"/>
</svg>
