<svg width="84" height="84" viewBox="0 0 84 84" fill="none" xmlns="http://www.w3.org/2000/svg">
<rect width="84" height="84" rx="10" fill="#F0F0F0"/>
<path d="M52.871 50.1903C54.3785 49.2003 56.3585 50.2803 56.3585 52.0803V54.9828C56.3585 57.8403 54.131 60.9003 51.4535 61.8003L44.276 64.1853C43.016 64.6128 40.9685 64.6128 39.731 64.1853L32.5534 61.8003C29.8534 60.9003 27.6484 57.8403 27.6484 54.9828V52.0578C27.6484 50.2803 29.6284 49.2003 31.1134 50.1678L35.7484 53.1828C37.526 54.3753 39.776 54.9603 42.026 54.9603C44.276 54.9603 46.526 54.3753 48.3035 53.1828L52.871 50.1903Z" fill="#F47107"/>
<path d="M59.9568 29.5318L46.4793 20.6893C44.0493 19.0918 40.0443 19.0918 37.6143 20.6893L24.0694 29.5318C19.7269 32.3443 19.7269 38.7119 24.0694 41.5469L27.6694 43.8869L37.6143 50.3669C40.0443 51.9644 44.0493 51.9644 46.4793 50.3669L56.3568 43.8869L59.4393 41.8619V48.7469C59.4393 49.6694 60.2043 50.4344 61.1268 50.4344C62.0493 50.4344 62.8143 49.6694 62.8143 48.7469V37.6769C63.7143 34.7743 62.7918 31.3993 59.9568 29.5318Z" fill="#F47107"/>
</svg>
