<svg width="84" height="84" viewBox="0 0 84 84" fill="none" xmlns="http://www.w3.org/2000/svg">
<rect width="84" height="84" rx="10" fill="#F0F0F0"/>
<g clip-path="url(#clip0_1_225)">
<path d="M29.625 69.9562C29.625 69.9562 26.25 69.9562 26.25 66.5812C26.25 63.2062 29.625 53.0812 43.125 53.0812C56.625 53.0812 60 63.2062 60 66.5812C60 69.9562 56.625 69.9562 56.625 69.9562H29.625ZM43.125 49.875C45.3628 49.875 47.5089 48.9861 49.0912 47.4037C50.6736 45.8214 51.5625 43.6753 51.5625 41.4375C51.5625 39.1997 50.6736 37.0536 49.0912 35.4713C47.5089 33.8889 45.3628 33 43.125 33C40.8872 33 38.7411 33.8889 37.1588 35.4713C35.5764 37.0536 34.6875 39.1997 34.6875 41.4375C34.6875 43.6753 35.5764 45.8214 37.1588 47.4037C38.7411 48.9861 40.8872 49.875 43.125 49.875Z" fill="#F47107"/>
<path d="M21.75 19.5C19.9598 19.5 18.2429 20.2112 16.977 21.477C15.7112 22.7429 15 24.4598 15 26.25L15 58.3125C15 59.6552 15.5334 60.9428 16.4828 61.8922C17.4322 62.8416 18.7198 63.375 20.0625 63.375H22.2664C22.9721 60.8948 24.1986 58.5936 25.8641 56.625H18.375V26.25C18.375 25.3549 18.7306 24.4964 19.3635 23.8635C19.9964 23.2306 20.8549 22.875 21.75 22.875H62.25C63.1451 22.875 64.0035 23.2306 64.6365 23.8635C65.2694 24.4964 65.625 25.3549 65.625 26.25V56.625H58.1359C60.0056 58.8322 61.1396 61.2589 61.7336 63.375H63.9375C65.2802 63.375 66.5678 62.8416 67.5172 61.8922C68.4666 60.9428 69 59.6552 69 58.3125V26.25C69 24.4598 68.2888 22.7429 67.023 21.477C65.7571 20.2112 64.0402 19.5 62.25 19.5H21.75Z" fill="#F47107"/>
</g>
<defs>
<clipPath id="clip0_1_225">
<rect width="54" height="54" fill="white" transform="translate(15 15)"/>
</clipPath>
</defs>
</svg>
