<svg width="1000" height="1037" viewBox="0 0 1000 1037" fill="none" xmlns="http://www.w3.org/2000/svg">
<g clip-path="url(#clip0_99_389)">
<path d="M499.987 856.694C774.064 856.694 996.249 734.707 996.249 584.228C996.249 433.749 774.064 311.762 499.987 311.762C225.909 311.762 3.72461 433.749 3.72461 584.228C3.72461 734.707 225.909 856.694 499.987 856.694Z" stroke="#B3E8FF" stroke-width="2.54" stroke-miterlimit="10"/>
<path d="M991.65 651.894C1012.19 502.822 808.726 351.682 537.21 314.314C265.694 276.945 28.9391 367.499 8.4029 516.572C-12.1333 665.644 191.326 816.784 462.842 854.152C734.358 891.52 971.113 800.966 991.65 651.894Z" stroke="#A31500" stroke-width="2.54" stroke-miterlimit="10"/>
<path d="M950.189 785.896L279.428 921.573L383.095 758.937L950.189 785.896Z" fill="#B3E8FF"/>
<path d="M950.189 341.388H44.3574V785.896H950.189V341.388Z" fill="#1D29FF"/>
<path d="M13.8379 387.425L883.227 323.66L976.194 760.9L73.998 819.186L13.8379 387.425Z" fill="#FF5900"/>
<path d="M468.205 793.72L640.3 880.518L594.389 1008.14L279.428 921.572L356.328 800.929L468.205 793.72Z" fill="#A31500"/>
<path d="M640.3 880.518L306.986 1037L594.389 1008.14L640.3 880.518Z" fill="#1D29FF"/>
<g style="mix-blend-mode:multiply" opacity="0.5">
<path d="M560.468 840.255L727.902 789.501L468.205 793.72L560.468 840.255Z" fill="#B3E8FF"/>
</g>
<g style="mix-blend-mode:multiply">
<path d="M547.305 833.603L297.576 893.089L356.329 800.929L468.206 793.72L547.305 833.603Z" fill="#A31500"/>
</g>
<g style="mix-blend-mode:multiply">
<path d="M306.986 1037L617.901 942.759L640.3 880.518L306.986 1037Z" fill="#1D29FF"/>
</g>
<g style="mix-blend-mode:screen" opacity="0.5">
<path d="M44.3574 404.333L868.304 345.579L91.1193 793.721L44.3574 404.333Z" fill="#FF5900"/>
</g>
<path d="M934.648 389.603L92.0703 324.21L59.9504 737.672L902.528 803.065L934.648 389.603Z" stroke="#B3E8FF" stroke-width="2.69" stroke-miterlimit="10"/>
<path d="M920.1 356.822L74.9863 355.642L74.407 770.348L919.52 771.527L920.1 356.822Z" stroke="#A31500" stroke-width="2.69" stroke-miterlimit="10"/>
<g style="mix-blend-mode:multiply" opacity="0.5">
<path d="M308.805 341.037L541.617 431.38L670.088 339.308L520.479 341.388L308.805 341.037Z" fill="#FF5900"/>
</g>
<path d="M664.897 234.957L616.934 221.331L592.365 307.689L640.329 321.315C650.502 324.246 664.223 307.191 670.995 283.221C677.768 259.25 675.041 237.712 664.897 234.957Z" fill="#FC533F"/>
<g style="mix-blend-mode:multiply" opacity="0.5">
<path d="M664.897 234.957L616.934 221.331L592.365 307.689L640.329 321.315C650.502 324.246 664.223 307.191 670.995 283.221C677.768 259.25 675.041 237.712 664.897 234.957Z" fill="#FC533F"/>
</g>
<path d="M660.237 233.521L612.273 219.895L587.734 306.253L635.698 319.938C645.842 322.868 659.592 305.814 666.365 281.843C673.137 257.873 670.41 236.393 660.237 233.521Z" fill="#FC533F"/>
<g style="mix-blend-mode:screen" opacity="0.5">
<path d="M664.898 234.957L618.723 221.829L613.123 241.521L674.69 259.103C674.808 246.122 671.348 236.686 664.898 234.957Z" fill="#FC533F"/>
</g>
<g style="mix-blend-mode:multiply" opacity="0.5">
<path d="M597.379 289.99L592.365 307.572L640.329 321.198C646.427 322.927 653.757 317.535 660.148 307.806L597.379 289.99Z" fill="#FC533F"/>
</g>
<path d="M595.034 320.876L577.561 359.674L558.475 406.413L550.002 407.849L519.658 391.82L539.067 347.806L557.156 315.923L595.034 320.876Z" fill="#B3E8FF"/>
<path d="M625.172 214.855L441.702 72.5852L414.055 212.188L364.215 345.461L595.122 320.876C607.582 324.421 624.439 303.557 632.766 274.283C641.092 245.008 637.632 218.4 625.172 214.855Z" fill="#1D29FF"/>
<g style="mix-blend-mode:screen">
<path d="M577.561 359.674L595.034 320.876L590.226 320.26L568.501 363.219L550.002 407.849L558.475 406.413L577.561 359.674Z" fill="#B3E8FF"/>
</g>
<g style="mix-blend-mode:screen" opacity="0.5">
<path d="M625.173 214.855L441.702 72.5852L429.535 134.123C468.704 155.837 581.049 217.375 637.134 248.232C638.014 230.62 633.733 217.375 625.173 214.855Z" fill="#1D29FF"/>
</g>
<g style="mix-blend-mode:multiply">
<path d="M595.034 320.876C603.83 323.396 614.853 313.667 623.502 297.433L387.552 311.879L368.877 344.993L595.034 320.876Z" fill="#1D29FF"/>
</g>
<g style="mix-blend-mode:multiply">
<path d="M414.055 212.188L364.215 345.461L405.406 341.066C432.994 319.117 458.471 278.239 472.837 227.983C486.734 179.046 486.939 132.072 475.916 99.0464L441.848 72.6731L414.055 212.188Z" fill="#1D29FF"/>
</g>
<path d="M468.119 227.535C490.93 147.282 476.165 72.7803 435.139 61.1304C394.113 49.4805 342.364 105.094 319.553 185.347C296.742 265.599 311.508 340.101 352.533 351.751C393.559 363.401 445.309 307.787 468.119 227.535Z" fill="#FF5900"/>
<g style="mix-blend-mode:screen">
<path d="M468.119 227.535C490.93 147.282 476.165 72.7803 435.139 61.1304C394.113 49.4805 342.364 105.094 319.553 185.347C296.742 265.599 311.508 340.101 352.533 351.751C393.559 363.401 445.309 307.787 468.119 227.535Z" fill="#FF5900"/>
</g>
<path d="M464.681 225.72C486.89 147.585 472.911 75.1614 433.459 63.9582C394.007 52.7551 344.02 107.014 321.811 185.15C299.602 263.285 313.58 335.708 353.033 346.911C392.485 358.115 442.472 303.855 464.681 225.72Z" fill="#FF5900"/>
<g style="mix-blend-mode:multiply" opacity="0.5">
<path d="M447.968 219.792C466.26 154.787 455.558 94.9127 424.066 86.0598C392.574 77.2068 352.216 122.727 333.924 187.733C315.633 252.738 326.334 312.612 357.827 321.465C389.319 330.318 429.677 284.797 447.968 219.792Z" fill="#FF5900"/>
</g>
<path d="M443.247 220.461C461.107 157.629 451.455 99.8416 421.691 91.3895C391.926 82.9373 353.32 127.021 335.46 189.853C317.601 252.685 327.252 310.472 357.017 318.925C386.781 327.377 425.388 283.293 443.247 220.461Z" fill="#B3E8FF"/>
<path d="M443.227 220.481C445.543 212.335 447.39 204.305 448.797 196.452L410.449 173.83L390.895 242.635L435.428 243.572C438.34 236.207 440.94 228.51 443.227 220.481Z" fill="#FC533F"/>
<g style="mix-blend-mode:multiply" opacity="0.5">
<path d="M403.648 197.741L444.693 215.324C446.355 208.935 447.742 202.635 448.856 196.423L410.509 173.8L403.648 197.741Z" fill="#FC533F"/>
</g>
<path d="M416.988 213.038C411.564 232.115 399.866 245.477 390.807 242.928C381.748 240.378 378.845 222.796 384.269 203.719C389.693 184.643 401.42 171.28 410.45 173.83C419.48 176.379 422.411 193.932 416.988 213.038Z" fill="#FC533F"/>
<g style="mix-blend-mode:screen" opacity="0.5">
<path d="M410.45 173.83H410.098C418.893 176.76 421.825 194.049 416.343 212.891C410.86 231.734 399.485 244.979 390.484 242.84H390.807C399.866 245.389 411.564 232.027 416.988 212.95C422.411 193.873 419.48 176.35 410.45 173.83Z" fill="#FC533F"/>
</g>
<path d="M409.617 210.947C413.405 197.621 411.829 185.499 406.097 183.871C400.365 182.243 392.648 191.727 388.86 205.053C385.073 218.379 386.648 230.502 392.38 232.129C398.112 233.757 405.829 224.273 409.617 210.947Z" fill="white"/>
<path d="M354.365 205.39L220.441 91.7207L190.684 165.185L354.365 205.39Z" fill="#A31500"/>
<path d="M354.365 172.833L323.171 0L253.512 37.8311L354.365 172.833Z" fill="#1D29FF"/>
<path d="M350.055 224.437L241.667 315.923L217.832 256.554L350.055 224.437Z" fill="#1D29FF"/>
<path d="M246.151 545.406C238.898 545.406 232.338 544.5 226.471 542.686C220.711 540.873 215.911 538.153 212.071 534.526C208.231 530.793 205.565 526.26 204.071 520.926C202.578 515.486 202.418 509.193 203.591 502.046C204.338 497.673 205.245 492.98 206.311 487.966C207.485 482.953 208.605 478.153 209.671 473.566C212.018 464.286 215.645 456.446 220.551 450.046C225.458 443.54 231.645 438.633 239.111 435.326C246.685 431.913 255.591 430.206 265.831 430.206C272.658 430.206 279.005 431.06 284.871 432.766C290.738 434.473 295.698 437.033 299.751 440.446C303.911 443.753 306.898 447.806 308.711 452.606C310.631 457.3 311.005 462.686 309.831 468.766C309.618 469.726 309.138 470.526 308.391 471.166C307.751 471.806 306.951 472.126 305.991 472.126H284.231C282.845 472.126 281.778 471.86 281.031 471.326C280.391 470.686 279.965 469.566 279.751 467.966C279.858 462.42 278.418 458.58 275.431 456.446C272.445 454.313 268.498 453.246 263.591 453.246C257.725 453.246 252.658 454.9 248.391 458.206C244.125 461.406 241.085 466.793 239.271 474.366C237.031 483.113 235.111 492.073 233.511 501.246C232.125 508.82 232.765 514.26 235.431 517.566C238.098 520.766 242.365 522.366 248.231 522.366C253.138 522.366 257.565 521.3 261.511 519.166C265.458 517.033 268.711 513.193 271.271 507.646C272.125 506.046 272.978 504.98 273.831 504.446C274.685 503.806 275.805 503.486 277.191 503.486H298.951C299.911 503.486 300.658 503.806 301.191 504.446C301.725 505.086 301.885 505.886 301.671 506.846C300.178 512.82 297.831 518.206 294.631 523.006C291.538 527.7 287.591 531.753 282.791 535.166C278.098 538.473 272.711 541.033 266.631 542.846C260.551 544.553 253.725 545.406 246.151 545.406ZM348.739 545.406C340.205 545.406 333.059 543.966 327.299 541.086C321.539 538.206 317.379 534.1 314.819 528.766C312.365 523.326 311.725 516.873 312.899 509.406C313.112 507.273 313.485 504.873 314.019 502.206C314.659 499.433 315.299 497.033 315.939 495.006C317.965 487.433 321.059 480.98 325.219 475.646C329.379 470.313 334.712 466.206 341.219 463.326C347.725 460.446 355.459 459.006 364.419 459.006C372.845 459.006 379.939 460.446 385.699 463.326C391.459 466.206 395.672 470.313 398.339 475.646C401.005 480.98 401.752 487.433 400.579 495.006C400.152 497.033 399.672 499.433 399.139 502.206C398.605 504.873 398.072 507.273 397.539 509.406C395.512 516.873 392.472 523.326 388.419 528.766C384.365 534.1 379.085 538.206 372.579 541.086C366.072 543.966 358.125 545.406 348.739 545.406ZM351.139 525.886C355.939 525.886 359.832 524.446 362.819 521.566C365.805 518.686 368.045 514.366 369.539 508.606C369.965 507.006 370.445 504.873 370.979 502.206C371.619 499.54 372.045 497.406 372.259 495.806C373.219 490.153 372.952 485.886 371.459 483.006C369.965 480.02 366.819 478.526 362.019 478.526C357.432 478.526 353.592 480.02 350.499 483.006C347.512 485.886 345.325 490.153 343.939 495.806C343.512 497.406 342.979 499.54 342.339 502.206C341.805 504.873 341.432 507.006 341.219 508.606C340.259 514.366 340.472 518.686 341.859 521.566C343.352 524.446 346.445 525.886 351.139 525.886ZM410.239 543.806C409.065 543.806 408.159 543.433 407.519 542.686C406.879 541.94 406.665 540.98 406.879 539.806L422.879 464.606C423.092 463.433 423.679 462.473 424.639 461.726C425.599 460.98 426.665 460.606 427.839 460.606H445.279C446.452 460.606 447.305 460.98 447.839 461.726C448.479 462.473 448.692 463.433 448.479 464.606L447.359 470.046C449.172 468.126 451.145 466.366 453.279 464.766C455.519 463.06 458.079 461.673 460.959 460.606C463.945 459.54 467.465 459.006 471.519 459.006C477.705 459.006 482.719 460.233 486.559 462.686C490.505 465.14 493.172 468.553 494.559 472.926C497.972 468.873 501.812 465.566 506.079 463.006C510.452 460.34 515.572 459.006 521.439 459.006C527.305 459.006 532.265 460.286 536.319 462.846C540.479 465.3 543.412 469.14 545.119 474.366C546.932 479.486 546.932 486.153 545.119 494.366L535.519 539.806C535.305 540.98 534.719 541.94 533.759 542.686C532.799 543.433 531.785 543.806 530.719 543.806H512.159C510.985 543.806 510.079 543.433 509.439 542.686C508.799 541.94 508.585 540.98 508.799 539.806L518.239 495.486C519.092 491.753 519.252 488.82 518.719 486.686C518.185 484.446 517.172 482.846 515.679 481.886C514.185 480.926 512.265 480.446 509.919 480.446C507.892 480.446 505.812 480.926 503.679 481.886C501.545 482.846 499.625 484.446 497.919 486.686C496.212 488.82 494.985 491.753 494.239 495.486L484.799 539.806C484.585 540.98 483.999 541.94 483.039 542.686C482.185 543.433 481.172 543.806 479.999 543.806H461.439C460.265 543.806 459.359 543.433 458.719 542.686C458.079 541.94 457.865 540.98 458.079 539.806L467.679 495.486C468.425 491.753 468.479 488.82 467.839 486.686C467.305 484.446 466.292 482.846 464.799 481.886C463.305 480.926 461.439 480.446 459.199 480.446C457.172 480.446 455.092 480.926 452.959 481.886C450.825 482.846 448.905 484.446 447.199 486.686C445.492 488.82 444.265 491.7 443.519 495.326L433.919 539.806C433.705 540.98 433.119 541.94 432.159 542.686C431.305 543.433 430.292 543.806 429.119 543.806H410.239ZM556.801 543.806C555.628 543.806 554.721 543.433 554.081 542.686C553.441 541.94 553.228 540.98 553.441 539.806L569.441 464.606C569.655 463.433 570.241 462.473 571.201 461.726C572.161 460.98 573.228 460.606 574.401 460.606H593.281C594.348 460.606 595.148 460.98 595.681 461.726C596.321 462.473 596.535 463.433 596.321 464.606L580.481 539.806C580.268 540.98 579.681 541.94 578.721 542.686C577.761 543.433 576.748 543.806 575.681 543.806H556.801ZM576.801 448.606C575.628 448.606 574.721 448.233 574.081 447.486C573.548 446.74 573.335 445.78 573.441 444.606L576.641 430.366C576.855 429.193 577.441 428.233 578.401 427.486C579.361 426.633 580.375 426.206 581.441 426.206H600.641C601.815 426.206 602.668 426.633 603.201 427.486C603.841 428.233 604.055 429.193 603.841 430.366L600.801 444.606C600.588 445.78 600.001 446.74 599.041 447.486C598.081 448.233 597.068 448.606 596.001 448.606H576.801ZM602.583 543.806C601.409 543.806 600.503 543.433 599.863 542.686C599.223 541.94 599.009 540.98 599.223 539.806L615.223 464.606C615.436 463.433 616.023 462.473 616.983 461.726C617.943 460.98 619.009 460.606 620.182 460.606H638.583C639.756 460.606 640.609 460.98 641.143 461.726C641.783 462.473 641.996 463.433 641.783 464.606L640.503 470.686C643.809 467.38 647.756 464.606 652.343 462.366C657.036 460.126 662.316 459.006 668.183 459.006C674.903 459.006 680.449 460.393 684.823 463.166C689.196 465.94 692.183 470.046 693.783 475.486C695.383 480.82 695.329 487.38 693.623 495.166L684.023 539.806C683.809 540.98 683.223 541.94 682.263 542.686C681.409 543.433 680.396 543.806 679.223 543.806H659.223C658.049 543.806 657.143 543.433 656.503 542.686C655.863 541.94 655.649 540.98 655.863 539.806L665.143 496.126C666.316 490.9 666.156 487.006 664.663 484.446C663.276 481.78 660.129 480.446 655.223 480.446C650.423 480.446 646.369 481.833 643.063 484.606C639.756 487.273 637.569 491.113 636.503 496.126L627.223 539.806C627.009 540.98 626.423 541.94 625.463 542.686C624.609 543.433 623.649 543.806 622.582 543.806H602.583ZM735.479 579.006C727.585 579.006 721.132 577.94 716.119 575.806C711.105 573.673 707.212 571.113 704.439 568.126C701.665 565.14 699.799 562.153 698.839 559.166C697.879 556.286 697.505 553.993 697.719 552.286C697.932 551.113 698.519 550.153 699.479 549.406C700.332 548.66 701.292 548.286 702.359 548.286H722.999C724.065 548.286 724.865 548.5 725.399 548.926C725.932 549.46 726.252 550.313 726.359 551.486C726.679 552.66 727.105 553.886 727.639 555.166C728.279 556.446 729.345 557.46 730.839 558.206C732.332 559.06 734.519 559.486 737.399 559.486C740.279 559.486 742.892 558.953 745.239 557.886C747.692 556.926 749.772 555.273 751.479 552.926C753.292 550.686 754.625 547.646 755.479 543.806L757.719 533.086C754.519 535.753 751.105 537.94 747.479 539.646C743.852 541.246 739.319 542.046 733.879 542.046C728.332 542.046 723.585 541.246 719.639 539.646C715.692 538.046 712.545 535.646 710.199 532.446C707.959 529.246 706.465 525.353 705.719 520.766C705.079 516.18 705.239 510.9 706.199 504.926C706.412 503.326 706.625 501.94 706.839 500.766C707.159 499.593 707.532 498.206 707.959 496.606C709.452 490.846 711.372 485.673 713.719 481.086C716.172 476.5 719.052 472.553 722.359 469.246C725.665 465.94 729.505 463.433 733.879 461.726C738.252 459.913 743.212 459.006 748.759 459.006C754.519 459.006 759.425 460.126 763.479 462.366C767.532 464.5 770.465 467.22 772.279 470.526L773.559 464.606C773.772 463.54 774.359 462.633 775.319 461.886C776.279 461.033 777.345 460.606 778.519 460.606H796.919C798.092 460.606 798.945 461.033 799.479 461.886C800.119 462.633 800.332 463.54 800.119 464.606L783.959 541.566C782.679 547.646 780.759 552.98 778.199 557.566C775.639 562.26 772.385 566.206 768.439 569.406C764.492 572.606 759.745 575.006 754.199 576.606C748.759 578.206 742.519 579.006 735.479 579.006ZM744.759 521.246C748.172 521.246 751.105 520.5 753.559 519.006C756.119 517.513 758.199 515.593 759.799 513.246C761.505 510.9 762.732 508.393 763.479 505.726C763.692 504.553 764.012 502.9 764.439 500.766C764.972 498.633 765.292 497.033 765.399 495.966C765.825 493.193 765.772 490.633 765.239 488.286C764.812 485.94 763.692 484.073 761.879 482.686C760.172 481.193 757.612 480.446 754.199 480.446C750.892 480.446 748.012 481.193 745.559 482.686C743.105 484.18 741.079 486.206 739.479 488.766C737.985 491.326 736.812 494.153 735.959 497.246C735.639 498.313 735.319 499.486 734.999 500.766C734.785 502.046 734.625 503.273 734.519 504.446C733.985 507.54 733.879 510.366 734.199 512.926C734.519 515.486 735.479 517.513 737.079 519.006C738.785 520.5 741.345 521.246 744.759 521.246ZM343.003 715.406C332.336 715.406 323.59 713.913 316.763 710.926C310.043 707.94 305.19 703.993 302.203 699.086C299.323 694.073 298.31 688.793 299.163 683.246C299.376 682.393 299.803 681.646 300.443 681.006C301.19 680.26 302.043 679.886 303.003 679.886H323.483C324.976 679.886 326.043 680.153 326.683 680.686C327.323 681.22 327.963 681.913 328.603 682.766C329.03 684.366 329.883 685.913 331.163 687.406C332.443 688.9 334.203 690.126 336.443 691.086C338.79 691.94 341.67 692.366 345.083 692.366C351.27 692.366 356.23 691.406 359.963 689.486C363.696 687.566 365.883 684.953 366.523 681.646C367.163 679.3 366.736 677.38 365.243 675.886C363.856 674.286 361.35 672.9 357.723 671.726C354.203 670.446 349.456 669.166 343.483 667.886C335.696 666.18 329.296 663.833 324.283 660.846C319.27 657.753 315.75 653.86 313.723 649.166C311.803 644.366 311.536 638.66 312.923 632.046C315.056 622.233 320.336 614.5 328.763 608.846C337.19 603.086 348.123 600.206 361.563 600.206C368.496 600.206 374.63 601.166 379.963 603.086C385.403 605.006 389.936 607.566 393.563 610.766C397.19 613.966 399.803 617.38 401.403 621.006C403.003 624.526 403.536 627.993 403.003 631.406C402.896 632.26 402.47 633.06 401.723 633.806C400.976 634.446 400.123 634.766 399.163 634.766H377.723C376.656 634.766 375.696 634.553 374.843 634.126C374.096 633.7 373.456 633.006 372.923 632.046C372.923 629.7 371.696 627.673 369.243 625.966C366.79 624.153 363.536 623.246 359.483 623.246C354.896 623.246 351.056 624.1 347.963 625.806C344.87 627.406 342.95 629.913 342.203 633.326C341.67 635.46 341.936 637.326 343.003 638.926C344.176 640.526 346.31 641.913 349.403 643.086C352.603 644.26 356.976 645.486 362.523 646.766C371.91 648.58 379.27 651.033 384.603 654.126C389.936 657.113 393.51 660.9 395.323 665.486C397.243 670.073 397.51 675.673 396.123 682.286C393.776 693.166 388.07 701.433 379.003 707.086C370.043 712.633 358.043 715.406 343.003 715.406ZM443.661 715.406C435.127 715.406 427.981 713.966 422.221 711.086C416.461 708.206 412.301 704.1 409.741 698.766C407.287 693.326 406.647 686.873 407.821 679.406C408.034 677.273 408.407 674.873 408.941 672.206C409.581 669.433 410.221 667.033 410.861 665.006C412.887 657.433 415.981 650.98 420.141 645.646C424.301 640.313 429.634 636.206 436.141 633.326C442.647 630.446 450.381 629.006 459.341 629.006C467.767 629.006 474.861 630.446 480.621 633.326C486.381 636.206 490.594 640.313 493.261 645.646C495.927 650.98 496.674 657.433 495.501 665.006C495.074 667.033 494.594 669.433 494.061 672.206C493.527 674.873 492.994 677.273 492.461 679.406C490.434 686.873 487.394 693.326 483.341 698.766C479.287 704.1 474.007 708.206 467.501 711.086C460.994 713.966 453.047 715.406 443.661 715.406ZM446.061 695.886C450.861 695.886 454.754 694.446 457.741 691.566C460.727 688.686 462.967 684.366 464.461 678.606C464.887 677.006 465.367 674.873 465.901 672.206C466.541 669.54 466.967 667.406 467.181 665.806C468.141 660.153 467.874 655.886 466.381 653.006C464.887 650.02 461.741 648.526 456.941 648.526C452.354 648.526 448.514 650.02 445.421 653.006C442.434 655.886 440.247 660.153 438.861 665.806C438.434 667.406 437.901 669.54 437.261 672.206C436.727 674.873 436.354 677.006 436.141 678.606C435.181 684.366 435.394 688.686 436.781 691.566C438.274 694.446 441.367 695.886 446.061 695.886ZM541.161 715.406C532.627 715.406 525.481 713.966 519.721 711.086C513.961 708.206 509.801 704.1 507.241 698.766C504.787 693.326 504.147 686.873 505.321 679.406C505.534 677.273 505.907 674.873 506.441 672.206C507.081 669.433 507.721 667.033 508.361 665.006C510.387 657.433 513.481 650.98 517.641 645.646C521.801 640.313 527.134 636.206 533.641 633.326C540.147 630.446 547.881 629.006 556.841 629.006C565.267 629.006 572.361 630.446 578.121 633.326C583.881 636.206 588.094 640.313 590.761 645.646C593.427 650.98 594.174 657.433 593.001 665.006C592.574 667.033 592.094 669.433 591.561 672.206C591.027 674.873 590.494 677.273 589.961 679.406C587.934 686.873 584.894 693.326 580.841 698.766C576.787 704.1 571.507 708.206 565.001 711.086C558.494 713.966 550.547 715.406 541.161 715.406ZM543.561 695.886C548.361 695.886 552.254 694.446 555.241 691.566C558.227 688.686 560.467 684.366 561.961 678.606C562.387 677.006 562.867 674.873 563.401 672.206C564.041 669.54 564.467 667.406 564.681 665.806C565.641 660.153 565.374 655.886 563.881 653.006C562.387 650.02 559.241 648.526 554.441 648.526C549.854 648.526 546.014 650.02 542.921 653.006C539.934 655.886 537.747 660.153 536.361 665.806C535.934 667.406 535.401 669.54 534.761 672.206C534.227 674.873 533.854 677.006 533.641 678.606C532.681 684.366 532.894 688.686 534.281 691.566C535.774 694.446 538.867 695.886 543.561 695.886ZM602.661 713.806C601.487 713.806 600.581 713.433 599.941 712.686C599.301 711.94 599.087 710.98 599.301 709.806L615.301 634.606C615.514 633.433 616.101 632.473 617.061 631.726C618.021 630.98 619.087 630.606 620.261 630.606H638.661C639.834 630.606 640.687 630.98 641.221 631.726C641.861 632.473 642.074 633.433 641.861 634.606L640.581 640.686C643.887 637.38 647.834 634.606 652.421 632.366C657.114 630.126 662.394 629.006 668.261 629.006C674.981 629.006 680.527 630.393 684.901 633.166C689.274 635.94 692.261 640.046 693.861 645.486C695.461 650.82 695.407 657.38 693.701 665.166L684.101 709.806C683.887 710.98 683.301 711.94 682.341 712.686C681.487 713.433 680.474 713.806 679.301 713.806H659.301C658.127 713.806 657.221 713.433 656.581 712.686C655.941 711.94 655.727 710.98 655.941 709.806L665.221 666.126C666.394 660.9 666.234 657.006 664.741 654.446C663.354 651.78 660.207 650.446 655.301 650.446C650.501 650.446 646.447 651.833 643.141 654.606C639.834 657.273 637.647 661.113 636.581 666.126L627.301 709.806C627.087 710.98 626.501 711.94 625.541 712.686C624.687 713.433 623.727 713.806 622.661 713.806H602.661Z" fill="white"/>
</g>
<defs>
<clipPath id="clip0_99_389">
<rect width="1000" height="1037" fill="white"/>
</clipPath>
</defs>
</svg>
