<svg width="210" height="211" viewBox="0 0 210 211" fill="none" xmlns="http://www.w3.org/2000/svg">
<g filter="url(#filter0_d_23_2828)">
<circle cx="104.821" cy="102.644" r="46.8125" fill="#F57005"/>
<circle cx="104.821" cy="102.644" r="44.8125" stroke="white" stroke-width="4"/>
</g>
<path fill-rule="evenodd" clip-rule="evenodd" d="M127.797 92.7884C127.797 88.6518 124.787 85.3241 121.067 85.3241C116.029 85.0851 110.89 84.9932 105.643 84.9932C105.37 84.9932 105.097 84.9932 104.824 84.9932C104.552 84.9932 104.279 84.9932 104.006 84.9932C98.7675 84.9932 93.6201 85.0851 88.5818 85.3241C84.8713 85.3241 81.8611 88.6702 81.8611 92.8068C81.6337 96.0793 81.5337 99.3519 81.5428 102.624C81.5337 105.897 81.6337 109.17 81.852 112.451C81.852 116.588 84.8622 119.943 88.5727 119.943C93.8657 120.191 99.295 120.302 104.815 120.292C110.345 120.311 115.756 120.201 121.058 119.943C124.777 119.943 127.788 116.588 127.788 112.451C128.006 109.17 128.106 105.897 128.097 102.615C128.115 99.3427 128.015 96.0702 127.797 92.7884ZM100.368 111.642V93.5787L113.555 102.606L100.368 111.642Z" fill="white"/>
<defs>
<filter id="filter0_d_23_2828" x="0.00805664" y="0.831055" width="209.625" height="209.625" filterUnits="userSpaceOnUse" color-interpolation-filters="sRGB">
<feFlood flood-opacity="0" result="BackgroundImageFix"/>
<feColorMatrix in="SourceAlpha" type="matrix" values="0 0 0 0 0 0 0 0 0 0 0 0 0 0 0 0 0 0 127 0" result="hardAlpha"/>
<feMorphology radius="9" operator="dilate" in="SourceAlpha" result="effect1_dropShadow_23_2828"/>
<feOffset dy="3"/>
<feGaussianBlur stdDeviation="24.5"/>
<feColorMatrix type="matrix" values="0 0 0 0 0 0 0 0 0 0 0 0 0 0 0 0 0 0 0.06 0"/>
<feBlend mode="normal" in2="BackgroundImageFix" result="effect1_dropShadow_23_2828"/>
<feBlend mode="normal" in="SourceGraphic" in2="effect1_dropShadow_23_2828" result="shape"/>
</filter>
</defs>
</svg>
