<svg width="180" height="180" viewBox="0 0 180 180" fill="none" xmlns="http://www.w3.org/2000/svg">
<g filter="url(#filter0_d_23_2790)">
<ellipse cx="90.2445" cy="87.1211" rx="31.72" ry="31.4642" fill="#F57005"/>
<path d="M119.964 87.1211C119.964 103.379 106.674 116.585 90.2445 116.585C73.8153 116.585 60.5245 103.379 60.5245 87.1211C60.5245 70.8638 73.8153 57.657 90.2445 57.657C106.674 57.657 119.964 70.8638 119.964 87.1211Z" stroke="white" stroke-width="4"/>
</g>
<ellipse cx="90.2445" cy="87.0824" rx="4.96995" ry="4.99818" fill="white"/>
<path fill-rule="evenodd" clip-rule="evenodd" d="M81.547 87.0825C81.547 84.2007 82.9877 81.6775 85.1435 80.2854L83.3465 78.3711C82.8604 78.731 82.4007 79.139 81.9732 79.5943C80.0959 81.5945 79.062 84.2539 79.062 87.0825C79.062 89.911 80.0959 92.5704 81.9733 94.5706C82.4007 95.0258 82.8605 95.4339 83.3466 95.7937L85.1436 93.8795C82.9877 92.4874 81.547 89.9642 81.547 87.0825Z" fill="white"/>
<path fill-rule="evenodd" clip-rule="evenodd" d="M98.9418 87.0824C98.9418 89.9641 97.5011 92.4873 95.3453 93.8794L97.1423 95.7937C97.6284 95.4339 98.0882 95.0257 98.5156 94.5705C100.393 92.5703 101.427 89.911 101.427 87.0824C101.427 84.2538 100.393 81.5945 98.5155 79.5943C98.0881 79.139 97.6284 78.731 97.1422 78.3711L95.3452 80.2854C97.5011 81.6775 98.9418 84.2006 98.9418 87.0824Z" fill="white"/>
<path fill-rule="evenodd" clip-rule="evenodd" d="M75.3346 87.0824C75.3346 82.7419 77.2955 78.8895 80.325 76.4755L78.5521 74.5869C78.0862 74.9774 77.6405 75.3988 77.2166 75.8504C75.8482 77.3083 74.7734 79.0068 74.0224 80.8986C73.2442 82.8587 72.8496 84.9391 72.8496 87.0824C72.8496 89.2256 73.2442 91.3061 74.0224 93.2661C74.7734 95.1581 75.8482 96.8565 77.2166 98.3145C77.6405 98.7659 78.0862 99.1873 78.5521 99.5779L80.3249 97.6893C77.2955 95.2752 75.3346 91.4228 75.3346 87.0824Z" fill="white"/>
<path fill-rule="evenodd" clip-rule="evenodd" d="M105.154 87.0824C105.154 91.4228 103.193 95.2752 100.164 97.6892L101.937 99.5517C102.403 99.1611 102.848 98.7659 103.272 98.3144C104.641 96.8564 105.715 95.158 106.467 93.2661C107.245 91.3061 107.639 89.2256 107.639 87.0824C107.639 84.9391 107.245 82.8587 106.467 80.8986C105.715 79.0067 104.641 77.3083 103.272 75.8504C102.848 75.3988 102.403 74.9774 101.937 74.5869L100.164 76.4755C103.193 78.8895 105.154 82.7419 105.154 87.0824Z" fill="white"/>
<defs>
<filter id="filter0_d_23_2790" x="0.524536" y="0.656982" width="179.44" height="178.928" filterUnits="userSpaceOnUse" color-interpolation-filters="sRGB">
<feFlood flood-opacity="0" result="BackgroundImageFix"/>
<feColorMatrix in="SourceAlpha" type="matrix" values="0 0 0 0 0 0 0 0 0 0 0 0 0 0 0 0 0 0 127 0" result="hardAlpha"/>
<feMorphology radius="9" operator="dilate" in="SourceAlpha" result="effect1_dropShadow_23_2790"/>
<feOffset dy="3"/>
<feGaussianBlur stdDeviation="24.5"/>
<feColorMatrix type="matrix" values="0 0 0 0 0 0 0 0 0 0 0 0 0 0 0 0 0 0 0.06 0"/>
<feBlend mode="normal" in2="BackgroundImageFix" result="effect1_dropShadow_23_2790"/>
<feBlend mode="normal" in="SourceGraphic" in2="effect1_dropShadow_23_2790" result="shape"/>
</filter>
</defs>
</svg>
