<svg width="224" height="223" viewBox="0 0 224 223" fill="none" xmlns="http://www.w3.org/2000/svg">
<g filter="url(#filter0_d_23_2824)">
<ellipse cx="111.933" cy="108.537" rx="53.2077" ry="52.9519" fill="#1D29FF"/>
<path d="M163.141 108.537C163.141 136.668 140.223 159.489 111.933 159.489C83.6427 159.489 60.7253 136.668 60.7253 108.537C60.7253 80.4065 83.6427 57.5854 111.933 57.5854C140.223 57.5854 163.141 80.4065 163.141 108.537Z" stroke="white" stroke-width="4"/>
</g>
<path fill-rule="evenodd" clip-rule="evenodd" d="M119.895 105.851C119.769 105.799 119.643 105.746 119.527 105.673C118.792 105.253 118.245 104.528 118.066 103.656L116.122 91.2897L116.101 90.6803C116.101 89.9343 116.532 89.6087 117.152 89.3145C117.225 89.283 117.299 89.2514 117.373 89.2199C118.129 88.8627 118.644 88.4004 118.644 87.5074C118.644 85.3956 117.961 85.259 116.731 85.259H107.135C105.905 85.259 105.222 85.3851 105.222 87.5074C105.222 88.4004 105.737 88.8627 106.494 89.2199C106.567 89.2514 106.641 89.2724 106.714 89.3145C107.335 89.6192 107.765 89.9449 107.765 90.6803L107.744 91.2897L105.8 103.656C105.621 104.528 105.075 105.253 104.339 105.673C104.223 105.746 104.097 105.799 103.971 105.851C101.9 106.923 100.166 109.087 100.166 111.598C100.166 113.269 100.534 113.836 101.764 113.836H110.246L111.507 132.327H112.348L113.61 113.836H122.103C123.332 113.836 123.7 113.342 123.7 111.598C123.7 109.087 121.966 106.923 119.895 105.851Z" fill="white"/>
<defs>
<filter id="filter0_d_23_2824" x="0.725342" y="0.585449" width="222.415" height="221.904" filterUnits="userSpaceOnUse" color-interpolation-filters="sRGB">
<feFlood flood-opacity="0" result="BackgroundImageFix"/>
<feColorMatrix in="SourceAlpha" type="matrix" values="0 0 0 0 0 0 0 0 0 0 0 0 0 0 0 0 0 0 127 0" result="hardAlpha"/>
<feMorphology radius="9" operator="dilate" in="SourceAlpha" result="effect1_dropShadow_23_2824"/>
<feOffset dy="3"/>
<feGaussianBlur stdDeviation="24.5"/>
<feColorMatrix type="matrix" values="0 0 0 0 0 0 0 0 0 0 0 0 0 0 0 0 0 0 0.06 0"/>
<feBlend mode="normal" in2="BackgroundImageFix" result="effect1_dropShadow_23_2824"/>
<feBlend mode="normal" in="SourceGraphic" in2="effect1_dropShadow_23_2824" result="shape"/>
</filter>
</defs>
</svg>
