<svg width="164" height="163" viewBox="0 0 164 163" fill="none" xmlns="http://www.w3.org/2000/svg">
<g filter="url(#filter0_d_23_2800)">
<ellipse cx="81.5497" cy="78.3284" rx="23.5342" ry="23.2784" fill="#A36AF2"/>
<path d="M103.084 78.3284C103.084 90.0596 93.4633 99.6068 81.5497 99.6068C69.636 99.6068 60.0155 90.0596 60.0155 78.3284C60.0155 66.5972 69.636 57.05 81.5497 57.05C93.4633 57.05 103.084 66.5972 103.084 78.3284Z" stroke="white" stroke-width="4"/>
</g>
<path fill-rule="evenodd" clip-rule="evenodd" d="M79.7226 73.1027C79.7226 74.1134 80.5391 74.9299 81.5498 74.9299C82.5604 74.9299 83.377 74.1134 83.377 73.1027V67.6211C83.377 66.6105 82.5604 65.7939 81.5498 65.7939C80.5391 65.7939 79.7226 66.6105 79.7226 67.6211V73.1027Z" fill="white"/>
<path fill-rule="evenodd" clip-rule="evenodd" d="M81.5498 82.2388C82.5604 82.2388 83.377 83.0553 83.377 84.066V89.5475C83.377 90.5582 82.5604 91.3747 81.5498 91.3747C80.5391 91.3747 79.7226 90.5582 79.7226 89.5475V84.066C79.7226 83.0553 80.5391 82.2388 81.5498 82.2388Z" fill="white"/>
<path fill-rule="evenodd" clip-rule="evenodd" d="M70.5866 76.7571H76.0682C77.0789 76.7571 77.8954 77.5736 77.8954 78.5843C77.8954 79.5949 77.0789 80.4115 76.0682 80.4115H70.5866C69.576 80.4115 68.7594 79.5949 68.7594 78.5843C68.7594 77.5736 69.576 76.7571 70.5866 76.7571Z" fill="white"/>
<path fill-rule="evenodd" clip-rule="evenodd" d="M87.0312 76.7571H92.5128C93.5234 76.7571 94.34 77.5736 94.34 78.5843C94.34 79.5949 93.5234 80.4115 92.5128 80.4115H87.0312C86.0206 80.4115 85.204 79.5949 85.204 78.5843C85.204 77.5736 86.0206 76.7571 87.0312 76.7571Z" fill="white"/>
<path fill-rule="evenodd" clip-rule="evenodd" d="M76.3822 75.9975C77.096 76.7113 78.2551 76.7113 78.9688 75.9975C79.6826 75.2838 79.6826 74.1247 78.9688 73.4109L75.0918 69.5338C74.378 68.8201 73.2189 68.8201 72.5052 69.5338C71.7914 70.2476 71.7914 71.4067 72.5052 72.1205L76.3822 75.9975Z" fill="white"/>
<path fill-rule="evenodd" clip-rule="evenodd" d="M84.1364 81.1708C84.8501 80.4571 86.0093 80.4571 86.723 81.1708L90.6001 85.0479C91.3138 85.7616 91.3138 86.9207 90.6001 87.6345C89.8863 88.3482 88.7272 88.3482 88.0135 87.6345L84.1364 83.7574C83.4226 83.038 83.4226 81.8846 84.1364 81.1708Z" fill="white"/>
<path fill-rule="evenodd" clip-rule="evenodd" d="M72.5052 85.0423L76.3822 81.1652C77.096 80.4514 78.2551 80.4514 78.9688 81.1652C79.6826 81.8789 79.6826 83.0381 78.9688 83.7518L75.0918 87.6289C74.378 88.3426 73.2189 88.3426 72.5052 87.6289C71.7914 86.9151 71.7914 85.756 72.5052 85.0423Z" fill="white"/>
<path fill-rule="evenodd" clip-rule="evenodd" d="M84.1364 73.4168L88.0135 69.5397C88.7272 68.826 89.8863 68.826 90.6001 69.5397C91.3138 70.2534 91.3138 71.4126 90.6001 72.1263L86.723 76.0034C86.0093 76.7171 84.8501 76.7171 84.1364 76.0034C83.4226 75.2896 83.4226 74.1305 84.1364 73.4168Z" fill="white"/>
<defs>
<filter id="filter0_d_23_2800" x="0.0155029" y="0.0500488" width="163.068" height="162.557" filterUnits="userSpaceOnUse" color-interpolation-filters="sRGB">
<feFlood flood-opacity="0" result="BackgroundImageFix"/>
<feColorMatrix in="SourceAlpha" type="matrix" values="0 0 0 0 0 0 0 0 0 0 0 0 0 0 0 0 0 0 127 0" result="hardAlpha"/>
<feMorphology radius="9" operator="dilate" in="SourceAlpha" result="effect1_dropShadow_23_2800"/>
<feOffset dy="3"/>
<feGaussianBlur stdDeviation="24.5"/>
<feColorMatrix type="matrix" values="0 0 0 0 0 0 0 0 0 0 0 0 0 0 0 0 0 0 0.06 0"/>
<feBlend mode="normal" in2="BackgroundImageFix" result="effect1_dropShadow_23_2800"/>
<feBlend mode="normal" in="SourceGraphic" in2="effect1_dropShadow_23_2800" result="shape"/>
</filter>
</defs>
</svg>
