<svg width="220" height="219" viewBox="0 0 220 219" fill="none" xmlns="http://www.w3.org/2000/svg">
<g filter="url(#filter0_d_23_2834)">
<circle cx="109.996" cy="106.159" r="51.1612" fill="#1D29FF"/>
<circle cx="109.996" cy="106.159" r="49.1612" stroke="white" stroke-width="4"/>
</g>
<path d="M112.989 123.804L136.275 126.02C138.467 126.231 139.028 125.008 139.028 123.972L139.004 122.716L110.365 118.677C110.365 120.111 111.531 123.804 112.989 123.804Z" fill="black"/>
<path d="M113.838 122.711L117.502 123.032L137.124 124.926C138.18 124.926 139.029 124.087 139.029 123.051L137.988 91.2704C137.988 90.2344 137.134 89.395 136.084 89.395L113.838 87.2942C112.38 87.2942 111.195 88.4597 111.195 89.8938V120.111C111.195 121.545 112.375 122.711 113.838 122.711Z" fill="black"/>
<path d="M107.003 123.804L83.7167 126.02C81.5248 126.231 80.9636 125.008 80.9636 123.972L80.9876 122.715L109.627 118.672C109.627 120.111 108.461 123.804 107.003 123.804Z" fill="black"/>
<path d="M106.154 122.711L102.518 123.032L82.8678 124.931C81.8126 124.931 80.9636 124.092 80.9636 123.056L82.0044 91.2753C82.0044 90.2392 82.8582 89.3999 83.9086 89.3999L106.154 87.2991C107.612 87.2991 108.797 88.4646 108.797 89.8987V120.116C108.797 121.545 107.617 122.711 106.154 122.711Z" fill="black"/>
<path d="M117.071 115.598H102.931L102.499 123.046L106.912 123.459C106.912 123.459 107.857 125.819 109.996 125.819C112.135 125.819 113.08 123.459 113.08 123.459L117.493 123.046L117.071 115.598Z" fill="#424242"/>
<path d="M117.45 123.632L113.339 123.277M102.542 123.632L106.653 123.277" stroke="#616161" stroke-width="2.5" stroke-miterlimit="10"/>
<path d="M136.688 91.2034L134.769 88.5654L109.996 116.72L85.2228 88.5654L83.3042 91.2034L83.0356 122.548C83.0356 122.548 88.1294 123.186 94.9354 122.495C100.864 121.895 103.655 120.361 105.636 120.759C108.015 121.238 108.447 122.701 108.524 122.951C108.739 123.641 109.166 124.178 109.996 124.178C110.826 124.178 111.195 123.891 111.449 123.037C111.526 122.788 111.977 121.243 114.356 120.763C116.337 120.365 119.128 121.9 125.057 122.5C131.863 123.19 136.956 122.552 136.956 122.552L136.688 91.2034Z" fill="#94C6D6"/>
<path d="M134.122 119.526L134.199 106.868H136.822L136.956 122.547C136.956 122.547 134.87 121.737 134.122 119.526Z" fill="url(#paint0_linear_23_2834)"/>
<path d="M134.242 112.149L134.122 119.531C134.122 119.531 128.385 119.233 119.248 117.651C113.272 116.615 109.996 119.934 109.996 119.934L109.943 112.149H134.242Z" fill="url(#paint1_linear_23_2834)"/>
<path d="M85.7505 112.149L85.8704 119.531C85.8704 119.531 91.6069 119.233 100.744 117.651C106.72 116.615 109.996 119.934 109.996 119.934L109.943 112.149H85.7505Z" fill="url(#paint2_linear_23_2834)"/>
<path d="M85.8703 119.526L85.7936 106.868H83.1651L83.0356 122.547C83.0356 122.547 85.1173 121.737 85.8703 119.526Z" fill="url(#paint3_linear_23_2834)"/>
<path d="M134.769 88.5653C134.769 88.5653 122.04 86.172 116.452 85.8602C111.195 85.5676 110.116 88.244 110.01 88.5653H109.991C109.881 88.244 108.802 85.5724 103.545 85.8602C97.9571 86.172 85.2276 88.5653 85.2276 88.5653L84.6616 119.454C84.6616 119.454 99.8181 116.279 103.487 116.691C107.157 117.104 109.996 119.934 109.996 119.934C109.996 119.934 112.84 117.104 116.509 116.691C120.179 116.279 135.335 119.454 135.335 119.454L134.769 88.5653Z" fill="#F5F5F5"/>
<path opacity="0.26" d="M105.017 85.865L102.427 116.658C102.835 116.648 103.195 116.658 103.483 116.691C107.147 117.099 109.996 119.934 109.996 119.934L109.914 88.5653C109.914 88.5653 109.291 86.1096 105.017 85.865Z" fill="#94C6D6"/>
<path opacity="0.5" d="M91.4389 89.9372C90.1439 90.1626 89.0839 90.3544 88.4796 90.46C88.4796 90.7573 88.4796 91.0835 88.4748 91.4336C89.0072 91.3377 90.0911 91.141 91.4389 90.906V89.9372ZM103.113 88.3927V89.3472C105.67 89.3424 107.085 89.9851 107.55 90.2441C107.55 89.846 107.555 89.4911 107.555 89.1793C106.763 88.8244 105.315 88.3879 103.113 88.3927ZM101.032 88.5126C98.9548 88.7237 96.0626 89.1649 93.5205 89.587V90.5607C96.0434 90.1434 98.9404 89.6973 101.032 89.4767V88.5126ZM95.9235 92.6519C92.8251 93.1315 89.717 93.6879 88.47 93.9133V94.887C89.5539 94.6904 92.7339 94.1148 95.9235 93.6208V92.6519ZM101.694 91.9037C100.682 91.9852 99.3913 92.1483 98.0051 92.3401V93.309C99.4201 93.1076 100.744 92.9445 101.77 92.8581C105.214 92.5752 107.032 93.4193 107.54 93.7071V92.6375C106.6 92.2202 104.715 91.6543 101.694 91.9037ZM91.9521 96.7528C90.4365 97.0118 89.1702 97.2372 88.47 97.3667V98.3404C89.0983 98.2253 90.3837 97.9951 91.9521 97.7265V96.7528ZM107.54 96.1053C106.605 95.6832 104.715 95.1076 101.665 95.3618C99.7127 95.5201 96.7245 95.9662 94.0338 96.4075V97.3811C96.7485 96.9351 99.7798 96.4842 101.746 96.3211C105.248 96.0333 107.07 96.9111 107.54 97.1845V96.1053ZM107.545 99.5731C106.619 99.151 104.72 98.561 101.646 98.8152C101.334 98.8392 100.998 98.8728 100.643 98.9112V99.8752C101.032 99.8321 101.391 99.7985 101.727 99.7697C105.296 99.4771 107.118 100.393 107.55 100.652C107.545 100.293 107.545 99.9328 107.545 99.5731ZM98.5567 99.1702C94.806 99.6834 90.1343 100.513 88.4748 100.815V101.789C89.9377 101.52 94.7196 100.662 98.5567 100.134V99.1702ZM92.8491 103.506C90.9641 103.823 89.3333 104.115 88.4748 104.269V105.242C89.2518 105.098 90.9065 104.801 92.8491 104.475V103.506ZM107.55 103.046C106.634 102.624 104.725 102.019 101.622 102.273C99.8949 102.417 97.3624 102.777 94.9355 103.166V104.134C97.3864 103.741 99.9621 103.372 101.698 103.228C105.358 102.926 107.185 103.904 107.55 104.125V103.046ZM107.56 109.986C106.687 109.569 104.797 108.94 101.679 109.175V110.139C105.655 109.818 107.459 111.008 107.56 111.08V109.986ZM91.9521 110.562C90.4749 110.816 89.2182 111.036 88.4844 111.171V112.144C89.1606 112.02 90.4269 111.794 91.9521 111.53V110.562ZM94.0338 110.216V111.19C95.8947 110.888 97.8948 110.581 99.5975 110.365V109.396C97.9044 109.607 95.9043 109.909 94.0338 110.216ZM97.3672 113.152C93.933 113.65 90.072 114.336 88.4892 114.624V115.598C89.9233 115.334 93.8563 114.634 97.3672 114.12V113.152ZM107.564 113.459C106.696 113.036 104.763 112.379 101.54 112.643C100.931 112.691 100.221 112.773 99.4489 112.869V113.833C100.25 113.732 100.988 113.65 101.617 113.598C105.723 113.257 107.526 114.533 107.545 114.543L107.569 114.514C107.569 114.183 107.569 113.833 107.564 113.459ZM96.6526 106.35C93.3814 106.84 89.9137 107.458 88.4796 107.722V108.696C89.765 108.461 93.2999 107.828 96.6526 107.319V106.35ZM107.555 106.513C106.653 106.091 104.739 105.468 101.593 105.727C100.787 105.794 99.8038 105.909 98.739 106.053V107.022C99.8374 106.873 100.849 106.753 101.674 106.686C105.454 106.374 107.281 107.425 107.56 107.602C107.555 107.247 107.555 106.883 107.555 106.513ZM121.704 89.7117C125.675 90.2393 130.865 91.1794 132.275 91.4336C132.275 91.0787 132.275 90.7573 132.27 90.46C130.62 90.1578 125.57 89.2561 121.699 88.7429V89.7117H121.704ZM119.618 88.503C119.411 88.4839 119.215 88.4647 119.028 88.4503C116.02 88.2009 114.14 88.762 113.195 89.1793C113.195 89.4911 113.2 89.8508 113.2 90.2441C113.737 89.9468 115.555 89.1266 118.951 89.4048C119.162 89.4239 119.387 89.4431 119.618 89.4671V88.503ZM128.395 94.2059C129.691 94.4266 130.986 94.6553 132.28 94.8918V93.9181C131.527 93.779 130.098 93.5248 128.395 93.2371V94.2059ZM126.313 92.8869C123.718 92.4696 120.917 92.0572 119.056 91.9037C116.035 91.6543 114.15 92.2202 113.205 92.6375V93.7071C113.713 93.4193 115.531 92.5752 118.975 92.8581C120.85 93.0116 123.694 93.4337 126.309 93.8558V92.8869H126.313ZM125.91 96.2732V97.242C128.697 97.6881 131.292 98.1581 132.28 98.3404V97.3667C131.162 97.1653 128.616 96.7096 125.91 96.2732ZM121.699 99.1078C120.735 98.9831 119.843 98.8776 119.104 98.82C116.03 98.5658 114.131 99.1558 113.205 99.5779V100.657C113.637 100.403 115.464 99.4819 119.028 99.7745C119.785 99.8369 120.706 99.9424 121.699 100.077V99.1078ZM123.786 99.4004V100.369C127.263 100.887 131.009 101.564 132.275 101.794V100.82C130.846 100.556 127.177 99.904 123.786 99.4004ZM124.208 102.916C122.313 102.628 120.476 102.384 119.133 102.273C116.025 102.019 114.116 102.624 113.205 103.046V104.13C113.569 103.904 115.397 102.931 119.056 103.233C120.414 103.343 122.289 103.597 124.212 103.89V102.916H124.208ZM126.289 103.242V104.216C128.899 104.638 131.287 105.07 132.27 105.247V104.273C131.177 104.072 128.827 103.65 126.289 103.242ZM129.68 107.262V108.235C130.812 108.432 131.738 108.6 132.266 108.696V107.722C131.69 107.617 130.779 107.453 129.68 107.262ZM122.126 109.521C121.028 109.372 120.011 109.252 119.186 109.185C116.001 108.921 114.078 109.564 113.195 109.986V111.08C113.296 111.008 115.109 109.809 119.114 110.139C119.958 110.207 121.004 110.331 122.136 110.485V109.521H122.126ZM124.208 109.818V110.787C127.508 111.286 130.971 111.909 132.266 112.144V111.171C130.827 110.912 127.431 110.307 124.208 109.818ZM125.91 113.535C123.479 113.147 120.937 112.782 119.21 112.638C115.982 112.375 114.054 113.036 113.186 113.454V114.509L113.21 114.538C113.224 114.528 115.027 113.252 119.138 113.593C120.879 113.737 123.464 114.111 125.92 114.504V113.535H125.91ZM127.997 113.881V114.854C129.863 115.166 131.455 115.454 132.261 115.603V114.629C131.383 114.466 129.81 114.183 127.997 113.881ZM119.076 105.722C115.977 105.477 114.087 106.096 113.195 106.513V107.602C113.473 107.425 115.296 106.374 119.076 106.686V105.722ZM121.162 105.943V106.907C123.138 107.156 125.512 107.53 127.599 107.876V106.902C125.498 106.557 123.124 106.187 121.162 105.943ZM117.536 95.3043C115.387 95.3187 113.972 95.7599 113.21 96.1053V97.1797C113.613 96.9494 114.989 96.2828 117.536 96.2588V95.3043ZM119.618 95.4098V96.3739C120.812 96.4938 122.294 96.6952 123.824 96.9207V95.9518C122.289 95.7216 120.812 95.5249 119.618 95.4098Z" fill="#757575"/>
<path d="M113.43 122.682C112.893 122.634 112.399 122.965 112.226 123.478C111.967 124.26 111.363 125.281 109.996 125.281C108.615 125.281 108.006 124.255 107.742 123.473C107.66 123.228 107.498 123.018 107.282 122.875C107.067 122.733 106.81 122.666 106.552 122.687L106.365 122.701L106.37 122.855C106.37 123.815 106.752 124.736 107.431 125.415C108.11 126.094 109.031 126.476 109.991 126.476C110.952 126.476 111.873 126.094 112.552 125.415C113.231 124.736 113.613 123.815 113.613 122.855C113.613 122.807 113.608 122.696 113.608 122.696L113.43 122.682Z" fill="#616161"/>
<defs>
<filter id="filter0_d_23_2834" x="0.834839" y="-0.00268555" width="218.323" height="218.323" filterUnits="userSpaceOnUse" color-interpolation-filters="sRGB">
<feFlood flood-opacity="0" result="BackgroundImageFix"/>
<feColorMatrix in="SourceAlpha" type="matrix" values="0 0 0 0 0 0 0 0 0 0 0 0 0 0 0 0 0 0 127 0" result="hardAlpha"/>
<feMorphology radius="9" operator="dilate" in="SourceAlpha" result="effect1_dropShadow_23_2834"/>
<feOffset dy="3"/>
<feGaussianBlur stdDeviation="24.5"/>
<feColorMatrix type="matrix" values="0 0 0 0 0 0 0 0 0 0 0 0 0 0 0 0 0 0 0.06 0"/>
<feBlend mode="normal" in2="BackgroundImageFix" result="effect1_dropShadow_23_2834"/>
<feBlend mode="normal" in="SourceGraphic" in2="effect1_dropShadow_23_2834" result="shape"/>
</filter>
<linearGradient id="paint0_linear_23_2834" x1="135.533" y1="117.766" x2="135.652" y2="109.467" gradientUnits="userSpaceOnUse">
<stop offset="0.267" stop-color="#82AEC0"/>
<stop offset="1" stop-color="#82AEC0" stop-opacity="0"/>
</linearGradient>
<linearGradient id="paint1_linear_23_2834" x1="112.834" y1="116.04" x2="133.368" y2="116.04" gradientUnits="userSpaceOnUse">
<stop stop-color="#2F7889"/>
<stop offset="1" stop-color="#82AEC0"/>
</linearGradient>
<linearGradient id="paint2_linear_23_2834" x1="107.108" y1="116.04" x2="86.6201" y2="116.04" gradientUnits="userSpaceOnUse">
<stop stop-color="#2F7889"/>
<stop offset="1" stop-color="#82AEC0"/>
</linearGradient>
<linearGradient id="paint3_linear_23_2834" x1="84.4568" y1="117.766" x2="84.3379" y2="109.467" gradientUnits="userSpaceOnUse">
<stop offset="0.267" stop-color="#82AEC0"/>
<stop offset="1" stop-color="#82AEC0" stop-opacity="0"/>
</linearGradient>
</defs>
</svg>
