<svg width="150" height="149" viewBox="0 0 150 149" fill="none" xmlns="http://www.w3.org/2000/svg">
<g filter="url(#filter0_d_23_2817)">
<ellipse cx="75.3049" cy="71.5001" rx="16.3716" ry="16.1158" fill="#1D29FF"/>
<path d="M89.6765 71.5001C89.6765 79.2664 83.272 85.6159 75.3049 85.6159C67.3379 85.6159 60.9333 79.2664 60.9333 71.5001C60.9333 63.7337 67.3379 57.3843 75.3049 57.3843C83.272 57.3843 89.6765 63.7337 89.6765 71.5001Z" stroke="white" stroke-width="4"/>
</g>
<path fill-rule="evenodd" clip-rule="evenodd" d="M68.6539 69.6519C68.6539 69.2142 68.8757 68.8076 69.2558 68.5889L75.3048 65.6167L81.3539 68.5889C81.7025 68.8076 81.9558 69.2142 81.9558 69.6519V75.6216C81.9558 76.3095 81.3858 76.8722 80.689 76.8722H69.9207C69.2239 76.8722 68.6539 76.3095 68.6539 75.6216V69.6519ZM75.3046 72.6514L80.3929 69.3685L75.3046 66.8673L70.2164 69.3685L75.3046 72.6514Z" fill="white"/>
<defs>
<filter id="filter0_d_23_2817" x="0.93335" y="0.384277" width="148.743" height="148.232" filterUnits="userSpaceOnUse" color-interpolation-filters="sRGB">
<feFlood flood-opacity="0" result="BackgroundImageFix"/>
<feColorMatrix in="SourceAlpha" type="matrix" values="0 0 0 0 0 0 0 0 0 0 0 0 0 0 0 0 0 0 127 0" result="hardAlpha"/>
<feMorphology radius="9" operator="dilate" in="SourceAlpha" result="effect1_dropShadow_23_2817"/>
<feOffset dy="3"/>
<feGaussianBlur stdDeviation="24.5"/>
<feColorMatrix type="matrix" values="0 0 0 0 0 0 0 0 0 0 0 0 0 0 0 0 0 0 0.06 0"/>
<feBlend mode="normal" in2="BackgroundImageFix" result="effect1_dropShadow_23_2817"/>
<feBlend mode="normal" in="SourceGraphic" in2="effect1_dropShadow_23_2817" result="shape"/>
</filter>
</defs>
</svg>
