<svg width="113" height="120" viewBox="0 0 113 120" fill="none" xmlns="http://www.w3.org/2000/svg">
<path fill-rule="evenodd" clip-rule="evenodd" d="M63.193 61.9692C65.2612 60.4763 66.68 58.933 67.6955 57.6764C77.3586 45.6212 71.2153 32.1612 62.0786 22.2022C59.632 19.5325 54.9787 16.2672 50.5101 15.3998C47.3704 14.789 44.3245 15.3361 42.0981 17.9178C39.6605 20.7232 39.2296 24.9221 39.9344 29.3649C40.9485 35.7915 44.3116 42.7309 46.8462 46.3878C49.771 50.605 54.9838 56.6225 60.8272 61.8196C58.4696 63.2542 55.4096 64.5723 51.3842 65.4139C49.5964 65.7944 47.4697 65.7612 45.2342 65.4198C45.4552 61.9836 45.0067 58.3504 43.8041 54.6613C42.7888 51.5616 39.4364 45.4549 35.4226 41.7922C32.5555 39.18 29.347 37.8335 26.3673 39.2496C22.6695 41.0136 21.716 44.1514 22.2458 47.5715C22.9895 52.3876 26.791 57.7707 29.5101 60.1659C32.6753 62.9509 38.3115 65.5036 43.6734 66.5812C42.3154 78.1525 32.904 87.0812 19.7577 87.2165C19.3667 87.2247 19.0478 87.5509 19.0439 87.944C19.0514 88.3438 19.3833 88.6663 19.7743 88.6581C33.6838 88.512 43.6608 79.0773 45.1121 66.8347C47.4923 67.1925 49.7708 67.2301 51.6814 66.8251C56.1149 65.8951 59.4419 64.4149 61.962 62.8121C63.0732 63.767 64.205 64.6878 65.3504 65.5597C70.4926 69.4785 75.8158 72.3216 80.2761 72.5842C90.583 73.1925 97.6275 66.3842 100.885 57.5702C104.109 48.8393 103.599 38.1691 98.9544 30.9971C98.7377 30.6629 98.2867 30.565 97.9554 30.7829C97.6241 31.0009 97.5269 31.4466 97.7437 31.7806C102.164 38.6056 102.608 48.7666 99.5329 57.0696C96.4918 65.2897 89.9727 71.7109 80.3649 71.1471C76.1177 70.8897 71.1114 68.1364 66.2233 64.4123C65.2053 63.6368 64.1964 62.8204 63.193 61.9692ZM43.796 65.1651C43.9786 61.9477 43.556 58.555 42.4264 55.1048C41.4608 52.1543 38.282 46.3505 34.4463 42.8546C32.0691 40.6876 29.4589 39.3734 26.9913 40.5535C23.9708 41.9862 23.2426 44.5677 23.6735 47.3539C24.3542 51.8368 27.9287 56.8512 30.4662 59.0857C33.438 61.7037 38.7471 64.1322 43.796 65.1651ZM62.075 60.9997C64.1566 59.5361 65.5662 58.0083 66.5686 56.7734C75.7328 45.3448 69.6757 32.6174 61.016 23.1768C58.7383 20.6891 54.4103 17.6283 50.234 16.8143C47.6181 16.3089 45.0491 16.7044 43.1856 18.8608C41.0003 21.3739 40.7256 25.1574 41.3532 29.1361C42.3319 35.3383 45.5902 42.0403 48.0327 45.5675C50.9573 49.7849 56.2015 55.8272 62.075 60.9997Z" fill="white"/>
<path fill-rule="evenodd" clip-rule="evenodd" d="M20.4287 87.8597C21.0087 87.4072 22.673 86.0987 22.9192 85.894C23.6049 85.3165 23.8674 84.9302 24.0898 84.5074C24.2638 84.1654 24.3978 83.7871 24.8023 83.1893C25.0293 82.862 24.9302 82.4088 24.5995 82.1875C24.2688 81.9662 23.8267 82.0596 23.5997 82.3869C23.2413 82.9335 23.0623 83.3096 22.9098 83.6414C22.7288 84.021 22.5726 84.3073 21.9897 84.7905C21.7084 85.0281 19.999 86.1798 19.3292 86.8596C18.9784 87.2131 18.8486 87.5585 18.8465 87.7425C18.843 88.006 18.9373 88.3127 19.1799 88.6295C19.493 89.0349 20.119 89.5366 20.8075 90.1144C21.456 90.6558 22.177 91.2824 22.7005 92.0068C23.1368 92.6189 23.4249 93.298 23.3032 94.0683C23.2382 94.4602 23.4965 94.8281 23.8896 94.8938C24.2827 94.9594 24.6576 94.6945 24.7225 94.3025C24.9213 93.146 24.5329 92.0932 23.8687 91.1656C23.2796 90.3446 22.4746 89.626 21.7327 89.0085C21.291 88.6373 20.8725 88.3047 20.5685 88.0129C20.5192 87.9664 20.474 87.913 20.4287 87.8597Z" fill="white"/>
</svg>
