<svg width="1920" height="1808" viewBox="0 0 1920 1808" fill="none" xmlns="http://www.w3.org/2000/svg">
<rect y="-0.313477" width="1920" height="1068" fill="#1D29FF"/>
<ellipse opacity="0.24" cx="349.5" cy="560.687" rx="640.5" ry="643.687" fill="url(#paint0_linear_1_327)" fill-opacity="0.5"/>
<g opacity="0.14" filter="url(#filter0_d_1_327)">
<ellipse cx="349.497" cy="560.687" rx="490.731" ry="492.856" fill="url(#paint1_linear_1_327)" fill-opacity="0.6" shape-rendering="crispEdges"/>
</g>
<path d="M1698 -0.313477H1426.73L1109 1066.69H1375.77L1698 -0.313477Z" fill="white" fill-opacity="0.05"/>
<g opacity="0.1">
<path d="M1649.97 1088.6L1763.55 996.808L1899.84 1049.27L1922.54 1193.53L1808.96 1285.33L1672.68 1232.86L1649.97 1088.6Z" stroke="white" stroke-width="6"/>
<path d="M1705.87 1110.12L1772.87 1055.98L1853.25 1086.92L1866.65 1172.01L1799.65 1226.16L1719.27 1195.21L1705.87 1110.12Z" stroke="white" stroke-width="6"/>
<circle cx="1786.26" cy="1141.07" r="11.6091" transform="rotate(-8.94476 1786.26 1141.07)" stroke="white" stroke-width="6"/>
<path d="M1741.53 853.506L1855.11 761.712L1991.39 814.178L2014.1 958.438L1900.52 1050.23L1764.23 997.766L1741.53 853.506Z" stroke="white" stroke-width="6"/>
<path d="M1797.43 875.025L1864.42 820.881L1944.81 851.828L1958.2 936.919L1891.21 991.063L1810.82 960.116L1797.43 875.025Z" stroke="white" stroke-width="6"/>
<circle cx="1877.81" cy="905.972" r="11.6091" transform="rotate(-8.94476 1877.81 905.972)" stroke="white" stroke-width="6"/>
<path d="M1901.35 1052.07L2014.93 960.279L2151.21 1012.74L2173.92 1157L2060.34 1248.8L1924.05 1196.33L1901.35 1052.07Z" stroke="white" stroke-width="6"/>
<path d="M1717.24 1522.42L1830.82 1430.62L1967.1 1483.09L1989.81 1627.35L1876.23 1719.14L1739.94 1666.68L1717.24 1522.42Z" stroke="white" stroke-width="6"/>
<path d="M1773.14 1543.94L1840.13 1489.79L1920.52 1520.74L1933.91 1605.83L1866.92 1659.98L1786.53 1629.03L1773.14 1543.94Z" stroke="white" stroke-width="6"/>
<circle cx="1853.53" cy="1574.88" r="11.6091" transform="rotate(-8.94476 1853.53 1574.88)" stroke="white" stroke-width="6"/>
<path d="M1808.79 1287.32L1922.37 1195.53L2058.66 1248L2081.36 1392.26L1967.78 1484.05L1831.5 1431.58L1808.79 1287.32Z" stroke="white" stroke-width="6"/>
<path d="M1864.69 1308.84L1931.69 1254.7L2012.07 1285.64L2025.47 1370.74L1958.47 1424.88L1878.09 1393.93L1864.69 1308.84Z" stroke="white" stroke-width="6"/>
<path d="M1307.35 1362.2L1420.93 1270.41L1557.21 1322.87L1579.92 1467.13L1466.34 1558.93L1330.05 1506.46L1307.35 1362.2Z" stroke="white" stroke-width="6"/>
<path d="M1363.25 1383.72L1430.24 1329.58L1510.63 1360.52L1524.02 1445.61L1457.03 1499.76L1376.64 1468.81L1363.25 1383.72Z" stroke="white" stroke-width="6"/>
<circle cx="1443.64" cy="1414.67" r="11.6091" transform="rotate(-8.94476 1443.64 1414.67)" stroke="white" stroke-width="6"/>
<path d="M1398.9 1127.11L1512.48 1035.31L1648.77 1087.78L1671.47 1232.04L1557.89 1323.83L1421.61 1271.37L1398.9 1127.11Z" stroke="white" stroke-width="6"/>
<path d="M1454.8 1148.63L1521.8 1094.48L1602.18 1125.43L1615.58 1210.52L1548.58 1264.66L1468.19 1233.72L1454.8 1148.63Z" stroke="white" stroke-width="6"/>
<circle cx="1535.19" cy="1179.57" r="11.6091" transform="rotate(-8.94476 1535.19 1179.57)" stroke="white" stroke-width="6"/>
<path d="M1558.72 1325.67L1672.3 1233.88L1808.59 1286.34L1831.29 1430.6L1717.71 1522.4L1581.43 1469.93L1558.72 1325.67Z" stroke="white" stroke-width="6"/>
<path d="M1614.62 1347.19L1681.62 1293.05L1762 1323.99L1775.4 1409.09L1708.4 1463.23L1628.02 1432.28L1614.62 1347.19Z" stroke="white" stroke-width="6"/>
<circle cx="1695.01" cy="1378.14" r="11.6091" transform="rotate(-8.94476 1695.01 1378.14)" stroke="white" stroke-width="6"/>
<path d="M1239.92 927.397L1353.5 835.603L1489.78 888.069L1512.49 1032.33L1398.91 1124.12L1262.62 1071.66L1239.92 927.397Z" stroke="white" stroke-width="6"/>
<path d="M1295.82 948.916L1362.81 894.772L1443.2 925.718L1456.59 1010.81L1389.6 1064.95L1309.21 1034.01L1295.82 948.916Z" stroke="white" stroke-width="6"/>
<circle cx="1376.21" cy="979.863" r="11.6091" transform="rotate(-8.94476 1376.21 979.863)" stroke="white" stroke-width="6"/>
<path d="M1331.47 692.301L1445.05 600.507L1581.34 652.973L1604.04 797.233L1490.46 889.027L1354.18 836.561L1331.47 692.301Z" stroke="white" stroke-width="6"/>
<path d="M1387.37 713.821L1454.37 659.676L1534.75 690.623L1548.15 775.714L1481.15 829.858L1400.77 798.912L1387.37 713.821Z" stroke="white" stroke-width="6"/>
<circle cx="1467.76" cy="744.767" r="11.6091" transform="rotate(-8.94476 1467.76 744.767)" stroke="white" stroke-width="6"/>
<path d="M1491.29 890.868L1604.87 799.074L1741.16 851.54L1763.86 995.8L1650.28 1087.59L1514 1035.13L1491.29 890.868Z" stroke="white" stroke-width="6"/>
<path d="M1547.19 912.387L1614.19 858.243L1694.57 889.189L1707.97 974.28L1640.97 1028.42L1560.59 997.478L1547.19 912.387Z" stroke="white" stroke-width="6"/>
<circle cx="1627.58" cy="943.334" r="11.6091" transform="rotate(-8.94476 1627.58 943.334)" stroke="white" stroke-width="6"/>
<path d="M1581.03 657.071L1694.61 565.277L1830.9 617.743L1853.61 762.003L1740.03 853.797L1603.74 801.331L1581.03 657.071Z" stroke="white" stroke-width="6"/>
<path d="M1636.93 678.59L1703.93 624.446L1784.32 655.393L1797.71 740.484L1730.72 794.628L1650.33 763.681L1636.93 678.59Z" stroke="white" stroke-width="6"/>
<circle cx="1717.32" cy="709.537" r="11.6091" transform="rotate(-8.94476 1717.32 709.537)" stroke="white" stroke-width="6"/>
<path d="M1672.59 421.976L1786.17 330.182L1922.45 382.648L1945.16 526.908L1831.58 618.702L1695.29 566.236L1672.59 421.976Z" stroke="white" stroke-width="6"/>
<path d="M1728.49 443.495L1795.48 389.351L1875.87 420.298L1889.26 505.389L1822.27 559.533L1741.88 528.586L1728.49 443.495Z" stroke="white" stroke-width="6"/>
<circle cx="1808.88" cy="474.442" r="11.6091" transform="rotate(-8.94476 1808.88 474.442)" stroke="white" stroke-width="6"/>
<path d="M1832.41 620.542L1945.99 528.748L2082.27 581.214L2104.98 725.474L1991.4 817.268L1855.11 764.802L1832.41 620.542Z" stroke="white" stroke-width="6"/>
<path d="M1888.31 642.061L1955.3 587.917L2035.69 618.864L2049.08 703.955L1982.09 758.099L1901.7 727.152L1888.31 642.061Z" stroke="white" stroke-width="6"/>
</g>
<defs>
<filter id="filter0_d_1_327" x="-191.157" y="17.9082" width="1081.31" height="1085.56" filterUnits="userSpaceOnUse" color-interpolation-filters="sRGB">
<feFlood flood-opacity="0" result="BackgroundImageFix"/>
<feColorMatrix in="SourceAlpha" type="matrix" values="0 0 0 0 0 0 0 0 0 0 0 0 0 0 0 0 0 0 127 0" result="hardAlpha"/>
<feMorphology radius="6.37313" operator="dilate" in="SourceAlpha" result="effect1_dropShadow_1_327"/>
<feOffset/>
<feGaussianBlur stdDeviation="21.7749"/>
<feComposite in2="hardAlpha" operator="out"/>
<feColorMatrix type="matrix" values="0 0 0 0 0 0 0 0 0 0 0 0 0 0 0 0 0 0 0.25 0"/>
<feBlend mode="normal" in2="BackgroundImageFix" result="effect1_dropShadow_1_327"/>
<feBlend mode="normal" in="SourceGraphic" in2="effect1_dropShadow_1_327" result="shape"/>
</filter>
<linearGradient id="paint0_linear_1_327" x1="546.536" y1="0.381808" x2="61.1156" y2="1068.41" gradientUnits="userSpaceOnUse">
<stop stop-color="white"/>
<stop offset="1" stop-color="white" stop-opacity="0"/>
</linearGradient>
<linearGradient id="paint1_linear_1_327" x1="431.817" y1="31.1855" x2="30.3091" y2="1103.47" gradientUnits="userSpaceOnUse">
<stop stop-color="white"/>
<stop offset="1" stop-color="white" stop-opacity="0"/>
</linearGradient>
</defs>
</svg>
