<svg width="667" height="820" viewBox="0 0 667 820" fill="none" xmlns="http://www.w3.org/2000/svg">
<rect x="608.46" y="0.686523" width="80.4558" height="886.978" rx="40.2279" transform="rotate(43.3136 608.46 0.686523)" fill="#1E166B"/>
<rect x="602.936" y="126.792" width="67.7744" height="603.837" rx="33.8872" transform="rotate(43.3136 602.936 126.792)" fill="#1E166B"/>
<rect x="465.952" y="408.085" width="67.7744" height="403.821" rx="33.8872" transform="rotate(43.3136 465.952 408.085)" fill="#1E166B"/>
<rect x="545.522" y="283.963" width="84.7715" height="459.585" rx="42.3858" transform="rotate(43.3136 545.522 283.963)" fill="#1E166B"/>
<rect x="326.225" y="176.342" width="84.7715" height="459.585" rx="42.3858" transform="rotate(43.3136 326.225 176.342)" fill="#1E166B"/>
<rect x="329.1" y="0.899414" width="74.7589" height="158.857" rx="37.3795" transform="rotate(43.3136 329.1 0.899414)" fill="#1E166B"/>
<rect x="175.772" y="714.266" width="74.3913" height="74.2636" rx="37.1318" transform="rotate(43.3136 175.772 714.266)" fill="#1E166B"/>
<circle cx="333.589" cy="373.08" r="287.625" stroke="url(#paint0_linear_1_476)" stroke-opacity="0.9" stroke-width="26.1477"/>
<rect x="75.1393" y="181.19" width="87.4009" height="83.7188" rx="41.8594" transform="rotate(43.3136 75.1393 181.19)" fill="#03FCFF"/>
<rect x="562.405" y="489.058" width="74.7589" height="147.266" rx="37.3795" transform="rotate(43.3136 562.405 489.058)" fill="#03FCFF"/>
<defs>
<linearGradient id="paint0_linear_1_476" x1="333.589" y1="98.5293" x2="333.589" y2="647.631" gradientUnits="userSpaceOnUse">
<stop stop-color="#E5732C"/>
<stop offset="1" stop-color="#9176BB"/>
</linearGradient>
</defs>
</svg>
