<svg width="61" height="60" viewBox="0 0 61 60" fill="none" xmlns="http://www.w3.org/2000/svg">
<path opacity="0.2" d="M13.2643 47.2357C11.1071 45.0785 12.5379 40.5496 11.4399 37.8959C10.3016 35.1449 6.125 32.9308 6.125 29.9999C6.125 27.069 10.3017 24.855 11.4399 22.1041C12.5379 19.4504 11.1071 14.9215 13.2643 12.7643C15.4215 10.6071 19.9504 12.0379 22.6041 10.9399C25.3551 9.80165 27.5692 5.625 30.5001 5.625C33.431 5.625 35.645 9.80167 38.3959 10.9399C41.0496 12.0379 45.5785 10.6071 47.7357 12.7643C49.8929 14.9215 48.4621 19.4504 49.5601 22.1041C50.6983 24.8551 54.875 27.0692 54.875 30.0001C54.875 32.931 50.6983 35.145 49.5601 37.8959C48.4621 40.5496 49.8929 45.0785 47.7357 47.2357C45.5785 49.3929 41.0496 47.9621 38.3959 49.0601C35.6449 50.1983 33.4308 54.375 30.4999 54.375C27.569 54.375 25.355 50.1983 22.6041 49.0601C19.9504 47.9621 15.4215 49.3929 13.2643 47.2357Z" fill="#23BD33"/>
<path d="M13.2643 47.2357C11.1071 45.0785 12.5379 40.5496 11.4399 37.8959C10.3016 35.1449 6.125 32.9308 6.125 29.9999C6.125 27.069 10.3017 24.855 11.4399 22.1041C12.5379 19.4504 11.1071 14.9215 13.2643 12.7643C15.4215 10.6071 19.9504 12.0379 22.6041 10.9399C25.3551 9.80165 27.5692 5.625 30.5001 5.625C33.431 5.625 35.645 9.80167 38.3959 10.9399C41.0496 12.0379 45.5785 10.6071 47.7357 12.7643C49.8929 14.9215 48.4621 19.4504 49.5601 22.1041C50.6984 24.8551 54.875 27.0692 54.875 30.0001C54.875 32.931 50.6983 35.145 49.5601 37.8959C48.4621 40.5496 49.8929 45.0785 47.7357 47.2357C45.5785 49.3929 41.0496 47.9621 38.3959 49.0601C35.6449 50.1984 33.4308 54.375 30.4999 54.375C27.569 54.375 25.355 50.1983 22.6041 49.0601C19.9504 47.9621 15.4215 49.3929 13.2643 47.2357Z" stroke="#23BD33" stroke-width="2" stroke-linecap="round" stroke-linejoin="round"/>
<path d="M40.8125 24.375L27.0624 37.5L20.1875 30.9375" stroke="#23BD33" stroke-width="2" stroke-linecap="round" stroke-linejoin="round"/>
</svg>
