<svg width="61" height="60" viewBox="0 0 61 60" fill="none" xmlns="http://www.w3.org/2000/svg">
<path opacity="0.2" d="M31.0263 52.4939C35.14 52.3984 39.1488 51.1767 42.6166 48.9617C46.0844 46.7468 48.8785 43.6233 50.695 39.9312L50.6946 39.9309L37.9712 32.1055C37.7482 31.9683 37.4989 31.8794 37.2394 31.8444L31.8913 31.1235C31.4897 31.0694 31.0814 31.1468 30.7275 31.3442C30.3736 31.5416 30.0932 31.8483 29.9282 32.2184L26.7176 39.4227C26.5682 39.7578 26.5205 40.1292 26.5802 40.4911C26.6399 40.8531 26.8044 41.1895 27.0534 41.4588L31.4597 46.2248C31.6594 46.4408 31.8055 46.7009 31.8861 46.9839C31.9668 47.2668 31.9797 47.5648 31.9238 47.8537L31.0263 52.4935L31.0263 52.4939Z" fill="#E34444"/>
<path opacity="0.2" d="M14.5479 18.3792L16.5533 13.637C19.1647 11.4147 22.2698 9.84701 25.6109 9.06581C28.8893 8.29927 32.2998 8.31219 35.5689 9.10093L37.5468 12.6438C37.6433 12.8166 37.6784 13.0171 37.6462 13.2125C37.614 13.4078 37.5166 13.5865 37.3697 13.7193L31.0625 19.4234C31.0125 19.4686 30.9575 19.5078 30.8986 19.5404L28.0294 21.1248L28.5128 22.0002L28.0294 21.1248C27.8999 21.1964 27.7544 21.2339 27.6064 21.2339H22.6036C22.0379 21.2339 21.4848 21.4008 21.0135 21.7136C20.5422 22.0265 20.1737 22.4715 19.9541 22.9928L18.324 26.8624L17.8631 26.7634C17.7197 26.7325 17.5863 26.6661 17.4752 26.5703C17.3642 26.4745 17.279 26.3522 17.2276 26.2149L14.5344 19.027C14.4558 18.8173 14.4606 18.5855 14.5479 18.3792L13.6268 17.9897L14.5479 18.3792Z" fill="#E34444" stroke="#E34444" stroke-width="2"/>
<path d="M30.5 52.5C42.9264 52.5 53 42.4264 53 30C53 17.5736 42.9264 7.5 30.5 7.5C18.0736 7.5 8 17.5736 8 30C8 42.4264 18.0736 52.5 30.5 52.5Z" stroke="#E34444" stroke-width="2" stroke-linecap="round" stroke-linejoin="round"/>
<path d="M50.6946 39.9309L37.9712 32.1055C37.7482 31.9683 37.4989 31.8794 37.2394 31.8444L31.8913 31.1235C31.4897 31.0694 31.0814 31.1468 30.7275 31.3442C30.3736 31.5416 30.0932 31.8483 29.9282 32.2184L26.7176 39.4227C26.5682 39.7578 26.5205 40.1292 26.5802 40.4911C26.6399 40.8531 26.8044 41.1895 27.0534 41.4588L31.4597 46.2248C31.6594 46.4408 31.8055 46.7009 31.8861 46.9839C31.9668 47.2668 31.9796 47.5648 31.9238 47.8537L31.0263 52.4935" stroke="#E34444" stroke-width="2" stroke-linecap="round" stroke-linejoin="round"/>
<path d="M15.7231 13.0327L13.6268 17.9897C13.4399 18.4317 13.4296 18.9285 13.598 19.3779L16.2911 26.5657C16.4014 26.8601 16.5839 27.122 16.8219 27.3273C17.0599 27.5327 17.3456 27.6749 17.6529 27.741L22.6756 28.8205C22.9543 28.8804 23.2156 29.0031 23.4398 29.1792C23.664 29.3552 23.8451 29.5801 23.9693 29.8367L24.8612 31.6794C25.0147 31.9965 25.2544 32.2639 25.5529 32.451C25.8514 32.6382 26.1966 32.7374 26.5489 32.7374H29.6971" stroke="#E34444" stroke-width="2" stroke-linecap="round" stroke-linejoin="round"/>
<path d="M36.2323 8.23804L38.4198 12.1564C38.6266 12.5268 38.7017 12.9564 38.6328 13.375C38.5639 13.7936 38.355 14.1765 38.0404 14.4611L31.7331 20.1652C31.6261 20.262 31.5082 20.3461 31.3819 20.4159L28.5127 22.0003C28.2352 22.1536 27.9233 22.234 27.6063 22.234H22.6035C22.2345 22.234 21.8738 22.3428 21.5664 22.5469C21.2591 22.7509 21.0187 23.0411 20.8755 23.3811L18.9238 28.0143" stroke="#E34444" stroke-width="1.5" stroke-linecap="round" stroke-linejoin="round"/>
</svg>
