<svg width="61" height="60" viewBox="0 0 61 60" fill="none" xmlns="http://www.w3.org/2000/svg">
<path opacity="0.2" d="M19.25 50.625H11.75C11.2527 50.625 10.7758 50.4275 10.4242 50.0758C10.0725 49.7242 9.875 49.2473 9.875 48.75V11.25C9.875 10.7527 10.0725 10.2758 10.4242 9.92418C10.7758 9.57254 11.2527 9.375 11.75 9.375H19.25V50.625Z" fill="#564FFD"/>
<path d="M26.75 26.25H41.75" stroke="#564FFD" stroke-width="2" stroke-linecap="round" stroke-linejoin="round"/>
<path d="M26.75 33.75H41.75" stroke="#564FFD" stroke-width="2" stroke-linecap="round" stroke-linejoin="round"/>
<path d="M49.25 9.375H11.75C10.7145 9.375 9.875 10.2145 9.875 11.25V48.75C9.875 49.7855 10.7145 50.625 11.75 50.625H49.25C50.2855 50.625 51.125 49.7855 51.125 48.75V11.25C51.125 10.2145 50.2855 9.375 49.25 9.375Z" stroke="#564FFD" stroke-width="2" stroke-linecap="round" stroke-linejoin="round"/>
<path d="M19.25 9.375V50.625" stroke="#564FFD" stroke-width="1.5" stroke-linecap="round" stroke-linejoin="round"/>
</svg>
