<svg width="61" height="60" viewBox="0 0 61 60" fill="none" xmlns="http://www.w3.org/2000/svg">
<path opacity="0.2" d="M21.1251 37.5C27.8561 37.5 33.3126 32.0435 33.3126 25.3125C33.3126 18.5815 27.8561 13.125 21.1251 13.125C14.3942 13.125 8.93762 18.5815 8.93762 25.3125C8.93762 32.0435 14.3942 37.5 21.1251 37.5Z" fill="#FF6636"/>
<path d="M21.1251 37.5C27.8561 37.5 33.3126 32.0435 33.3126 25.3125C33.3126 18.5815 27.8561 13.125 21.1251 13.125C14.3942 13.125 8.93762 18.5815 8.93762 25.3125C8.93762 32.0435 14.3942 37.5 21.1251 37.5Z" stroke="#FF6636" stroke-width="2" stroke-miterlimit="10"/>
<path d="M36.9247 13.5791C38.601 13.1068 40.359 12.9992 42.0804 13.2636C43.8018 13.5279 45.4465 14.1581 46.9039 15.1116C48.3612 16.0652 49.5973 17.3199 50.5288 18.7914C51.4604 20.2629 52.0658 21.9169 52.3043 23.642C52.5428 25.3672 52.4088 27.1234 51.9114 28.7924C51.414 30.4615 50.5647 32.0045 49.4207 33.3177C48.2768 34.6308 46.8647 35.6836 45.2796 36.405C43.6945 37.1265 41.9732 37.4999 40.2316 37.5001" stroke="#FF6636" stroke-width="2" stroke-linecap="round" stroke-linejoin="round"/>
<path d="M4.24878 46.2648C6.15222 43.5573 8.67915 41.3476 11.6162 39.8221C14.5533 38.2966 17.8143 37.5001 21.124 37.5C24.4336 37.4999 27.6947 38.2961 30.6319 39.8213C33.5691 41.3466 36.0962 43.5562 37.9998 46.2636" stroke="#FF6636" stroke-width="2" stroke-linecap="round" stroke-linejoin="round"/>
<path d="M40.2317 37.5C43.5416 37.4976 46.8034 38.2928 49.7408 39.8183C52.6783 41.3438 55.2049 43.5546 57.1068 46.2636" stroke="#FF6636" stroke-width="2" stroke-linecap="round" stroke-linejoin="round"/>
</svg>
