<svg width="78" height="60" viewBox="0 0 78 60" fill="none" xmlns="http://www.w3.org/2000/svg">
<path opacity="0.5" d="M46.2081 50.8279C48.228 54.4633 51.2142 57.2428 54.7179 58.7487C58.2216 60.2546 62.0536 60.4055 65.6379 59.1786C69.2222 57.9518 72.3651 55.4136 74.5943 51.9454C76.8235 48.4773 78.0185 44.2666 77.9998 39.9463C77.9979 36.3686 77.1648 32.8571 75.5875 29.7787C74.0102 26.7003 71.7465 24.168 69.033 22.4462C66.3195 20.7245 63.2558 19.8765 60.1618 19.9909C57.0679 20.1053 54.0573 21.1778 51.4445 23.0965C52.8029 18.4347 55.3329 13.4613 59.5013 8.47585C60.2988 7.52232 60.7359 6.2417 60.7165 4.91569C60.697 3.58968 60.2226 2.32692 59.3976 1.40518C58.5726 0.483448 57.4646 -0.0217552 56.3173 0.000720978C55.17 0.0231972 54.0774 0.57151 53.2799 1.52503C37.8714 19.9806 39.8726 40.0421 46.2081 50.8039V50.8279ZM4.73173 50.8279C6.75156 54.4633 9.73775 57.2428 13.2415 58.7487C16.7452 60.2546 20.5772 60.4055 24.1615 59.1786C27.7458 57.9518 30.8887 55.4136 33.1179 51.9454C35.3471 48.4773 36.5421 44.2666 36.5234 39.9463C36.5215 36.3686 35.6884 32.8571 34.1111 29.7787C32.5338 26.7003 30.2701 24.168 27.5566 22.4462C24.8431 20.7245 21.7794 19.8765 18.6854 19.9909C15.5915 20.1053 12.5808 21.1778 9.96812 23.0965C11.3265 18.4347 13.8565 13.4613 18.0249 8.47585C18.8224 7.52232 19.2595 6.2417 19.2401 4.91569C19.2206 3.58968 18.7462 2.32692 17.9212 1.40518C17.0962 0.483448 15.9882 -0.0217552 14.8409 0.000720978C13.6936 0.0231972 12.601 0.57151 11.8035 1.52503C-3.60503 19.9806 -1.6038 40.0421 4.73173 50.8039V50.8279Z" fill="#1D29FF"/>
</svg>
