<svg width="78" height="60" viewBox="0 0 78 60" fill="none" xmlns="http://www.w3.org/2000/svg">
<path opacity="0.5" d="M31.7919 9.17212C29.772 5.5367 26.7858 2.75717 23.2821 1.25129C19.7784 -0.254585 15.9464 -0.405453 12.3621 0.821372C8.77782 2.0482 5.63489 4.58643 3.40569 8.05457C1.17649 11.5227 -0.0185356 15.7334 0.000217383 20.0537C0.00207662 23.6314 0.835184 27.1429 2.41251 30.2213C3.98983 33.2997 6.25349 35.832 8.96698 37.5538C11.6805 39.2755 14.7442 40.1235 17.8382 40.0091C20.9321 39.8947 23.9427 38.8222 26.5555 36.9035C25.1971 41.5653 22.6671 46.5387 18.4987 51.5242C17.7012 52.4777 17.2641 53.7583 17.2835 55.0843C17.303 56.4103 17.7774 57.6731 18.6024 58.5948C19.4274 59.5166 20.5354 60.0218 21.6827 59.9993C22.83 59.9768 23.9226 59.4285 24.7201 58.475C40.1286 40.0194 38.1274 19.9579 31.7919 9.19608V9.17212ZM73.2683 9.17212C71.2484 5.5367 68.2622 2.75717 64.7585 1.25129C61.2548 -0.254585 57.4228 -0.405453 53.8385 0.821372C50.2542 2.0482 47.1113 4.58643 44.8821 8.05457C42.6529 11.5227 41.4579 15.7334 41.4766 20.0537C41.4785 23.6314 42.3116 27.1429 43.8889 30.2213C45.4662 33.2997 47.7299 35.832 50.4434 37.5538C53.1569 39.2755 56.2206 40.1235 59.3146 40.0091C62.4085 39.8947 65.4192 38.8222 68.0319 36.9035C66.6735 41.5653 64.1435 46.5387 59.9751 51.5242C59.1776 52.4777 58.7405 53.7583 58.7599 55.0843C58.7794 56.4103 59.2538 57.6731 60.0788 58.5948C60.9038 59.5166 62.0118 60.0218 63.1591 59.9993C64.3064 59.9768 65.399 59.4285 66.1965 58.475C81.605 40.0194 79.6038 19.9579 73.2683 9.19608V9.17212Z" fill="#1D29FF"/>
</svg>
