<svg width="20" height="20" viewBox="0 0 20 20" fill="none" xmlns="http://www.w3.org/2000/svg">
<path d="M18.869 5.72938C18.6686 4.62192 17.9918 3.91099 16.9336 3.71745C16.4969 3.63728 16.0523 3.57887 15.6088 3.55883C13.728 3.47379 11.8463 3.40708 9.96492 3.3335C9.96435 3.35297 9.96378 3.37244 9.96321 3.3919C9.53058 3.3919 9.09767 3.38561 8.66534 3.39305C6.87157 3.42311 5.07752 3.44287 3.2932 3.66562C2.18344 3.80391 1.41468 4.46387 1.18363 5.56103C1.0545 6.17375 0.984066 6.80192 0.933102 7.42695C0.824016 8.76375 0.797102 10.1049 0.892159 11.4437C0.95114 12.2717 1.02673 13.1023 1.16444 13.9203C1.34511 14.9917 2.08352 15.7 3.12313 15.8544C3.73871 15.9457 4.3603 16.0236 4.9816 16.0439C6.88875 16.1057 8.79704 16.163 10.705 16.1725C12.607 16.1822 14.5099 16.137 16.4044 15.938C16.8929 15.8864 17.3742 15.8085 17.8011 15.5351C18.5071 15.083 18.8284 14.4036 18.9054 13.6056C19.0093 12.5259 19.1147 11.4437 19.1502 10.3605C19.2015 8.81071 19.1459 7.26146 18.869 5.72938ZM8.18776 12.5185V7.04558C9.77624 7.95864 11.3481 8.86225 12.9478 9.78189C11.3504 10.7004 9.77882 11.6037 8.18776 12.5185Z" fill="#474747"/>
</svg>
