<svg width="20" height="20" viewBox="0 0 20 20" fill="none" xmlns="http://www.w3.org/2000/svg">
<path d="M11.8618 5.78722C11.8515 6.39048 11.8597 6.9932 11.8597 7.61768C11.9456 7.62148 12.0169 7.62801 12.0887 7.62801C12.7942 7.62855 13.5003 7.62747 14.2064 7.62856C14.6339 7.62964 14.7394 7.73463 14.74 8.15457C14.7411 8.96237 14.7416 9.77016 14.74 10.578C14.7389 10.9522 14.6459 11.0469 14.2695 11.0485C13.5498 11.0518 12.8307 11.0496 12.111 11.0496H11.8608V17.6762C11.8608 18.2751 11.802 18.3328 11.1933 18.3328C10.4192 18.3328 9.64572 18.3333 8.87219 18.3322C8.44246 18.3317 8.34291 18.2332 8.34236 17.8068C8.34182 15.6554 8.34236 13.5034 8.34236 11.3515V11.0871C8.25968 11.0822 8.18842 11.0746 8.11716 11.0746C7.52695 11.0735 6.9362 11.0751 6.346 11.0735C5.93639 11.0719 5.83738 10.9767 5.8363 10.5709C5.83303 9.77669 5.83358 8.9825 5.83575 8.1883C5.83684 7.76618 5.93367 7.67153 6.35089 7.67099C6.93457 7.67044 7.51825 7.67099 8.10193 7.67099H8.34236C8.34236 7.57035 8.34128 7.49093 8.34236 7.41151C8.35651 6.63799 8.32876 5.8612 8.39404 5.09257C8.55941 3.15767 10.0472 1.75695 11.9913 1.68405C12.8045 1.65359 13.6194 1.671 14.4343 1.67317C14.7035 1.67426 14.8189 1.79067 14.8205 2.06157C14.8249 2.86936 14.8249 3.67716 14.8205 4.48495C14.8189 4.75966 14.7057 4.86845 14.4109 4.87552C13.8615 4.88858 13.3115 4.88912 12.7621 4.89728C12.1246 4.90707 11.8733 5.14805 11.8618 5.78722Z" fill="#474747"/>
</svg>
