<svg width="20" height="20" viewBox="0 0 20 20" fill="none" xmlns="http://www.w3.org/2000/svg">
<path d="M16.9854 16.9615C15.1299 14.2541 13.2728 11.5476 11.4164 8.84069C11.3922 8.80542 11.37 8.76871 11.3398 8.72187C11.6649 8.34282 11.9885 7.9654 12.3124 7.58815C13.9957 5.62761 15.6791 3.66689 17.3624 1.70617C17.3729 1.69387 17.3813 1.67995 17.3907 1.66675H15.9611C14.2139 3.70125 12.4666 5.73594 10.6916 7.80282C10.6703 7.7643 10.6551 7.7312 10.6348 7.70172C9.27181 5.71351 7.90842 3.72567 6.54539 1.73746C6.53038 1.7154 6.51971 1.69044 6.50687 1.66675H1.66602C1.70797 1.73547 1.74667 1.80636 1.79206 1.87255C3.83796 4.85685 5.8844 7.84079 7.93085 10.8249C7.95218 10.856 7.97262 10.8878 8.00246 10.9329C7.83626 11.1278 7.66916 11.3248 7.5008 11.5208C5.59831 13.7363 3.69564 15.9517 1.79333 18.1674C1.74812 18.2202 1.70833 18.2779 1.66602 18.3334H3.09559C3.74302 17.5759 4.38918 16.8172 5.03787 16.0607C6.19112 14.7158 7.34599 13.3719 8.50014 12.0279C8.54228 11.9787 8.58568 11.9308 8.63596 11.8735C8.66851 11.9129 8.69745 11.9433 8.72096 11.9774C10.1518 14.0635 11.5823 16.1497 13.0126 18.2363C13.0337 18.2672 13.0507 18.301 13.0697 18.3334H17.9104C17.6023 17.8761 17.2972 17.4165 16.9854 16.9615ZM15.767 17.2974C15.15 17.2979 14.5329 17.2946 13.9159 17.3004C13.8011 17.3013 13.7304 17.2686 13.6633 17.1726C10.3491 12.4178 7.03223 7.66465 3.71589 2.91132C3.68533 2.86756 3.65748 2.8218 3.60865 2.74693C4.21394 2.74693 4.78758 2.76972 5.35833 2.73825C5.69596 2.71963 5.88205 2.83844 6.07321 3.11369C9.3116 7.77605 12.5628 12.4296 15.8112 17.085C15.8533 17.1454 15.894 17.2068 15.9493 17.2878C15.8699 17.2921 15.8186 17.2972 15.767 17.2974Z" fill="#474747"/>
</svg>
