<svg width="20" height="20" viewBox="0 0 20 20" fill="none" xmlns="http://www.w3.org/2000/svg">
<path d="M4.375 0C4.54076 0 4.69973 0.065848 4.81694 0.183058C4.93415 0.300269 5 0.45924 5 0.625V1.25H15V0.625C15 0.45924 15.0658 0.300269 15.1831 0.183058C15.3003 0.065848 15.4592 0 15.625 0C15.7908 0 15.9497 0.065848 16.0669 0.183058C16.1842 0.300269 16.25 0.45924 16.25 0.625V1.25H17.5C18.163 1.25 18.7989 1.51339 19.2678 1.98223C19.7366 2.45107 20 3.08696 20 3.75V17.5C20 18.163 19.7366 18.7989 19.2678 19.2678C18.7989 19.7366 18.163 20 17.5 20H2.5C1.83696 20 1.20107 19.7366 0.732233 19.2678C0.263392 18.7989 0 18.163 0 17.5V3.75C0 3.08696 0.263392 2.45107 0.732233 1.98223C1.20107 1.51339 1.83696 1.25 2.5 1.25H3.75V0.625C3.75 0.45924 3.81585 0.300269 3.93306 0.183058C4.05027 0.065848 4.20924 0 4.375 0V0ZM16.8175 3.75H3.18125C2.80625 3.75 2.5 4.03 2.5 4.375V5.625C2.5 5.97 2.805 6.25 3.18125 6.25H16.8188C17.1938 6.25 17.5 5.97 17.5 5.625V4.375C17.5 4.03 17.195 3.75 16.8175 3.75ZM11.67 15.9875C13.2425 15.9875 14.17 14.6538 14.17 12.3975C14.17 9.98 13.1938 9.0625 11.7288 9.0625C10.5713 9.0625 9.4825 9.9025 9.4825 11.3237C9.4825 12.7738 10.5125 13.5363 11.5775 13.5363C12.51 13.5363 13.115 13.0662 13.3063 12.5487H13.34C13.335 14.1937 12.7637 15.2537 11.7087 15.2537C10.8787 15.2537 10.4488 14.6913 10.3963 14.2288H9.54125C9.6 15.0288 10.2838 15.9862 11.67 15.9862V15.9875ZM8.0575 9.19375H7.26625C6.69916 9.49539 6.15105 9.83143 5.625 10.2V11.0687C6.09375 10.7475 6.83625 10.2937 7.1975 10.0975H7.2125V15.86H8.05625V9.1925L8.0575 9.19375Z" fill="#1D29FF"/>
</svg>
