<svg width="95" height="93" viewBox="0 0 95 93" fill="none" xmlns="http://www.w3.org/2000/svg">
<rect width="95" height="93" rx="5" fill="#F57105"/>
<path d="M33.8935 44.2471L23.8758 38.1252L47.0024 23.9922L70.1289 38.1252L69.1113 38.7471L68.7524 38.9664V39.3871V49.7501H65.7524V42.1371V40.7998L64.6113 41.4972L60.1113 44.2471L59.7524 44.4664V44.8871V59.8789L47.0024 67.6705L34.2524 59.8789V44.8871V44.4664L33.8935 44.2471ZM56.7524 47.637V46.2997L55.6113 46.9971L47.0024 52.2582L38.3935 46.9971L37.2524 46.2997V47.637V57.7757V58.1964L37.6113 58.4157L46.6113 63.9156L47.0024 64.1546L47.3935 63.9156L56.3935 58.4157L56.7524 58.1964V57.7757V47.637ZM30.6762 37.4852L29.629 38.1252L30.6762 38.7651L46.6113 48.5033L47.0024 48.7423L47.3935 48.5033L63.3286 38.7651L64.3758 38.1252L63.3286 37.4852L47.3935 27.7471L47.0024 27.5081L46.6113 27.7471L30.6762 37.4852Z" fill="white" stroke="#F57105" stroke-width="1.5"/>
</svg>
