<svg width="600" height="357" viewBox="0 0 600 357" fill="none" xmlns="http://www.w3.org/2000/svg">
<rect width="600" height="357" fill="#F1F1F1"/>
<path d="M340.717 29.3606C344.951 31.1575 348.998 33.3637 352.801 35.9477C362.132 42.3132 370.396 51.4033 381.543 53.2197C393.164 55.1118 404.371 48.5003 416.043 46.9813C428.692 45.3379 442.01 50.1329 450.692 59.4582C470.412 80.6333 460.843 114.95 446.785 136.298C431.941 158.841 408.491 175.037 382.883 183.649C365.226 189.596 346.231 192.245 330.098 201.54C314.257 210.668 302.368 225.543 286.592 234.787C274.641 241.754 260.965 245.216 247.133 244.774C244.329 217.661 252.401 188.731 241.265 163.847C238.615 157.925 234.968 152.516 231.745 146.886C219.481 125.378 213.455 100.886 214.342 76.1518C215.094 56.22 234.162 34.8206 251.719 26.3819C266.125 19.4596 282.827 19.3893 298.765 20.584C313.047 21.6517 327.67 23.7843 340.717 29.3606Z" fill="#EDF5FD"/>
<path d="M73.7521 317.455C71.6055 318.487 69.3398 319.347 67.1255 320.158C63.1057 321.636 58.734 323.131 54.6249 321.931C50.9489 320.85 48.1526 317.73 46.5583 314.252C41.4314 303.064 44.6364 287.962 45.8626 276.196C47.3081 262.328 49.5788 248.558 52.6624 234.96C54.5924 226.454 58.4633 216.447 67.0876 215.047C73.1024 214.071 79.0279 218.163 82.1002 223.426C85.1726 228.689 86.0036 234.906 86.7724 240.944C89.5172 262.446 92.9983 283.17 85.446 304.18C84.5554 306.662 83.5322 309.129 81.927 311.232C79.8372 314.008 76.9246 315.93 73.7521 317.455Z" fill="#FCB9A4"/>
<path d="M73.1538 316.246C68.6441 316.476 57.4347 319.195 53.7695 316.154C49.0757 312.259 51.9315 301.537 55.4126 297.658C59.473 293.136 67.6967 286.706 73.6979 286.343C87.2325 285.532 101.433 296.663 91.0493 310.013C87.0431 315.165 79.6748 315.917 73.1538 316.246Z" fill="#F59776"/>
<path d="M253.719 58.4203C254.771 59.9621 255.336 61.7826 255.344 63.6478C255.34 63.8908 255.42 64.1276 255.571 64.3182L267.522 56.3795L267.92 56.9742L268.061 57.1877L275.288 68.0348C275.394 68.1973 275.453 68.3856 275.459 68.5794C275.466 68.7731 275.419 68.9649 275.324 69.1339C275.229 69.3029 275.089 69.4427 274.92 69.5382C274.751 69.6337 274.559 69.6811 274.365 69.6755C272.715 69.6428 271.087 70.062 269.659 70.8876C268.23 71.7132 267.055 72.9137 266.261 74.3587C265.468 75.8038 265.085 77.4383 265.156 79.0849C265.227 80.7316 265.747 82.3275 266.662 83.6995C267.576 85.0716 268.85 86.1674 270.344 86.868C271.838 87.5687 273.495 87.8475 275.137 87.6741C276.778 87.5008 278.341 86.8819 279.655 85.8847C280.969 84.8875 281.985 83.55 282.591 82.0173C282.662 81.8371 282.78 81.6795 282.934 81.5617C283.088 81.4438 283.27 81.37 283.463 81.3483C283.655 81.3266 283.85 81.3578 284.026 81.4385C284.202 81.5193 284.353 81.6465 284.462 81.8064L291.662 92.6183L291.811 92.8427L292.231 93.4698L280.28 101.411C280.399 101.613 280.58 101.77 280.797 101.86C282.514 102.585 283.972 103.809 284.982 105.374C287.656 109.479 286.687 114.91 282.816 117.521C278.859 120.194 273.374 118.964 270.597 114.796C269.577 113.277 269.031 111.49 269.03 109.661C269.032 109.427 268.957 109.199 268.816 109.012L256.775 117.037L249.009 105.376C248.897 105.216 248.743 105.089 248.565 105.01C248.386 104.93 248.189 104.9 247.995 104.923C247.8 104.946 247.616 105.021 247.461 105.14C247.306 105.26 247.186 105.419 247.114 105.601C246.506 107.133 245.489 108.469 244.174 109.465C242.859 110.461 241.297 111.078 239.655 111.25C238.014 111.422 236.357 111.142 234.863 110.44C233.37 109.738 232.098 108.642 231.184 107.269C230.271 105.896 229.751 104.3 229.682 102.654C229.613 101.007 229.996 99.3733 230.79 97.9288C231.585 96.4844 232.761 95.2849 234.19 94.4602C235.618 93.6356 237.246 93.2173 238.896 93.2508C239.091 93.2541 239.283 93.2049 239.452 93.1083C239.621 93.0117 239.761 92.8713 239.857 92.7019C239.953 92.5325 240.002 92.3404 239.997 92.1459C239.993 91.9514 239.936 91.7616 239.833 91.5966L232.069 79.9441L244.118 71.9324C244.002 71.7194 243.815 71.5532 243.59 71.4621C241.9 70.7473 240.46 69.5503 239.448 68.0212C236.671 63.8532 237.656 58.3284 241.655 55.7146C245.566 53.1603 250.958 54.3712 253.719 58.4203Z" fill="#FE554E"/>
<path d="M281.509 90.9722C282.05 90.4559 282.832 90.21 283.55 90.0991C283.947 90.0492 284.346 90.0221 284.746 90.0181C284.922 90.0281 285.096 89.991 285.253 89.9107C285.409 89.8304 285.54 89.7097 285.634 89.5613C285.794 89.291 285.742 88.8639 285.777 88.5611C285.794 88.3585 285.854 88.1618 285.953 87.9842C286.052 87.8066 286.188 87.6522 286.351 87.5313C286.469 87.4631 286.608 87.4439 286.739 87.4778C286.871 87.5117 286.983 87.596 287.052 87.7124C287.114 87.8312 287.129 87.9685 287.095 88.0978C287.061 88.227 286.98 88.3392 286.868 88.4125C286.733 88.5152 286.766 88.9531 286.755 89.0882C286.752 89.4852 286.638 89.8735 286.427 90.21C285.91 90.9506 285.133 91.0209 284.297 91.0533C283.602 91.0496 282.921 91.2427 282.332 91.6101C282.219 91.6807 282.126 91.7787 282.061 91.8951C281.997 92.0114 281.963 92.1421 281.963 92.275C281.963 92.667 282.48 92.8156 282.775 92.9481C283.137 93.1146 283.454 93.3637 283.701 93.6752C283.848 93.9322 284.03 94.167 284.243 94.3726C284.403 94.4548 284.577 94.5047 284.756 94.5196C284.936 94.5344 285.116 94.5139 285.288 94.4591C285.588 94.3465 285.846 94.1422 286.024 93.8752C286.99 92.74 288.206 91.9183 289.757 92.0615C290.398 92.1326 291.026 92.2936 291.622 92.5399L291.67 92.6129L291.819 92.8373L292.239 93.4644L291.838 93.7347C290.831 93.2833 289.724 92.8697 288.639 93.167C287.961 93.3968 287.366 93.8207 286.928 94.3861C286.712 94.6625 286.466 94.9144 286.194 95.1375C285.852 95.3744 285.449 95.5093 285.033 95.5267C284.648 95.5698 284.259 95.5014 283.912 95.3299C283.565 95.1583 283.275 94.8907 283.076 94.5591C282.898 94.2793 282.651 94.0495 282.359 93.8914C281.974 93.6887 281.563 93.5427 281.276 93.2022C280.705 92.5264 280.913 91.548 281.509 90.9722Z" fill="white"/>
<path d="M273.177 109.355C273.661 108.965 274.223 108.684 274.825 108.531C274.411 108.33 274.037 108.055 273.721 107.72C272.941 106.828 273.469 105.655 274.316 105.017C275.164 104.379 276.395 104.32 277.37 104.536C278.501 104.787 279.251 105.644 279.116 106.82C279.1 106.885 279.071 106.946 279.031 107C278.991 107.054 278.941 107.1 278.883 107.135C278.826 107.169 278.762 107.192 278.695 107.202C278.629 107.212 278.561 107.209 278.496 107.193C278.366 107.158 278.254 107.074 278.184 106.958C278.115 106.843 278.092 106.705 278.122 106.574C278.201 105.901 277.581 105.614 276.98 105.493C276.239 105.343 275.469 105.487 274.833 105.895C274.578 106.099 274.404 106.386 274.341 106.706C274.336 106.779 274.353 106.851 274.389 106.914C274.469 107.041 274.572 107.151 274.693 107.239C275.234 107.696 276.024 107.939 276.625 108.369C277.018 108.652 276.942 109.317 276.384 109.328C275.522 109.332 274.678 109.577 273.948 110.036C273.829 110.098 273.73 110.192 273.66 110.307C273.591 110.422 273.555 110.554 273.556 110.688C273.592 110.88 273.677 111.06 273.801 111.211C273.925 111.362 274.086 111.48 274.268 111.553C275.017 111.896 276.138 111.523 276.896 111.25C277.739 110.926 278.554 110.534 279.332 110.077C279.906 109.755 280.415 110.636 279.849 110.958C278.903 111.51 277.906 111.972 276.872 112.337C275.83 112.683 274.492 112.942 273.507 112.301C272.478 111.631 272.183 110.198 273.177 109.355Z" fill="white"/>
<path d="M252.78 95.0402C252.239 95.2429 251.776 95.7375 251.408 96.17C251.019 96.6159 250.712 97.1276 250.504 97.681C250.287 98.2973 249.291 98.054 249.51 97.435C249.8 96.6557 250.235 95.9384 250.793 95.3213C251.335 94.6915 252.092 94.0779 252.94 93.9374C253.414 93.8805 253.893 93.9859 254.299 94.2363C254.705 94.4867 255.014 94.8673 255.176 95.3159C255.628 95.0416 256.141 94.882 256.67 94.851C257.853 94.7996 258.627 95.9322 258.565 97.0404C258.502 98.1486 257.715 98.9865 256.922 99.638C256.156 100.251 255.321 100.771 254.434 101.189C253.847 101.476 253.321 100.598 253.917 100.308C254.624 99.9712 255.3 99.5723 255.936 99.1163C256.545 98.6757 257.228 98.0783 257.471 97.3539C257.663 96.7755 257.449 95.897 256.754 95.87C256.367 95.8811 255.992 96.001 255.671 96.216C255.432 96.3594 255.213 96.5329 255.019 96.7323C254.953 96.8291 254.879 96.9196 254.797 97.0025C254.407 97.4026 253.646 96.8836 253.985 96.3998L254.069 96.289C254.098 96.2511 254.128 96.2106 254.161 96.1727C254.238 96.0332 254.266 95.872 254.242 95.7144C254.217 95.5569 254.141 95.4119 254.025 95.3024C253.877 95.1263 253.673 95.0049 253.448 94.9574C253.222 94.9099 252.987 94.939 252.78 95.0402Z" fill="white"/>
<path d="M243.062 62.1882C243.181 62.2538 243.269 62.3636 243.307 62.4938C243.345 62.6239 243.33 62.7638 243.265 62.8829C242.765 63.5917 242.549 64.4628 242.663 65.3228C242.776 66.1827 243.21 66.9686 243.877 67.5239C244.221 67.8051 244.603 68.0363 245.011 68.2104C245.139 68.2691 245.272 68.3144 245.409 68.3456C245.454 68.361 245.502 68.3683 245.55 68.3672C245.566 68.3672 245.691 68.3672 245.685 68.3672C245.862 68.3229 246.023 68.2292 246.148 68.0969C246.419 67.8455 246.689 67.5563 246.96 67.3077C247.023 67.2444 247.102 67.1987 247.188 67.175C247.274 67.1513 247.365 67.1505 247.452 67.1726C247.538 67.1947 247.618 67.239 247.682 67.3011C247.746 67.3631 247.793 67.4409 247.818 67.5266C248.142 68.5783 248.797 69.4977 249.686 70.1485C250.091 70.452 250.592 70.5981 251.096 70.5593C251.588 70.4704 252.029 70.2003 252.331 69.8025C252.449 69.6547 252.534 69.4836 252.581 69.3004C252.627 69.1173 252.634 68.9263 252.601 68.7402C252.499 68.28 252.289 67.8504 251.99 67.486C251.334 66.6579 250.502 65.9857 249.553 65.5183C249.252 65.352 248.927 65.2308 248.59 65.1588C247.945 65.0182 248.195 64.0262 248.836 64.1668C249.846 64.3884 250.772 64.9777 251.567 65.6291C252.415 66.3075 253.191 67.1968 253.527 68.2537C253.874 69.3998 253.343 70.4296 252.415 71.0999C251.364 71.8568 250.027 71.6594 249.031 70.9242C248.216 70.3132 247.565 69.5099 247.136 68.5862C246.811 68.9699 246.375 69.2437 245.888 69.37C244.946 69.5322 243.931 68.8835 243.233 68.324C242.377 67.6208 241.814 66.6243 241.655 65.5291C241.496 64.4339 241.752 63.3188 242.372 62.4017C242.438 62.2847 242.546 62.1973 242.674 62.1576C242.803 62.1179 242.942 62.1288 243.062 62.1882Z" fill="white"/>
<path d="M237.08 100.616C237.264 99.8218 237.892 99.1893 238.588 98.7676C238.255 98.5398 237.995 98.2206 237.841 97.8486C237.386 96.7674 238.358 95.7943 239.164 95.251C239.54 94.9846 239.972 94.8088 240.427 94.7375C240.882 94.6662 241.348 94.7014 241.787 94.8402C242.705 95.1321 243.514 95.6997 244.383 96.1052C244.981 96.3755 244.483 97.2756 243.89 96.9999C243.198 96.6782 242.537 96.2701 241.852 95.9538C241.599 95.8179 241.32 95.7381 241.033 95.7199C240.746 95.7017 240.458 95.7455 240.19 95.8484C239.595 96.1052 238.718 96.6593 238.772 97.4053C238.815 98.0189 239.752 98.2162 240.277 98.2162C240.945 98.2027 240.94 99.1758 240.277 99.2352C239.845 99.2828 239.43 99.4296 239.065 99.6641C238.699 99.8986 238.393 100.214 238.171 100.587C238.094 100.712 238.047 100.854 238.035 101C238.023 101.146 238.045 101.294 238.1 101.43C238.301 101.846 238.815 102.133 239.278 102.271C240.301 102.576 241.249 101.884 241.931 101.189C242.669 100.402 243.29 99.5141 243.777 98.5514C244.088 97.9702 244.984 98.4649 244.673 99.0433C243.623 101.003 241.663 103.952 239.032 103.257C237.862 102.936 236.779 101.919 237.08 100.616Z" fill="white"/>
<path d="M270.946 90.7398C271.489 89.9909 271.929 89.1727 272.254 88.3071C272.346 88.0611 272.422 87.8124 272.489 87.5611C272.825 87.6263 273.165 87.6715 273.507 87.6962C273.34 88.328 273.118 88.9439 272.844 89.5369C272.487 90.2555 272.068 90.9411 271.59 91.5858C271.202 92.1734 270.764 92.7277 270.283 93.2427C269.844 93.6914 269.279 94.1212 268.624 94.1077C267.541 94.0806 266.935 93.2724 267 92.2318C267.062 91.1506 267.541 90.0694 268.025 89.1153C268.128 88.9044 268.239 88.6936 268.35 88.4882C267.776 88.5741 267.19 88.5474 266.626 88.4098C265.543 88.1395 264.972 87.107 265.408 86.0636C265.725 85.3095 266.436 84.7662 267.151 84.3499C267.368 84.6207 267.6 84.8788 267.847 85.123C267.343 85.3861 266.893 85.7409 266.52 86.169C266.346 86.3699 266.259 86.6312 266.277 86.8961C266.296 87.2016 266.61 87.3421 266.872 87.4205C267.655 87.6152 268.481 87.5191 269.198 87.1502C269.62 86.9123 270.183 87.3935 269.904 87.8368C269.453 88.5552 269.049 89.3019 268.694 90.0721C268.472 90.5468 268.291 91.0397 268.153 91.5452C268.098 91.7449 268.057 91.9481 268.031 92.1534C268.025 92.2561 268.025 92.3589 268.031 92.4615C268.024 92.5423 268.035 92.6236 268.063 92.6994C268.067 92.7536 268.083 92.8062 268.11 92.8531C268.137 92.9 268.175 92.9399 268.22 92.9697L268.247 92.9859C268.247 92.9859 268.345 93.0319 268.323 93.0265C268.403 93.0535 268.486 93.0716 268.57 93.0805C269.07 93.1211 269.522 92.5967 269.855 92.2183C270.245 91.7454 270.61 91.2518 270.946 90.7398Z" fill="white"/>
<path d="M260.958 64.7317C261.145 64.2821 261.43 63.8803 261.794 63.556C262.158 63.2317 262.59 62.9934 263.058 62.8586C263.97 62.5504 264.953 62.545 265.892 62.3396C266.534 62.199 266.81 63.1829 266.163 63.3235C264.78 63.6289 262.842 63.4559 262.021 64.8534C261.909 65.0149 261.859 65.2118 261.881 65.4075C261.986 65.5395 262.131 65.6342 262.295 65.6778C262.879 65.8517 263.476 65.9747 264.081 66.0454C264.147 66.0612 264.209 66.0898 264.263 66.1295C264.317 66.1693 264.363 66.2194 264.398 66.277C264.432 66.3346 264.455 66.3984 264.465 66.4649C264.475 66.5314 264.472 66.5992 264.455 66.6643C264.228 67.3104 263.686 68.0158 263.643 68.6267C263.629 68.7997 263.643 68.7916 263.7 68.897C263.675 68.8565 263.773 68.9484 263.797 68.9646C263.889 69.0132 263.988 69.0487 264.09 69.07C264.514 69.1804 264.964 69.1243 265.348 68.9132C266.225 68.4429 266.742 67.4212 267.14 66.5535C267.514 65.687 267.829 64.7966 268.085 63.8884C268.277 63.2613 269.271 63.5046 269.076 64.1344C268.769 65.2173 268.383 66.2761 267.92 67.3022C267.403 68.3834 266.642 69.5376 265.484 69.989C264.563 70.3431 262.85 70.1971 262.652 68.9862C262.605 68.4868 262.706 67.9845 262.945 67.5428C263.023 67.3617 263.134 67.1455 263.237 66.9428C262.727 66.8759 262.226 66.746 261.748 66.5562C261.574 66.4907 261.416 66.3909 261.281 66.263C261.147 66.135 261.04 65.9813 260.966 65.8111C260.892 65.6409 260.854 65.4577 260.852 65.2723C260.851 65.0868 260.887 64.903 260.958 64.7317Z" fill="white"/>
<path d="M247.047 82.3768C247.174 83.0201 246.189 83.2985 246.061 82.647C245.818 81.4307 246.44 80.0198 247.431 79.2927C247.703 79.0855 248.023 78.9493 248.36 78.8965C248.698 78.8436 249.044 78.8757 249.367 78.9899C249.943 79.2224 250.198 79.7873 250.485 80.2928C250.728 80.7279 250.923 80.7306 251.383 80.6387C251.932 80.4843 252.517 80.509 253.051 80.709C253.353 80.8572 253.619 81.0698 253.83 81.3318C254.041 81.5938 254.192 81.8988 254.272 82.2254C254.357 82.58 254.364 82.9492 254.291 83.3066C254.676 83.3696 255.034 83.5489 255.315 83.8204C255.596 84.0919 255.787 84.4426 255.863 84.8256C256.158 85.9987 255.606 87.0421 254.664 87.7205C253.722 88.399 252.499 88.4585 251.416 88.3449C250.284 88.1883 249.168 87.9369 248.078 87.5935C247.442 87.4178 247.688 86.4258 248.324 86.6042C249.968 87.061 251.865 87.7449 253.56 87.1448C254.285 86.8907 254.913 86.269 254.913 85.4771C254.928 85.1332 254.818 84.7954 254.605 84.5256C254.366 84.2553 254.047 84.2553 253.709 84.3824C253.251 84.5391 252.964 84.0121 253.124 83.6444C253.47 82.8498 253.324 81.701 252.312 81.5307C251.954 81.4712 251.546 81.6415 251.194 81.6821C250.969 81.7158 250.738 81.6962 250.522 81.6248C250.306 81.5535 250.109 81.4323 249.949 81.2712C249.616 80.9442 249.464 80.4874 249.204 80.109C248.944 79.7305 248.468 79.8387 248.146 80.0252C247.434 80.4387 246.887 81.574 247.047 82.3768Z" fill="white"/>
<path d="M261.25 101.165C261.385 101.822 262.187 102.163 262.671 102.517C263.213 102.92 263.597 103.501 263.754 104.157C263.795 104.34 263.846 104.52 263.906 104.698C263.968 104.844 263.992 104.86 264.209 104.871C264.903 104.869 265.572 104.606 266.082 104.136C267.165 103.2 267.809 101.849 268.542 100.646C268.886 100.084 269.782 100.576 269.438 101.138C268.583 102.538 267.828 104.111 266.48 105.117C265.811 105.635 264.984 105.907 264.138 105.887C263.429 105.855 263.031 105.401 262.853 104.749C262.796 104.479 262.717 104.214 262.614 103.957C262.43 103.621 262.158 103.341 261.827 103.146C261.128 102.668 260.419 102.195 260.24 101.308C259.929 99.7677 261.347 98.2405 262.76 97.8783C262.766 97.4175 262.919 96.9706 263.196 96.6025C263.363 96.4245 263.568 96.2864 263.796 96.1984C264.024 96.1104 264.268 96.0748 264.512 96.0944C265.635 96.116 266.764 96.7485 267.674 97.3539C268.215 97.7188 267.728 98.6162 267.181 98.2486C266.467 97.7349 265.661 97.3616 264.807 97.1485C264.672 97.1101 264.531 97.099 264.391 97.1157C264.252 97.1324 264.117 97.1766 263.995 97.2458C263.923 97.3336 263.87 97.4347 263.838 97.5432C263.779 97.7965 263.766 98.0583 263.8 98.3162C263.801 98.451 263.748 98.5807 263.654 98.6773C263.56 98.7739 263.431 98.8296 263.296 98.8325C262.271 98.8973 261.033 100.087 261.25 101.165Z" fill="white"/>
<path d="M375.404 149.311C375.453 148.965 375.569 148.483 375.986 148.435C376.451 148.378 376.627 148.919 376.598 149.284C376.568 149.648 376.384 150.197 376.01 150.365C375.982 150.379 375.952 150.389 375.921 150.394C375.879 150.42 375.834 150.442 375.788 150.459C375.73 150.476 375.668 150.473 375.613 150.45C375.557 150.428 375.51 150.387 375.48 150.335C375.351 150.009 375.324 149.652 375.404 149.311Z" fill="black"/>
<path d="M376.089 142.759C376.2 142.234 376.901 141.818 377.171 142.475C377.215 142.596 377.238 142.722 377.242 142.85C377.246 142.88 377.246 142.91 377.242 142.94V142.959C377.235 143.182 377.195 143.404 377.123 143.615C377.001 144.078 376.776 144.524 376.357 144.194C375.986 143.907 376.002 143.159 376.089 142.759Z" fill="black"/>
<path d="M377.569 137.039C377.604 137.029 377.64 137.026 377.676 137.031C377.711 137.035 377.746 137.046 377.777 137.064C377.808 137.081 377.835 137.105 377.857 137.133C377.879 137.161 377.896 137.194 377.905 137.228L377.962 137.431C378.003 137.452 378.037 137.485 378.058 137.527C378.079 137.568 378.086 137.615 378.078 137.661C378.062 137.793 378.048 137.931 378.03 138.063V138.088C378.262 138.131 378.501 138.139 378.739 138.169C379.085 138.209 379.088 138.753 378.739 138.709C378.468 138.677 378.197 138.669 377.927 138.618C377.901 138.681 377.869 138.742 377.832 138.799C377.77 138.922 377.687 139.034 377.586 139.128C377.544 139.17 377.491 139.198 377.433 139.207C377.375 139.215 377.315 139.205 377.263 139.177C377.211 139.166 377.162 139.142 377.122 139.106C377.082 139.071 377.053 139.025 377.036 138.974V138.937C376.622 138.336 376.901 137.255 377.569 137.039Z" fill="black"/>
<path d="M376.673 142.986C376.955 143.065 377.245 143.114 377.537 143.132C377.609 143.132 377.678 143.16 377.728 143.211C377.779 143.261 377.808 143.33 377.808 143.402C377.808 143.474 377.779 143.542 377.728 143.593C377.678 143.644 377.609 143.672 377.537 143.672C377.196 143.653 376.858 143.597 376.53 143.505C376.2 143.399 376.34 142.872 376.673 142.986Z" fill="black"/>
<path d="M366.969 182.179C367.068 182.493 367.272 182.763 367.547 182.944C367.822 183.125 368.152 183.206 368.48 183.173C368.924 183.113 369.352 182.964 369.738 182.736C369.59 182.878 369.431 183.008 369.262 183.125C368.975 183.322 369.262 183.795 369.533 183.595C369.6 183.549 369.662 183.501 369.725 183.452C369.725 184.295 369.995 185.106 370.878 185.074C371.614 185.049 372.283 184.584 372.25 183.795C372.186 183.233 372.031 182.685 371.79 182.173C372.713 182.26 373.777 182.23 374.497 181.633C375.076 181.141 375.534 179.838 374.914 179.2C374.4 178.659 373.495 178.946 372.908 179.187C372.659 179.289 372.41 179.4 372.169 179.524C372.215 179.403 372.264 179.287 372.31 179.168C372.442 178.843 371.915 178.703 371.785 179.024C371.687 179.268 371.587 179.522 371.481 179.781C371.484 178.965 371.299 178.158 370.94 177.424C370.729 177.008 370.418 176.57 369.944 176.432C369.608 176.332 369.159 176.262 368.861 176.489C368.201 176.976 368.352 177.981 368.496 178.678C368.614 179.265 368.785 179.841 369.005 180.397C368.068 180.557 366.682 181.184 366.969 182.179ZM371.392 181.576C371.356 181.572 371.32 181.577 371.286 181.591C371.252 181.604 371.223 181.626 371.2 181.654C371.438 181.216 371.652 180.765 371.841 180.303C372.15 180.115 372.469 179.947 372.797 179.797C373.198 179.616 374.018 179.208 374.454 179.492C374.673 179.635 374.654 179.973 374.624 180.2C374.612 180.426 374.547 180.645 374.432 180.84C374.318 181.035 374.158 181.199 373.966 181.319C373.203 181.762 372.231 181.692 371.392 181.581V181.576ZM370.309 182.927C370.629 182.575 370.908 182.188 371.14 181.773C371.126 181.822 371.126 181.874 371.14 181.922C371.353 182.432 371.534 182.955 371.682 183.487C371.725 183.717 371.774 184.065 371.59 184.257C371.489 184.356 371.368 184.431 371.236 184.478C371.103 184.525 370.961 184.542 370.821 184.528C370.22 184.468 370.198 183.63 370.299 182.933L370.309 182.927ZM367.5 181.979C367.519 181.265 368.831 180.898 369.394 180.898C369.442 180.898 369.49 180.886 369.531 180.862C369.573 180.838 369.608 180.804 369.632 180.762C369.656 180.721 369.668 180.674 369.668 180.626C369.667 180.578 369.654 180.531 369.63 180.489C369.4 179.966 369.219 179.424 369.089 178.868C368.967 178.362 368.712 177.473 369.072 177.005C369.232 176.794 369.595 176.876 369.803 176.949C370.177 177.081 370.412 177.513 370.55 177.862C370.856 178.649 371.075 179.657 370.859 180.495C370.843 180.561 370.852 180.631 370.885 180.691C370.918 180.75 370.973 180.795 371.038 180.816C370.865 181.191 370.665 181.552 370.439 181.898C370.387 181.842 370.316 181.809 370.24 181.804C370.164 181.8 370.089 181.824 370.031 181.873C369.633 182.246 369.142 182.504 368.609 182.622C368.217 182.684 367.475 182.514 367.489 181.984L367.5 181.979Z" fill="#FCB9A4"/>
<path d="M368.122 145.051C368.429 145.173 368.768 145.185 369.083 145.087C369.398 144.988 369.67 144.785 369.852 144.51C370.086 144.128 370.241 143.704 370.309 143.261C370.326 143.465 370.326 143.671 370.309 143.875C370.28 144.221 370.818 144.313 370.851 143.961C370.851 143.88 370.851 143.802 370.851 143.721C371.506 144.261 372.299 144.567 372.84 143.864C373.29 143.28 373.355 142.469 372.721 141.994C372.244 141.681 371.718 141.451 371.165 141.312C371.82 140.656 372.472 139.815 372.456 138.88C372.442 138.12 371.725 136.942 370.832 137.012C370.09 137.074 369.736 137.947 369.546 138.555C369.468 138.812 369.397 139.072 369.338 139.339C369.278 139.226 369.216 139.115 369.154 139.004C368.986 138.696 368.542 139.004 368.71 139.318L369.102 140.031C368.473 139.51 367.732 139.14 366.937 138.95C366.479 138.85 365.943 138.815 365.537 139.091C365.245 139.288 364.906 139.591 364.887 139.972C364.844 140.783 365.718 141.31 366.349 141.642C366.88 141.922 367.434 142.155 368.006 142.34C367.554 143.164 367.167 144.64 368.122 145.051ZM370.461 141.267C370.435 141.291 370.415 141.323 370.404 141.357C370.393 141.392 370.392 141.428 370.399 141.464C370.213 141.002 370.002 140.551 369.768 140.112C369.818 139.756 369.89 139.403 369.982 139.055C370.096 138.628 370.301 137.739 370.794 137.582C371.043 137.501 371.292 137.731 371.449 137.899C371.617 138.05 371.745 138.24 371.823 138.452C371.902 138.663 371.927 138.891 371.898 139.115C371.749 139.972 371.073 140.677 370.461 141.256V141.267ZM370.816 142.967C370.743 142.497 370.62 142.037 370.447 141.594C370.476 141.635 370.515 141.668 370.561 141.688C371.091 141.846 371.611 142.038 372.118 142.261C372.326 142.372 372.624 142.556 372.659 142.818C372.673 142.958 372.655 143.099 372.609 143.232C372.562 143.364 372.487 143.485 372.388 143.586C371.952 143.991 371.289 143.475 370.816 142.956V142.967ZM368.298 144.534C367.757 144.067 368.298 142.815 368.65 142.372C368.681 142.335 368.701 142.291 368.709 142.243C368.717 142.196 368.712 142.148 368.695 142.103C368.678 142.058 368.649 142.018 368.612 141.988C368.575 141.958 368.53 141.939 368.482 141.931C367.935 141.776 367.403 141.571 366.893 141.318C366.425 141.091 365.575 140.726 365.44 140.153C365.38 139.883 365.672 139.664 365.859 139.55C366.2 139.347 366.671 139.439 367.039 139.55C367.851 139.82 368.764 140.285 369.273 140.983C369.314 141.038 369.375 141.075 369.442 141.088C369.51 141.1 369.58 141.085 369.638 141.048C369.817 141.418 369.969 141.801 370.093 142.194C370.018 142.2 369.948 142.234 369.898 142.29C369.848 142.346 369.82 142.419 369.822 142.494C369.857 143.036 369.745 143.579 369.5 144.064C369.3 144.405 368.699 144.878 368.298 144.524V144.534Z" fill="#FCB9A4"/>
<path d="M327.724 145.702C329.957 145.927 332.064 146.841 333.752 148.319C333.925 148.473 334.136 148.577 334.364 148.62C334.592 148.663 334.827 148.642 335.044 148.561C335.261 148.479 335.451 148.34 335.594 148.158C335.737 147.977 335.828 147.759 335.856 147.529L337.75 130.933L388.237 136.653L386.343 153.249C386.317 153.478 386.228 153.695 386.087 153.877C385.945 154.059 385.756 154.198 385.541 154.28C385.325 154.362 385.091 154.383 384.864 154.34C384.638 154.298 384.427 154.195 384.255 154.041C382.775 152.746 380.969 151.881 379.031 151.539C377.094 151.197 375.1 151.391 373.265 152.1C371.43 152.81 369.825 154.007 368.623 155.562C367.421 157.118 366.669 158.972 366.447 160.925C366.226 162.877 366.544 164.852 367.367 166.637C368.19 168.421 369.487 169.947 371.116 171.047C372.746 172.148 374.646 172.783 376.611 172.882C378.576 172.981 380.531 172.541 382.263 171.61C382.465 171.5 382.693 171.447 382.923 171.458C383.153 171.468 383.376 171.541 383.567 171.669C383.758 171.797 383.91 171.975 384.008 172.183C384.105 172.391 384.143 172.622 384.117 172.851L382.223 189.388L331.738 183.668L333.617 167.131C333.641 166.902 333.601 166.67 333.503 166.461C333.404 166.252 333.25 166.074 333.058 165.946C332.865 165.818 332.641 165.745 332.41 165.734C332.179 165.724 331.95 165.777 331.746 165.888C330.263 166.688 328.612 167.129 326.926 167.175C325.241 167.222 323.568 166.873 322.042 166.157C320.516 165.441 319.179 164.377 318.14 163.052C317.1 161.726 316.387 160.175 316.057 158.524C315.726 156.873 315.789 155.168 316.238 153.545C316.688 151.922 317.513 150.428 318.647 149.181C319.78 147.934 321.191 146.971 322.765 146.368C324.339 145.764 326.033 145.538 327.711 145.707L327.724 145.702Z" fill="#6283F4"/>
<path d="M375.536 143.448C375.807 144.045 375.685 144.734 375.65 145.37C375.623 145.891 375.482 146.651 375.767 147.129C375.97 147.475 376.43 147.475 376.757 147.34C377.797 146.913 378.622 145.826 379.323 144.994C379.957 144.242 380.512 143.388 381.202 142.688C381.236 142.654 381.262 142.613 381.277 142.567C381.292 142.521 381.296 142.472 381.288 142.425C381.281 142.377 381.262 142.332 381.233 142.293C381.204 142.255 381.167 142.223 381.124 142.202C381.133 142.158 381.133 142.113 381.122 142.069C381.111 142.026 381.091 141.986 381.062 141.952C381.033 141.917 380.997 141.89 380.956 141.872C380.915 141.854 380.87 141.846 380.826 141.848C380.276 141.818 379.736 141.692 379.229 141.477C378.612 141.261 378 141.012 377.377 140.81C376.581 140.539 375.101 140.174 374.841 141.367C374.684 142.086 375.258 142.829 375.536 143.448ZM375.536 141.996C375.423 141.661 375.369 141.283 375.807 141.185C376.053 141.141 376.305 141.157 376.543 141.231C377.306 141.444 378.056 141.698 378.79 141.994C379.359 142.23 379.956 142.392 380.566 142.475C379.984 143.11 379.483 143.848 378.942 144.505C378.523 145.016 378.078 145.504 377.607 145.967C377.296 146.267 376.912 146.675 376.481 146.797C376.433 146.809 376.384 146.817 376.335 146.821C376.303 146.821 376.297 146.805 376.294 146.799C376.234 146.569 376.219 146.33 376.251 146.094C376.314 145.386 376.337 144.675 376.319 143.964C376.246 143.226 375.758 142.669 375.534 141.996H375.536Z" fill="#CBE1F8"/>
<path d="M364.208 154.433C364.441 155.514 365.832 154.849 366.42 154.552C366.824 154.365 367.249 154.227 367.686 154.141C368.082 154.046 368.531 153.946 368.769 153.6C368.791 153.574 368.808 153.544 368.817 153.511C368.827 153.479 368.83 153.444 368.827 153.41C368.823 153.376 368.812 153.344 368.795 153.314C368.778 153.284 368.756 153.259 368.729 153.238C368.537 151.496 367.972 149.815 367.072 148.31C367.037 148.253 366.983 148.208 366.92 148.183C366.857 148.157 366.788 148.153 366.722 148.171C366.656 148.189 366.598 148.227 366.557 148.281C366.515 148.334 366.491 148.399 366.49 148.467C366.463 149.681 365.886 150.916 365.245 151.927C364.955 152.36 364.693 152.811 364.462 153.279C364.305 153.619 364.121 154.038 364.208 154.433ZM364.977 153.665C365.31 152.943 365.805 152.314 366.162 151.608C366.53 150.924 366.812 150.198 367.004 149.446C367.591 150.656 367.97 151.956 368.125 153.292C368.128 153.319 368.134 153.345 368.144 153.37C368.033 153.416 367.918 153.453 367.8 153.479C367.581 153.538 367.359 153.587 367.137 153.638C366.779 153.723 366.432 153.852 366.106 154.022C365.775 154.187 365.339 154.449 364.955 154.414C364.644 154.379 364.909 153.811 364.977 153.665Z" fill="#CBE1F8"/>
<path d="M358.832 138.153C359.214 138.655 359.644 139.085 359.942 139.656C360.313 140.385 360.551 141.175 360.919 141.907C360.947 141.954 360.986 141.993 361.034 142.02C361.081 142.047 361.135 142.062 361.19 142.062C361.244 142.062 361.298 142.047 361.346 142.02C361.393 141.993 361.433 141.954 361.46 141.907C362.427 140.366 363.431 138.839 364.219 137.199C364.292 137.163 364.348 137.101 364.376 137.026C364.541 136.609 364.414 136.131 363.891 136.128C363.491 136.128 363.133 136.298 362.752 136.382C362.37 136.466 361.975 136.307 361.623 136.244L361.019 136.125C360.467 135.99 359.899 135.928 359.33 135.942C358.84 135.982 358.391 136.144 358.277 136.677C358.163 137.209 358.526 137.75 358.832 138.153ZM359.409 136.561C360.342 136.547 361.23 136.853 362.148 136.977C362.553 137.027 362.964 136.985 363.35 136.853C363.478 136.808 363.611 136.775 363.745 136.755C363.737 136.765 363.731 136.776 363.726 136.788C362.98 138.278 362.146 139.722 361.228 141.112C360.8 140.139 360.483 139.139 359.763 138.315C359.463 137.969 359.081 137.585 358.935 137.142C358.789 136.698 359 136.569 359.409 136.561Z" fill="#CBE1F8"/>
<path d="M350.462 147.762C350.518 148.104 350.663 148.425 350.882 148.694C351.145 149.092 351.427 149.476 351.729 149.846C352.035 150.224 352.3 150.643 352.622 151.005C352.698 151.116 352.799 151.208 352.916 151.274C353.034 151.339 353.165 151.377 353.299 151.384C353.635 151.365 353.876 151.043 354.049 150.792C354.349 150.362 354.625 149.916 354.893 149.465C355.435 148.556 355.976 147.635 356.547 146.762C356.578 146.717 356.595 146.663 356.595 146.609C356.595 146.554 356.578 146.501 356.547 146.456C356.637 145.543 354.774 145.856 354.225 145.978C353.904 146.044 353.598 146.167 353.321 146.34C352.954 146.607 352.524 146.772 352.073 146.818C351.553 146.851 350.419 146.997 350.462 147.762ZM352.514 147.381C353.137 147.273 353.551 146.786 354.138 146.629C354.505 146.528 354.882 146.463 355.262 146.435C355.441 146.41 355.623 146.41 355.803 146.435C355.844 146.439 355.885 146.447 355.925 146.459C355.91 146.503 355.903 146.55 355.906 146.597C355.494 147.229 355.11 147.881 354.726 148.529C354.341 149.178 353.946 150 353.424 150.594C353.35 150.678 353.283 150.778 353.242 150.749C353.138 150.663 353.047 150.563 352.971 150.451C352.766 150.181 352.563 149.892 352.346 149.621C351.893 149.107 351.494 148.547 351.155 147.951C350.871 147.397 352.214 147.435 352.514 147.381Z" fill="#CBE1F8"/>
<path d="M344.19 140.083C345.162 140.893 346.153 141.685 347.1 142.529C347.134 142.562 347.175 142.586 347.22 142.601C347.265 142.616 347.313 142.621 347.36 142.615C347.407 142.609 347.452 142.593 347.492 142.567C347.532 142.541 347.565 142.507 347.59 142.467C348.197 141.553 348.305 140.366 348.329 139.299C348.353 138.231 348.256 137.107 348.253 136.009C348.253 135.973 348.247 135.938 348.234 135.904C348.229 135.843 348.207 135.785 348.169 135.737C348.132 135.689 348.081 135.653 348.023 135.633C347.003 135.258 346.25 136.474 345.495 136.915C344.74 137.355 343.744 137.239 343.21 137.98C342.623 138.796 343.622 139.607 344.19 140.083ZM343.795 138.255C344.358 137.766 345.2 137.847 345.812 137.444C346.177 137.207 346.488 136.904 346.829 136.634C347.05 136.411 347.333 136.26 347.642 136.201C347.642 137.199 347.742 138.193 347.717 139.188C347.698 140.066 347.647 141.026 347.252 141.829C346.483 141.156 345.701 140.507 344.91 139.866C344.585 139.61 343.262 138.718 343.795 138.255Z" fill="#CBE1F8"/>
<path d="M339.385 155.335C340.198 155.757 341.213 155.471 342.068 155.408C342.815 155.352 343.516 155.706 344.258 155.649C344.364 155.654 344.47 155.635 344.569 155.594C344.667 155.553 344.755 155.491 344.827 155.412C344.899 155.334 344.952 155.24 344.984 155.139C345.016 155.037 345.025 154.93 345.01 154.825C344.897 153.703 344.068 152.608 343.451 151.708C342.872 150.865 342.26 150.046 341.616 149.251C341.582 149.211 341.538 149.181 341.489 149.165C341.439 149.148 341.386 149.146 341.335 149.158C341.284 149.169 341.237 149.195 341.2 149.231C341.163 149.268 341.136 149.314 341.123 149.365C340.29 149.675 340.041 150.7 339.873 151.486C339.805 151.911 339.699 152.328 339.556 152.733C339.385 153.149 339.177 153.56 339.047 153.992C338.917 154.425 338.874 155.068 339.385 155.335ZM339.84 153.646C340.115 153.003 340.327 152.335 340.474 151.651C340.598 151.097 340.744 150.143 341.37 149.938C341.537 150.148 341.705 150.362 341.868 150.578C342.688 151.603 343.412 152.701 344.033 153.857C344.179 154.149 344.48 154.698 344.377 154.998C344.377 154.998 344.377 155.025 344.258 155.027C344.089 155.029 343.92 155.015 343.754 154.984C343.416 154.925 343.08 154.838 342.739 154.787C341.8 154.649 340.798 155.138 339.867 154.862C339.307 154.698 339.686 154.016 339.84 153.646Z" fill="#CBE1F8"/>
<path d="M355.86 159.717C355.92 160.032 356.006 160.342 356.114 160.644C356.233 160.955 356.404 161.25 356.509 161.566C356.745 162.271 356.455 163.012 356.688 163.728C356.699 163.768 356.717 163.805 356.742 163.838C356.767 163.87 356.799 163.897 356.835 163.918C356.87 163.938 356.91 163.951 356.951 163.956C356.991 163.961 357.033 163.958 357.073 163.947C357.941 163.636 358.602 162.866 359.157 162.152C359.668 161.501 360.129 160.801 360.6 160.136C360.664 160.137 360.726 160.115 360.776 160.075C360.825 160.034 360.859 159.977 360.87 159.914C360.984 159.509 360.995 159.017 360.648 158.712C360.327 158.46 359.943 158.301 359.539 158.249C359.119 158.179 358.712 158.05 358.329 157.865C357.894 157.599 357.414 157.416 356.913 157.325C355.595 157.192 355.67 158.855 355.86 159.717ZM356.905 157.933C357.649 158.09 358.258 158.614 359 158.766C359.341 158.803 359.676 158.886 359.996 159.012C360.095 159.046 360.179 159.113 360.236 159.201C360.293 159.289 360.319 159.394 360.31 159.498C360.274 159.521 360.242 159.552 360.218 159.587C359.723 160.295 359.257 161.025 358.716 161.701C358.307 162.217 357.822 162.85 357.219 163.19C357.178 162.717 357.303 162.231 357.219 161.758C357.113 161.233 356.81 160.785 356.661 160.274C356.528 159.866 355.93 157.725 356.905 157.933Z" fill="#CBE1F8"/>
<path d="M360.169 171.675C360.67 171.597 361.163 171.467 361.661 171.38C362.265 171.272 362.869 171.171 363.472 171.078C364.07 170.983 364.809 170.713 364.947 170.037C365.131 169.123 364.584 168.229 364.075 167.404C364.081 167.337 364.065 167.27 364.029 167.212C363.823 166.851 363.583 166.509 363.315 166.191C362.865 165.688 362.021 165.128 361.358 165.65C360.694 166.172 360.74 166.964 360.451 167.65C360.161 168.337 358.153 171.991 360.169 171.675ZM359.936 170.537C360.028 170.166 360.154 169.804 360.313 169.456C360.608 168.777 361.017 168.104 361.209 167.385C361.336 166.907 361.501 165.739 362.291 166.155C362.579 166.316 362.828 166.539 363.02 166.807C363.019 166.817 363.019 166.827 363.02 166.837C363.263 167.345 363.561 167.815 363.832 168.31C364.064 168.74 364.373 169.275 364.341 169.786C364.289 170.413 363.455 170.459 362.987 170.532C362.075 170.675 361.16 170.829 360.261 171.032C360.196 171.032 359.888 171.14 359.874 171.053C359.862 170.879 359.883 170.704 359.936 170.537Z" fill="#CBE1F8"/>
<path d="M355.145 179.773C355.511 180.443 355.768 181.16 356.147 181.825C356.526 182.49 356.932 183.09 357.351 183.717C357.394 183.787 357.462 183.838 357.541 183.859C357.621 183.879 357.705 183.868 357.776 183.828C358.645 183.338 359.254 182.436 359.75 181.595C360.245 180.754 360.64 179.911 361.041 179.046C361.1 179.057 361.161 179.052 361.217 179.03C361.273 179.008 361.322 178.971 361.357 178.922C361.393 178.874 361.413 178.816 361.417 178.756C361.421 178.696 361.408 178.636 361.379 178.584C361.209 178.286 360.789 178.17 360.483 178.078C359.999 177.935 359.503 177.83 359.011 177.727C357.893 177.492 356.729 177.205 355.586 177.481C355.17 177.581 354.712 177.751 354.607 178.211C354.485 178.735 354.904 179.333 355.145 179.773ZM355.984 178.027C356.986 177.892 357.952 178.127 358.924 178.332C359.335 178.419 359.75 178.505 360.153 178.622C360.232 178.643 360.37 178.676 360.505 178.719C360.134 179.516 359.763 180.316 359.322 181.079C358.881 181.841 358.412 182.622 357.698 183.125C357.395 182.673 357.091 182.222 356.818 181.752C356.491 181.189 356.244 180.606 355.963 180.019C355.73 179.527 355.327 179.024 355.218 178.484C355.153 178.124 355.716 178.065 355.984 178.027Z" fill="#CBE1F8"/>
<path d="M346.854 167.383C347.146 167.956 347.666 168.318 348.11 168.756C349.028 169.642 349.564 170.886 350.817 171.386C350.883 171.403 350.953 171.399 351.017 171.373C351.08 171.347 351.133 171.301 351.169 171.243C352.149 169.945 352.203 168.148 352.384 166.553C352.434 166.526 352.475 166.486 352.503 166.437C352.631 166.193 352.689 165.918 352.67 165.643C352.651 165.368 352.556 165.104 352.395 164.88C352.043 164.407 351.632 164.339 351.082 164.509C350.381 164.734 349.683 164.855 348.965 165.015C348.348 165.15 347.612 165.347 347.116 165.785C346.898 165.982 346.753 166.248 346.705 166.538C346.657 166.828 346.71 167.126 346.854 167.383ZM347.368 166.423C347.639 166.004 348.275 165.815 348.722 165.699C349.301 165.547 349.899 165.48 350.478 165.331C350.749 165.264 351.485 164.874 351.729 165.061C351.893 165.197 352 165.39 352.03 165.601C351.978 165.612 351.932 165.64 351.898 165.679C351.864 165.719 351.844 165.768 351.84 165.82C351.71 166.699 351.648 167.588 351.499 168.464C351.404 169.25 351.158 170.011 350.773 170.705C349.961 170.28 349.488 169.383 348.906 168.71C348.581 168.337 348.191 168.045 347.847 167.696C347.579 167.404 347.092 166.85 347.368 166.423Z" fill="#CBE1F8"/>
<path d="M335.693 164.458C336.059 165.345 336.722 166.053 337.236 166.847C337.477 167.22 337.642 167.621 337.845 168.015C337.951 168.302 338.156 168.541 338.424 168.688C338.744 168.821 339.031 168.61 339.237 168.369C339.555 167.928 339.828 167.455 340.049 166.958C340.59 165.895 341.095 164.814 341.565 163.715C341.582 163.68 341.591 163.642 341.591 163.603C341.591 163.564 341.582 163.525 341.565 163.49C341.659 163.318 341.736 163.137 341.795 162.95C342.025 162.228 341.795 161.49 341.034 161.22C340.671 161.125 340.293 161.103 339.921 161.155C339.536 161.171 339.154 161.234 338.785 161.344C338.243 161.528 337.721 161.793 337.174 161.977C336.798 162.068 336.434 162.204 336.091 162.382C335.341 162.866 335.39 163.723 335.693 164.458ZM336.319 162.974C336.601 162.819 336.902 162.7 337.215 162.62C338.013 162.35 338.768 161.888 339.621 161.809C340.054 161.769 341.215 161.593 341.245 162.304C341.267 162.879 340.877 163.407 340.579 163.866C340.558 163.895 340.543 163.927 340.535 163.962C340.526 163.997 340.525 164.033 340.53 164.068C340.536 164.103 340.548 164.137 340.567 164.167C340.585 164.197 340.61 164.224 340.639 164.245C340.319 164.966 339.978 165.68 339.621 166.385C339.38 166.853 339.153 167.345 338.871 167.791C338.82 167.872 338.633 168.104 338.638 168.107C338.571 168.08 338.498 167.921 338.465 167.861C338.149 167.21 337.787 166.583 337.382 165.983C336.938 165.374 336.389 164.728 336.178 163.993C336.091 163.68 335.983 163.188 336.319 162.988V162.974Z" fill="#CBE1F8"/>
<path d="M336.795 177.111C337.221 177.695 337.733 178.212 338.314 178.643C338.793 179.011 339.342 179.454 339.938 179.649C340.75 179.919 341.121 178.962 341.38 178.378C341.743 177.523 342.047 176.645 342.29 175.748C342.338 175.736 342.382 175.71 342.416 175.674C342.45 175.639 342.474 175.594 342.485 175.546C342.57 175.265 342.605 174.971 342.588 174.678C342.539 173.997 342.249 173.286 341.505 173.148C341.064 173.067 340.628 173.335 340.273 173.559C339.843 173.829 339.407 174.1 338.971 174.346C338.511 174.589 338.027 174.783 337.526 174.924C337.164 175.022 336.844 175.237 336.616 175.535C336.281 176.04 336.478 176.651 336.795 177.111ZM337.458 175.613C337.791 175.459 338.157 175.408 338.498 175.283C338.897 175.114 339.279 174.906 339.637 174.662C339.978 174.451 340.327 174.243 340.674 174.035C340.928 173.883 341.348 173.6 341.629 173.862C341.744 173.982 341.833 174.125 341.89 174.281C341.948 174.438 341.972 174.604 341.962 174.77C341.92 174.809 341.889 174.858 341.873 174.913C341.622 175.874 341.319 176.82 340.966 177.749C340.814 178.168 340.613 178.569 340.365 178.941C340.208 179.154 340.076 179.054 339.867 178.941C338.936 178.416 337.926 177.703 337.334 176.797C337.052 176.367 336.879 175.881 337.458 175.613Z" fill="#CBE1F8"/>
<path d="M327.221 157.628C327.259 157.666 327.308 157.694 327.361 157.709C327.414 157.723 327.47 157.723 327.524 157.709C327.941 157.598 328.336 157.955 328.734 158.011C329.053 158.052 329.378 158.016 329.681 157.906C330.25 157.722 331.056 157.503 331.197 156.825C331.368 156.014 330.656 155.154 330.228 154.546C329.603 153.722 329.06 152.839 328.604 151.911C328.596 151.856 328.574 151.805 328.539 151.762C328.539 151.746 328.525 151.732 328.52 151.716C328.495 151.653 328.451 151.6 328.394 151.563C328.338 151.526 328.271 151.508 328.203 151.511C328.126 151.474 328.042 151.453 327.956 151.45C327.871 151.447 327.786 151.462 327.706 151.493C327.626 151.525 327.554 151.572 327.494 151.633C327.434 151.694 327.387 151.766 327.356 151.846C327.143 152.342 327.023 152.872 327.001 153.411C326.944 154.07 326.852 154.725 326.79 155.384C326.722 156.168 326.72 156.987 327.221 157.628ZM327.586 157.074C327.28 156.568 327.369 155.833 327.432 155.281C327.494 154.73 327.575 154.241 327.608 153.716C327.624 153.327 327.678 152.941 327.767 152.562C327.798 152.391 327.862 152.226 327.954 152.078C327.976 152.09 327.996 152.106 328.014 152.124C328.369 152.896 328.798 153.632 329.294 154.322C329.565 154.727 329.868 155.133 330.136 155.552C330.333 155.824 330.478 156.13 330.564 156.455C330.639 156.841 330.439 156.941 330.122 157.084C329.849 157.206 329.567 157.305 329.278 157.382C328.685 157.528 328.176 157.041 327.586 157.074Z" fill="#CBE1F8"/>
<path d="M318.19 159.728C318.19 160.45 318.583 160.901 319.216 161.19C319.905 161.515 320.633 161.75 321.382 161.888C321.864 161.969 322.464 162.036 322.76 161.539C323.055 161.041 322.995 160.471 322.941 159.958C322.858 159.263 322.734 158.574 322.567 157.895C322.462 157.447 322.297 156.868 322.234 156.476C322.229 156.432 322.216 156.39 322.194 156.352C322.172 156.314 322.142 156.281 322.107 156.255C322.026 155.89 321.907 155.525 321.585 155.346C321.062 155.057 320.616 155.346 320.283 155.752C319.85 156.292 319.441 156.879 319.062 157.46C318.623 158.122 318.182 158.933 318.19 159.728ZM319.638 157.698C320.004 157.101 320.417 156.535 320.876 156.006C321.417 155.465 321.52 156.611 321.612 156.946C321.627 157.008 321.661 157.063 321.709 157.103C321.904 158.055 322.213 158.995 322.305 159.958C322.332 160.228 322.475 161.117 322.145 161.293C321.918 161.354 321.678 161.348 321.455 161.274C321.088 161.198 320.726 161.098 320.372 160.977C319.868 160.804 318.867 160.568 318.824 159.895C318.77 159.117 319.205 158.325 319.641 157.698H319.638Z" fill="#CBE1F8"/>
<path d="M326.008 166.501C326.091 166.254 326.137 165.995 326.143 165.734C326.177 165.509 326.248 165.29 326.352 165.088C326.456 164.901 326.571 164.721 326.695 164.547C326.851 164.287 326.988 164.016 327.107 163.736C327.345 163.196 327.491 162.142 328.144 161.947C328.796 161.752 329.107 162.742 329.243 163.18C329.397 163.688 329.486 164.212 329.605 164.728C329.645 164.766 329.676 164.812 329.695 164.863C329.887 165.404 330.22 165.991 330.006 166.585C329.871 166.961 329.267 166.799 329.405 166.42C329.48 166.096 329.433 165.755 329.272 165.464C329.228 165.449 329.188 165.422 329.156 165.387C329.125 165.352 329.104 165.309 329.094 165.264C328.961 164.774 328.883 164.272 328.758 163.78C328.692 163.499 328.608 163.223 328.506 162.952C328.467 162.849 328.419 162.749 328.36 162.655C328.301 162.555 328.292 162.552 328.255 162.59C328.106 162.806 328.002 163.05 327.951 163.307C327.816 163.681 327.66 164.047 327.483 164.404C327.299 164.793 326.993 165.128 326.833 165.526C326.674 165.923 326.747 166.399 326.547 166.815C326.371 167.188 325.835 166.872 326.008 166.501Z" fill="#CBE1F8"/>
<path d="M321.744 147.443C321.855 148.186 322.619 148.556 323.009 149.148C323.151 149.404 323.261 149.677 323.336 149.959C323.398 150.148 323.523 150.7 323.78 150.703C324.183 150.703 324.078 149.6 324.091 149.351C324.143 148.316 324.611 147.329 324.884 146.34C324.895 146.301 324.914 146.264 324.939 146.232C324.965 146.199 324.996 146.172 325.032 146.152C325.068 146.132 325.107 146.119 325.147 146.115C325.188 146.11 325.229 146.113 325.269 146.124C325.308 146.135 325.345 146.153 325.377 146.179C325.41 146.204 325.437 146.235 325.457 146.271C325.477 146.307 325.49 146.346 325.495 146.386C325.5 146.427 325.496 146.468 325.485 146.508C325.188 147.589 324.722 148.605 324.706 149.735C324.706 150.408 324.592 151.235 323.78 151.322C323.009 151.405 322.778 150.24 322.597 149.713C322.297 148.865 321.287 148.554 321.143 147.597C321.087 147.216 321.685 147.04 321.744 147.443Z" fill="#CBE1F8"/>
<path d="M377.583 187.087C377.812 186.512 377.936 185.901 377.948 185.282C377.967 184.868 378.002 183.276 378.787 183.509C379.023 183.576 379.166 183.841 379.286 184.049C379.477 184.398 379.702 184.727 379.957 185.033C380.588 185.736 381.31 186.26 381.719 187.147C381.754 187.219 381.759 187.303 381.733 187.379C382.028 187.868 382.366 188.363 382.22 188.944C382.193 189.019 382.139 189.081 382.069 189.118C381.998 189.155 381.916 189.163 381.84 189.142C381.763 189.121 381.697 189.071 381.656 189.003C381.614 188.936 381.6 188.855 381.616 188.777C381.746 188.269 381.137 187.671 380.948 187.228C380.917 187.159 380.911 187.082 380.931 187.009C380.585 186.535 380.188 186.101 379.748 185.712C379.343 185.285 378.993 184.809 378.706 184.295C378.687 184.368 378.676 184.444 378.66 184.509C378.584 185.012 378.539 185.519 378.525 186.028C378.444 186.885 377.891 187.612 377.864 188.46C377.864 188.543 377.832 188.622 377.773 188.68C377.715 188.739 377.636 188.771 377.553 188.771C377.471 188.771 377.391 188.739 377.333 188.68C377.275 188.622 377.242 188.543 377.242 188.46C377.27 187.986 377.386 187.52 377.583 187.087Z" fill="#CBE1F8"/>
<path d="M369.849 134.536C369.795 134.144 370.391 133.974 370.45 134.371C370.534 134.963 370.856 135.479 370.97 136.066C371.084 136.653 370.945 137.309 371.013 137.926C371.595 137.677 372.055 137.055 372.637 136.82C373.506 136.466 374.383 136.231 375.074 135.558C375.361 135.288 375.802 135.715 375.515 135.996C374.808 136.688 373.942 136.982 373.038 137.326C372.256 137.623 371.685 138.501 370.851 138.623C370.771 138.643 370.687 138.631 370.616 138.591C370.544 138.55 370.492 138.483 370.469 138.404C370.301 137.745 370.399 137.074 370.385 136.404C370.372 135.733 369.939 135.179 369.849 134.536Z" fill="#CBE1F8"/>
<path d="M392.728 108.387C393.736 109.5 395.03 110.314 396.47 110.742C397.91 111.169 399.439 111.194 400.892 110.812C402.345 110.431 403.664 109.658 404.707 108.578C405.75 107.498 406.475 106.153 406.804 104.69C407.132 103.236 407.056 101.72 406.585 100.306C406.113 98.8926 405.264 97.634 404.129 96.6666C402.994 95.6991 401.616 95.0595 400.143 94.8167C398.671 94.5739 397.16 94.7372 395.773 95.2889C395.612 95.355 395.435 95.3753 395.262 95.3477C395.089 95.32 394.927 95.2455 394.794 95.1321C394.661 95.0188 394.562 94.8711 394.507 94.7051C394.453 94.5392 394.445 94.3615 394.485 94.1915L397.365 81.8091L434.794 90.4884L431.916 102.871C431.876 103.041 431.79 103.197 431.667 103.322C431.544 103.447 431.389 103.536 431.219 103.579C431.049 103.621 430.87 103.617 430.702 103.566C430.535 103.514 430.384 103.418 430.268 103.287C429.263 102.178 427.973 101.364 426.538 100.935C425.103 100.506 423.577 100.477 422.127 100.853C420.677 101.228 419.357 101.993 418.312 103.064C417.266 104.135 416.534 105.472 416.195 106.929C415.856 108.386 415.924 109.908 416.39 111.33C416.856 112.751 417.704 114.018 418.84 114.993C419.977 115.968 421.359 116.613 422.836 116.859C424.314 117.105 425.831 116.942 427.223 116.388C427.385 116.323 427.562 116.303 427.735 116.331C427.908 116.358 428.07 116.433 428.203 116.547C428.337 116.66 428.437 116.808 428.492 116.974C428.547 117.14 428.555 117.318 428.516 117.488L425.647 129.825L388.218 121.146L391.088 108.809C391.127 108.639 391.212 108.482 391.334 108.357C391.456 108.232 391.61 108.143 391.779 108.099C391.949 108.056 392.127 108.059 392.294 108.11C392.462 108.161 392.612 108.257 392.728 108.387Z" fill="#699FCE"/>
<path d="M426.151 98.2594C426.454 97.9891 426.635 97.5945 426.946 97.3188C427.258 97.0431 427.826 96.9458 428.265 96.8323C428.769 96.6692 429.265 96.4807 429.751 96.2673C430.308 96.0715 430.851 95.8358 431.375 95.5619C431.42 95.5361 431.473 95.5259 431.525 95.5329C431.576 95.5399 431.624 95.5636 431.661 95.6004C431.698 95.6373 431.722 95.6852 431.729 95.7368C431.736 95.7884 431.726 95.8409 431.7 95.8862C431.49 96.2342 431.314 96.6018 431.175 96.9836C431.056 97.4242 431.033 97.8849 431.107 98.3351C431.177 99.1784 430.587 99.865 430.192 100.549C430.16 100.603 430.109 100.642 430.048 100.658C429.987 100.674 429.923 100.666 429.869 100.634C429.814 100.602 429.775 100.551 429.759 100.49C429.743 100.43 429.752 100.365 429.783 100.311C429.973 99.9812 430.192 99.6677 430.376 99.3325C430.598 98.9317 430.677 98.4677 430.601 98.0162C430.552 97.417 430.674 96.8163 430.953 96.2836C430.682 96.3971 430.436 96.4998 430.173 96.5998C429.67 96.7917 429.171 97.0052 428.668 97.1918C428.221 97.3566 427.696 97.3674 427.287 97.6323C426.946 97.8513 426.773 98.3081 426.475 98.5838C426.264 98.8027 425.929 98.4703 426.151 98.2594Z" fill="#CBE1F8"/>
<path d="M419.329 89.1964C419.394 88.8963 419.852 89.0234 419.787 89.3207C419.594 90.2046 420.217 90.81 420.561 91.5588C420.871 92.2651 421.101 93.004 421.246 93.7617C421.416 93.5914 421.579 93.4157 421.733 93.2211C421.954 92.9273 422.195 92.6483 422.453 92.3859C422.994 91.8885 423.641 91.5344 424.039 90.9046C424.202 90.6479 424.613 90.883 424.448 91.1425C424.058 91.7588 423.463 92.148 422.916 92.6075C422.625 92.8716 422.361 93.1641 422.128 93.4806C421.866 93.807 421.576 94.1099 421.262 94.3861C421.233 94.4148 421.196 94.4354 421.156 94.446C421.117 94.4566 421.075 94.4567 421.035 94.4464C420.995 94.436 420.959 94.4156 420.929 94.387C420.9 94.3585 420.878 94.3227 420.867 94.2834C420.731 93.3422 420.457 92.426 420.055 91.5642C419.868 91.1966 419.616 90.8641 419.451 90.483C419.275 90.0779 419.232 89.6273 419.329 89.1964Z" fill="#CBE1F8"/>
<path d="M412.949 97.8459C413.536 97.0809 414.302 96.6322 415.158 96.2052C415.759 95.9051 416.536 95.1916 417.261 95.4213C417.321 95.4384 417.372 95.4782 417.403 95.5323C417.434 95.5863 417.442 95.6503 417.426 95.7105C417.326 96.0178 417.246 96.3311 417.185 96.6485C417.145 97.0269 417.296 97.408 417.312 97.7864C417.342 98.5973 416.988 99.392 416.619 100.097C416.479 100.368 416.078 100.13 416.211 99.8596C416.601 99.1136 416.944 98.2919 416.804 97.4269C416.728 97.1269 416.701 96.8165 416.725 96.5079C416.768 96.2855 416.825 96.0661 416.896 95.8511C416.677 95.8998 416.468 95.9858 416.278 96.1052C415.981 96.2646 415.699 96.4566 415.399 96.6079C414.635 96.989 413.888 97.3864 413.36 98.0756C413.176 98.3135 412.759 98.0783 412.949 97.8459Z" fill="#CBE1F8"/>
<path d="M405.091 87.3556C405.185 88.3314 406.049 88.8504 406.799 89.3207C407.198 89.5888 407.546 89.9267 407.825 90.3181C407.955 90.4938 408.057 90.7533 408.206 90.9506C408.181 90.208 408.354 89.4721 408.707 88.8179C408.898 88.5068 409.06 88.1783 409.189 87.8368C409.275 87.4271 409.2 87 408.978 86.6447C408.84 86.3745 409.249 86.1339 409.387 86.4069C409.585 86.7582 409.696 87.1524 409.709 87.5556C409.685 87.9067 409.577 88.2469 409.395 88.5476C409.171 88.9293 408.977 89.3279 408.815 89.7397C408.655 90.2703 408.619 90.8308 408.71 91.3777C408.734 91.5452 408.61 91.7263 408.417 91.6696C407.992 91.5425 407.776 91.1533 407.565 90.7938C407.28 90.3138 406.878 89.9138 406.395 89.6315C405.524 89.1288 404.717 88.4125 404.614 87.3556C404.587 87.0502 405.061 87.0529 405.091 87.3556Z" fill="#CBE1F8"/>
<path d="M397.143 89.7559C397.741 89.3045 398.432 89.0531 399.103 88.7368C399.601 88.5017 400.099 88.0854 400.681 88.1341C400.744 88.1355 400.803 88.1611 400.847 88.2055C400.891 88.2498 400.916 88.3095 400.917 88.3719C400.915 88.7941 400.886 89.2157 400.83 89.6342C400.8 90.0316 400.83 90.4289 400.808 90.8262C400.736 91.5832 400.464 92.3073 400.018 92.9238C399.842 93.1697 399.43 92.9238 399.606 92.6832C400.024 92.1121 400.277 91.4384 400.34 90.7344C400.372 90.3667 400.34 89.9991 400.356 89.6342C400.373 89.2693 400.432 88.9585 400.443 88.6206C400.002 88.6936 399.579 89.0396 399.187 89.2153C398.552 89.4637 397.946 89.7819 397.381 90.164C397.138 90.3505 396.902 89.937 397.143 89.7559Z" fill="#CBE1F8"/>
<path d="M407.987 105.649C408.152 106.144 408.591 106.447 408.894 106.855C409.113 107.147 409.297 107.485 409.544 107.758C409.546 107.358 409.593 106.96 409.684 106.571C409.816 106.124 409.992 105.691 410.209 105.279C410.401 104.916 410.559 104.536 410.68 104.144C410.799 103.665 410.776 103.161 410.613 102.695C410.521 102.403 410.978 102.279 411.07 102.568C411.36 103.49 411.192 104.314 410.8 105.168C410.586 105.583 410.395 106.009 410.228 106.444C410.065 107.034 409.994 107.646 410.017 108.258C410.017 108.299 410.005 108.34 409.984 108.376C409.963 108.411 409.933 108.441 409.897 108.461C409.861 108.482 409.82 108.493 409.778 108.492C409.737 108.492 409.696 108.481 409.66 108.46C409.184 108.16 408.907 107.679 408.593 107.228C408.242 106.722 407.743 106.379 407.54 105.774C407.432 105.484 407.887 105.36 407.987 105.649Z" fill="#CBE1F8"/>
<path d="M413.274 111.972C413.631 111.404 414.059 110.89 414.432 110.328C414.603 110.077 415.014 110.315 414.841 110.569C414.511 111.058 414.137 111.52 413.81 112.012C413.482 112.504 412.998 113.199 412.998 113.848C412.998 114.085 413.168 114.177 413.382 114.223C413.894 114.326 414.465 114.139 414.979 114.129C415.585 114.112 416.092 114.399 416.625 114.65C417.185 114.879 417.711 115.181 418.19 115.55C418.425 115.748 418.087 116.091 417.854 115.886C417.326 115.498 416.749 115.182 416.138 114.945C415.855 114.787 415.549 114.675 415.231 114.612C414.918 114.592 414.603 114.608 414.294 114.661C413.609 114.745 412.646 114.802 412.527 113.92C412.435 113.253 412.938 112.501 413.274 111.972Z" fill="#CBE1F8"/>
<path d="M419.175 125.487C419.371 125.065 419.531 124.627 419.654 124.178C419.825 123.712 420.02 123.256 420.239 122.811C420.445 122.355 420.611 121.882 420.734 121.397C420.804 121.11 420.88 120.654 421.248 120.613C421.887 120.545 421.993 121.756 422.198 122.132C422.404 122.508 422.905 122.632 423.254 122.767C423.645 122.908 424 123.133 424.294 123.427C424.507 123.643 424.172 123.967 423.958 123.759C423.433 123.219 422.675 123.17 422.101 122.719C421.581 122.311 421.681 121.61 421.289 121.137C421.252 121.224 421.225 121.315 421.208 121.408C421.151 121.648 421.089 121.883 421.01 122.116C420.867 122.527 420.702 122.931 420.515 123.324C420.322 123.73 420.156 124.148 420.017 124.576C419.904 124.967 419.758 125.349 419.581 125.716C419.445 125.997 419.034 125.757 419.175 125.487Z" fill="#CBE1F8"/>
<path d="M410.366 118.856C410.388 118.553 410.862 118.551 410.843 118.856C410.817 119.277 410.899 119.697 411.081 120.078C411.26 120.467 411.539 120.789 411.747 121.159C412.069 121.732 411.899 122.392 411.939 123.019C412.151 122.795 412.378 122.586 412.619 122.394C412.984 122.102 413.393 121.883 413.661 121.486C414.137 120.781 414.202 119.864 414.551 119.091C414.673 118.821 415.093 119.053 414.96 119.332C414.608 120.143 414.527 121.048 414.026 121.792C413.752 122.134 413.421 122.427 413.046 122.657C412.648 122.966 412.285 123.317 411.964 123.705C411.934 123.734 411.897 123.755 411.858 123.765C411.818 123.775 411.776 123.775 411.736 123.765C411.696 123.754 411.66 123.733 411.63 123.704C411.601 123.675 411.58 123.639 411.568 123.6C411.317 122.789 411.715 121.886 411.184 121.143C410.689 120.467 410.323 119.708 410.366 118.856Z" fill="#CBE1F8"/>
<path d="M400.751 114.193C401.047 113.728 401.318 113.249 401.564 112.756C401.712 112.461 401.888 112.074 402.197 111.915C402.313 111.864 402.444 111.861 402.563 111.906C402.681 111.951 402.777 112.041 402.83 112.155C402.93 112.324 403.004 112.506 403.05 112.696C403.126 112.938 403.223 113.173 403.339 113.399C403.767 114.237 404.365 114.969 404.606 115.894C404.617 115.952 404.606 116.013 404.575 116.064C404.543 116.115 404.494 116.152 404.436 116.168C404.378 116.184 404.317 116.177 404.264 116.15C404.21 116.123 404.169 116.077 404.149 116.021C403.959 115.288 403.534 114.669 403.15 114.034C402.968 113.731 402.81 113.414 402.679 113.085C402.608 112.899 402.565 112.704 402.487 112.52C402.464 112.461 402.432 112.405 402.392 112.355C402.392 112.355 402.392 112.355 402.392 112.369C402.174 112.613 402.003 112.895 401.888 113.201C401.688 113.593 401.469 113.975 401.236 114.348C401.003 114.721 400.765 115.04 400.524 115.38C400.283 115.721 400.099 116.102 400.234 116.55C400.246 116.609 400.234 116.67 400.203 116.721C400.171 116.771 400.122 116.808 400.064 116.824C400.007 116.84 399.945 116.834 399.892 116.807C399.839 116.78 399.798 116.734 399.777 116.678C399.466 115.686 400.262 114.95 400.751 114.193Z" fill="#CBE1F8"/>
<path d="M390.866 118.497C391.589 116.645 393.573 116.015 395.062 114.921C395.098 114.901 395.139 114.89 395.18 114.891C395.222 114.891 395.262 114.902 395.298 114.923C395.334 114.943 395.364 114.973 395.385 115.009C395.406 115.044 395.418 115.085 395.419 115.126C395.412 115.564 395.444 116.002 395.514 116.434C395.641 116.856 395.795 117.268 395.976 117.67C396.236 118.461 396.226 119.316 395.949 120.102C395.857 120.394 395.408 120.27 395.492 119.978C395.757 119.21 395.744 118.375 395.457 117.615C395.273 117.215 395.127 116.799 395.021 116.372C394.979 116.104 394.956 115.833 394.953 115.561C393.632 116.423 391.927 117.061 391.323 118.613C391.215 118.905 390.755 118.783 390.866 118.497Z" fill="#CBE1F8"/>
<path d="M402.254 122.359C402.686 121.999 402.997 121.517 403.147 120.975C403.267 120.473 403.449 119.987 403.688 119.529C404.035 118.989 405.026 118.47 405.491 119.148C405.762 119.543 405.613 120.197 405.591 120.64C405.564 121.14 405.732 121.632 406.06 122.01C406.474 122.516 407.337 123.419 406.672 124.057C406.452 124.267 406.13 123.935 406.336 123.721C406.755 123.319 405.776 122.421 405.543 122.116C405.299 121.782 405.153 121.387 405.12 120.975C405.072 120.505 405.207 120.032 405.139 119.559C405.088 119.197 404.75 119.289 404.509 119.408C404.181 119.61 403.945 119.932 403.851 120.305C403.697 120.718 403.599 121.148 403.431 121.556C403.249 122.001 402.956 122.393 402.581 122.694C402.354 122.886 402.016 122.551 402.254 122.359Z" fill="#CBE1F8"/>
<path d="M229.051 229.521C234.533 235.614 273.198 262.998 264.961 273.342C255.1 285.735 240.507 294.466 226.653 282.532C217.087 274.289 208.346 265.138 200.553 255.208C195.434 248.688 190.586 241.455 189.671 233.222C188.756 224.989 193.046 215.633 201.04 213.395C206.535 211.855 212.504 213.936 217.097 217.328C221.691 220.72 225.24 225.28 229.051 229.521Z" fill="#FCB9A4"/>
<path d="M183.047 59.9799C182.83 58.1905 182.308 56.0957 180.611 55.4605C179.843 55.2134 179.015 55.2268 178.256 55.4984C175.671 56.3092 173.768 59.0825 172.122 61.107C170.211 63.4559 168.562 66.1427 168.224 69.216L181.545 77.2924C182.105 77.6303 182.898 77.9493 183.347 77.4898C183.524 77.275 183.636 77.0143 183.67 76.7383C184.211 74.057 183.618 72.0081 183.523 69.4052C183.418 66.2427 183.426 63.1289 183.047 59.9799Z" fill="#FE554E"/>
<path d="M136.152 173.973C142.919 173.835 149.787 173.524 156.5 173.559C187.107 173.721 216.345 205.492 230.597 229.7C231.287 230.87 231.98 232.157 231.828 233.506C231.642 235.152 230.264 236.379 228.946 237.39C222.852 242.053 216.028 245.677 208.749 248.115C198.682 251.486 201.535 269.555 203.26 277.929C204.838 285.589 204.916 293.517 206.459 301.112C208.316 310.251 209.339 319.633 210.739 328.853L150.959 335.324C141.255 336.375 131.493 337.427 121.749 336.851C105.951 335.919 90.0478 330.737 74.5885 334.116C73.1998 334.418 81.0581 315.806 81.5209 314.849C84.1954 309.311 86.9619 303.645 87.5709 297.528C88.1367 291.852 86.8076 286.195 85.5976 280.627C83.9734 273.15 82.1625 265.717 80.3921 258.276C78.768 251.456 77.9911 243.717 75.3004 237.274C70.8204 226.537 68.839 212.606 71.0532 201.175C72.2253 195.112 74.9837 189.15 79.7939 185.271C83.6296 182.179 88.4561 180.625 93.2122 179.346C107.453 175.513 121.508 174.275 136.152 173.973Z" fill="#AF78FA"/>
<path d="M168.053 181.525C169.751 183.836 171.792 185.882 173.77 188.098C174.911 189.378 175.899 190.784 176.715 192.291C176.892 192.564 176.994 192.879 177.013 193.204C176.975 193.544 176.848 193.869 176.645 194.145C175.021 196.799 174.601 197.556 171.534 197.929C168.808 198.261 166.056 198.44 163.313 198.551C157.793 198.781 152.263 198.588 146.771 197.975C135.835 196.729 125.027 193.65 115.422 188.209C114.797 187.85 114.134 187.425 113.972 186.79C113.809 186.155 114.196 185.514 114.581 184.938C116.841 181.546 119.523 178.289 120.893 174.589C122.146 171.197 122.222 167.615 122.29 164.096C122.561 150.146 117.279 126.214 134.287 116.994C141.257 113.21 151.07 113.061 156.857 117.737C161.651 121.608 162.864 127.703 163.468 133.401C164.385 142.075 164.483 150.816 163.76 159.509C163.286 165.185 163.276 171.224 165.33 176.616C166.011 178.368 166.927 180.019 168.053 181.525Z" fill="#FCB9A4"/>
<path d="M163.749 159.512C164.449 151.09 164.376 142.623 163.533 134.214C162.721 128.417 161.134 122.592 156.949 118.605C153.016 114.872 147.332 113.634 141.929 114.488C141.652 114.572 141.381 114.673 141.117 114.791C137.836 116.256 135.354 120.032 133.997 123.2C130.579 131.192 130.403 139.804 133.621 147.797C138.494 159.917 150.821 168.653 163.722 169.304C163.435 166.046 163.445 162.768 163.749 159.512Z" fill="#F5865E"/>
<path d="M190.131 137.626C187.218 147.878 180.096 158.817 169.155 161.077C158.214 163.336 146.958 159.882 138.434 152.738C129.439 145.186 126.329 135.588 120.725 125.83C115.609 116.91 112.334 108.182 112.09 97.5945C111.771 83.6336 117.03 70.3999 128.383 61.8693C134.441 57.3202 141.983 54.3307 149.53 55.0388C150.308 55.1127 151.073 55.2145 151.825 55.3443C171.483 58.7392 183.567 81.0874 188.231 98.4189C191.674 111.212 193.753 124.876 190.131 137.626Z" fill="#FCB9A4"/>
<path d="M163.357 144.113C162.863 143.412 162.553 142.599 162.455 141.748C162.398 140.896 162.726 139.983 163.435 139.512C163.905 139.236 164.439 139.088 164.984 139.082C166.494 138.991 167.994 139.326 169.501 139.42C172.239 139.586 174.965 138.956 177.352 137.607C178.594 136.901 180.123 135.985 181.323 136.766C182.592 137.577 182.27 139.518 181.65 140.893C180.783 142.824 179.634 144.615 178.242 146.21C177.195 147.408 175.96 148.519 174.452 148.984C173.496 149.249 172.496 149.316 171.513 149.181C169.865 148.983 168.281 148.426 166.871 147.551C165.462 146.675 164.263 145.501 163.357 144.113Z" fill="#FE554E"/>
<path d="M170.4 142.845C167.684 142.614 165.064 141.735 162.758 140.283C162.916 139.974 163.148 139.71 163.435 139.515C163.905 139.239 164.439 139.09 164.984 139.085C166.494 138.993 167.994 139.328 169.501 139.423C172.239 139.589 174.965 138.959 177.352 137.609C178.594 136.904 180.123 135.988 181.323 136.769C181.477 136.867 181.615 136.989 181.731 137.131C180.935 138.118 180.057 139.037 179.106 139.877C177.752 141.075 176.16 142.188 174.195 142.65C172.949 142.917 171.667 142.982 170.4 142.845Z" fill="white"/>
<path d="M188.055 139.072C188.997 140.058 189.841 141.088 190.578 141.85C192.34 143.678 194.213 145.432 195.634 147.548C196.446 148.756 197.109 150.319 196.471 151.624C196.013 152.562 194.966 153.108 193.926 153.206C192.887 153.303 191.847 153.016 190.867 152.665C188.445 151.778 186.436 149.462 184.479 147.819C182.522 146.175 180.559 144.313 179.663 141.904C178.886 139.81 179.252 136.38 181.999 135.958C184.295 135.623 186.341 137.277 188.055 139.072Z" fill="#F5865E"/>
<path d="M188.799 73.5191C186.415 71.6543 183.511 70.5748 180.486 70.4296C179.628 70.3945 178.721 70.4296 177.966 70.0214C177.154 69.5782 176.661 68.7078 176.182 67.9023C168.99 55.7714 153.087 49.7221 139.503 53.1954C130.3 55.5497 121.83 61.9882 116.056 69.3781C108.847 78.6034 102.459 94.3644 106.66 105.933C108.466 110.904 111.847 115.229 113.33 120.305C114.621 124.719 114.413 129.427 115.19 133.958C115.967 138.488 118.202 143.242 122.463 144.989C122.851 145.188 123.295 145.248 123.722 145.159C124.19 145.01 124.491 144.564 124.753 144.148L130.795 134.525C132.197 132.293 133.629 129.984 134.076 127.384C134.839 122.962 132.644 118.621 131.91 114.191C131.142 109.479 133.02 95.5402 140.004 96.2349C139.926 104.676 153.022 104.966 158.094 101.154C159.905 99.8028 161.343 97.9648 163.213 96.6971C167.201 93.9941 172.433 94.2644 177.211 94.8483C181.989 95.4321 187.048 96.1998 191.449 94.2482C195.851 92.2967 198.855 86.4096 195.994 82.5416C194.871 81.0226 193.558 80.0414 192.711 78.3601C191.993 76.862 191.003 75.5094 189.793 74.3705C189.481 74.0597 189.146 73.7894 188.799 73.5191Z" fill="#699FCE"/>
<path d="M61.6413 120.981C57.6783 124.335 52.3836 126.227 48.6994 129.955C43.8513 134.879 42.5601 142.929 45.6298 149.129C46.2064 150.289 46.9399 151.408 47.9902 152.17C48.8971 152.824 49.9798 153.176 51.0112 153.608C61.1378 157.863 66.3838 170.126 76.8001 173.61C83.026 175.697 90.3672 173.945 94.9744 169.286C96.7095 175.367 105.456 178.013 110.282 173.916C114.023 170.737 114.738 165.247 114.407 160.352C113.89 152.716 111.478 145.259 111.478 137.58C111.478 134.152 112.071 131.263 111.457 127.952C110.861 124.751 108.75 121.697 110.079 118.343C110.975 116.077 113.241 114.726 115.136 113.191C123.695 106.258 125.422 92.3426 118.812 83.5309C118.319 82.796 117.672 82.1763 116.917 81.7145C112.705 79.4629 106.5 77.1951 101.758 75.8301C95.8676 74.1381 89.5388 73.7624 83.6215 75.5734C73.7331 78.6007 65.8208 88.9098 67.851 99.0379C68.3409 101.471 69.3587 103.865 69.2044 106.349C69.0988 108.009 68.4708 109.593 67.851 111.131C66.7682 113.81 65.6854 116.537 63.8528 118.772C63.1858 119.575 62.4454 120.315 61.6413 120.981Z" fill="#699FCE"/>
<path d="M179.755 119.245C178.802 117.102 177.154 115.272 176.055 113.199C174.566 110.396 173.722 107.252 172.991 104.184C172.617 102.614 170.094 102.892 170.471 104.479C171.367 108.239 172.401 112.047 174.377 115.399C175.335 117.021 176.512 118.532 177.403 120.2C178.553 122.362 176.862 123.511 175.159 124.505C173.751 125.316 175.289 127.343 176.686 126.53C179.628 124.816 181.228 122.567 179.755 119.245Z" fill="black"/>
<path d="M161.067 86.0285C158.468 86.2204 156.438 86.0663 154.738 83.931C153.341 82.1713 152.423 80.0279 151.167 78.1628C148.896 74.7895 145.483 73.5407 141.58 73.0542C139.955 72.8542 139.571 75.3571 141.195 75.5598C143.65 75.8653 145.892 76.3572 147.784 78.0331C149.6 79.6549 150.691 82.2146 151.906 84.2499C154.118 87.9638 157.223 88.845 161.362 88.5368C162.997 88.4233 162.694 85.9068 161.067 86.0285Z" fill="black"/>
<path d="M173.662 76.8492C165.888 71.108 159.857 63.8505 149.267 65.3074C147.643 65.5318 147.941 68.0456 149.562 67.8239C159.345 66.4724 164.959 73.5704 172.089 78.8386C173.402 79.8089 174.98 77.8222 173.662 76.8492Z" fill="black"/>
<path d="M98.6747 107.539C94.6143 111.053 91.0304 114.937 90.6893 120.554C90.2372 128.008 96.1031 133.258 97.2049 140.266C97.4566 141.875 99.9768 141.585 99.725 139.972C98.7695 133.879 94.2949 129.2 93.3421 123.116C92.4244 117.264 96.0815 113.131 100.204 109.563C101.428 108.498 99.9145 106.466 98.6747 107.539Z" fill="black"/>
<path d="M74.713 133.212C74.6129 136.898 75.0514 140.51 75.2544 144.194C75.5088 148.694 74.0254 152.427 71.3293 155.998C70.3467 157.301 72.3336 158.874 73.3189 157.565C75.8662 154.195 77.558 150.632 77.7881 146.375C78.0182 142.118 77.1005 137.866 77.2169 133.595C77.2629 131.982 74.7563 131.582 74.713 133.212Z" fill="black"/>
<path d="M96.1086 91.0884C90.7461 91.7966 84.8613 93.4427 80.9904 97.4566C76.8731 101.727 76.5104 107.187 78.2537 112.647C78.7517 114.202 81.1014 113.242 80.606 111.693C78.9981 106.666 79.6423 101.868 83.7785 98.3324C87.2244 95.3862 92.013 94.1833 96.4036 93.6049C98.0251 93.3887 97.73 90.8749 96.1086 91.0884Z" fill="black"/>
<path d="M109.199 85.0851C105.821 92.5994 107.792 100.341 106.679 108.212C106.452 109.834 108.958 110.212 109.188 108.598C110.271 101.006 108.273 93.3319 111.525 86.1014C112.196 84.6013 109.868 83.5985 109.199 85.0851Z" fill="black"/>
<path d="M148.723 120.532C147.451 121.013 146.52 122.043 146.36 123.776C146.165 125.878 147.408 127.157 149.194 128.192C151.776 129.69 157.02 130.452 157.951 126.6C158.974 122.378 152.413 119.143 148.723 120.532Z" fill="#F59776"/>
<path d="M183.32 122.638C183.451 123.035 183.668 123.399 183.956 123.703C187.042 126.87 190.938 119.464 190.101 116.794C189.395 114.542 187.727 113.885 185.711 114.991C183.772 116.053 182.465 120.218 183.32 122.638Z" fill="#F59776"/>
<path d="M160.303 114.604C160.414 113.572 160.525 112.523 160.322 111.504C160.119 110.485 159.545 109.49 158.611 109.031C158.035 108.761 157.577 108.855 157.023 109.131C156.713 109.315 156.479 109.602 156.359 109.942C155.905 110.958 155.983 111.931 156.007 113.007C156.032 114.083 156.262 115.267 157.047 116.026C157.832 116.786 159.313 116.878 159.924 115.975C160.16 115.555 160.29 115.085 160.303 114.604Z" fill="black"/>
<path d="M180.505 106.03C180.505 106.03 180.505 106.047 180.505 106.055C180.472 106.226 180.459 106.4 180.465 106.574C180.475 107.566 180.641 108.551 180.954 109.493C181.19 110.201 181.461 111.199 182.2 111.542C182.939 111.885 183.797 111.48 184.249 110.839C184.701 110.198 184.806 109.379 184.82 108.596C184.836 107.514 184.671 106.341 183.959 105.514C182.987 104.401 180.884 104.39 180.505 106.03Z" fill="black"/>
<path d="M151.728 104.182C151.78 104.265 151.85 104.335 151.932 104.389C152.014 104.443 152.107 104.48 152.204 104.495C153.303 104.722 154.64 104.565 155.75 104.471C156.932 104.37 158.104 104.177 159.256 103.892C159.862 103.741 160.46 103.568 161.05 103.368C161.546 103.2 162.477 103.03 162.696 102.557C163.127 101.619 161.884 100.516 161.137 100.184C160.244 99.7812 159.229 99.7542 158.249 99.7866C157.209 99.8172 156.171 99.9074 155.141 100.057C154.515 100.119 153.905 100.291 153.338 100.565C152.574 101.006 152.015 101.731 151.785 102.581C151.641 103.065 151.473 103.768 151.728 104.182Z" fill="black"/>
<path d="M185.334 96.2241C184.679 95.9045 183.963 95.7311 183.234 95.7159C182.736 95.7159 182.275 95.8376 181.767 95.8268C180.457 95.8007 179.163 96.1067 178.004 96.716C177.497 96.9525 177.064 97.3203 176.748 97.781C176.598 98.0149 176.518 98.287 176.518 98.5649C176.518 98.8428 176.598 99.1148 176.748 99.3487C177.154 99.8893 177.936 99.9569 178.616 99.9299C180.191 99.8675 181.75 99.5948 183.253 99.119C184.043 98.8676 186.501 98.3324 186.255 97.1323C186.154 96.6863 185.735 96.4052 185.334 96.2241Z" fill="black"/>
<path d="M206.871 309.586C204.434 300.037 204.085 290.236 203.936 280.429C203.798 271.147 203.343 261.881 203.165 252.589C202.851 236.198 202.678 219.037 194.906 204.154C194.148 202.705 191.961 203.984 192.716 205.432C200.753 220.831 200.333 238.806 200.691 255.7C200.883 264.744 201.286 273.777 201.438 282.827C201.595 292.052 202.133 301.283 204.415 310.257C204.83 311.841 207.274 311.17 206.871 309.586Z" fill="black"/>
<path d="M185.137 311.784C167.812 320.485 146.758 318.909 128.619 313.768C127.041 313.319 126.372 315.763 127.945 316.2C146.78 321.539 168.459 322.982 186.414 313.962C187.879 313.235 186.596 311.051 185.137 311.784Z" fill="black"/>
<path d="M157.74 271.274C155.193 267.898 152.107 270.442 149.914 273.201C149.595 270.028 148.747 266.244 146.203 266.666C144.89 266.882 144.357 268.466 144.037 269.552C143.114 272.577 143.117 275.98 143.09 279.105C143.076 280.727 145.613 280.727 145.626 279.105C145.651 276.237 145.475 272.672 146.568 269.882C146.652 270.139 146.717 270.401 146.788 270.653C147.356 272.677 147.489 274.829 147.627 276.915C147.708 278.156 149.302 278.664 149.99 277.556C150.745 276.275 151.597 275.054 152.537 273.902C153.122 273.218 153.807 272.55 154.678 272.28C155.864 271.899 156.173 273.715 156.051 274.442C155.531 277.48 152.559 279.848 150.875 282.281C149.941 283.632 152.139 284.892 153.065 283.559C155.244 280.381 160.91 275.475 157.74 271.274Z" fill="white"/>
<path d="M133.277 219.947C130.57 217.282 127.52 219.101 125.37 221.569C125.1 216.263 123.884 208.941 118.332 211.839C115.807 213.16 115.853 217.307 115.896 219.677C115.961 222.737 116.513 225.791 117.109 228.786C117.428 230.386 119.873 229.708 119.545 228.113C118.752 224.126 117.807 219.688 118.733 215.655C118.95 214.698 119.372 213.863 120.441 213.852C121.954 213.852 122.314 216.753 122.509 217.777C122.999 220.35 122.888 223.034 122.896 225.64C122.896 226.835 124.699 227.459 125.259 226.281C126.231 224.234 128.508 220.034 131.38 221.685C134.577 223.513 130.922 228.581 129.485 230.094C128.359 231.278 130.148 233.068 131.277 231.886C134.217 228.816 136.943 223.548 133.277 219.947Z" fill="white"/>
<path d="M190.594 230.643C190.377 229.021 187.933 229.719 188.158 231.316C188.31 231.78 188.353 232.273 188.282 232.757C187.404 232.077 186.728 231.172 186.325 230.138C185.927 229.07 184.146 228.8 183.889 230.138C183.553 231.83 182.995 233.538 181.88 234.884C181.009 235.938 179.677 235.395 179.276 234.27C178.938 233.324 179.217 232.157 179.425 231.224C180.153 227.967 181.961 225.034 183.512 222.121C184.279 220.677 182.089 219.399 181.323 220.842C179.176 224.88 175.278 230.597 176.992 235.371C177.687 237.319 180.126 238.652 182.094 237.779C183.805 237.025 184.882 235.346 185.567 233.562C186.295 234.333 187.086 235.043 187.93 235.684C188.583 236.206 189.443 236.165 189.923 235.414C190.938 233.819 190.843 232.489 190.594 230.643Z" fill="white"/>
<path d="M222.614 208.371C221.68 206.3 220.245 204.481 219.341 202.402C218.757 201.051 216.794 202.219 217.373 203.551C218.567 206.284 221.209 208.881 221.377 211.974C221.515 214.504 215.064 209.595 214.307 209C213.494 208.36 212.035 208.906 212.412 210.106C212.788 211.306 214.805 218.815 211.456 218.245C210.059 218.007 208.985 216.69 208.246 215.59C206.835 213.498 206.18 210.976 205.809 208.514C205.587 207.068 203.392 207.684 203.611 209.117C204.264 213.347 206.413 219.983 211.535 220.529C213.229 220.71 214.634 219.412 215.184 217.92C215.784 216.298 215.738 214.487 215.43 212.739C218.01 214.631 221.342 216.428 223.123 213.868C224.268 212.209 223.353 210.019 222.614 208.371Z" fill="white"/>
<path d="M188.396 285.605C184.712 283.581 182.281 286.751 181.19 289.954C179.693 288.135 177.977 286.46 175.714 285.659C173.148 284.749 170.3 286.449 169.572 288.976C168.844 291.503 170.446 294.255 171.737 296.274C173.091 298.385 174.791 300.253 176.393 302.18C177.333 303.31 178.935 301.694 178.004 300.575C175.668 297.763 172.214 294.498 171.724 290.695C171.407 288.23 173.873 287.181 175.882 288.198C177.982 289.279 179.517 291.441 180.927 293.274C181.428 293.922 182.706 293.571 182.822 292.774C183.177 290.492 184.446 285.843 187.619 287.8C190.253 289.422 190.307 293.193 189.267 295.715C188.707 297.066 190.913 297.655 191.463 296.32C193 292.614 192.145 287.657 188.396 285.605Z" fill="white"/>
<path d="M120.682 284.795C119.364 284.173 118.205 286.146 119.534 286.76C121.034 287.465 122.599 288.019 124.09 288.746C125.324 289.349 127.774 290.446 127.88 292.06C128.15 295.725 119.456 291.536 118.075 291.163C117.174 290.92 116.18 291.974 116.789 292.833C118.882 295.774 121.776 299.028 121.378 302.834C117.837 302.815 115.062 298.418 113.276 295.917C112.431 294.733 110.455 295.869 111.311 297.066C113.966 300.785 117.436 305.778 122.658 304.98C122.85 304.931 123.024 304.831 123.164 304.691C123.304 304.551 123.404 304.377 123.454 304.186C124.25 300.504 122.715 297.428 120.766 294.528C124.407 295.879 128.873 297.231 130.064 292.866C131.331 288.273 123.589 286.16 120.682 284.795Z" fill="white"/>
<path d="M151.311 77.187C158.471 72.9785 166.158 71.3243 174.55 70.5999C176.986 70.389 178.729 70.2161 181.206 70.8215C180.28 66.6833 176.412 62.5612 172.303 61.3773C167.39 59.9637 163.016 60.8178 158.322 62.6099C155.642 63.6343 152.957 64.6668 150.382 65.9318C145.044 68.564 140.242 72.1632 136.22 76.5464C131.856 81.301 129.36 86.4853 126.973 92.4129C123.976 99.8488 122.393 109.117 127.379 116.094C126.838 115.326 128.056 111.439 128.251 110.501C128.663 108.531 129.178 106.584 129.794 104.668C130.895 101.249 132.444 98.2027 134.149 95.0672C137.568 88.7791 142.376 83.3512 148.209 79.1953C149.232 78.4745 150.266 77.8051 151.311 77.187Z" fill="#FE554E"/>
<path d="M144.213 76.2626C140.267 80.1522 130.37 89.4558 130.949 90.6587C127.043 82.5497 126.38 73.6299 126.995 64.7398C127.111 63.0613 127.512 61.0638 129.076 60.434C130.262 59.9583 131.596 60.5124 132.728 61.1097C136.659 63.2006 140.213 65.9331 143.242 69.1943C144.682 70.7458 146.084 72.7298 145.648 74.803C145.41 75.0706 144.901 75.5842 144.213 76.2626Z" fill="#FE554E"/>
<path d="M132.36 135.109C146.993 137.772 137.338 112.015 133.805 107.398C133.318 106.76 132.752 106.117 131.983 105.895C131.115 105.644 130.2 105.982 129.36 106.314C123.121 108.788 120.915 110.288 120.836 117.424C120.777 122.87 123.002 128.876 127.217 132.457C128.703 133.72 130.427 134.76 132.36 135.109Z" fill="#FCB9A4"/>
<path d="M137.912 109.517C131.144 103.541 121.64 106.882 119.9 115.672C118.138 124.576 123.595 134.909 132.974 136.028C134.598 136.223 134.983 133.72 133.359 133.525C125.779 132.62 122.666 125.862 122.279 118.953C121.819 110.747 129.859 105.766 136.355 111.504C137.568 112.591 139.132 110.596 137.912 109.517Z" fill="black"/>
<path d="M139.113 120.564C137.76 117.686 135.408 115.78 132.888 113.929C131.572 112.961 129.997 114.945 131.315 115.918C133.442 117.486 135.597 119.067 136.753 121.519C137.465 122.984 139.812 122.048 139.113 120.564Z" fill="black"/>
<path d="M144.286 77.7979C143.523 76.6302 143.006 75.349 142.411 74.0921C141.799 72.9032 141.035 71.7991 140.137 70.808C138.176 68.5167 135.827 66.5864 133.199 65.1047C132.116 64.4803 131.12 66.1643 132.214 66.786C134.522 68.1152 136.608 69.798 138.393 71.773C140.332 73.8867 141.071 76.4356 142.6 78.7818C143.285 79.8305 144.974 78.8548 144.286 77.7979Z" fill="black"/>
<path d="M180.668 67.4725C180.103 66.5059 179.426 65.6103 178.648 64.8047C177.495 63.6722 175.941 63.0478 174.712 62.0071C173.759 61.1962 172.371 62.572 173.334 63.3856C174.298 64.1992 175.44 64.8615 176.515 65.5832C177.869 66.5022 178.651 67.9212 179.493 69.2835C179.604 69.4638 179.77 69.6033 179.968 69.6813C180.165 69.7592 180.382 69.7715 180.586 69.7161C180.791 69.6608 180.972 69.5408 181.103 69.3742C181.234 69.2076 181.307 69.0032 181.312 68.7916C181.312 68.6537 181.331 68.5213 181.342 68.3807C181.37 68.1715 181.315 67.9596 181.189 67.79C181.063 67.6204 180.876 67.5065 180.668 67.4725Z" fill="black"/>
<path d="M176.599 195.469C154.519 202.01 130.714 196.069 111.478 184.36C110.396 183.703 109.421 185.39 110.493 186.044C130.164 198.015 154.567 204.035 177.121 197.348C178.321 196.991 177.798 195.11 176.599 195.469Z" fill="black"/>
<path d="M55.4586 297.35C56.1558 296.785 56.8901 296.268 57.6567 295.801C72.7153 286.63 101.032 295.731 117.233 298.604C124.982 299.977 132.742 301.275 140.513 302.496C141.958 302.723 144.102 303.499 145.534 303.248C147.11 302.977 149.013 301.396 150.453 300.672C153.846 298.918 157.383 297.456 161.026 296.304C166.61 294.606 172.344 293.69 177.961 292.179C184.026 290.557 190.133 289.095 196.281 287.792C197.981 287.435 199.8 287.097 201.424 287.708C201.882 287.858 202.285 288.14 202.583 288.519C204.938 291.822 196.923 294.385 195.03 295.198C192.941 296.093 179.918 300.064 180.142 301.539C180.299 302.621 181.818 302.723 182.898 302.534C189.576 301.361 196.216 300.069 202.862 298.75C204.284 298.417 205.734 298.218 207.193 298.155C208.21 298.155 209.307 298.299 210.046 298.996C211.15 300.037 210.991 301.94 210.076 303.15C209.161 304.361 207.702 305.021 206.286 305.54C200.009 307.824 193.065 308.31 187.199 311.505C188.049 312.392 189.481 312.241 190.694 312.032C196.189 311.076 201.706 310.255 207.244 309.57C208.508 309.413 209.821 309.267 211.034 309.673C212.247 310.078 213.305 311.197 213.199 312.465C213.067 314.257 211.191 315.23 209.743 315.838C202.377 318.944 194.097 318.633 187.099 322.596C187.489 323.323 188.404 323.563 189.224 323.677C193.747 324.296 198.322 323.253 202.886 323.204C204.556 323.185 206.586 323.55 207.16 325.115C206.077 327.439 204.811 328.248 202.353 328.829C199.064 329.607 195.737 330.096 192.407 330.637C187.096 331.497 181.878 332.443 176.537 333.07C171.394 333.67 166.938 334.027 161.784 333.556C153.537 332.808 145.242 332.756 136.986 333.402C130.825 333.883 124.664 334.229 118.476 334.518C115.734 334.648 112.989 334.789 110.244 334.824C93.9349 335.094 72.2524 333.381 56.9177 327.504C43.8053 322.463 45.4132 305.478 55.4586 297.35Z" fill="#FCB9A4"/>
<path d="M146.089 309.678C144.138 294.614 161.584 290.073 168.557 279.405C169.872 277.391 170.801 275.08 172.476 273.364C173.343 272.469 174.661 271.72 175.795 272.237C181.379 274.777 172.292 291.99 170.381 295.296C167.101 300.895 163.055 306.01 158.36 310.494C156.265 312.514 150.626 316.838 147.83 314.114C146.985 313.303 146.541 312.132 146.314 310.976C146.218 310.534 146.143 310.102 146.089 309.678Z" fill="#FCB9A4"/>
<path d="M54.0077 203.262C60.8184 188.285 76.1748 172.737 93.7995 182.052C100.459 185.566 105.106 192.037 108.265 198.864C116.676 217.047 110.482 240.179 105.751 258.77C106.503 255.816 50.2965 247.931 46.1712 247.431C43.494 247.11 46.0764 233.262 49.008 221.112C51.0734 212.52 53.3256 204.77 54.0077 203.262Z" fill="#AF78FA"/>
<path d="M88.8242 228.105C90.7434 232.289 94.8011 231.057 98.2579 229.186C96.8584 232.159 96.0923 235.576 99.4381 236.738C104.281 238.417 107.077 231.162 108.734 227.878C109.394 226.567 107.38 225.518 106.712 226.829C105.994 228.254 105.307 229.684 104.497 231.059C103.783 232.276 102.31 234.992 100.58 234.708C97.259 234.168 101.577 227.797 102.454 226.44C103.098 225.443 101.728 224.388 100.829 224.961C98.6043 226.372 92.7087 231.116 90.849 227.081C88.9812 222.999 95.3696 218.745 98.515 217.661C99.901 217.182 99.2161 215.015 97.8275 215.498C93.1986 217.088 86.2608 222.513 88.8242 228.105Z" fill="white"/>
<path d="M65.7017 215.474C61.1297 216.036 61.0809 220.272 61.8199 224.124C59.4189 221.896 56.3763 220.131 54.2568 222.967C51.1898 227.07 57.275 231.922 59.9088 234.489C60.9618 235.514 62.5724 233.906 61.533 232.881C60.3907 231.768 59.2348 230.681 58.1656 229.497C57.2209 228.448 55.0688 226.226 55.862 224.667C57.3887 221.669 62.161 227.702 63.1923 228.943C63.9503 229.859 65.3579 228.873 65.0872 227.837C64.4104 225.291 61.6656 218.242 66.0752 217.699C70.5362 217.158 72.672 224.515 72.7559 227.837C72.7938 229.3 75.073 229.305 75.0351 227.837C74.9025 222.964 71.8166 214.723 65.7017 215.474Z" fill="white"/>
<path d="M83.026 190.874C80.6574 189.993 78.6949 190.969 77.2629 192.588C76.7216 189.971 75.4276 187.385 72.7776 187.333C68.0134 187.239 69.2775 194.445 69.9596 197.132C70.363 198.716 72.81 198.043 72.3959 196.459C72.2578 195.918 70.88 189.566 72.6828 189.863C75.046 190.25 75.1191 194.926 75.0757 196.54C75.027 198.059 77.0843 198.14 77.5661 196.875C78.278 195.01 80.0023 192.15 82.3926 193.361C84.6149 194.491 83.8976 197.824 83.2669 199.616C82.7255 201.162 85.1617 201.821 85.7031 200.291C86.8455 197.099 86.8455 192.299 83.026 190.874Z" fill="white"/>
<path d="M103.179 191.639C102.519 190.828 103.674 189.652 104.343 190.477C109.892 197.326 112.672 205.314 113.69 213.993C114.261 218.888 114.64 223.824 114.269 228.746C114.091 231.1 113.677 233.427 113.409 235.773C113.176 237.82 112.943 239.874 112.282 241.836C111.944 242.834 110.355 242.404 110.696 241.398C111.373 239.398 111.589 237.311 111.828 235.222C112.074 233.06 112.434 230.916 112.624 228.735C113.019 224.207 112.624 219.685 112.174 215.177C111.324 206.562 108.693 198.437 103.179 191.639Z" fill="black"/>
<path d="M131.345 300.264C135.161 301.261 139.113 302.123 143.071 302.207C144.002 302.229 144.933 302.145 145.846 301.956C146.89 301.74 146.985 301.066 147.248 300.158C147.845 298.116 148.975 296.269 150.523 294.806C153.996 291.42 158.871 289.852 162.066 286.17C163.771 284.205 165.043 281.786 166.448 279.602C167.743 277.55 169.211 275.612 170.836 273.81C171.551 273.028 172.752 274.15 172.038 274.931C168.462 278.834 166.34 283.751 162.888 287.725C159.275 291.89 153.314 293.19 150.071 297.815C149.463 298.761 149.015 299.8 148.745 300.891C148.577 301.461 148.425 302.15 148.006 302.602C146.923 303.759 145.028 303.81 143.553 303.845C139.352 303.951 135.021 302.918 130.982 301.864C129.956 301.599 130.319 299.996 131.345 300.264Z" fill="black"/>
<path d="M328.677 59.1149L327.762 55.7038C327.329 54.055 327.008 52.9612 326.798 52.4224C326.403 51.2601 326.342 50.2474 326.614 49.3842C326.859 48.6983 327.294 48.0957 327.867 47.6462C328.507 47.0979 329.186 46.5982 329.9 46.1515C333.837 43.7273 338.101 41.8795 342.563 40.6644C347.014 39.4535 352.162 39.8076 358.009 41.7267C362.068 42.9881 365.083 45.1595 367.056 48.2409C369.028 51.3223 370.201 54.4568 370.575 57.6445C370.948 60.8376 370.866 63.2955 370.328 65.0182C368.868 69.6728 366.512 73.338 363.261 76.0139C360.009 78.6899 356.594 80.4387 353.018 81.2604C349.441 82.0857 347.283 82.6191 346.545 82.8606C345.405 83.1687 344.322 83.8958 343.297 85.0419C342.272 86.188 341.625 87.1926 341.356 88.0557L339.139 95.597C338.847 96.8314 338.362 97.6972 337.686 98.1946C337.405 98.4292 337.071 98.5907 336.713 98.6648C336.355 98.7389 335.984 98.7231 335.634 98.6189L327.437 96.2025C325.934 95.5448 325.424 94.2969 325.908 92.4588C326.915 88.3287 327.648 85.5302 328.108 84.0634C330.487 76.7636 338.411 71.4306 351.881 68.0645C353.06 67.7326 354.125 67.0826 354.958 66.1859C355.825 65.3153 356.474 64.2532 356.853 63.0856C357.103 61.4525 357.021 59.7859 356.612 58.1851C356.19 56.3489 354.914 55.0515 352.785 54.2928C350.538 53.59 347.199 54.0405 342.769 55.6443C338.979 56.9666 335.282 58.5387 331.701 60.3502C331.428 60.5111 331.123 60.6071 330.807 60.6306C330.492 60.6541 330.176 60.6046 329.883 60.4858C329.59 60.367 329.328 60.1822 329.118 59.9458C328.909 59.7094 328.757 59.4278 328.674 59.123L328.677 59.1149ZM332.093 110.426C332.856 110.66 333.53 111.117 334.028 111.739C334.28 112.049 334.446 112.419 334.509 112.813C334.573 113.206 334.532 113.61 334.391 113.983L332.226 121.392C332.009 122.083 331.42 122.681 330.458 123.184C329.496 123.686 328.626 123.817 327.849 123.576L324.059 122.532C322.978 122.183 321.922 121.758 320.9 121.262C320.064 120.901 319.504 119.97 319.219 118.467C319.089 117.669 319.443 115.933 320.28 113.261C320.722 111.882 321.241 110.528 321.834 109.206C321.942 108.863 322.321 108.558 322.973 108.285C323.626 108.012 324.126 107.936 324.473 108.044C325.881 108.38 327.271 108.79 328.636 109.271C330.407 109.88 331.568 110.263 332.093 110.426Z" fill="#AF78FA"/>
<path d="M204.001 164.307C204.305 164.163 204.566 163.944 204.762 163.671C206.302 161.733 206.007 158.966 205.631 156.519C205.273 154.189 205.068 152.943 203.525 151.159C202.025 149.424 200.006 148.324 198.173 147C195.908 145.364 182.668 132.674 180.532 139.107C180.339 139.782 180.339 140.497 180.532 141.172C181.415 144.734 184.536 147.118 187.096 149.459C191.387 153.373 195.369 157.622 199.278 161.852C200.404 163.077 202.104 165.096 204.001 164.307Z" fill="#FCB9A4"/>
<path d="M204.475 141.726C208.535 134.698 215.056 126.589 222.119 129.773C224.72 130.952 227.327 133.087 229.387 135.044C237.995 143.223 240.464 155.303 244.992 165.858C251.437 180.9 256.919 196.283 262.211 211.755C267.66 227.197 272.227 242.685 270.38 259.219C269.414 267.944 264.645 275.564 256.96 280.01C249.827 284.132 241.782 280.708 237.589 274.064C229.82 261.741 229.116 246.431 227.657 232.378C226.707 223.221 226.455 213.998 226.122 204.808C225.954 200.116 225.768 195.423 225.454 190.736C225.221 187.241 225.814 180.968 224.049 177.886C222.882 175.846 219.737 175.167 217.715 174.194C214.978 172.915 212.343 171.427 209.835 169.745C205.26 166.602 200.794 162.277 199.954 156.53C199.524 153.573 200.149 150.584 201.351 147.881C202.287 145.777 203.33 143.723 204.475 141.726Z" fill="#FCB9A4"/>
<path d="M206.243 143.413C210.132 140.126 213.906 136.628 217.882 133.568C218.265 133.236 218.705 132.977 219.182 132.803C220.735 132.344 222.194 133.76 223.026 135.15C226.168 140.41 226.184 147.043 229.138 152.416C229.452 152.981 229.806 153.633 229.584 154.238C229.362 154.844 228.713 155.1 228.125 155.319C223.545 156.96 219.691 160.814 217.66 165.18C217.56 165.449 217.404 165.694 217.203 165.899C216.843 166.212 216.318 166.22 215.849 166.231C213.37 166.295 210.934 166.891 208.706 167.98C208.401 168.162 208.058 168.272 207.704 168.302C207.217 168.302 206.797 167.975 206.424 167.661C204.123 165.723 201.183 163.436 200.469 160.458C200.038 158.679 199.437 156.944 199.05 155.157C198.92 154.544 197.735 149.835 198.187 149.54C200.999 147.67 203.69 145.623 206.243 143.413Z" fill="#F59776"/>
<path d="M223.494 161.669C225.764 162.087 227.814 163.289 229.287 165.064C234.238 171.01 228.946 175.875 223.302 178.243C220.532 179.406 217.287 180.457 214.258 180.6C208.211 180.87 202.247 177.762 197.245 174.7C191.858 171.402 188.312 167.002 183.515 163.058C182.874 162.517 182.146 161.952 182.037 161.131C181.78 159.19 184.652 156.784 186.349 156.752C191.222 156.665 194.254 161.347 198.241 163.353C201.235 164.869 205.33 166.866 208.614 165.036C212.718 162.742 218.564 160.674 223.494 161.669Z" fill="#FCB9A4"/>
<path d="M228.688 137.196C228.577 137.227 228.475 137.285 228.391 137.363C226.48 139.107 226.899 143.58 226.225 145.913C225.824 147.286 225.294 148.651 224.411 149.778C223.529 150.905 222.246 151.778 220.819 151.916C219.642 152.032 218.269 151.459 217.999 150.294C217.934 149.91 217.934 149.517 217.999 149.132C218.321 146.024 218.673 142.915 218.965 139.81C219.22 137.085 219.285 133.482 221.044 131.271C221.632 130.482 222.466 129.912 223.415 129.649C227.809 128.603 230.356 133.239 232.121 136.347C232.738 137.428 233.344 138.591 233.407 139.842C232.44 139.172 229.909 136.831 228.688 137.196Z" fill="#FCB9A4"/>
<path d="M211.862 156.006C211.248 156.042 210.639 155.869 210.135 155.517C209.039 154.735 208.644 153.308 208.416 151.981C207.929 149.138 207.859 146.24 207.794 143.356C207.725 141.928 207.759 140.497 207.896 139.074C208.3 135.674 209.645 131.76 211.548 128.922C211.81 128.475 212.169 128.093 212.598 127.803C213.14 127.489 213.792 127.468 214.415 127.495C216.739 127.598 219.003 128.27 221.006 129.452C221.197 129.548 221.365 129.684 221.499 129.852C221.851 130.365 221.499 131.055 221.15 131.571L218.091 136.09C217.356 136.985 216.956 138.107 216.959 139.264C216.605 143.661 216.718 148.089 215.571 152.387C215.408 153.13 215.112 153.838 214.696 154.476C214.365 154.923 213.939 155.291 213.449 155.555C212.96 155.82 212.418 155.973 211.862 156.006Z" fill="#FCB9A4"/>
<path d="M197.643 143.569C197.215 141.258 197.02 138.953 198.184 136.693C199.121 134.871 201.662 133.847 203.549 133.509C205.858 133.093 208.229 133.379 210.557 133.666C210.2 133.622 207.49 137.874 207.25 138.382C206.619 139.715 207.12 141.415 207.166 142.867C207.325 147.705 208.135 154.549 205.076 158.679C204.448 159.528 203.487 160.336 202.453 160.122C201.481 159.925 200.915 158.922 200.558 158.001C198.742 153.306 198.558 148.489 197.643 143.569Z" fill="#FCB9A4"/>
<path d="M207.274 141.25C206.885 138.815 207.383 136.322 208.679 134.223C207.914 136.836 207.606 139.562 207.769 142.28C207.447 142.061 207.336 141.634 207.274 141.25Z" fill="#F5865E"/>
<path d="M226.063 145.251C226.807 142.567 227.378 139.839 227.771 137.082C228.243 139.587 228.056 142.172 227.229 144.583C226.471 146.789 225.202 148.778 223.943 150.743L226.859 142.55L226.063 145.251Z" fill="#F5865E"/>
<path d="M410.854 327.464H34.6126C32.0651 327.464 30 329.526 30 332.07V332.164C30 334.708 32.0651 336.77 34.6126 336.77H410.854C413.401 336.77 415.466 334.708 415.466 332.164V332.07C415.466 329.526 413.401 327.464 410.854 327.464Z" fill="#96BCDD"/>
<path d="M219.969 321.35H364.365C366.343 321.349 368.258 320.653 369.773 319.383C371.288 318.113 372.307 316.351 372.651 314.406L390.246 214.752C390.461 213.544 390.408 212.303 390.09 211.117C389.773 209.931 389.2 208.829 388.41 207.888C387.62 206.948 386.634 206.191 385.52 205.672C384.406 205.153 383.192 204.884 381.963 204.884H237.567C235.589 204.884 233.673 205.58 232.158 206.85C230.642 208.12 229.623 209.882 229.279 211.828L211.683 311.481C211.469 312.69 211.522 313.931 211.839 315.117C212.156 316.303 212.73 317.405 213.52 318.346C214.31 319.287 215.297 320.043 216.411 320.562C217.525 321.081 218.74 321.35 219.969 321.35Z" fill="#699FCE"/>
<path d="M228.147 321.35H357.625C361.287 321.35 364.419 318.538 365.055 314.684L380.837 219.015C381.649 214.077 378.094 209.555 373.403 209.555H243.937C240.277 209.555 237.142 212.366 236.506 216.223L220.727 311.889C219.913 316.822 223.467 321.35 228.147 321.35Z" fill="#74A6D2"/>
<path d="M166.516 328.377H360.21V321.001H171.399C170.112 321.001 168.878 321.509 167.965 322.414C167.052 323.32 166.535 324.549 166.527 325.834L166.516 328.377Z" fill="#699FCE"/>
<path d="M324.007 238.052C349.454 238.052 370.082 235.637 370.082 232.657C370.082 229.677 349.454 227.262 324.007 227.262C298.561 227.262 277.933 229.677 277.933 232.657C277.933 235.637 298.561 238.052 324.007 238.052Z" fill="#699FCE"/>
<path d="M484.658 152.624H483.045V297.574H484.658V152.624Z" fill="#67A4C3"/>
<path d="M556.43 223.848H411.268V225.459H556.43V223.848Z" fill="#67A4C3"/>
<path d="M536.222 221.58C522.712 221.58 511.917 217.645 504.064 209.838C495.57 201.394 492.191 189.907 490.854 181.757C489.98 176.537 489.685 171.237 489.974 165.953L491.328 166.069C491.046 171.253 491.339 176.453 492.2 181.573C493.51 189.515 496.801 200.697 505.028 208.873C513.847 217.639 526.575 221.353 542.857 219.91L542.979 221.261C540.66 221.474 538.408 221.58 536.222 221.58Z" fill="#67A4C3"/>
<path d="M480.024 285.227L478.67 285.113C478.952 279.928 478.659 274.728 477.796 269.607C476.489 261.665 473.194 250.483 464.971 242.306C456.151 233.541 443.421 229.827 427.141 231.27L427.02 229.919C443.724 228.437 456.82 232.284 465.94 241.35C474.434 249.796 477.812 261.284 479.152 269.434C480.023 274.65 480.315 279.947 480.024 285.227Z" fill="#67A4C3"/>
<path d="M489.928 162.012L483.876 149.684L478.332 161.99L477.084 161.431L483.824 146.475L491.155 161.409L489.928 162.012Z" fill="#67A4C3"/>
<path d="M551.021 232.057L550.42 230.832L562.766 224.788L550.442 219.253L551.002 218.007L565.98 224.737L551.021 232.057Z" fill="#67A4C3"/>
<path d="M573.689 215.606H576.466L578.423 218.55C578.876 219.192 579.348 219.928 579.839 220.758H579.896C580.237 220.153 580.708 219.407 581.284 218.52L583.179 215.606H585.886L581.211 222.229L586 229.305H583.215L581.174 226.221C580.795 225.653 580.303 224.861 579.698 223.842H579.641C579.225 224.578 578.743 225.371 578.196 226.221L576.212 229.305H573.462L578.334 222.315L573.689 215.606Z" fill="#67A4C3"/>
<path d="M476.594 122.316H479.317L482.295 130.425C482.645 131.343 482.948 132.279 483.202 133.228H483.259C483.278 133.171 483.397 132.779 483.613 132.052C483.83 131.325 484.006 130.765 484.138 130.368L486.845 122.329H489.482L485.741 132.095C485.041 133.991 484.228 135.844 483.305 137.642C482.729 138.779 481.957 139.805 481.023 140.672C479.983 141.54 478.963 142.068 477.961 142.256L477.339 140.191C478.142 139.939 478.885 139.525 479.52 138.974C480.434 138.232 481.154 137.28 481.618 136.198C481.716 136.012 481.784 135.811 481.819 135.604C481.796 135.376 481.728 135.156 481.618 134.955L476.594 122.316Z" fill="#67A4C3"/>
</svg>
