<svg width="20" height="20" viewBox="0 0 20 20" fill="none" xmlns="http://www.w3.org/2000/svg">
<path d="M16.4374 7.27967C16.4422 8.55331 16.2127 9.78308 15.6504 10.9339C15.0396 12.1832 14.1345 13.143 12.8089 13.6283C11.7991 13.9988 10.7671 14.09 9.7574 13.6067C9.49147 13.4798 9.25051 13.3016 8.98593 13.139C8.90021 13.4683 8.80639 13.8099 8.72337 14.1541C8.49794 15.0929 8.22661 16.0163 7.80813 16.891C7.6016 17.3223 7.37954 17.7448 7.02316 18.0762C6.95634 18.1383 6.88007 18.1923 6.8011 18.2396C6.49805 18.4198 6.19702 18.3361 6.033 18.0256C5.86629 17.7097 5.83389 17.3642 5.82444 17.0159C5.79339 15.8239 6.01006 14.6657 6.29286 13.5142C6.61212 12.2156 6.91315 10.9116 7.2162 9.60894C7.23645 9.5212 7.22632 9.41658 7.19865 9.32951C6.86927 8.2894 6.84362 7.26955 7.41126 6.29761C7.72377 5.76305 8.17329 5.40127 8.80437 5.30205C9.69463 5.16166 10.4803 5.80355 10.5458 6.70259C10.5937 7.35257 10.4101 7.958 10.2393 8.56816C10.0807 9.13107 9.90859 9.68994 9.75065 10.2528C9.66291 10.5654 9.67101 10.8772 9.83772 11.1667C10.1219 11.6581 10.5768 11.8181 11.1093 11.7701C11.7343 11.7148 12.1913 11.3571 12.5591 10.8758C13.0296 10.2603 13.2901 9.55157 13.4467 8.8017C13.6046 8.04372 13.6877 7.279 13.5756 6.50752C13.3954 5.26223 12.7002 4.41786 11.5109 4.03179C10.3109 3.64234 9.11147 3.69769 7.96945 4.26532C6.78558 4.85321 6.08565 5.83324 5.79744 7.10958C5.65165 7.75821 5.62466 8.41427 5.89194 9.04333C5.98576 9.26404 6.12345 9.47193 6.26991 9.66429C6.44473 9.8931 6.5156 10.1273 6.43798 10.4074C6.37251 10.6423 6.32053 10.8806 6.25304 11.1148C6.12075 11.5778 5.79002 11.7296 5.35265 11.5346C4.48466 11.1478 3.94469 10.4628 3.64569 9.58734C3.15837 8.16251 3.24342 6.75253 3.89407 5.3979C4.85048 3.40813 6.47105 2.26881 8.60863 1.83009C8.94138 1.76192 9.28426 1.73897 9.62241 1.69375C9.65886 1.68902 9.69463 1.6762 9.73041 1.66675H10.6423C10.8245 1.68835 11.0067 1.70792 11.189 1.73222C12.7421 1.93471 14.0751 2.57591 15.1078 3.76788C15.9758 4.77019 16.4334 5.94596 16.4374 7.27967Z" fill="#F57005"/>
</svg>
