<svg width="20" height="20" viewBox="0 0 20 20" fill="none" xmlns="http://www.w3.org/2000/svg">
<path d="M18.3293 6.30987C18.3179 4.51356 17.517 3.15053 15.9673 2.2432C15.2853 1.84374 14.5317 1.67092 13.7413 1.67051C11.2464 1.66847 8.75142 1.66236 6.25647 1.67214C4.22578 1.67989 2.52932 2.91941 1.88694 4.85513C1.79237 5.14045 1.75773 5.44616 1.69577 5.74249C1.68477 5.79507 1.6758 5.84806 1.66602 5.90064V14.1025C1.71085 14.3519 1.73531 14.6071 1.80338 14.85C2.32022 16.6948 3.51899 17.828 5.38786 18.2503C5.55539 18.2882 5.7278 18.3061 5.89777 18.3334H14.1012C14.3511 18.2886 14.6063 18.2641 14.8496 18.1961C16.6924 17.68 17.8288 16.4833 18.2445 14.6165C18.3114 14.3177 18.3285 14.003 18.3293 13.6957C18.3358 11.2337 18.3448 8.77181 18.3293 6.30987ZM10.0068 14.5688C7.49762 14.583 5.43025 12.5189 5.43147 10.0007C5.4327 7.485 7.46624 5.4486 9.99217 5.43434C12.5014 5.42007 14.5688 7.48378 14.5675 10.002C14.5663 12.5177 12.5328 14.5541 10.0068 14.5688ZM14.8431 6.54669C14.089 6.54425 13.4548 5.9092 13.4552 5.15676C13.4552 4.40187 14.0874 3.77253 14.8451 3.77335C15.6069 3.77375 16.231 4.39861 16.2289 5.1592C16.2273 5.91735 15.5963 6.54914 14.8431 6.54669Z" fill="#F57005"/>
<path d="M1.66602 14.1028C1.71085 14.3522 1.73531 14.6074 1.80338 14.8503C2.32022 16.6952 3.51899 17.8283 5.38786 18.2506C5.55539 18.2885 5.7278 18.3064 5.89777 18.3337C4.48705 18.3337 3.07633 18.3337 1.66602 18.3337C1.66602 16.9234 1.66602 15.5131 1.66602 14.1028Z" fill="white"/>
<path d="M13.5834 10.0094C13.5768 11.9912 11.9595 13.5975 9.98421 13.5845C8.0057 13.5714 6.40951 11.9655 6.41604 9.99389C6.42256 8.01252 8.04034 6.40533 10.0156 6.41878C11.9941 6.43183 13.5899 8.03779 13.5834 10.0094Z" fill="#F57005"/>
<path d="M15.244 5.15567C15.2448 5.37496 15.0594 5.56164 14.8425 5.56042C14.6277 5.5592 14.4382 5.36599 14.4414 5.15159C14.4451 4.94086 14.6261 4.7607 14.838 4.75785C15.0602 4.75499 15.2432 4.93434 15.244 5.15567Z" fill="#F57005"/>
</svg>
