<svg width="66" height="9" viewBox="0 0 66 9" fill="none" xmlns="http://www.w3.org/2000/svg">
<path d="M5.2928 0.647852L6.08702 2.23978C6.19532 2.46139 6.48413 2.67395 6.72781 2.71465L8.16733 2.95434C9.0879 3.10811 9.30451 3.77744 8.64115 4.43773L7.52203 5.55932C7.3325 5.74926 7.22871 6.11559 7.28737 6.3779L7.60777 7.76631C7.86047 8.86529 7.27835 9.29041 6.30814 8.71604L4.95887 7.91556C4.71519 7.77083 4.31357 7.77083 4.06537 7.91556L2.71611 8.71604C1.75041 9.29041 1.16377 8.86076 1.41648 7.76631L1.73687 6.3779C1.79553 6.11559 1.69174 5.74926 1.50222 5.55932L0.38309 4.43773C-0.275751 3.77744 -0.0636581 3.10811 0.856913 2.95434L2.29643 2.71465C2.5356 2.67395 2.82441 2.46139 2.93271 2.23978L3.72693 0.647852C4.16014 -0.215951 4.86411 -0.215951 5.2928 0.647852Z" fill="#F57005"/>
<path d="M19.3162 0.647852L20.1105 2.23978C20.2188 2.46139 20.5076 2.67395 20.7512 2.71465L22.1908 2.95434C23.1113 3.10811 23.3279 3.77744 22.6646 4.43773L21.5455 5.55932C21.3559 5.74926 21.2521 6.11559 21.3108 6.3779L21.6312 7.76631C21.8839 8.86529 21.3018 9.29041 20.3316 8.71604L18.9823 7.91556C18.7386 7.77083 18.337 7.77083 18.0888 7.91556L16.7395 8.71604C15.7738 9.29041 15.1872 8.86076 15.4399 7.76631L15.7603 6.3779C15.819 6.11559 15.7152 5.74926 15.5257 5.55932L14.4065 4.43773C13.7477 3.77744 13.9598 3.10811 14.8804 2.95434L16.3199 2.71465C16.559 2.67395 16.8478 2.46139 16.9561 2.23978L17.7504 0.647852C18.1836 -0.215951 18.8875 -0.215951 19.3162 0.647852Z" fill="#F57005"/>
<path d="M33.3475 0.647852L34.1417 2.23978C34.25 2.46139 34.5388 2.67395 34.7825 2.71465L36.222 2.95434C37.1426 3.10811 37.3592 3.77744 36.6958 4.43773L35.5767 5.55932C35.3872 5.74926 35.2834 6.11559 35.3421 6.3779L35.6625 7.76631C35.9152 8.86529 35.333 9.29041 34.3628 8.71604L33.0136 7.91556C32.7699 7.77083 32.3683 7.77083 32.1201 7.91556L30.7708 8.71604C29.8051 9.29041 29.2185 8.86076 29.4712 7.76631L29.7916 6.3779C29.8502 6.11559 29.7464 5.74926 29.5569 5.55932L28.4378 4.43773C27.7789 3.77744 27.991 3.10811 28.9116 2.95434L30.3511 2.71465C30.5903 2.67395 30.8791 2.46139 30.9874 2.23978L31.7816 0.647852C32.2148 -0.215951 32.9188 -0.215951 33.3475 0.647852Z" fill="#F57005"/>
<path d="M47.3709 0.647852L48.1651 2.23978C48.2734 2.46139 48.5623 2.67395 48.8059 2.71465L50.2455 2.95434C51.166 3.10811 51.3826 3.77744 50.7193 4.43773L49.6002 5.55932C49.4106 5.74926 49.3068 6.11559 49.3655 6.3779L49.6859 7.76631C49.9386 8.86529 49.3565 9.29041 48.3863 8.71604L47.037 7.91556C46.7933 7.77083 46.3917 7.77083 46.1435 7.91556L44.7942 8.71604C43.8285 9.29041 43.2419 8.86076 43.4946 7.76631L43.815 6.3779C43.8737 6.11559 43.7699 5.74926 43.5803 5.55932L42.4612 4.43773C41.8024 3.77744 42.0145 3.10811 42.935 2.95434L44.3746 2.71465C44.6137 2.67395 44.9025 2.46139 45.0108 2.23978L45.8051 0.647852C46.2383 -0.215951 46.9422 -0.215951 47.3709 0.647852Z" fill="#F57005"/>
<path d="M61.3944 0.647852L62.1886 2.23978C62.2969 2.46139 62.5857 2.67395 62.8294 2.71465L64.2689 2.95434C65.1895 3.10811 65.4061 3.77744 64.7427 4.43773L63.6236 5.55932C63.4341 5.74926 63.3303 6.11559 63.3889 6.3779L63.7093 7.76631C63.962 8.86529 63.3799 9.29041 62.4097 8.71604L61.0604 7.91556C60.8168 7.77083 60.4151 7.77083 60.1669 7.91556L58.8177 8.71604C57.852 9.29041 57.2653 8.86076 57.518 7.76631L57.8384 6.3779C57.8971 6.11559 57.7933 5.74926 57.6038 5.55932L56.4847 4.43773C55.8258 3.77744 56.0379 3.10811 56.9585 2.95434L58.398 2.71465C58.6372 2.67395 58.926 2.46139 59.0343 2.23978L59.8285 0.647852C60.2617 -0.215951 60.9657 -0.215951 61.3944 0.647852Z" fill="#F57005"/>
</svg>
