<svg width="46" height="58" viewBox="0 0 46 58" fill="none" xmlns="http://www.w3.org/2000/svg">
<path d="M4.97296 16.9166V50.75C4.97296 52.7558 7.3102 53.8916 8.95128 52.6833L13.2032 49.59C14.1978 48.865 15.5903 48.9617 16.4854 49.8316L20.6129 53.8675C21.5826 54.81 23.1741 54.81 24.1438 53.8675L28.3211 49.8075C29.1914 48.9617 30.5838 48.865 31.5535 49.59L35.8055 52.6833C37.4465 53.8675 39.7838 52.7316 39.7838 50.75V9.66665C39.7838 7.00831 42.0216 4.83331 44.7567 4.83331H17.4054H14.9189C7.45945 4.83331 4.97296 9.15915 4.97296 14.5V16.9166Z" fill="#FF0000"/>
<path d="M11.32 33C11.232 33 11.164 32.976 11.116 32.928C11.068 32.872 11.044 32.804 11.044 32.724V24.888C11.044 24.8 11.068 24.732 11.116 24.684C11.164 24.628 11.232 24.6 11.32 24.6H11.872C11.968 24.6 12.04 24.624 12.088 24.672C12.136 24.712 12.164 24.744 12.172 24.768L16.156 30.888V24.888C16.156 24.8 16.18 24.732 16.228 24.684C16.276 24.628 16.344 24.6 16.432 24.6H17.008C17.096 24.6 17.164 24.628 17.212 24.684C17.268 24.732 17.296 24.8 17.296 24.888V32.712C17.296 32.792 17.268 32.86 17.212 32.916C17.164 32.972 17.1 33 17.02 33H16.444C16.356 33 16.288 32.976 16.24 32.928C16.2 32.88 16.172 32.848 16.156 32.832L12.184 26.772V32.724C12.184 32.804 12.156 32.872 12.1 32.928C12.052 32.976 11.984 33 11.896 33H11.32ZM21.944 33.12C21.12 33.12 20.464 32.868 19.976 32.364C19.488 31.852 19.22 31.156 19.172 30.276C19.164 30.172 19.16 30.04 19.16 29.88C19.16 29.712 19.164 29.576 19.172 29.472C19.204 28.904 19.336 28.408 19.568 27.984C19.8 27.552 20.116 27.22 20.516 26.988C20.924 26.756 21.4 26.64 21.944 26.64C22.552 26.64 23.06 26.768 23.468 27.024C23.884 27.28 24.2 27.644 24.416 28.116C24.632 28.588 24.74 29.14 24.74 29.772V29.976C24.74 30.064 24.712 30.132 24.656 30.18C24.608 30.228 24.544 30.252 24.464 30.252H20.312C20.312 30.26 20.312 30.276 20.312 30.3C20.312 30.324 20.312 30.344 20.312 30.36C20.328 30.688 20.4 30.996 20.528 31.284C20.656 31.564 20.84 31.792 21.08 31.968C21.32 32.144 21.608 32.232 21.944 32.232C22.232 32.232 22.472 32.188 22.664 32.1C22.856 32.012 23.012 31.916 23.132 31.812C23.252 31.7 23.332 31.616 23.372 31.56C23.444 31.456 23.5 31.396 23.54 31.38C23.58 31.356 23.644 31.344 23.732 31.344H24.308C24.388 31.344 24.452 31.368 24.5 31.416C24.556 31.456 24.58 31.516 24.572 31.596C24.564 31.716 24.5 31.864 24.38 32.04C24.26 32.208 24.088 32.376 23.864 32.544C23.64 32.712 23.368 32.852 23.048 32.964C22.728 33.068 22.36 33.12 21.944 33.12ZM20.312 29.424H23.6V29.388C23.6 29.028 23.532 28.708 23.396 28.428C23.268 28.148 23.08 27.928 22.832 27.768C22.584 27.6 22.288 27.516 21.944 27.516C21.6 27.516 21.304 27.6 21.056 27.768C20.816 27.928 20.632 28.148 20.504 28.428C20.376 28.708 20.312 29.028 20.312 29.388V29.424ZM27.9068 33C27.8028 33 27.7228 32.976 27.6668 32.928C27.6108 32.872 27.5628 32.796 27.5228 32.7L25.8188 27.132C25.8028 27.092 25.7948 27.052 25.7948 27.012C25.7948 26.94 25.8188 26.88 25.8668 26.832C25.9228 26.784 25.9828 26.76 26.0468 26.76H26.5748C26.6628 26.76 26.7308 26.784 26.7788 26.832C26.8268 26.88 26.8588 26.924 26.8748 26.964L28.2068 31.488L29.6348 27.012C29.6508 26.956 29.6828 26.9 29.7308 26.844C29.7868 26.788 29.8668 26.76 29.9708 26.76H30.3788C30.4828 26.76 30.5628 26.788 30.6188 26.844C30.6748 26.9 30.7068 26.956 30.7148 27.012L32.1428 31.488L33.4748 26.964C33.4828 26.924 33.5108 26.88 33.5588 26.832C33.6068 26.784 33.6748 26.76 33.7628 26.76H34.2908C34.3628 26.76 34.4228 26.784 34.4708 26.832C34.5188 26.88 34.5428 26.94 34.5428 27.012C34.5428 27.052 34.5348 27.092 34.5188 27.132L32.8148 32.7C32.7908 32.796 32.7468 32.872 32.6828 32.928C32.6268 32.976 32.5428 33 32.4308 33H31.9628C31.8588 33 31.7708 32.976 31.6988 32.928C31.6348 32.872 31.5908 32.796 31.5668 32.7L30.1748 28.404L28.7828 32.7C28.7508 32.796 28.7028 32.872 28.6388 32.928C28.5748 32.976 28.4868 33 28.3748 33H27.9068Z" fill="white"/>
</svg>
